<?xml version="1.0" encoding="UTF-8" standalone="no"?>
<svg width="240px" height="240px" viewBox="0 0 240 240" version="1.1" xmlns="http://www.w3.org/2000/svg" xmlns:xlink="http://www.w3.org/1999/xlink" xmlns:sketch="http://www.bohemiancoding.com/sketch/ns">
    <!-- Generator: Sketch 3.3.3 (12072) - http://www.bohemiancoding.com/sketch -->
    <title>hp1_5</title>
    <desc>Created with Sketch.</desc>
    <defs></defs>
    <g id="Page-1" stroke="none" stroke-width="1" fill="none" fill-rule="evenodd" sketch:type="MSPage">
        <g id="Imported-Layers" sketch:type="MSLayerGroup" transform="translate(119.689655, 120.000000) rotate(-270.000000) translate(-119.689655, -120.000000) translate(39.000000, 30.000000)">
            <path d="M17.5236207,146.203389 L160.670172,146.203389 L160.670172,179.279921 L17.5236207,179.279921 L17.5236207,146.203389 Z" id="Fill-1" fill="#E48A39" sketch:type="MSShapeGroup"></path>
            <path d="M46.2305172,113.121318 L160.670172,113.121318 L160.670172,146.203389 L46.2305172,146.203389 L46.2305172,113.121318 Z" id="Fill-2" fill="#F2DD93" sketch:type="MSShapeGroup"></path>
            <path d="M74.9374138,80.0420166 L160.670172,80.0420166 L160.670172,113.124088 L74.9374138,113.124088 L74.9374138,80.0420166 Z" id="Fill-3" fill="#E48A39" sketch:type="MSShapeGroup"></path>
            <path d="M104.808103,46.9654845 L160.670172,46.9654845 L160.670172,80.0475557 L104.808103,80.0475557 L104.808103,46.9654845 Z" id="Fill-4" fill="#F2DD93" sketch:type="MSShapeGroup"></path>
            <path d="M132.739138,13.8834134 L160.670172,13.8834134 L160.670172,46.9710236 L132.739138,46.9710236 L132.739138,13.8834134 Z" id="Fill-5" fill="#E48A39" sketch:type="MSShapeGroup"></path>
            <path d="M146.704655,146.203389 L160.670172,146.203389 L160.670172,179.279921 L146.704655,179.279921 L146.704655,146.203389 Z" id="Fill-8" fill="#CC7B33" sketch:type="MSShapeGroup"></path>
            <path d="M146.704655,113.126857 L160.670172,113.126857 L160.670172,146.203389 L146.704655,146.203389 L146.704655,113.126857 Z" id="Fill-9" fill="#D8C683" sketch:type="MSShapeGroup"></path>
            <path d="M146.704655,80.0475557 L160.670172,80.0475557 L160.670172,113.124088 L146.704655,113.124088 L146.704655,80.0475557 Z" id="Fill-10" fill="#CC7B33" sketch:type="MSShapeGroup"></path>
            <path d="M146.704655,46.9710236 L160.670172,46.9710236 L160.670172,80.0503252 L146.704655,80.0503252 L146.704655,46.9710236 Z" id="Fill-11" fill="#D8C683" sketch:type="MSShapeGroup"></path>
            <path d="M146.704655,13.8834134 L160.670172,13.8834134 L160.670172,46.9710236 L146.704655,46.9710236 L146.704655,13.8834134 Z" id="Fill-12" fill="#CC7B33" sketch:type="MSShapeGroup"></path>
            <path d="M58.3000985,46.2503003 L72.3758934,60.3260952 L72.7524048,22.0008602 L32.8754456,20.8256474 L47.1394962,35.089698 L14.9983185,67.2308758 L26.1589208,78.3914781 L58.3000985,46.2503003 L58.3000985,46.2503003 Z" id="Triangle-1" fill="#EF7878" sketch:type="MSShapeGroup"></path>
        </g>
    </g>
</svg>