<?xml version="1.0" encoding="UTF-8" standalone="no"?>
<svg width="240px" height="240px" viewBox="0 0 240 240" version="1.1" xmlns="http://www.w3.org/2000/svg" xmlns:xlink="http://www.w3.org/1999/xlink" xmlns:sketch="http://www.bohemiancoding.com/sketch/ns">
    <!-- Generator: Sketch 3.3.3 (12072) - http://www.bohemiancoding.com/sketch -->
    <title>hp1_4</title>
    <desc>Created with Sketch.</desc>
    <defs></defs>
    <g id="Page-1" stroke="none" stroke-width="1" fill="none" fill-rule="evenodd" sketch:type="MSPage">
        <g id="Imported-Layers" sketch:type="MSLayerGroup" transform="translate(49.000000, 35.000000)">
            <g id="Group" sketch:type="MSShapeGroup">
                <path d="M92.0491715,162.359551 L5.70051863,162.359551 L15.8276963,134.70311 L81.9192904,134.70311 L92.0491715,162.359551" id="Fill-1" fill="#42A437"></path>
                <path d="M92.0491715,156.736345 L5.70051863,156.736345 L15.8276963,129.085311 L81.9192904,129.085311 L92.0491715,156.736345" id="Fill-2" fill="#188A3B"></path>
                <path d="M92.0491715,151.113139 L5.70051863,151.113139 L15.8276963,123.464808 L81.9192904,123.464808 L92.0491715,151.113139" id="Fill-3" fill="#42A437"></path>
                <path d="M92.0491715,145.489933 L5.70051863,145.489933 L15.8276963,117.838899 L81.9192904,117.838899 L92.0491715,145.489933" id="Fill-4" fill="#188A3B"></path>
                <path d="M92.0491715,139.872134 L5.70051863,139.872134 L15.8276963,112.215693 L81.9192904,112.215693 L92.0491715,139.872134" id="Fill-5" fill="#42A437"></path>
                <path d="M49.7453606,133.81367 L49.7453606,136.414403 L47.3419807,136.414403 L47.3419807,133.908291 C45.0656637,133.835298 43.2813772,133.25946 41.7404025,131.729299 L43.8761394,129.639521 C44.8737177,130.615472 46.2254499,130.985846 47.6528791,131.034509 L47.6528791,126.833325 L46.8932057,126.738704 C45.4684799,126.554868 44.3276179,126.043913 43.6139033,125.346419 C42.8109744,124.559711 42.4054548,123.516174 42.4054548,122.126593 C42.4054548,119.458274 44.2573279,117.484745 47.3419807,117.160329 L47.3419807,115.073255 L49.7453606,115.073255 L49.7453606,117.138702 C51.6648203,117.254951 53.1355049,117.836195 54.4142436,119.039237 L52.3271691,121.056021 C51.5431644,120.317976 50.3806747,120.015188 49.4074275,119.944898 L49.4074275,123.98117 L50.3076812,124.119047 C51.8513594,124.354248 52.8219031,124.767878 53.5410246,125.41671 C54.4412783,126.25208 54.841391,127.436197 54.841391,128.896068 C54.841391,131.729299 52.7056541,133.47033 49.7453606,133.81367 L49.7453606,133.81367 Z M47.6528791,119.969229 C46.2714088,120.155768 45.5847289,120.985731 45.5847289,122.007641 C45.5847289,122.429381 45.7280125,122.864639 46.0821663,123.194462 C46.4606514,123.540505 46.9878269,123.748672 47.6528791,123.84059 L47.6528791,119.969229 L47.6528791,119.969229 Z M51.0943893,127.595702 C50.6158761,127.157741 50.0265209,127.090154 49.4074275,126.998236 L49.4074275,130.985846 C50.8294498,130.826342 51.616158,130.126145 51.616158,128.987986 C51.616158,128.409445 51.4485432,127.922821 51.0943893,127.595702 L51.0943893,127.595702 Z" id="Fill-6" fill="#FFFFFF"></path>
                <path d="M86.7611951,134.70311 L0.412542269,134.70311 L10.5424234,107.046669 L76.631314,107.046669 L86.7611951,134.70311" id="Fill-7" fill="#188A3B"></path>
                <path d="M86.7611951,129.079904 L0.412542269,129.079904 L10.5424234,101.42887 L76.631314,101.42887 L86.7611951,129.079904" id="Fill-8" fill="#188A3B"></path>
                <path d="M86.7611951,123.456698 L0.412542269,123.456698 L10.5424234,95.8029606 L76.631314,95.8029606 L86.7611951,123.456698" id="Fill-9" fill="#188A3B"></path>
                <path d="M86.7611951,117.833492 L0.412542269,117.833492 L10.5424234,90.1824581 L76.631314,90.1824581 L86.7611951,117.833492" id="Fill-10" fill="#188A3B"></path>
                <path d="M86.7611951,112.212989 L0.412542269,112.212989 L10.5424234,84.5592521 L76.631314,84.5592521 L86.7611951,112.212989" id="Fill-11" fill="#188A3B"></path>
                <path d="M44.4573842,106.154526 L44.4573842,108.760665 L42.0540044,108.760665 L42.0540044,106.25185 C39.7803908,106.18156 37.9961043,105.603019 36.4524262,104.072858 L38.5908665,101.985784 C39.5884449,102.959031 40.9401771,103.329405 42.3649028,103.378068 L42.3649028,99.1795876 L41.6052293,99.0822629 C40.183207,98.8984273 39.042345,98.3847691 38.3286304,97.6899787 C37.5229981,96.9032706 37.1201819,95.8597333 37.1201819,94.4701526 C37.1201819,91.8018333 38.972055,89.8283042 42.0540044,89.5038885 L42.0540044,87.4141105 L44.4573842,87.4141105 L44.4573842,89.4822608 C46.376844,89.5985098 47.8502321,90.1770512 49.1262672,91.3827963 L47.0445997,93.3995807 C46.2578915,92.6615349 45.0926984,92.3614504 44.1221546,92.2884568 L44.1221546,96.3247292 L45.0224083,96.4653093 C46.563383,96.6978073 47.5366302,97.1114373 48.2530482,97.7602688 C49.1560054,98.5956393 49.5534146,99.7797567 49.5534146,101.242331 C49.5534146,104.072858 47.4203812,105.811186 44.4573842,106.154526 M42.3649028,92.3100846 C40.9834325,92.4966236 40.2967525,93.3319941 40.2967525,94.3512002 C40.2967525,94.7702372 40.4400361,95.2109019 40.79419,95.5380211 C41.1753785,95.8840645 41.702554,96.0922313 42.3649028,96.184149 L42.3649028,92.3100846 M45.8037095,99.9419646 C45.3306032,99.5012999 44.7385445,99.4337132 44.1221546,99.339092 L44.1221546,103.329405 C45.5441769,103.167198 46.3308851,102.469704 46.3308851,101.331545 C46.3308851,100.753004 46.1605668,100.26638 45.8037095,99.9419646" id="Fill-12" fill="#188A3B"></path>
                <path d="M91.935626,107.046669 L5.58697313,107.046669 L15.7168542,79.3875247 L81.8084483,79.3875247 L91.935626,107.046669" id="Fill-13" fill="#42A437"></path>
                <path d="M91.935626,101.423463 L5.58697313,101.423463 L15.7168542,73.7724292 L81.8084483,73.7724292 L91.935626,101.423463" id="Fill-14" fill="#188A3B"></path>
                <path d="M91.935626,95.8002571 L5.58697313,95.8002571 L15.7168542,68.1492232 L81.8084483,68.1492232 L91.935626,95.8002571" id="Fill-15" fill="#42A437"></path>
                <path d="M91.935626,90.1770512 L5.58697313,90.1770512 L15.7168542,62.5260173 L81.8084483,62.5260173 L91.935626,90.1770512" id="Fill-16" fill="#188A3B"></path>
                <path d="M91.935626,84.5565487 L5.58697313,84.5565487 L15.7168542,56.9028113 L81.8084483,56.9028113 L91.935626,84.5565487" id="Fill-17" fill="#42A437"></path>
                <path d="M49.6318151,78.5007884 L49.6318151,81.0988177 L47.2311387,81.0988177 L47.2311387,78.5927062 C44.9548217,78.5251196 43.1705352,77.9465782 41.626857,76.4137139 L43.7652973,74.3266394 C44.7628757,75.2998866 46.1173114,75.6729647 47.5393336,75.721627 L47.5393336,71.5231468 L46.7796601,71.4258221 C45.3576379,71.2419865 44.2167759,70.7310317 43.5030613,70.0335379 C42.6974289,69.2441263 42.2946127,68.2032925 42.2946127,66.8164153 C42.2946127,64.1453925 44.1491893,62.1718635 47.2311387,61.8474477 L47.2311387,59.7603732 L49.6318151,59.7603732 L49.6318151,61.82582 C51.5539783,61.942069 53.0246629,62.5206104 54.3006981,63.729059 L52.2190305,65.7431399 C51.4323224,65.0050941 50.2671292,64.7023061 49.299289,64.6320161 L49.299289,68.6682884 L50.1968391,68.8088686 C51.7405173,69.0413665 52.7083576,69.4549965 53.4274791,70.1065315 C54.3331397,70.941902 54.7305489,72.1206124 54.7305489,73.5858901 C54.7305489,76.4137139 52.5948121,78.154745 49.6318151,78.5007884 M47.5393336,64.6563472 C46.1578633,64.8428863 45.4711834,65.6755533 45.4711834,66.6947594 C45.4711834,67.1164998 45.6171705,67.5544611 45.9713243,67.8788768 C46.3498093,68.2276237 46.8769849,68.4357905 47.5393336,68.5277083 L47.5393336,64.6563472 M50.9808438,72.2855238 C50.5050341,71.8475625 49.9129754,71.774569 49.299289,71.6826512 L49.299289,75.6729647 C50.7186078,75.5107568 51.5053159,74.813263 51.5053159,73.6751045 C51.5053159,73.0965631 51.3377011,72.6099395 50.9808438,72.2855238" id="Fill-18" fill="#FFFFFF"></path>
                <path d="M97.2208989,79.3875247 L10.8749495,79.3875247 L21.0021271,51.731084 L87.0937212,51.731084 L97.2208989,79.3875247" id="Fill-19" fill="#188A3B"></path>
                <path d="M97.2208989,73.7670223 L10.8749495,73.7670223 L21.0021271,46.1132849 L87.0937212,46.1132849 L97.2208989,73.7670223" id="Fill-20" fill="#188A3B"></path>
                <path d="M97.2208989,68.1438163 L10.8749495,68.1438163 L21.0021271,40.4927825 L87.0937212,40.4927825 L97.2208989,68.1438163" id="Fill-21" fill="#188A3B"></path>
                <path d="M97.2208989,62.5206104 L10.8749495,62.5206104 L21.0021271,34.8695765 L87.0937212,34.8695765 L97.2208989,62.5206104" id="Fill-22" fill="#188A3B"></path>
                <path d="M97.2208989,56.9028113 L10.8749495,56.9028113 L21.0021271,29.2463706 L87.0937212,29.2463706 L97.2208989,56.9028113" id="Fill-23" fill="#188A3B"></path>
                <path d="M54.9197914,50.8443476 L54.9197914,53.4450804 L52.5191151,53.4450804 L52.5191151,50.9389689 C50.242798,50.8686788 48.4585115,50.287434 46.9148334,48.7599766 L49.0505702,46.6729021 C50.0508521,47.6461492 51.4025843,48.0165239 52.82731,48.0651862 L52.82731,43.8640026 L52.0676365,43.7693813 C50.6429108,43.5828423 49.5020488,43.074591 48.7883342,42.3798006 C47.9854053,41.5876855 47.5798856,40.5468517 47.5798856,39.157271 C47.5798856,36.4889517 49.4344622,34.5154227 52.5191151,34.1937104 L52.5191151,32.1066359 L54.9197914,32.1066359 L54.9197914,34.1720827 C56.8392512,34.2856282 58.3099358,34.8641696 59.5886745,36.0699147 L57.5043034,38.0894026 C56.7175953,37.3459499 55.5551056,37.0458653 54.5818584,36.9755753 L54.5818584,41.0145511 L55.482112,41.1524278 C57.0257902,41.3849257 57.9963339,41.8012592 58.7154555,42.4500907 C59.6184126,43.2827577 60.0158218,44.4668751 60.0158218,45.9267459 C60.0158218,48.7599766 57.8827884,50.5010077 54.9197914,50.8443476 M52.82731,36.997203 C51.4458397,37.1864455 50.7591597,38.0164091 50.7591597,39.0383186 C50.7591597,39.4573556 50.9024434,39.8953168 51.2593007,40.2251395 C51.6377857,40.5711829 52.1622578,40.7793497 52.82731,40.8712675 L52.82731,36.997203 M56.2688202,44.629083 C55.790307,44.1857148 55.2009517,44.1208317 54.5818584,44.0262104 L54.5818584,48.0165239 C56.0038807,47.8570195 56.7932923,47.1568222 56.7932923,46.0186637 C56.7932923,45.4401223 56.622974,44.9507952 56.2688202,44.629083" id="Fill-24" fill="#188A3B"></path>
                <path d="M91.935626,51.731084 L5.58697313,51.731084 L15.7168542,24.0773466 L81.8084483,24.0773466 L91.935626,51.731084" id="Fill-25" fill="#42A437"></path>
                <path d="M91.935626,46.1105815 L5.58697313,46.1105815 L15.7168542,18.4595476 L81.8084483,18.4595476 L91.935626,46.1105815" id="Fill-26" fill="#188A3B"></path>
                <path d="M91.935626,40.4873755 L5.58697313,40.4873755 L15.7168542,12.8363417 L81.8084483,12.8363417 L91.935626,40.4873755" id="Fill-27" fill="#42A437"></path>
                <path d="M91.935626,34.8641696 L5.58697313,34.8641696 L15.7168542,7.21583919 L81.8084483,7.21583919 L91.935626,34.8641696" id="Fill-28" fill="#188A3B"></path>
                <path d="M91.935626,29.2436671 L5.58697313,29.2436671 L15.7168542,1.58992978 L81.8084483,1.58992978 L91.935626,29.2436671" id="Fill-29" fill="#42A437"></path>
                <path d="M42.7893467,1.58992978 L54.7278455,1.58992978 L54.7278455,162.359551 L42.7893467,162.359551 L42.7893467,1.58992978 Z" id="Fill-30" fill="#3FC45C"></path>
                <path d="M84.86877,107.046669 L84.86877,107.046669 L86.7611951,112.212989 L84.86877,107.046669 M90.0432009,79.3875247 L90.0432009,79.3875247 L91.935626,84.5565487 L90.0432009,79.3875247 M95.1662659,73.7670223 L95.1635625,73.7670223 L97.2208989,79.3875247 L95.1662659,73.7670223 M95.1635625,68.1438163 L95.1635625,68.1438163 L97.2208989,73.7670223 L95.1635625,68.1438163 M95.1635625,62.5206104 L95.1635625,62.5206104 L97.2208989,68.1438163 L95.1635625,62.5206104 M95.1662659,56.9028113 L95.1635625,56.9028113 L97.2208989,62.5206104 L95.1662659,56.9028113" id="Fill-31" fill="#E5E5E4"></path>
                <path d="M89.9864281,156.736345 L88.4833019,156.736345 L92.0491715,162.359551 L89.9864281,156.736345" id="Fill-32" fill="#3B9331"></path>
                <path d="M89.9864281,151.113139 L84.9174324,151.113139 L88.4833019,156.736345 L92.0491715,156.736345 L89.9864281,151.113139" id="Fill-33" fill="#167C35"></path>
                <path d="M89.9864281,145.489933 L81.3515629,145.489933 L84.9174324,151.113139 L92.0491715,151.113139 L89.9864281,145.489933" id="Fill-34" fill="#3B9331"></path>
                <path d="M89.9864281,139.872134 L77.7883968,139.872134 L81.3515629,145.489933 L92.0491715,145.489933 L89.9864281,139.872134" id="Fill-35" fill="#167C35"></path>
                <path d="M86.0339632,123.456698 L84.7011553,123.456698 L86.7611951,129.079904 L84.7011553,129.079904 L86.7611951,134.70311 L74.5117979,134.70311 L77.7883968,139.872134 L92.0491715,139.872134 L86.0339632,123.456698" id="Fill-36" fill="#3B9331"></path>
                <path d="M84.7011553,129.079904 L70.9459284,129.079904 L74.5117979,134.70311 L86.7611951,134.70311 L84.7011553,129.079904" id="Fill-37" fill="#167C35"></path>
                <path d="M84.7011553,123.456698 L67.3800589,123.456698 L70.9459284,129.079904 L86.7611951,129.079904 L84.7011553,123.456698" id="Fill-38" fill="#167C35"></path>
                <path d="M84.7011553,117.833492 L63.8168928,117.833492 L67.3800589,123.456698 L86.7611951,123.456698 L84.7011553,117.833492" id="Fill-39" fill="#167C35"></path>
                <path d="M84.7011553,112.212989 L60.2510232,112.212989 L63.8168928,117.833492 L86.7611951,117.833492 L84.7011553,112.212989" id="Fill-40" fill="#167C35"></path>
                <path d="M84.86877,107.046669 L56.9744244,107.046669 L60.2510232,112.212989 L86.7611951,112.212989 L84.86877,107.046669" id="Fill-41" fill="#167C35"></path>
                <path d="M89.8755861,101.423463 L54.7305489,101.423463 L54.7305489,103.505131 L56.9744244,107.046669 L91.935626,107.046669 L89.8755861,101.423463" id="Fill-42" fill="#3B9331"></path>
                <path d="M89.8755861,95.8002571 L54.7305489,95.8002571 L54.7305489,101.423463 L91.935626,101.423463 L89.8755861,95.8002571" id="Fill-43" fill="#167C35"></path>
                <path d="M89.8755861,90.1770512 L54.7305489,90.1770512 L54.7305489,95.8002571 L91.935626,95.8002571 L89.8755861,90.1770512" id="Fill-44" fill="#3B9331"></path>
                <path d="M89.8782896,84.5565487 L54.7305489,84.5565487 L54.7305489,90.1770512 L91.935626,90.1770512 L89.8782896,84.5565487" id="Fill-45" fill="#167C35"></path>
                <path d="M90.0432009,79.3875247 L54.7305489,79.3875247 L54.7305489,84.5565487 L91.935626,84.5565487 L90.0432009,79.3875247" id="Fill-46" fill="#3B9331"></path>
                <path d="M95.1635625,73.7670223 L54.7305489,73.7670223 L54.7305489,79.3875247 L97.2208989,79.3875247 L95.1635625,73.7670223" id="Fill-47" fill="#167C35"></path>
                <path d="M95.1635625,68.1438163 L54.7305489,68.1438163 L54.7305489,73.7670223 L97.2208989,73.7670223 L95.1635625,68.1438163" id="Fill-48" fill="#167C35"></path>
                <path d="M95.1635625,62.5206104 L54.7305489,62.5206104 L54.7305489,68.1438163 L97.2208989,68.1438163 L95.1635625,62.5206104" id="Fill-49" fill="#167C35"></path>
                <path d="M95.1635625,56.9028113 L54.7305489,56.9028113 L54.7305489,62.5206104 L97.2208989,62.5206104 L95.1635625,56.9028113" id="Fill-50" fill="#167C35"></path>
                <path d="M91.2110975,40.4873755 L89.8755861,40.4873755 L91.935626,46.1105815 L89.8782896,46.1105815 L91.935626,51.731084 L54.9197914,51.731084 L54.9197914,53.4450804 L54.7305489,53.4450804 L54.7305489,56.9028113 L97.2208989,56.9028113 L91.2110975,40.4873755" id="Fill-51" fill="#167C35"></path>
                <path d="M54.7305489,51.731084 L54.9197914,51.731084 L54.9197914,53.4423769 L54.7305489,53.4423769 L54.7305489,51.731084 Z" id="Fill-52" fill="#167C35"></path>
                <path d="M89.8782896,46.1105815 L54.7305489,46.1105815 L54.7305489,51.731084 L91.935626,51.731084 L89.8782896,46.1105815" id="Fill-53" fill="#3B9331"></path>
                <path d="M89.8755861,40.4873755 L54.7305489,40.4873755 L54.7305489,46.1105815 L91.935626,46.1105815 L89.8755861,40.4873755" id="Fill-54" fill="#167C35"></path>
                <path d="M89.8755861,34.8641696 L54.7305489,34.8641696 L54.7305489,40.4873755 L91.935626,40.4873755 L89.8755861,34.8641696" id="Fill-55" fill="#3B9331"></path>
                <path d="M89.8782896,29.2463706 L54.7305489,29.2463706 L54.7305489,34.8641696 L91.935626,34.8641696 L89.8782896,29.2463706" id="Fill-56" fill="#167C35"></path>
                <path d="M42.7893467,84.5565487 L42.7163532,84.5565487 L42.7893467,84.6755011 L42.7893467,84.5565487" id="Fill-57" fill="#167C35"></path>
                <path d="M42.7893467,79.3875247 L39.4370508,79.3875247 L42.7163532,84.5565487 L42.7893467,84.5565487 L42.7893467,79.3875247" id="Fill-58" fill="#3B9331"></path>
                <path d="M42.7893467,73.7670223 L35.8738848,73.7670223 L39.4370508,79.3875247 L42.7893467,79.3875247 L42.7893467,73.7670223" id="Fill-59" fill="#167C35"></path>
                <path d="M42.7893467,68.1438163 L32.3080152,68.1438163 L35.8738848,73.7670223 L42.7893467,73.7670223 L42.7893467,68.1438163" id="Fill-60" fill="#167C35"></path>
                <path d="M42.7893467,62.5206104 L28.7421457,62.5206104 L32.3080152,68.1438163 L42.7893467,68.1438163 L42.7893467,62.5206104" id="Fill-61" fill="#167C35"></path>
                <path d="M42.7893467,56.9028113 L25.1789796,56.9028113 L28.7421457,62.5206104 L42.7893467,62.5206104 L42.7893467,56.9028113" id="Fill-62" fill="#167C35"></path>
                <path d="M42.7893467,51.731084 L21.9023808,51.731084 L25.1789796,56.9028113 L42.7893467,56.9028113 L42.7893467,51.731084" id="Fill-63" fill="#167C35"></path>
                <path d="M42.7893467,46.1105815 L18.3365112,46.1105815 L21.9023808,51.731084 L42.7893467,51.731084 L42.7893467,46.1105815" id="Fill-64" fill="#3B9331"></path>
                <path d="M42.7893467,40.4873755 L14.7706417,40.4873755 L18.3365112,46.1105815 L42.7893467,46.1105815 L42.7893467,40.4873755" id="Fill-65" fill="#167C35"></path>
                <path d="M42.7893467,34.8641696 L11.2074756,34.8641696 L14.7706417,40.4873755 L42.7893467,40.4873755 L42.7893467,34.8641696" id="Fill-66" fill="#3B9331"></path>
                <path d="M42.7893467,29.2463706 L7.64430953,29.2463706 L7.64430953,29.249074 L11.2074756,34.8641696 L42.7893467,34.8641696 L42.7893467,29.2463706" id="Fill-67" fill="#167C35"></path>
                <path d="M54.7305489,29.2463706 L42.7893467,29.2463706 L42.7893467,84.6755011 L54.7305489,103.505131 L54.7305489,29.2463706" id="Fill-68" fill="#39B052"></path>
            </g>
            <g id="Group" transform="translate(70.674157, 55.393258)" sketch:type="MSShapeGroup">
                <path d="M65.8950562,114.180787 L4.88797753,114.180787 L12.0451685,94.6403371 L58.7378652,94.6403371 L65.8950562,114.180787" id="Fill-69" fill="#42A437"></path>
                <path d="M65.8950562,110.207753 L4.88797753,110.207753 L12.0451685,90.6711236 L58.7378652,90.6711236 L65.8950562,110.207753" id="Fill-70" fill="#188A3B"></path>
                <path d="M65.8950562,106.234719 L4.88797753,106.234719 L12.0451685,86.7 L58.7378652,86.7 L65.8950562,106.234719" id="Fill-71" fill="#42A437"></path>
                <path d="M65.8950562,102.261685 L4.88797753,102.261685 L12.0451685,82.7250562 L58.7378652,82.7250562 L65.8950562,102.261685" id="Fill-72" fill="#188A3B"></path>
                <path d="M65.8950562,98.2924719 L4.88797753,98.2924719 L12.0451685,78.7520225 L58.7378652,78.7520225 L65.8950562,98.2924719" id="Fill-73" fill="#42A437"></path>
                <path d="M36.005618,94.0119101 L36.005618,95.8494382 L34.3094382,95.8494382 L34.3094382,94.078764 C32.7011236,94.027191 31.4423596,93.6203371 30.3516854,92.5392135 L31.8625843,91.0626966 C32.5674157,91.7522472 33.5224719,92.0139326 34.5291011,92.0483146 L34.5291011,89.08 L33.9942697,89.0131461 C32.9876404,88.8832584 32.181573,88.5222472 31.6773034,88.0294382 C31.1061798,87.4735955 30.8234831,86.7362921 30.8234831,85.7544944 C30.8234831,83.8692135 32.1319101,82.4748315 34.3094382,82.245618 L34.3094382,80.7710112 L36.005618,80.7710112 L36.005618,82.2303371 C37.3637079,82.3124719 38.4047191,82.7231461 39.3082022,83.5731461 L37.8335955,84.9980899 C37.2777528,84.4766292 36.4583146,84.2626966 35.768764,84.2130337 L35.768764,87.0648315 L36.4067416,87.1622472 C37.4955056,87.328427 38.1831461,87.6206742 38.6893258,88.0791011 C39.3273034,88.6693258 39.61,89.5059551 39.61,90.5374157 C39.61,92.5392135 38.0991011,93.7693258 36.005618,94.0119101 L36.005618,94.0119101 Z M34.5291011,84.2302247 C33.5549438,84.3620225 33.0678652,84.948427 33.0678652,85.6704494 C33.0678652,85.968427 33.1691011,86.2759551 33.4193258,86.5089888 C33.6886517,86.7534831 34.0592135,86.9005618 34.5291011,86.9655056 L34.5291011,84.2302247 L34.5291011,84.2302247 Z M36.9606742,89.6186517 C36.6225843,89.3092135 36.2061798,89.2614607 35.768764,89.1965169 L35.768764,92.0139326 C36.7734831,91.901236 37.331236,91.4065169 37.331236,90.6023596 C37.331236,90.1935955 37.2108989,89.8497753 36.9606742,89.6186517 L36.9606742,89.6186517 Z" id="Fill-74" fill="#FFFFFF"></path>
                <path d="M62.1607865,94.6403371 L1.15370787,94.6403371 L8.30898876,75.0998876 L55.0035955,75.0998876 L62.1607865,94.6403371" id="Fill-75" fill="#188A3B"></path>
                <path d="M62.1607865,90.6673034 L1.15370787,90.6673034 L8.30898876,71.1306742 L55.0035955,71.1306742 L62.1607865,90.6673034" id="Fill-76" fill="#188A3B"></path>
                <path d="M62.1607865,86.6942697 L1.15370787,86.6942697 L8.30898876,67.1557303 L55.0035955,67.1557303 L62.1607865,86.6942697" id="Fill-77" fill="#188A3B"></path>
                <path d="M62.1607865,82.721236 L1.15370787,82.721236 L8.30898876,63.1846067 L55.0035955,63.1846067 L62.1607865,82.721236" id="Fill-78" fill="#188A3B"></path>
                <path d="M62.1607865,78.7501124 L1.15370787,78.7501124 L8.30898876,59.211573 L55.0035955,59.211573 L62.1607865,78.7501124" id="Fill-79" fill="#188A3B"></path>
                <path d="M32.2732584,74.4695506 L32.2732584,76.3108989 L30.5751685,76.3108989 L30.5751685,74.5383146 C28.9649438,74.4886517 27.7061798,74.0798876 26.6155056,72.998764 L28.1283146,71.5241573 C28.831236,72.2117978 29.7862921,72.4734831 30.7929213,72.5078652 L30.7929213,69.5414607 L30.2580899,69.4726966 C29.2533708,69.342809 28.4453933,68.9798876 27.9411236,68.4889888 C27.3719101,67.9331461 27.0873034,67.1958427 27.0873034,66.2140449 C27.0873034,64.328764 28.3957303,62.934382 30.5751685,62.7051685 L30.5751685,61.2286517 L32.2732584,61.2286517 L32.2732584,62.6898876 C33.6294382,62.7720225 34.6685393,63.1807865 35.5720225,64.0326966 L34.0974157,65.4576404 C33.541573,64.9361798 32.7221348,64.7241573 32.0325843,64.6725843 L32.0325843,67.524382 L32.6705618,67.6237079 C33.761236,67.7879775 34.4469663,68.0802247 34.9550562,68.5386517 C35.5892135,69.1288764 35.8738202,69.9655056 35.8738202,70.9988764 C35.8738202,72.998764 34.3648315,74.2269663 32.2732584,74.4695506 M30.7929213,64.6878652 C29.8168539,64.8196629 29.3316854,65.4098876 29.3316854,66.13 C29.3316854,66.4260674 29.4348315,66.7374157 29.6850562,66.9685393 C29.954382,67.2130337 30.3249438,67.3601124 30.7929213,67.4250562 L30.7929213,64.6878652 M33.2244944,70.0801124 C32.8864045,69.768764 32.47,69.7210112 32.0325843,69.6541573 L32.0325843,72.4734831 C33.0392135,72.3588764 33.5950562,71.8660674 33.5950562,71.0619101 C33.5950562,70.6531461 33.4747191,70.3093258 33.2244944,70.0801124" id="Fill-80" fill="#188A3B"></path>
                <path d="M65.8186517,75.0998876 L4.80775281,75.0998876 L11.9649438,55.5575281 L58.6614607,55.5575281 L65.8186517,75.0998876" id="Fill-81" fill="#42A437"></path>
                <path d="M65.8186517,71.1268539 L4.80775281,71.1268539 L11.9649438,51.5902247 L58.6614607,51.5902247 L65.8186517,71.1268539" id="Fill-82" fill="#188A3B"></path>
                <path d="M65.8186517,67.1538202 L4.80775281,67.1538202 L11.9649438,47.617191 L58.6614607,47.617191 L65.8186517,67.1538202" id="Fill-83" fill="#42A437"></path>
                <path d="M65.8186517,63.1807865 L4.80775281,63.1807865 L11.9649438,43.6441573 L58.6614607,43.6441573 L65.8186517,63.1807865" id="Fill-84" fill="#188A3B"></path>
                <path d="M65.8186517,59.2096629 L4.80775281,59.2096629 L11.9649438,39.6711236 L58.6614607,39.6711236 L65.8186517,59.2096629" id="Fill-85" fill="#42A437"></path>
                <path d="M35.9273034,54.9310112 L35.9273034,56.7666292 L34.2330337,56.7666292 L34.2330337,54.9959551 C32.622809,54.9482022 31.3640449,54.5394382 30.2733708,53.4564045 L31.7842697,51.9817978 C32.4891011,52.6694382 33.4441573,52.9330337 34.4488764,52.9674157 L34.4488764,50.0010112 L33.9121348,49.9322472 C32.9093258,49.8023596 32.1032584,49.4413483 31.5970787,48.9485393 C31.0297753,48.3907865 30.7432584,47.6553933 30.7432584,46.6755056 C30.7432584,44.7883146 32.0535955,43.3939326 34.2330337,43.1647191 L34.2330337,41.6901124 L35.9273034,41.6901124 L35.9273034,43.1494382 C37.2853933,43.231573 38.3244944,43.6403371 39.2279775,44.4941573 L37.7533708,45.917191 C37.1975281,45.3957303 36.3780899,45.1817978 35.6904494,45.1321348 L35.6904494,47.9839326 L36.3265169,48.0832584 C37.417191,48.2475281 38.1029213,48.5397753 38.6110112,49.0001124 C39.2489888,49.5903371 39.5297753,50.4231461 39.5297753,51.458427 C39.5297753,53.4564045 38.0207865,54.6865169 35.9273034,54.9310112 M34.4488764,45.1493258 C33.4747191,45.2811236 32.9895506,45.8694382 32.9895506,46.5895506 C32.9895506,46.8875281 33.0926966,47.1969663 33.3410112,47.4261798 C33.608427,47.6725843 33.9808989,47.8196629 34.4488764,47.8846067 L34.4488764,45.1493258 M36.8823596,50.5396629 C36.5442697,50.2302247 36.1278652,50.1786517 35.6904494,50.1137079 L35.6904494,52.9330337 C36.6951685,52.818427 37.2529213,52.325618 37.2529213,51.5214607 C37.2529213,51.1126966 37.1325843,50.7688764 36.8823596,50.5396629" id="Fill-86" fill="#FFFFFF"></path>
                <path d="M69.5529213,55.5575281 L8.54202247,55.5575281 L15.7011236,36.0170787 L62.3957303,36.0170787 L69.5529213,55.5575281" id="Fill-87" fill="#188A3B"></path>
                <path d="M69.5529213,51.5864045 L8.54202247,51.5864045 L15.7011236,32.0478652 L62.3957303,32.0478652 L69.5529213,51.5864045" id="Fill-88" fill="#188A3B"></path>
                <path d="M69.5529213,47.6133708 L8.54202247,47.6133708 L15.7011236,28.0767416 L62.3957303,28.0767416 L69.5529213,47.6133708" id="Fill-89" fill="#188A3B"></path>
                <path d="M69.5529213,43.6403371 L8.54202247,43.6403371 L15.7011236,24.1037079 L62.3957303,24.1037079 L69.5529213,43.6403371" id="Fill-90" fill="#188A3B"></path>
                <path d="M69.5529213,39.6711236 L8.54202247,39.6711236 L15.7011236,20.1306742 L62.3957303,20.1306742 L69.5529213,39.6711236" id="Fill-91" fill="#188A3B"></path>
                <path d="M39.6634831,35.3905618 L39.6634831,37.2280899 L37.9673034,37.2280899 L37.9673034,35.4574157 C36.3589888,35.4077528 35.1002247,34.9970787 34.0076404,33.9178652 L35.5185393,32.4432584 C36.2233708,33.1308989 37.1803371,33.3925843 38.1831461,33.4269663 L38.1831461,30.4586517 L37.6502247,30.3917978 C36.6435955,30.26 35.8375281,29.9008989 35.3332584,29.41 C34.7640449,28.8503371 34.4794382,28.1149438 34.4794382,27.1331461 C34.4794382,25.2478652 35.7878652,23.8534831 37.9673034,23.6261798 L37.9673034,22.151573 L39.6634831,22.151573 L39.6634831,23.6108989 C41.0196629,23.6911236 42.058764,24.0998876 42.9622472,24.9517978 L41.4895506,26.3786517 C40.935618,25.8533708 40.1142697,25.6413483 39.4266292,25.5916854 L39.4266292,28.4453933 L40.0626966,28.542809 C41.1514607,28.7070787 41.8391011,29.001236 42.3452809,29.4596629 C42.9851685,30.0479775 43.2640449,30.8846067 43.2640449,31.9160674 C43.2640449,33.9178652 41.7569663,35.1479775 39.6634831,35.3905618 M38.1831461,25.6069663 C37.2108989,25.7406742 36.7238202,26.3270787 36.7238202,27.0491011 C36.7238202,27.3451685 36.8269663,27.6546067 37.077191,27.8876404 C37.3446067,28.1321348 37.7170787,28.2792135 38.1831461,28.3441573 L38.1831461,25.6069663 M40.6185393,30.9992135 C40.2785393,30.6859551 39.8640449,30.6401124 39.4266292,30.5732584 L39.4266292,33.3925843 C40.4313483,33.2798876 40.987191,32.7851685 40.987191,31.9810112 C40.987191,31.5722472 40.8668539,31.2265169 40.6185393,30.9992135" id="Fill-92" fill="#188A3B"></path>
                <path d="M65.8186517,36.0170787 L4.80775281,36.0170787 L11.9649438,16.4785393 L58.6614607,16.4785393 L65.8186517,36.0170787" id="Fill-93" fill="#42A437"></path>
                <path d="M65.8186517,32.0459551 L4.80775281,32.0459551 L11.9649438,12.5093258 L58.6614607,12.5093258 L65.8186517,32.0459551" id="Fill-94" fill="#188A3B"></path>
                <path d="M65.8186517,28.0729213 L4.80775281,28.0729213 L11.9649438,8.53629213 L58.6614607,8.53629213 L65.8186517,28.0729213" id="Fill-95" fill="#42A437"></path>
                <path d="M65.8186517,24.0998876 L4.80775281,24.0998876 L11.9649438,4.56516854 L58.6614607,4.56516854 L65.8186517,24.0998876" id="Fill-96" fill="#188A3B"></path>
                <path d="M65.8186517,20.128764 L4.80966292,20.128764 L11.9649438,0.590224719 L58.6614607,0.590224719 L65.8186517,20.128764" id="Fill-97" fill="#42A437"></path>
                <path d="M31.0947191,0.590224719 L39.5278652,0.590224719 L39.5278652,114.180787 L31.0947191,114.180787 L31.0947191,0.590224719 Z" id="Fill-98" fill="#3FC45C"></path>
                <path d="M64.4414607,110.207753 L64.4414607,110.207753 L65.8950562,114.180787 L64.4414607,110.207753 M64.4414607,106.234719 L64.4395506,106.234719 L65.8950562,110.207753 L64.4414607,106.234719 M64.4414607,102.261685 L64.4395506,102.261685 L65.8950562,106.234719 L64.4414607,102.261685 M61.6488764,86.6942697 L61.6469663,86.6942697 L65.8950562,98.2924719 L61.6488764,86.6942697 M60.707191,82.721236 L60.7052809,82.721236 L62.1607865,86.6942697 L60.707191,82.721236 M60.707191,78.7501124 L60.7052809,78.7501124 L62.1607865,82.721236 L60.707191,78.7501124 M60.825618,75.0998876 L60.8237079,75.0998876 L62.1607865,78.7501124 L60.825618,75.0998876" id="Fill-99" fill="#E5E5E4"></path>
                <path d="M64.4414607,110.207753 L63.3775281,110.207753 L65.8950562,114.180787 L64.4414607,110.207753" id="Fill-100" fill="#3B9331"></path>
                <path d="M64.4395506,106.234719 L60.8580899,106.234719 L63.3775281,110.207753 L65.8950562,110.207753 L64.4395506,106.234719" id="Fill-101" fill="#167C35"></path>
                <path d="M64.4395506,102.261685 L58.3386517,102.261685 L60.8580899,106.234719 L65.8950562,106.234719 L64.4395506,102.261685" id="Fill-102" fill="#3B9331"></path>
                <path d="M64.4414607,98.2924719 L55.8211236,98.2924719 L58.3386517,102.261685 L65.8950562,102.261685 L64.4414607,98.2924719" id="Fill-103" fill="#167C35"></path>
                <path d="M61.6469663,86.6942697 L60.7052809,86.6942697 L62.1607865,90.6673034 L60.7052809,90.6673034 L62.1607865,94.6403371 L53.5060674,94.6403371 L55.8211236,98.2924719 L65.8950562,98.2924719 L61.6469663,86.6942697" id="Fill-104" fill="#3B9331"></path>
                <path d="M60.7052809,90.6673034 L50.9866292,90.6673034 L53.5060674,94.6403371 L62.1607865,94.6403371 L60.7052809,90.6673034" id="Fill-105" fill="#167C35"></path>
                <path d="M60.7052809,86.6942697 L48.467191,86.6942697 L50.9866292,90.6673034 L62.1607865,90.6673034 L60.7052809,86.6942697" id="Fill-106" fill="#167C35"></path>
                <path d="M60.7052809,82.721236 L45.9496629,82.721236 L48.467191,86.6942697 L62.1607865,86.6942697 L60.7052809,82.721236" id="Fill-107" fill="#167C35"></path>
                <path d="M60.7052809,78.7501124 L43.4321348,78.7501124 L45.9496629,82.721236 L62.1607865,82.721236 L60.7052809,78.7501124" id="Fill-108" fill="#167C35"></path>
                <path d="M60.8237079,75.0998876 L41.1151685,75.0998876 L43.4321348,78.7501124 L62.1607865,78.7501124 L60.8237079,75.0998876" id="Fill-109" fill="#167C35"></path>
                <path d="M64.3631461,71.1268539 L39.5297753,71.1268539 L39.5297753,72.5957303 L41.1151685,75.0998876 L65.8186517,75.0998876 L64.3631461,71.1268539" id="Fill-110" fill="#3B9331"></path>
                <path d="M64.3631461,67.1538202 L39.5297753,67.1538202 L39.5297753,71.1268539 L65.8186517,71.1268539 L64.3631461,67.1538202" id="Fill-111" fill="#167C35"></path>
                <path d="M64.3631461,63.1807865 L39.5297753,63.1807865 L39.5297753,67.1538202 L65.8186517,67.1538202 L64.3631461,63.1807865" id="Fill-112" fill="#3B9331"></path>
                <path d="M64.3631461,59.2096629 L39.5297753,59.2096629 L39.5297753,63.1807865 L65.8186517,63.1807865 L64.3631461,59.2096629" id="Fill-113" fill="#167C35"></path>
                <path d="M64.4796629,55.5575281 L39.5297753,55.5575281 L39.5297753,59.2096629 L65.8186517,59.2096629 L64.4796629,55.5575281" id="Fill-114" fill="#3B9331"></path>
                <path d="M68.0974157,51.5864045 L39.5297753,51.5864045 L39.5297753,55.5575281 L69.5529213,55.5575281 L68.0974157,51.5864045" id="Fill-115" fill="#167C35"></path>
                <path d="M68.0974157,47.6133708 L39.5297753,47.6133708 L39.5297753,51.5864045 L69.5529213,51.5864045 L68.0974157,47.6133708" id="Fill-116" fill="#167C35"></path>
                <path d="M68.0974157,43.6403371 L39.5297753,43.6403371 L39.5297753,47.6133708 L69.5529213,47.6133708 L68.0974157,43.6403371" id="Fill-117" fill="#167C35"></path>
                <path d="M68.0974157,39.6711236 L39.5297753,39.6711236 L39.5297753,43.6403371 L69.5529213,43.6403371 L68.0974157,39.6711236" id="Fill-118" fill="#167C35"></path>
                <path d="M65.3048315,28.0729213 L64.3631461,28.0729213 L65.8186517,32.0459551 L64.3631461,32.0459551 L65.8186517,36.0170787 L39.6634831,36.0170787 L39.6634831,37.2280899 L39.5297753,37.2280899 L39.5297753,39.6711236 L69.5529213,39.6711236 L65.3048315,28.0729213" id="Fill-119" fill="#167C35"></path>
                <path d="M39.5297753,36.0170787 L39.6634831,36.0170787 L39.6634831,37.2261798 L39.5297753,37.2261798 L39.5297753,36.0170787 Z" id="Fill-120" fill="#167C35"></path>
                <path d="M64.3631461,32.0459551 L39.5297753,32.0459551 L39.5297753,36.0170787 L65.8186517,36.0170787 L64.3631461,32.0459551" id="Fill-121" fill="#3B9331"></path>
                <path d="M64.3631461,28.0729213 L39.5297753,28.0729213 L39.5297753,32.0459551 L65.8186517,32.0459551 L64.3631461,28.0729213" id="Fill-122" fill="#167C35"></path>
                <path d="M64.3631461,24.0998876 L39.5297753,24.0998876 L39.5297753,28.0729213 L65.8186517,28.0729213 L64.3631461,24.0998876" id="Fill-123" fill="#3B9331"></path>
                <path d="M64.3631461,20.1306742 L39.5297753,20.1306742 L39.5297753,24.0998876 L65.8186517,24.0998876 L64.3631461,20.1306742" id="Fill-124" fill="#167C35"></path>
                <path d="M31.0947191,59.2096629 L31.041236,59.2096629 L31.0947191,59.2937079 L31.0947191,59.2096629" id="Fill-125" fill="#167C35"></path>
                <path d="M31.0947191,55.5575281 L28.7261798,55.5575281 L31.041236,59.2096629 L31.0947191,59.2096629 L31.0947191,55.5575281" id="Fill-126" fill="#3B9331"></path>
                <path d="M31.0947191,51.5864045 L26.2086517,51.5864045 L28.7261798,55.5575281 L31.0947191,55.5575281 L31.0947191,51.5864045" id="Fill-127" fill="#167C35"></path>
                <path d="M31.0947191,47.6133708 L23.6892135,47.6133708 L26.2086517,51.5864045 L31.0947191,51.5864045 L31.0947191,47.6133708" id="Fill-128" fill="#167C35"></path>
                <path d="M31.0947191,43.6403371 L21.1697753,43.6403371 L23.6892135,47.6133708 L31.0947191,47.6133708 L31.0947191,43.6403371" id="Fill-129" fill="#167C35"></path>
                <path d="M31.0947191,39.6711236 L18.6522472,39.6711236 L21.1697753,43.6403371 L31.0947191,43.6403371 L31.0947191,39.6711236" id="Fill-130" fill="#167C35"></path>
                <path d="M31.0947191,36.0170787 L16.337191,36.0170787 L18.6522472,39.6711236 L31.0947191,39.6711236 L31.0947191,36.0170787" id="Fill-131" fill="#167C35"></path>
                <path d="M31.0947191,32.0459551 L13.8177528,32.0459551 L16.337191,36.0170787 L31.0947191,36.0170787 L31.0947191,32.0459551" id="Fill-132" fill="#3B9331"></path>
                <path d="M31.0947191,28.0729213 L11.2983146,28.0729213 L13.8177528,32.0459551 L31.0947191,32.0459551 L31.0947191,28.0729213" id="Fill-133" fill="#167C35"></path>
                <path d="M31.0947191,24.0998876 L8.78078652,24.0998876 L11.2983146,28.0729213 L31.0947191,28.0729213 L31.0947191,24.0998876" id="Fill-134" fill="#3B9331"></path>
                <path d="M31.0947191,20.1306742 L6.26325843,20.1306742 L8.78078652,24.0998876 L31.0947191,24.0998876 L31.0947191,20.1306742" id="Fill-135" fill="#167C35"></path>
                <path d="M39.5297753,20.1306742 L31.0947191,20.1306742 L31.0947191,59.2937079 L39.5297753,72.5957303 L39.5297753,20.1306742" id="Fill-136" fill="#39B052"></path>
            </g>
            <path d="M55.723979,18.8147253 C55.723979,17.1767253 55.281979,15.8507253 54.293979,14.9147253 C53.513979,14.1867253 52.447979,13.7187253 50.757979,13.4587253 L49.769979,13.3027253 L49.769979,8.77872527 C50.835979,8.85672527 52.109979,9.19472527 52.967979,10.0267253 L55.255979,7.76472527 C53.851979,6.41272527 52.239979,5.76272527 50.133979,5.63272527 L50.133979,3.31872527 L47.507979,3.31872527 L47.507979,5.65872527 C44.127979,6.02272527 42.099979,8.23272527 42.099979,11.2227253 C42.099979,12.7827253 42.541979,13.9527253 43.425979,14.8367253 C44.205979,15.6167253 45.453979,16.1887253 47.013979,16.3967253 L47.845979,16.5007253 L47.845979,21.2067253 C46.285979,21.1547253 44.803979,20.7387253 43.711979,19.6467253 L41.371979,21.9867253 C43.061979,23.7027253 45.011979,24.3527253 47.507979,24.4307253 L47.507979,27.2387253 L50.133979,27.2387253 L50.133979,24.3267253 C53.383979,23.9367253 55.723979,21.9867253 55.723979,18.8147253 L55.723979,18.8147253 Z M52.187979,18.9187253 C52.187979,20.1927253 51.329979,20.9727253 49.769979,21.1547253 L49.769979,16.6827253 C50.731979,16.8127253 51.199979,16.9687253 51.615979,17.3587253 C52.005979,17.7227253 52.187979,18.2687253 52.187979,18.9187253 L52.187979,18.9187253 Z M47.845979,13.1467253 C47.117979,13.0427253 46.545979,12.8087253 46.129979,12.4187253 C45.739979,12.0547253 45.583979,11.5607253 45.583979,11.0927253 C45.583979,9.94872527 46.337979,9.01272527 47.845979,8.80472527 L47.845979,13.1467253 Z" id="$" fill="#FFFFFF" sketch:type="MSShapeGroup"></path>
            <path d="M111.868979,68.8647253 C111.868979,67.5417253 111.511979,66.4707253 110.713979,65.7147253 C110.083979,65.1267253 109.222979,64.7487253 107.857979,64.5387253 L107.059979,64.4127253 L107.059979,60.7587253 C107.920979,60.8217253 108.949979,61.0947253 109.642979,61.7667253 L111.490979,59.9397253 C110.356979,58.8477253 109.054979,58.3227253 107.353979,58.2177253 L107.353979,56.3487253 L105.232979,56.3487253 L105.232979,58.2387253 C102.502979,58.5327253 100.864979,60.3177253 100.864979,62.7327253 C100.864979,63.9927253 101.221979,64.9377253 101.935979,65.6517253 C102.565979,66.2817253 103.573979,66.7437253 104.833979,66.9117253 L105.505979,66.9957253 L105.505979,70.7967253 C104.245979,70.7547253 103.048979,70.4187253 102.166979,69.5367253 L100.276979,71.4267253 C101.641979,72.8127253 103.216979,73.3377253 105.232979,73.4007253 L105.232979,75.6687253 L107.353979,75.6687253 L107.353979,73.3167253 C109.978979,73.0017253 111.868979,71.4267253 111.868979,68.8647253 L111.868979,68.8647253 Z M109.012979,68.9487253 C109.012979,69.9777253 108.319979,70.6077253 107.059979,70.7547253 L107.059979,67.1427253 C107.836979,67.2477253 108.214979,67.3737253 108.550979,67.6887253 C108.865979,67.9827253 109.012979,68.4237253 109.012979,68.9487253 L109.012979,68.9487253 Z M105.505979,64.2867253 C104.917979,64.2027253 104.455979,64.0137253 104.119979,63.6987253 C103.804979,63.4047253 103.678979,63.0057253 103.678979,62.6277253 C103.678979,61.7037253 104.287979,60.9477253 105.505979,60.7797253 L105.505979,64.2867253 Z" id="$-copy" fill="#FFFFFF" sketch:type="MSShapeGroup"></path>
        </g>
    </g>
</svg>