<?xml version="1.0" encoding="UTF-8" standalone="no"?>
<svg width="240px" height="240px" viewBox="0 0 240 240" version="1.1" xmlns="http://www.w3.org/2000/svg" xmlns:xlink="http://www.w3.org/1999/xlink" xmlns:sketch="http://www.bohemiancoding.com/sketch/ns">
    <!-- Generator: Sketch 3.3.3 (12072) - http://www.bohemiancoding.com/sketch -->
    <title>hp1_3</title>
    <desc>Created with Sketch.</desc>
    <defs>
        <path id="path-1" d="M110.551209,58.7847253 C68.3776923,58.7847253 29.9610989,36.8185714 1.11087912,0.812307692 L219.985495,0.820769231 C191.135275,36.8221978 152.722308,58.7847253 110.551209,58.7847253 Z"></path>
    </defs>
    <g id="Page-1" stroke="none" stroke-width="1" fill="none" fill-rule="evenodd" sketch:type="MSPage">
        <g id="Group" sketch:type="MSLayerGroup" transform="translate(10.000000, 43.000000)">
            <g id="Imported-Layers" transform="translate(142.637363, 32.637363)" sketch:type="MSShapeGroup">
                <path d="M41.2834008,66.0659109 L53.6461538,22.6377328 L66.0106883,66.0659109" id="Fill-1" fill="#188A3B"></path>
                <path d="M20.7957895,66.0659109 L33.1603239,0.260080972 L45.5248583,66.0659109" id="Fill-2" fill="#3FC45C"></path>
                <path d="M0.309959514,66.0659109 L12.6744939,22.6377328 L25.0390283,66.0659109" id="Fill-3" fill="#188A3B"></path>
            </g>
            <g id="Imported-Layers-Copy" transform="translate(12.087912, 65.274725)" sketch:type="MSShapeGroup">
                <path d="M22.1161076,35.3924523 L28.739011,12.1273569 L35.3628687,35.3924523" id="Fill-1" fill="#188A3B"></path>
                <path d="M11.1406015,35.3924523 L17.7644592,0.139329092 L24.3883169,35.3924523" id="Fill-2" fill="#3FC45C"></path>
                <path d="M0.16604974,35.3924523 L6.78990746,12.1273569 L13.4137652,35.3924523" id="Fill-3" fill="#188A3B"></path>
            </g>
            <g id="Imported-Layers" transform="translate(0.000000, 95.494505)">
                <path d="M219.985495,0.820769231 C191.135275,36.8221978 152.722308,58.7847253 110.551209,58.7847253 C68.3776923,58.7847253 29.9610989,36.8185714 1.11087912,0.812307692 L219.985495,0.820769231" id="Fill-30" fill="#7F644C" sketch:type="MSShapeGroup"></path>
                <path d="M1.11087912,0.812307692 C29.9610989,36.8185714 68.3776923,58.7847253 110.551209,58.7847253 C152.722308,58.7847253 191.135275,36.8221978 219.985495,0.820769231 C205.560989,18.8220879 188.745495,33.3130769 170.264286,43.3037363 L1.11087912,0.812307692" id="Fill-31" fill="#6E5742" sketch:type="MSShapeGroup"></path>
                <g id="Group-34">
                    <mask id="mask-2" sketch:name="Clip 33" fill="white">
                        <use xlink:href="#path-1"></use>
                    </mask>
                    <g id="Clip-33"></g>
                    <path d="M1.11087912,0.812307692 L170.264286,43.3037363 C188.745495,33.3130769 205.560989,18.8220879 219.985495,0.820769231 L213.965714,0.820769231 L80.3253846,0.815934066 L59.7807692,0.814725275 L1.11087912,0.812307692" id="Fill-32" fill="#524131" sketch:type="MSShapeGroup" mask="url(#mask-2)"></path>
                </g>
            </g>
            <g id="Imported-Layers" transform="translate(65.509554, 1.116400)" sketch:type="MSShapeGroup">
                <path d="M0.535871772,0.857702807 L87.7243648,0.857702807 L87.7243648,101.344439 L0.535871772,101.344439 L0.535871772,0.857702807 Z" id="Fill-10" fill="#FAE395"></path>
                <path d="M0.535871772,0.857702807 L12.9563939,0.857702807 L12.9563939,101.344439 L0.535871772,101.344439 L0.535871772,0.857702807 Z" id="Fill-11" fill="#12979F"></path>
                <path d="M10.1600056,0.857702807 L12.9563939,0.857702807 L12.9563939,101.344439 L10.1600056,101.344439 L10.1600056,0.857702807 Z" id="Fill-12" fill="#08858C"></path>
                <path d="M47.0581648,36.543991 L23.1872331,53.1868132 L23.1872331,87.4487296 L70.8690418,87.4487296 L70.8690418,53.1868132 L70.9290964,53.1868132 L47.0581648,36.543991" id="Fill-13" fill="#FFFFFF"></path>
                <path d="M23.1872331,14.7795898 L70.9290964,14.7795898 L70.9290964,18.9248968 L23.1872331,18.9248968 L23.1872331,14.7795898 Z" id="Fill-14" fill="#FFFFFF"></path>
                <path d="M29.9302863,62.2042416 L34.6653601,62.2042416 L34.6653601,69.4200322 L29.9302863,69.4200322 L29.9302863,62.2042416 Z" id="Fill-15" fill="#42A437"></path>
                <path d="M38.3810457,67.7400434 L43.1130398,67.7400434 L43.1130398,74.9527543 L38.3810457,74.9527543 L38.3810457,67.7400434 Z" id="Fill-16" fill="#3FC45C"></path>
            </g>
        </g>
    </g>
</svg>