<?xml version="1.0" encoding="UTF-8" standalone="no"?>
<svg width="240px" height="240px" viewBox="0 0 240 240" version="1.1" xmlns="http://www.w3.org/2000/svg" xmlns:xlink="http://www.w3.org/1999/xlink" xmlns:sketch="http://www.bohemiancoding.com/sketch/ns">
    <!-- Generator: Sketch 3.3.3 (12072) - http://www.bohemiancoding.com/sketch -->
    <title>hp1_2</title>
    <desc>Created with Sketch.</desc>
    <defs></defs>
    <g id="Page-1" stroke="none" stroke-width="1" fill="none" fill-rule="evenodd" sketch:type="MSPage">
        <g id="Imported-Layers-+-Imported-Layers" sketch:type="MSLayerGroup" transform="translate(49.000000, 30.000000)">
            <g id="Imported-Layers" sketch:type="MSShapeGroup">
                <path d="M88.9771199,162.905028 L46.1609081,162.905028 L46.1609081,26.5514033 L66.7197096,8.38287727 L88.9771199,26.3338577 L88.9771199,162.905028 Z" id="Fill-1" fill="#CEBDA8"></path>
                <path d="M74.3762588,58.0332349 L82.3799594,58.0332349 L82.3799594,66.0394976 L74.3762588,66.0394976 L74.3762588,58.0332349 Z" id="Fill-2" fill="#FFFFFF"></path>
                <path d="M74.3762588,69.6954774 L82.3799594,69.6954774 L82.3799594,77.700459 L74.3762588,77.700459 L74.3762588,69.6954774 Z" id="Fill-3" fill="#FFFFFF"></path>
                <path d="M63.2545992,69.6954774 L71.2634238,69.6954774 L71.2634238,77.700459 L63.2545992,77.700459 L63.2545992,69.6954774 Z" id="Fill-4" fill="#3FC45C"></path>
                <path d="M78.7393517,38.3442337 C78.7393517,44.6839127 73.5974095,49.8271359 67.2577305,49.8271359 C60.9167705,49.8271359 55.7786713,44.6839127 55.7786713,38.3442337 C55.7786713,32.0045547 60.9167705,26.8638935 67.2577305,26.8638935 C73.5974095,26.8638935 78.7393517,32.0045547 78.7393517,38.3442337" id="Fill-5" fill="#998269"></path>
                <path d="M76.5449952,38.3442337 C76.5449952,43.4720848 72.3894246,47.6314984 67.2577305,47.6314984 C62.1285984,47.6314984 57.9704658,43.4720848 57.9704658,38.3442337 C57.9704658,33.2163826 62.1285984,29.05825 67.2577305,29.05825 C72.3894246,29.05825 76.5449952,33.2163826 76.5449952,38.3442337" id="Fill-6" fill="#FFFFFF"></path>
                <path d="M57.9704658,37.4539373 L76.5449952,37.4539373 L76.5449952,39.2345301 L57.9704658,39.2345301 L57.9704658,37.4539373 Z" id="Fill-7" fill="#998269"></path>
                <path d="M66.3687151,29.05825 L68.1480269,29.05825 L68.1480269,38.3442337 L66.3687151,38.3442337 L66.3687151,29.05825 Z" id="Fill-8" fill="#998269"></path>
                <path d="M88.9771199,57.3427748 L131.793332,57.3427748 L131.793332,179.442764 L88.9771199,179.442764 L88.9771199,57.3427748 Z" id="Fill-9" fill="#DCCEB8"></path>
                <path d="M117.502473,90.7718037 L125.506174,90.7718037 L125.506174,98.7780664 L117.502473,98.7780664 L117.502473,90.7718037 Z" id="Fill-10" fill="#FFFFFF"></path>
                <path d="M117.502473,102.431484 L125.506174,102.431484 L125.506174,110.439028 L117.502473,110.439028 L117.502473,102.431484 Z" id="Fill-11" fill="#FFFFFF"></path>
                <path d="M121.865566,75.0577518 C121.865566,81.3987119 116.726186,86.540654 110.383945,86.540654 C104.044266,86.540654 98.9048856,81.3987119 98.9048856,75.0577518 C98.9048856,68.7167918 104.044266,63.5774117 110.383945,63.5774117 C116.726186,63.5774117 121.865566,68.7167918 121.865566,75.0577518" id="Fill-12" fill="#998269"></path>
                <path d="M119.668647,75.0577518 C119.668647,80.185603 115.513077,84.3450165 110.383945,84.3450165 C105.254813,84.3450165 101.099242,80.185603 101.099242,75.0577518 C101.099242,69.9299007 105.254813,65.7730491 110.383945,65.7730491 C115.513077,65.7730491 119.668647,69.9299007 119.668647,75.0577518" id="Fill-13" fill="#FFFFFF"></path>
                <path d="M109.49621,64.5727502 L111.27296,64.5727502 L111.27296,75.3049852 L109.49621,75.3049852 L109.49621,64.5727502 Z" id="Fill-14" fill="#998269"></path>
                <path d="M99.8528271,74.2135715 L120.911219,74.2135715 L120.911219,75.9928833 L99.8528271,75.9928833 L99.8528271,74.2135715 Z" id="Fill-15" fill="#998269"></path>
                <path d="M88.9771199,46.9307903 L134.980465,46.9307903 L134.980465,57.3427748 L88.9771199,57.3427748 L88.9771199,46.9307903 Z" id="Fill-16" fill="#998269"></path>
                <path d="M131.793332,57.3427748 L89.045013,57.3427748 L99.9834893,70.1937871 C101.814041,66.28545 105.782585,63.5774117 110.383945,63.5774117 C116.726186,63.5774117 121.865566,68.7167918 121.865566,75.0577518 C121.865566,80.3085792 118.340248,84.7382842 113.527524,86.1051133 L117.502473,90.7743657 L117.502473,90.7718037 L125.506174,90.7718037 L125.506174,98.7767854 L124.313561,98.7767854 L131.793332,107.564459 L131.793332,57.3427748" id="Fill-17" fill="#ADA391"></path>
                <path d="M125.506174,90.7718037 L117.502473,90.7718037 L117.502473,90.7743657 L124.313561,98.7767854 L125.506174,98.7767854 L125.506174,90.7718037" id="Fill-18" fill="#C9CAC9"></path>
                <path d="M110.383945,63.5774117 C105.782585,63.5774117 101.814041,66.28545 99.9834893,70.1937871 L101.587304,72.0781411 C102.737644,68.6809237 105.80052,66.1650358 109.49621,65.8140412 L109.49621,64.5727502 L111.271679,64.5727502 L111.271679,65.8140412 C115.706508,66.2354909 119.230545,69.7736185 119.630217,74.2135715 L120.911219,74.2135715 L120.911219,75.9916023 L119.622531,75.9916023 C119.204925,80.1715119 116.016511,83.5354233 111.921147,84.2181973 L113.527524,86.1051133 C118.340248,84.7382842 121.865566,80.3085792 121.865566,75.0577518 C121.865566,68.7167918 116.726186,63.5774117 110.383945,63.5774117" id="Fill-19" fill="#796753"></path>
                <path d="M119.622531,75.9916023 L104.91919,75.9916023 L111.921147,84.2181973 C116.016511,83.5354233 119.204925,80.1715119 119.622531,75.9916023 M109.49621,65.8140412 C105.80052,66.1650358 102.737644,68.6809237 101.587304,72.0781411 L103.405046,74.2135715 L109.49621,74.2135715 L109.49621,65.8140412 M111.271679,65.8140412 L111.271679,74.2135715 L119.630217,74.2135715 C119.230545,69.7736185 115.706508,66.2354909 111.271679,65.8140412" id="Fill-20" fill="#C9CAC9"></path>
                <path d="M109.49621,74.2135715 L111.27296,74.2135715 L111.27296,64.5727502 L109.49621,64.5727502 L109.49621,74.2135715 Z" id="Fill-21" fill="#796753"></path>
                <path d="M120.911219,74.2135715 L103.405046,74.2135715 L104.91919,75.9916023 L120.911219,75.9916023 L120.911219,74.2135715" id="Fill-22" fill="#796753"></path>
                <path d="M131.793332,57.2633527 L88.9771199,57.2633527 L89.045013,57.3427748 L131.793332,57.3427748 L131.793332,57.2633527" id="Fill-23" fill="#796753"></path>
                <path d="M3.3459773,57.3427748 L46.1621891,57.3427748 L46.1621891,162.905028 L3.3459773,162.905028 L3.3459773,57.3427748 Z" id="Fill-24" fill="#DCCEB8"></path>
                <path d="M10.2211152,98.7780664 L18.2273779,98.7780664 L18.2273779,106.784329 L10.2211152,106.784329 L10.2211152,98.7780664 Z" id="Fill-25" fill="#FFFFFF"></path>
                <path d="M10.2211152,110.440309 L18.2273779,110.440309 L18.2273779,118.445291 L10.2211152,118.445291 L10.2211152,110.440309 Z" id="Fill-26" fill="#3FC45C"></path>
                <path d="M36.2357044,75.5265986 C36.2357044,81.8662776 31.0937622,87.0082198 24.7528022,87.0082198 C18.4118422,87.0082198 13.272462,81.8662776 13.272462,75.5265986 C13.272462,69.1843575 18.4118422,64.0449774 24.7528022,64.0449774 C31.0937622,64.0449774 36.2357044,69.1843575 36.2357044,75.5265986" id="Fill-27" fill="#998269"></path>
                <path d="M34.0413479,75.5265986 C34.0413479,80.6531687 29.8844963,84.8125823 24.7528022,84.8125823 C19.6275131,84.8125823 15.4668185,80.6531687 15.4668185,75.5265986 C15.4668185,70.3974665 19.6275131,66.2406149 24.7528022,66.2406149 C29.8844963,66.2406149 34.0413479,70.3974665 34.0413479,75.5265986" id="Fill-28" fill="#FFFFFF"></path>
                <path d="M23.8637868,64.8122976 L25.6418176,64.8122976 L25.6418176,75.5432516 L23.8637868,75.5432516 L23.8637868,64.8122976 Z" id="Fill-29" fill="#998269"></path>
                <path d="M14.2242465,74.6811372 L35.2800769,74.6811372 L35.2800769,76.4604491 L14.2242465,76.4604491 L14.2242465,74.6811372 Z" id="Fill-30" fill="#998269"></path>
                <path d="M46.1609081,57.2633527 L3.3459773,57.2633527 L3.4125894,57.3427748 L46.1609081,57.3427748 L46.1609081,57.2633527" id="Fill-31" fill="#C9CAC9"></path>
                <path d="M46.1609081,57.2633527 L46.1609081,107.564459 L46.1609081,57.2633527" id="Fill-32" fill="#A29684"></path>
                <path d="M46.1609081,57.3427748 L3.4125894,57.3427748 L14.495819,70.3641604 C16.3852969,66.6146675 20.2680141,64.0449774 24.7528022,64.0449774 C31.0937622,64.0449774 36.2357044,69.1843575 36.2357044,75.5265986 C36.2357044,80.6608547 32.864107,85.0098566 28.2127887,86.4778849 L46.1609081,107.564459 L46.1609081,57.3427748" id="Fill-33" fill="#ADA391"></path>
                <path d="M24.7528022,64.0449774 C20.2680141,64.0449774 16.3852969,66.6146675 14.495819,70.3641604 L16.0740135,72.2177703 C17.3076184,68.9870832 20.2910721,66.6223535 23.8637868,66.2828879 L23.8637868,64.8122976 L25.6430986,64.8122976 L25.6430986,66.2828879 C30.0779276,66.7043376 33.6032452,70.2424652 34.0041988,74.6811372 L35.2800769,74.6811372 L35.2800769,76.4604491 L33.9952318,76.4604491 C33.5891542,80.5212255 30.5647084,83.8134007 26.6333132,84.622994 L28.2127887,86.4778849 C32.864107,85.0098566 36.2357044,80.6608547 36.2357044,75.5265986 C36.2357044,69.1843575 31.0937622,64.0449774 24.7528022,64.0449774" id="Fill-34" fill="#796753"></path>
                <path d="M33.9952318,76.4604491 L19.6851582,76.4604491 L26.6333132,84.622994 C30.5647084,83.8134007 33.5891542,80.5212255 33.9952318,76.4604491 M25.6430986,66.2828879 L25.6430986,74.6811372 L34.0041988,74.6811372 C33.6032452,70.2424652 30.0779276,66.7043376 25.6430986,66.2828879 M23.8637868,66.2828879 C20.2910721,66.6223535 17.3076184,68.9870832 16.0740135,72.2177703 L18.1710138,74.6811372 L23.8637868,74.6811372 L23.8637868,66.2828879" id="Fill-35" fill="#C9CAC9"></path>
                <path d="M23.8637868,74.6811372 L25.6418176,74.6811372 L25.6418176,64.8122976 L23.8637868,64.8122976 L23.8637868,74.6811372 Z" id="Fill-36" fill="#796753"></path>
                <path d="M35.2800769,74.6811372 L18.1710138,74.6811372 L19.6851582,76.4604491 L35.2800769,76.4604491 L35.2800769,74.6811372" id="Fill-37" fill="#796753"></path>
                <path d="M0.157563249,46.9307903 L46.1609081,46.9307903 L46.1609081,57.3427748 L0.157563249,57.3427748 L0.157563249,46.9307903 Z" id="Fill-38" fill="#998269"></path>
                <path d="M6.71757464,54.1095257 L8.32138918,54.1095257 L8.32138918,61.8006619 L6.71757464,61.8006619 L6.71757464,54.1095257 Z" id="Fill-39" fill="#998269"></path>
                <path d="M10.3530584,54.1095257 L11.9594349,54.1095257 L11.9594349,62.8933566 L10.3530584,62.8933566 L10.3530584,54.1095257 Z" id="Fill-40" fill="#998269"></path>
                <path d="M14.5867701,54.1095257 L16.1931466,54.1095257 L16.1931466,64.0449774 L14.5867701,64.0449774 L14.5867701,54.1095257 Z" id="Fill-41" fill="#998269"></path>
                <path d="M18.2248159,54.1095257 L19.8286304,54.1095257 L19.8286304,61.8006619 L18.2248159,61.8006619 L18.2248159,54.1095257 Z" id="Fill-42" fill="#998269"></path>
                <path d="M41.0099989,54.1095257 L42.6163755,54.1095257 L42.6163755,64.0449774 L41.0099989,64.0449774 L41.0099989,54.1095257 Z" id="Fill-43" fill="#998269"></path>
                <path d="M61.6482226,12.661424 L63.2545992,12.661424 L63.2545992,22.5968758 L61.6482226,22.5968758 L61.6482226,12.661424 Z" id="Fill-44" fill="#7E634C"></path>
                <path d="M66.4571042,9.31800875 L68.0609188,9.31800875 L68.0609188,19.2534605 L66.4571042,19.2534605 L66.4571042,9.31800875 Z" id="Fill-45" fill="#7E634C"></path>
                <path d="M71.2634238,14.2857346 L72.8672384,14.2857346 L72.8672384,24.2211864 L71.2634238,24.2211864 L71.2634238,14.2857346 Z" id="Fill-46" fill="#7E634C"></path>
                <path d="M36.8390563,54.1095257 L38.4428709,54.1095257 L38.4428709,61.8006619 L36.8390563,61.8006619 L36.8390563,54.1095257 Z" id="Fill-47" fill="#998269"></path>
                <path d="M32.6655517,54.1095257 L34.2693663,54.1095257 L34.2693663,59.5256022 L32.6655517,59.5256022 L32.6655517,54.1095257 Z" id="Fill-48" fill="#998269"></path>
                <path d="M127.617265,54.1095257 L129.223642,54.1095257 L129.223642,61.8006619 L127.617265,61.8006619 L127.617265,54.1095257 Z" id="Fill-49" fill="#998269"></path>
                <path d="M123.976657,54.1095257 L125.583034,54.1095257 L125.583034,62.8933566 L123.976657,62.8933566 L123.976657,54.1095257 Z" id="Fill-50" fill="#998269"></path>
                <path d="M119.746789,54.1095257 L121.353165,54.1095257 L121.353165,64.0449774 L119.746789,64.0449774 L119.746789,54.1095257 Z" id="Fill-51" fill="#998269"></path>
                <path d="M116.111305,54.1095257 L117.715119,54.1095257 L117.715119,61.8006619 L116.111305,61.8006619 L116.111305,54.1095257 Z" id="Fill-52" fill="#998269"></path>
                <path d="M93.3261218,54.1095257 L94.9299363,54.1095257 L94.9299363,64.0449774 L93.3261218,64.0449774 L93.3261218,54.1095257 Z" id="Fill-53" fill="#998269"></path>
                <path d="M97.4970644,54.1095257 L99.1008789,54.1095257 L99.1008789,61.8006619 L97.4970644,61.8006619 L97.4970644,54.1095257 Z" id="Fill-54" fill="#998269"></path>
                <path d="M101.666726,54.1095257 L103.270541,54.1095257 L103.270541,59.5256022 L101.666726,59.5256022 L101.666726,54.1095257 Z" id="Fill-55" fill="#998269"></path>
                <path d="M67.6727751,8.38287727 L67.2257054,8.83507099 L67.7662883,9.31800875 L68.0609188,9.31800875 L68.0609188,9.58061417 L72.0935131,13.1802299 L67.6727751,8.38287727" id="Fill-56" fill="#C9CAC9"></path>
                <path d="M71.2634238,14.2857346 L72.8672384,14.2857346 L72.8672384,24.2211864 L71.2634238,24.2211864 L71.2634238,14.2857346 Z M68.0609188,9.58061417 L68.0609188,19.2534605 L66.4571042,19.2534605 L66.4571042,9.61135822 L63.2545992,12.8458883 L63.2545992,22.5968758 L61.6482226,22.5968758 L61.6482226,14.4689179 L49.7336227,26.502651 L56.4588834,34.4410205 C58.0562929,30.0215635 62.2887236,26.8638935 67.2577305,26.8638935 C73.5974095,26.8638935 78.7393517,32.0045547 78.7393517,38.3442337 C78.7393517,43.9742376 74.6836992,48.660143 69.3355158,49.6388286 L76.446358,58.0332349 L82.3799594,58.0332349 L82.3799594,65.036473 L88.9771199,72.8249653 L88.9771199,31.5075259 L72.0935131,13.1802299 L68.0609188,9.58061417 L68.0609188,9.58061417 Z M67.2257054,8.83507099 L66.7478917,9.31800875 L67.7662883,9.31800875 L67.2257054,8.83507099 L67.2257054,8.83507099 Z" id="Fill-57" fill="#A29684"></path>
                <path d="M82.3799594,58.0332349 L76.446358,58.0332349 L82.3799594,65.036473 L82.3799594,58.0332349" id="Fill-58" fill="#C9CAC9"></path>
                <path d="M67.2577305,26.8638935 C62.2887236,26.8638935 58.0562929,30.0215635 56.4588834,34.4410205 L58.1638971,36.4521937 C58.9786144,32.5131125 62.2900046,29.4873857 66.3687151,29.0992421 L66.3687151,29.05825 L68.1493079,29.05825 L68.1493079,29.0992421 C72.5687649,29.5194107 76.0825535,33.0357613 76.5027221,37.4539373 L76.5449952,37.4539373 L76.5449952,39.2332491 L76.5027221,39.2332491 C76.0671814,43.8230794 72.2907875,47.4419101 67.6279401,47.6238124 L69.3355158,49.6388286 C74.6836992,48.660143 78.7393517,43.9742376 78.7393517,38.3442337 C78.7393517,32.0045547 73.5974095,26.8638935 67.2577305,26.8638935" id="Fill-59" fill="#796753"></path>
                <path d="M76.5027221,39.2332491 L60.5196598,39.2332491 L67.6279401,47.6238124 C72.2907875,47.4419101 76.0671814,43.8230794 76.5027221,39.2332491 M68.1493079,29.0992421 L68.1493079,37.4539373 L76.5027221,37.4539373 C76.0825535,33.0357613 72.5687649,29.5194107 68.1493079,29.0992421 M66.3687151,29.0992421 C62.2900046,29.4873857 58.9786144,32.5131125 58.1638971,36.4521937 L59.0119204,37.4539373 L66.3687151,37.4539373 L66.3687151,29.0992421" id="Fill-60" fill="#C9CAC9"></path>
                <path d="M76.5449952,37.4539373 L68.1493079,37.4539373 L68.1493079,38.3442337 L66.3687151,38.3442337 L66.3687151,37.4539373 L59.0119204,37.4539373 L60.5196598,39.2332491 L76.5449952,39.2332491 L76.5449952,37.4539373" id="Fill-61" fill="#796753"></path>
                <path d="M66.3687151,38.3442337 L68.1480269,38.3442337 L68.1480269,29.05825 L66.3687151,29.05825 L66.3687151,38.3442337 Z" id="Fill-62" fill="#796753"></path>
                <path d="M88.9771199,46.9307903 L88.9771199,57.3427748 L88.9771199,46.9307903" id="Fill-63" fill="#796753"></path>
                <path d="M63.2545992,12.8458883 L61.6482226,14.4689179 L61.6482226,22.5968758 L63.2545992,22.5968758 L63.2545992,12.8458883" id="Fill-64" fill="#634E3C"></path>
                <path d="M68.0609188,9.31800875 L66.7478917,9.31800875 L66.4571042,9.61135822 L66.4571042,19.2534605 L68.0609188,19.2534605 L68.0609188,9.31800875" id="Fill-65" fill="#634E3C"></path>
                <path d="M71.2634238,14.2857346 L72.8672384,14.2857346 L72.8672384,24.2211864 L71.2634238,24.2211864 L71.2634238,14.2857346 Z" id="Fill-66" fill="#634E3C"></path>
                <path d="M90.4489912,35.1340426 L65.5860228,10.4888446 L69.7620895,6.27819094 L94.6237768,30.923389 L90.4489912,35.1340426" id="Fill-67" fill="#998269"></path>
                <path d="M44.7005658,35.1250756 L40.5040031,30.932356 L71.3031349,0.133224211 L75.4971355,4.32594385 L44.7005658,35.1250756" id="Fill-68" fill="#998269"></path>
            </g>
            <g id="Imported-Layers" transform="translate(78.422126, 95.453866)" sketch:type="MSShapeGroup">
                <path d="M0.445788706,0.71351813 L72.9774045,0.71351813 L72.9774045,84.3078675 L0.445788706,84.3078675 L0.445788706,0.71351813 Z" id="Fill-10" fill="#FAE395"></path>
                <path d="M0.445788706,0.71351813 L10.7783511,0.71351813 L10.7783511,84.3078675 L0.445788706,84.3078675 L0.445788706,0.71351813 Z" id="Fill-11" fill="#12979F"></path>
                <path d="M8.45205138,0.71351813 L10.7783511,0.71351813 L10.7783511,84.3078675 L8.45205138,84.3078675 L8.45205138,0.71351813 Z" id="Fill-12" fill="#08858C"></path>
                <path d="M39.147422,30.4007401 L19.2893285,44.2458101 L19.2893285,72.7481052 L58.9555563,72.7481052 L58.9555563,44.2458101 L59.0055154,44.2458101 L39.147422,30.4007401" id="Fill-13" fill="#FFFFFF"></path>
                <path d="M19.2893285,12.2950575 L59.0055154,12.2950575 L59.0055154,15.7435149 L19.2893285,15.7435149 L19.2893285,12.2950575 Z" id="Fill-14" fill="#FFFFFF"></path>
                <path d="M24.8988364,51.7473579 L28.8379177,51.7473579 L28.8379177,57.7501334 L24.8988364,57.7501334 L24.8988364,51.7473579 Z" id="Fill-15" fill="#42A437"></path>
                <path d="M31.9289756,56.3525602 L35.8654948,56.3525602 L35.8654948,62.3527737 L31.9289756,62.3527737 L31.9289756,56.3525602 Z" id="Fill-16" fill="#3FC45C"></path>
            </g>
        </g>
    </g>
</svg>