<?xml version="1.0" encoding="UTF-8" standalone="no"?>
<svg width="240px" height="240px" viewBox="0 0 240 240" version="1.1" xmlns="http://www.w3.org/2000/svg" xmlns:xlink="http://www.w3.org/1999/xlink" xmlns:sketch="http://www.bohemiancoding.com/sketch/ns">
    <!-- Generator: Sketch 3.3.3 (12072) - http://www.bohemiancoding.com/sketch -->
    <title>hp1_1</title>
    <desc>Created with Sketch.</desc>
    <defs></defs>
    <g id="Page-1" stroke="none" stroke-width="1" fill="none" fill-rule="evenodd" sketch:type="MSPage">
        <g id="Imported-Layers" sketch:type="MSLayerGroup" transform="translate(30.000000, 46.930693)">
            <path d="M52.9378218,36.1211881 L119.300792,36.1211881 L119.300792,47.6554455 L52.9378218,47.6554455 L52.9378218,36.1211881 Z" id="Fill-1" fill="#F2DD93" sketch:type="MSShapeGroup"></path>
            <path d="M56.5271287,47.6554455 L122.888317,47.6554455 L122.888317,59.1879208 L56.5271287,59.1879208 L56.5271287,47.6554455 Z" id="Fill-2" fill="#ECAF69" sketch:type="MSShapeGroup"></path>
            <path d="M48.1544554,59.1879208 L114.512079,59.1879208 L114.512079,70.7186139 L48.1544554,70.7186139 L48.1544554,59.1879208 Z" id="Fill-3" fill="#F2DD93" sketch:type="MSShapeGroup"></path>
            <path d="M52.9378218,70.720396 L119.300792,70.720396 L119.300792,82.2510891 L52.9378218,82.2510891 L52.9378218,70.720396 Z" id="Fill-4" fill="#ECAF69" sketch:type="MSShapeGroup"></path>
            <path d="M48.1544554,82.2510891 L114.512079,82.2510891 L114.512079,93.7835644 L48.1544554,93.7835644 L48.1544554,82.2510891 Z" id="Fill-5" fill="#F2DD93" sketch:type="MSShapeGroup"></path>
            <path d="M56.5271287,93.7835644 L122.888317,93.7835644 L122.888317,105.314257 L56.5271287,105.314257 L56.5271287,93.7835644 Z" id="Fill-6" fill="#ECAF69" sketch:type="MSShapeGroup"></path>
            <path d="M49.1506931,105.31604 L115.511881,105.31604 L115.511881,116.848515 L49.1506931,116.848515 L49.1506931,105.31604 Z" id="Fill-7" fill="#F2DD93" sketch:type="MSShapeGroup"></path>
            <path d="M52.3390099,116.848515 L118.700198,116.848515 L118.700198,128.379208 L52.3390099,128.379208 L52.3390099,116.848515 Z" id="Fill-8" fill="#ECAF69" sketch:type="MSShapeGroup"></path>
            <path d="M56.5271287,1.52554455 L122.888317,1.52554455 L122.888317,13.059802 L56.5271287,13.059802 L56.5271287,1.52554455 Z" id="Fill-9" fill="#ECAF69" sketch:type="MSShapeGroup"></path>
            <path d="M49.1506931,13.0562376 L115.511881,13.0562376 L115.511881,24.590495 L49.1506931,24.590495 L49.1506931,13.0562376 Z" id="Fill-10" fill="#F2DD93" sketch:type="MSShapeGroup"></path>
            <path d="M52.3390099,24.5922772 L118.700198,24.5922772 L118.700198,36.1247525 L52.3390099,36.1247525 L52.3390099,24.5922772 Z" id="Fill-11" fill="#ECAF69" sketch:type="MSShapeGroup"></path>
            <path d="M0.169306931,64.9514851 L66.530495,64.9514851 L66.530495,76.4821782 L0.169306931,76.4821782 L0.169306931,64.9514851 Z" id="Fill-12" fill="#E48A39" sketch:type="MSShapeGroup"></path>
            <path d="M8.54376238,76.4839604 L74.9049505,76.4839604 L74.9049505,88.0164356 L8.54376238,88.0164356 L8.54376238,76.4839604 Z" id="Fill-13" fill="#F2DD93" sketch:type="MSShapeGroup"></path>
            <path d="M3.75683168,88.0164356 L70.1180198,88.0164356 L70.1180198,99.5489109 L3.75683168,99.5489109 L3.75683168,88.0164356 Z" id="Fill-14" fill="#E48A39" sketch:type="MSShapeGroup"></path>
            <path d="M8.54376238,99.5471287 L74.9049505,99.5471287 L74.9049505,111.077822 L8.54376238,111.077822 L8.54376238,99.5471287 Z" id="Fill-15" fill="#F2DD93" sketch:type="MSShapeGroup"></path>
            <path d="M0.169306931,111.079604 L66.530495,111.079604 L66.530495,122.612079 L0.169306931,122.612079 L0.169306931,111.079604 Z" id="Fill-16" fill="#E48A39" sketch:type="MSShapeGroup"></path>
            <path d="M7.54930693,122.612079 L73.9069307,122.612079 L73.9069307,134.142772 L7.54930693,134.142772 L7.54930693,122.612079 Z" id="Fill-17" fill="#F2DD93" sketch:type="MSShapeGroup"></path>
            <path d="M4.35742574,134.142772 L70.7186139,134.142772 L70.7186139,145.675248 L4.35742574,145.675248 L4.35742574,134.142772 Z" id="Fill-18" fill="#E48A39" sketch:type="MSShapeGroup"></path>
            <path d="M66.530495,64.9514851 L66.530495,64.9514851 L37.5344554,64.9550495 L37.5344554,76.4839604 L66.530495,76.4839604 L66.530495,64.9514851" id="Fill-19" fill="#CC7B33" sketch:type="MSShapeGroup"></path>
            <path d="M37.5344554,88.0164356 L74.9049505,88.0164356 L74.9049505,76.4839604 L37.5344554,76.4839604 L37.5344554,88.0164356 Z" id="Fill-20" fill="#D8C683" sketch:type="MSShapeGroup"></path>
            <path d="M37.5344554,99.5471287 L70.1180198,99.5471287 L70.1180198,88.0146535 L37.5344554,88.0146535 L37.5344554,99.5471287 Z" id="Fill-21" fill="#CC7B33" sketch:type="MSShapeGroup"></path>
            <path d="M37.5344554,111.079604 L74.9049505,111.079604 L74.9049505,99.5489109 L37.5344554,99.5489109 L37.5344554,111.079604 Z" id="Fill-22" fill="#D8C683" sketch:type="MSShapeGroup"></path>
            <path d="M37.5344554,122.612079 L66.530495,122.612079 L66.530495,111.079604 L37.5344554,111.079604 L37.5344554,122.612079 Z" id="Fill-23" fill="#CC7B33" sketch:type="MSShapeGroup"></path>
            <path d="M37.5344554,134.142772 L73.9051485,134.142772 L73.9051485,122.612079 L37.5344554,122.612079 L37.5344554,134.142772 Z" id="Fill-24" fill="#D8C683" sketch:type="MSShapeGroup"></path>
            <path d="M37.5344554,134.142772 L70.7168317,134.142772 L70.7168317,145.675248 L37.5344554,145.675248 L37.5344554,134.142772 Z" id="Fill-25" fill="#CC7B33" sketch:type="MSShapeGroup"></path>
            <path d="M119.300792,36.1211881 L118.700198,36.1211881 L118.700198,36.1247525 L86.120198,36.1247525 L86.120198,47.6554455 L103.94198,47.6554455 L103.94198,41.8883168 L119.300792,41.8883168 L119.300792,36.1211881" id="Fill-26" fill="#D8C683" sketch:type="MSShapeGroup"></path>
            <path d="M103.94198,47.6554455 L86.120198,47.6554455 L86.120198,59.1879208 L107.531287,59.1879208 L107.531287,53.4243564 L103.94198,53.4243564 L103.94198,47.6554455" id="Fill-27" fill="#D29D5E" sketch:type="MSShapeGroup"></path>
            <path d="M107.531287,59.1879208 L86.120198,59.1879208 L86.120198,70.720396 L103.94198,70.720396 L103.94198,64.9514851 L107.531287,64.9514851 L107.531287,59.1879208" id="Fill-28" fill="#D8C683" sketch:type="MSShapeGroup"></path>
            <path d="M103.94198,70.720396 L86.120198,70.720396 L86.120198,82.2510891 L112.316436,82.2510891 L112.316436,76.4839604 L103.94198,76.4839604 L103.94198,70.720396" id="Fill-29" fill="#D29D5E" sketch:type="MSShapeGroup"></path>
            <path d="M112.316436,82.2510891 L86.120198,82.2510891 L86.120198,93.7835644 L107.531287,93.7835644 L107.531287,88.0164356 L112.316436,88.0164356 L112.316436,82.2510891" id="Fill-30" fill="#D8C683" sketch:type="MSShapeGroup"></path>
            <path d="M107.531287,93.7835644 L86.120198,93.7835644 L86.120198,105.31604 L112.316436,105.31604 L112.316436,99.5471287 L107.531287,99.5471287 L107.531287,93.7835644" id="Fill-31" fill="#D29D5E" sketch:type="MSShapeGroup"></path>
            <path d="M112.316436,105.31604 L86.120198,105.31604 L86.120198,116.848515 L103.94198,116.848515 L103.94198,111.079604 L112.316436,111.079604 L112.316436,105.31604" id="Fill-32" fill="#D8C683" sketch:type="MSShapeGroup"></path>
            <path d="M103.94198,116.848515 L86.120198,116.848515 L86.120198,128.379208 L111.32198,128.379208 L111.32198,122.612079 L103.94198,122.612079 L103.94198,116.848515" id="Fill-33" fill="#D29D5E" sketch:type="MSShapeGroup"></path>
            <path d="M122.888317,1.52554455 L86.120198,1.52554455 L86.120198,13.0562376 L115.511881,13.0562376 L115.511881,13.059802 L122.888317,13.059802 L122.888317,1.52554455" id="Fill-34" fill="#D29D5E" sketch:type="MSShapeGroup"></path>
            <path d="M86.120198,24.5922772 L115.511881,24.5922772 L115.511881,13.0580198 L86.120198,13.0580198 L86.120198,24.5922772 Z" id="Fill-35" fill="#D8C683" sketch:type="MSShapeGroup"></path>
            <path d="M86.120198,36.1247525 L118.700198,36.1247525 L118.700198,24.5922772 L86.120198,24.5922772 L86.120198,36.1247525 Z" id="Fill-36" fill="#D29D5E" sketch:type="MSShapeGroup"></path>
            <path d="M107.531287,53.4190099 L173.892475,53.4190099 L173.892475,64.9514851 L107.531287,64.9514851 L107.531287,53.4190099 Z" id="Fill-37" fill="#F2DD93" sketch:type="MSShapeGroup"></path>
            <path d="M103.94198,64.9514851 L170.303168,64.9514851 L170.303168,76.4821782 L103.94198,76.4821782 L103.94198,64.9514851 Z" id="Fill-38" fill="#E48A39" sketch:type="MSShapeGroup"></path>
            <path d="M103.94198,41.8883168 L170.303168,41.8883168 L170.303168,53.4243564 L103.94198,53.4243564 L103.94198,41.8883168 Z" id="Fill-39" fill="#E48A39" sketch:type="MSShapeGroup"></path>
            <path d="M112.316436,76.4839604 L178.677624,76.4839604 L178.677624,88.0164356 L112.316436,88.0164356 L112.316436,76.4839604 Z" id="Fill-40" fill="#F2DD93" sketch:type="MSShapeGroup"></path>
            <path d="M107.531287,88.0164356 L173.892475,88.0164356 L173.892475,99.5489109 L107.531287,99.5489109 L107.531287,88.0164356 Z" id="Fill-41" fill="#E48A39" sketch:type="MSShapeGroup"></path>
            <path d="M112.316436,99.5471287 L178.677624,99.5471287 L178.677624,111.077822 L112.316436,111.077822 L112.316436,99.5471287 Z" id="Fill-42" fill="#F2DD93" sketch:type="MSShapeGroup"></path>
            <path d="M103.94198,111.079604 L170.303168,111.079604 L170.303168,122.612079 L103.94198,122.612079 L103.94198,111.079604 Z" id="Fill-43" fill="#E48A39" sketch:type="MSShapeGroup"></path>
            <path d="M111.32198,122.612079 L177.679604,122.612079 L177.679604,134.142772 L111.32198,134.142772 L111.32198,122.612079 Z" id="Fill-44" fill="#F2DD93" sketch:type="MSShapeGroup"></path>
            <path d="M108.130099,134.142772 L174.491287,134.142772 L174.491287,145.675248 L108.130099,145.675248 L108.130099,134.142772 Z" id="Fill-45" fill="#E48A39" sketch:type="MSShapeGroup"></path>
            <path d="M173.892475,53.4190099 L170.303168,53.4190099 L170.303168,53.4243564 L140.710099,53.4243564 L140.710099,64.9514851 L173.892475,64.9514851 L173.892475,53.4190099" id="Fill-46" fill="#D8C683" sketch:type="MSShapeGroup"></path>
            <path d="M140.710099,64.9514851 L170.303168,64.9514851 L170.303168,76.4821782 L140.710099,76.4821782 L140.710099,64.9514851 Z" id="Fill-47" fill="#CC7B33" sketch:type="MSShapeGroup"></path>
            <path d="M140.710099,53.4243564 L170.303168,53.4243564 L170.303168,41.8883168 L140.710099,41.8883168 L140.710099,53.4243564 Z" id="Fill-48" fill="#CC7B33" sketch:type="MSShapeGroup"></path>
            <path d="M140.710099,88.0164356 L178.677624,88.0164356 L178.677624,76.4839604 L140.710099,76.4839604 L140.710099,88.0164356 Z" id="Fill-49" fill="#D8C683" sketch:type="MSShapeGroup"></path>
            <path d="M140.710099,88.0164356 L173.892475,88.0164356 L173.892475,99.5489109 L140.710099,99.5489109 L140.710099,88.0164356 Z" id="Fill-50" fill="#CC7B33" sketch:type="MSShapeGroup"></path>
            <path d="M140.710099,111.079604 L178.677624,111.079604 L178.677624,99.5489109 L140.710099,99.5489109 L140.710099,111.079604 Z" id="Fill-51" fill="#D8C683" sketch:type="MSShapeGroup"></path>
            <path d="M140.710099,111.079604 L170.303168,111.079604 L170.303168,122.612079 L140.710099,122.612079 L140.710099,111.079604 Z" id="Fill-52" fill="#CC7B33" sketch:type="MSShapeGroup"></path>
            <path d="M140.710099,134.142772 L177.679604,134.142772 L177.679604,122.612079 L140.710099,122.612079 L140.710099,134.142772 Z" id="Fill-53" fill="#D8C683" sketch:type="MSShapeGroup"></path>
            <path d="M140.710099,134.142772 L174.491287,134.142772 L174.491287,145.675248 L140.710099,145.675248 L140.710099,134.142772 Z" id="Fill-54" fill="#CC7B33" sketch:type="MSShapeGroup"></path>
        </g>
    </g>
</svg>