<?xml version="1.0" encoding="UTF-8" standalone="no"?>
<svg width="240px" height="240px" viewBox="0 0 240 240" version="1.1" xmlns="http://www.w3.org/2000/svg" xmlns:xlink="http://www.w3.org/1999/xlink" xmlns:sketch="http://www.bohemiancoding.com/sketch/ns">
    <!-- Generator: Sketch 3.3.3 (12072) - http://www.bohemiancoding.com/sketch -->
    <title>hp2_3</title>
    <desc>Created with Sketch.</desc>
    <defs>
        <path id="path-1" d="M17.4439024,1.0497561 L1.20585366,1.0497561 L11.4172358,22.1294309 L17.4439024,22.1294309 L17.4439024,1.0497561 L17.4439024,1.0497561 Z"></path>
        <path id="path-3" d="M3.27284553,1.17463415 L0.189918699,1.17463415 L3.27284553,7.5395122 L3.27284553,1.17463415 L3.27284553,1.17463415 Z"></path>
        <path id="path-5" d="M15.798374,1.04195122 L0.161300813,1.04195122 L10.0058537,21.3658537 L15.798374,21.3658537 L15.798374,1.04195122 L15.798374,1.04195122 Z"></path>
        <path id="path-7" d="M3.11284553,0.638699187 L0.189918699,0.638699187 L3.11284553,6.67056911 L3.11284553,0.638699187 L3.11284553,0.638699187 Z"></path>
        <path id="path-9" d="M16.7011382,0.796097561 L0.113170732,0.796097561 L10.4364228,22.1073171 L16.7011382,22.1073171 L16.7011382,0.796097561 L16.7011382,0.796097561 Z"></path>
        <path id="path-11" d="M3.14146341,0.991219512 L0.431869919,0.991219512 L3.14146341,6.58471545 L3.14146341,0.991219512 L3.14146341,0.991219512 Z"></path>
        <path id="path-13" d="M16.2185366,0.353821138 L0.157398374,0.353821138 L10.5925203,21.8926829 L16.2185366,21.8926829 L16.2185366,0.353821138 L16.2185366,0.353821138 Z"></path>
        <path id="path-15" d="M3.60065041,0.571056911 L0.487804878,0.571056911 L3.60065041,6.99837398 L3.60065041,0.571056911 L3.60065041,0.571056911 Z"></path>
    </defs>
    <g id="Page-1" stroke="none" stroke-width="1" fill="none" fill-rule="evenodd" sketch:type="MSPage">
        <g id="Imported-Layers" sketch:type="MSLayerGroup" transform="translate(40.000000, 48.000000)">
            <path d="M1.06536585,0.650406504 L72.862439,0.650406504 L72.862439,70.7655285 L1.06536585,70.7655285 L1.06536585,0.650406504 Z" id="Fill-1" fill="#998269" sketch:type="MSShapeGroup"></path>
            <path d="M72.862439,0.650406504 L38.8995122,0.650406504 L44.1326829,11.4562602 L60.3707317,11.4562602 L60.3707317,32.535935 L54.344065,32.535935 L57.4256911,38.8982114 L60.5086179,38.8982114 L60.5086179,45.2630894 L72.862439,70.7655285 L72.862439,0.650406504" id="Fill-2" fill="#89755E" sketch:type="MSShapeGroup"></path>
            <g id="Group-5" transform="translate(42.926829, 10.406504)">
                <mask id="mask-2" sketch:name="Clip 4" fill="white">
                    <use xlink:href="#path-1"></use>
                </mask>
                <g id="Clip-4"></g>
                <path d="M1.20585366,1.0497561 L17.4439024,1.0497561 L17.4439024,22.1307317 L1.20585366,22.1307317 L1.20585366,1.0497561 Z" id="Fill-3" fill="#89755E" sketch:type="MSShapeGroup" mask="url(#mask-2)"></path>
            </g>
            <g id="Group-8" transform="translate(57.235772, 37.723577)">
                <mask id="mask-4" sketch:name="Clip 7" fill="white">
                    <use xlink:href="#path-3"></use>
                </mask>
                <g id="Clip-7"></g>
                <path d="M0.189918699,1.17463415 L3.27284553,1.17463415 L3.27284553,7.5395122 L0.189918699,7.5395122 L0.189918699,1.17463415 Z" id="Fill-6" fill="#89755E" sketch:type="MSShapeGroup" mask="url(#mask-4)"></path>
            </g>
            <path d="M72.8637398,0.650406504 L77.8055285,0.650406504 L77.8055285,70.7655285 L72.8637398,70.7655285 L72.8637398,0.650406504 Z" id="Fill-9" fill="#3FC45C" sketch:type="MSShapeGroup"></path>
            <path d="M1.06536585,74.260813 L72.862439,74.260813 L72.862439,144.377236 L1.06536585,144.377236 L1.06536585,74.260813 Z" id="Fill-10" fill="#42A437" sketch:type="MSShapeGroup"></path>
            <text id="˛" sketch:type="MSTextLayer" font-family="Courier" font-size="17.654" font-weight="normal" fill="#FFFFFF">
                <tspan x="56.6582064" y="96.8629593">˛</tspan>
            </text>
            <path d="M72.862439,74.260813 L38.8995122,74.260813 L44.3889431,85.5947967 L60.0260163,85.5947967 L60.0260163,105.918699 L54.2334959,105.918699 L57.4256911,112.508618 L60.3486179,112.508618 L60.3486179,118.540488 L72.862439,144.375935 L72.862439,74.260813" id="Fill-11" fill="#3B9331" sketch:type="MSShapeGroup"></path>
            <g id="Group-14" transform="translate(44.227642, 84.552846)">
                <mask id="mask-6" sketch:name="Clip 13" fill="white">
                    <use xlink:href="#path-5"></use>
                </mask>
                <g id="Clip-13"></g>
                <path d="M0.161300813,1.04195122 L15.798374,1.04195122 L15.798374,21.3658537 L0.161300813,21.3658537 L0.161300813,1.04195122 Z" id="Fill-12" fill="#3B9331" sketch:type="MSShapeGroup" mask="url(#mask-6)"></path>
            </g>
            <g id="Group-17" transform="translate(57.235772, 111.869919)">
                <mask id="mask-8" sketch:name="Clip 16" fill="white">
                    <use xlink:href="#path-7"></use>
                </mask>
                <g id="Clip-16"></g>
                <path d="M0.189918699,0.638699187 L3.11154472,0.638699187 L3.11154472,6.67056911 L0.189918699,6.67056911 L0.189918699,0.638699187 Z" id="Fill-15" fill="#3B9331" sketch:type="MSShapeGroup" mask="url(#mask-8)"></path>
            </g>
            <path d="M72.8637398,74.260813 L77.8055285,74.260813 L77.8055285,144.375935 L72.8637398,144.375935 L72.8637398,74.260813 Z" id="Fill-18" fill="#3FC45C" sketch:type="MSShapeGroup"></path>
            <path d="M82.0461789,0.650406504 L153.843252,0.650406504 L153.843252,70.7655285 L82.0461789,70.7655285 L82.0461789,0.650406504 Z" id="Fill-19" fill="#EFCA82" sketch:type="MSShapeGroup"></path>
            <path d="M153.843252,0.650406504 L119.879024,0.650406504 L124.99122,11.2026016 L141.579187,11.2026016 L141.579187,32.5138211 L135.314472,32.5138211 L138.318049,38.7147967 L141.027642,38.7147967 L141.027642,44.3082927 L153.843252,70.7655285 L153.843252,0.650406504" id="Fill-20" fill="#D7B574" sketch:type="MSShapeGroup"></path>
            <g id="Group-23" transform="translate(124.878049, 10.406504)">
                <mask id="mask-10" sketch:name="Clip 22" fill="white">
                    <use xlink:href="#path-9"></use>
                </mask>
                <g id="Clip-22"></g>
                <path d="M0.113170732,0.796097561 L16.7011382,0.796097561 L16.7011382,22.1073171 L0.113170732,22.1073171 L0.113170732,0.796097561 Z" id="Fill-21" fill="#D7B574" sketch:type="MSShapeGroup" mask="url(#mask-10)"></path>
            </g>
            <g id="Group-26" transform="translate(137.886179, 37.723577)">
                <mask id="mask-12" sketch:name="Clip 25" fill="white">
                    <use xlink:href="#path-11"></use>
                </mask>
                <g id="Clip-25"></g>
                <path d="M0.431869919,0.991219512 L3.14146341,0.991219512 L3.14146341,6.58601626 L0.431869919,6.58601626 L0.431869919,0.991219512 Z" id="Fill-24" fill="#D7B574" sketch:type="MSShapeGroup" mask="url(#mask-12)"></path>
            </g>
            <path d="M153.843252,0.650406504 L158.785041,0.650406504 L158.785041,70.7655285 L153.843252,70.7655285 L153.843252,0.650406504 Z" id="Fill-27" fill="#3FC45C" sketch:type="MSShapeGroup"></path>
            <path d="M82.0461789,74.260813 L153.843252,74.260813 L153.843252,144.377236 L82.0461789,144.377236 L82.0461789,74.260813 Z" id="Fill-28" fill="#12979F" sketch:type="MSShapeGroup"></path>
            <path d="M153.843252,74.260813 L119.879024,74.260813 L125.035447,84.9066667 L141.096585,84.9066667 L141.096585,106.445528 L135.470569,106.445528 L138.373984,112.440976 L141.486829,112.440976 L141.486829,118.868293 L153.843252,144.375935 L153.843252,74.260813" id="Fill-29" fill="#10888E" sketch:type="MSShapeGroup"></path>
            <g id="Group-32" transform="translate(124.878049, 84.552846)">
                <mask id="mask-14" sketch:name="Clip 31" fill="white">
                    <use xlink:href="#path-13"></use>
                </mask>
                <g id="Clip-31"></g>
                <path d="M0.157398374,0.353821138 L16.2172358,0.353821138 L16.2172358,21.8939837 L0.157398374,21.8939837 L0.157398374,0.353821138 Z" id="Fill-30" fill="#10888E" sketch:type="MSShapeGroup" mask="url(#mask-14)"></path>
            </g>
            <g id="Group-35" transform="translate(137.886179, 111.869919)">
                <mask id="mask-16" sketch:name="Clip 34" fill="white">
                    <use xlink:href="#path-15"></use>
                </mask>
                <g id="Clip-34"></g>
                <path d="M0.487804878,0.571056911 L3.60065041,0.571056911 L3.60065041,6.99837398 L0.487804878,6.99837398 L0.487804878,0.571056911 Z" id="Fill-33" fill="#10888E" sketch:type="MSShapeGroup" mask="url(#mask-16)"></path>
            </g>
            <path d="M153.843252,74.260813 L158.785041,74.260813 L158.785041,144.375935 L153.843252,144.375935 L153.843252,74.260813 Z" id="Fill-36" fill="#3FC45C" sketch:type="MSShapeGroup"></path>
            <path d="M15.0247493,17.830132 L15.0247493,19.3917216 L17.091559,19.3917216 L17.091559,27.0848468 C16.3566933,27.3604215 15.5758985,27.6130315 14.7951037,27.8197125 L15.2084657,29.3813021 C17.1374881,28.7382946 18.9287233,27.9115707 20.5821711,26.9470595 L20.5821711,25.3395408 C19.9621281,25.7069737 19.3420852,26.051442 18.6990777,26.3729457 L18.6990777,19.3917216 L20.7429229,19.3917216 L20.7429229,17.830132 L18.6990777,17.830132 L18.6990777,12.0201002 L17.091559,12.0201002 L17.091559,17.830132 L15.0247493,17.830132 Z M23.5905275,21.6192833 L26.0706992,21.6192833 C26.0477346,24.2602068 25.978841,25.9366192 25.8410537,26.6714849 C25.7032663,27.383386 25.4047272,27.7737834 24.899507,27.8197125 L23.3149528,27.8197125 L23.7283148,29.1746211 L25.2899044,29.1746211 C26.1395928,29.128692 26.7366712,28.669401 27.058175,27.796748 C27.3796787,26.8781659 27.5633951,24.352065 27.5633951,20.2184455 L23.5905275,20.2184455 L23.5905275,16.9115499 L28.6886582,16.9115499 C28.8264455,19.8510127 29.0790556,22.2852553 29.469453,24.2372423 C29.6531694,25.1558244 29.8598504,26.0055128 30.1124605,26.7863076 C28.7805164,28.8071883 27.1041041,30.3228488 25.106188,31.3562537 L26.0936637,32.6193041 C27.8389698,31.6777574 29.3775948,30.3228488 30.6865743,28.5316137 C30.9851135,29.3124085 31.3066172,29.9783805 31.6740501,30.5524943 C32.5237385,31.9303675 33.3274979,32.6193041 34.1082927,32.6193041 C34.9350166,32.6193041 35.5780241,31.080679 36.0373151,28.0034289 L34.659442,27.2455987 C34.4068319,29.4501958 34.1312572,30.5754589 33.8097535,30.5984234 C33.4882498,30.5984234 33.0289587,30.0472741 32.4778094,28.9679402 C32.2022348,28.4397554 31.9266602,27.796748 31.6970146,27.0159532 C32.8911714,24.9950725 33.832718,22.5149008 34.5216546,19.6213672 L33.166746,19.0472533 C32.6615259,21.274815 31.9955538,23.2497665 31.1458654,24.972108 C31.0540072,24.558746 30.9621489,24.1453841 30.8932553,23.686093 C30.5717515,22.0326452 30.3650706,19.7591545 30.2272833,16.9115499 L35.3483785,16.9115499 L35.3483785,15.418854 L30.1813541,15.418854 C30.135425,14.33952 30.1124605,13.1683278 30.1124605,11.928242 L28.5968,11.928242 C28.5968,13.1453633 28.5968,14.3165554 28.6427291,15.418854 L21.9830088,15.418854 L21.9830088,21.6652124 C21.8911506,25.9366192 20.9725685,29.2435148 19.2042979,31.6318283 L20.4214192,32.7111623 C22.4422998,29.9554159 23.4986693,26.2581229 23.5905275,21.6652124 L23.5905275,21.6192833 Z M32.8682068,11.7445255 L31.6510855,12.2267811 C32.2251993,13.053505 32.7533841,14.0180163 33.2586042,15.1203148 L34.4757255,14.5921301 C34.0164345,13.5816898 33.4882498,12.6401431 32.8682068,11.7445255 L32.8682068,11.7445255 Z M47.1521587,20.0576937 L50.2983024,20.0576937 L50.2983024,23.0890146 L47.1521587,23.0890146 L47.1521587,20.0576937 Z M50.2983024,18.6338914 L47.1521587,18.6338914 L47.1521587,15.6025704 L50.2983024,15.6025704 L50.2983024,18.6338914 Z M50.2523733,25.4773281 L48.9204293,25.8906901 C49.3337912,26.8781659 49.7471532,27.9574998 50.1375506,29.128692 C49.2648976,29.5190894 48.2544572,29.8865223 47.1521587,30.2539551 L47.1521587,24.4668878 L51.7680338,24.4668878 L51.7680338,14.2017327 L49.5634367,14.2017327 C49.3337912,13.3290797 49.0811811,12.5253203 48.8056065,11.8134192 L47.2440169,12.0889938 C47.5195915,12.7320013 47.7951662,13.4209379 48.0477763,14.2017327 L45.6594628,14.2017327 L45.6594628,30.0932033 C45.6594628,30.414707 45.4987109,30.6443525 45.1772072,30.7821398 L45.6824273,32.1829776 C47.4736624,31.6777574 49.1041457,31.080679 50.5509125,30.414707 C50.7346289,31.0347499 50.9183454,31.6777574 51.1020618,32.3437294 L52.4110413,31.7466511 C51.7909984,29.5190894 51.0790972,27.4293151 50.2523733,25.4773281 L50.2523733,25.4773281 Z M53.0310842,13.3979733 L53.0310842,32.825985 L54.5008156,32.825985 L54.5008156,14.9136338 L57.2335974,14.9136338 C56.8661646,16.6819044 56.3839089,18.6798205 55.763866,20.8844176 C56.8661646,22.7675109 57.4173138,24.4898524 57.4173138,26.0284774 C57.4173138,26.9470595 57.3024911,27.6130315 57.1187746,28.0034289 C56.8891291,28.3708618 56.4987317,28.6234719 55.9246179,28.7153301 C55.6949724,28.7153301 55.4193977,28.669401 55.097894,28.6234719 L55.5801496,30.1391324 C56.8891291,30.1161678 57.8077112,29.7257704 58.3358959,28.9909047 C58.7033288,28.3708618 58.9100098,27.383386 58.9100098,26.0284774 C58.8411161,24.4209587 58.2899668,22.606759 57.2795265,20.6318075 C57.8536403,18.5649977 58.3358959,16.5670816 58.7492579,14.6610237 L58.7492579,13.3979733 L53.0310842,13.3979733 Z M43.3170784,21.7570706 C43.2252202,22.8593691 43.1103974,23.8698094 42.926681,24.7883915 C42.0080989,25.0869307 41.0435876,25.3165763 40.0790764,25.4773281 C41.640666,23.0430855 43.2481847,19.6213672 44.9016325,15.2581021 L43.385972,14.6839883 C42.926681,16.0159324 42.4444254,17.3019473 41.9392052,18.5420332 C41.1584104,18.6798205 40.3546511,18.7716787 39.5049626,18.8635369 C40.4694738,17.3478764 41.4110205,15.1662439 42.3755317,12.3645685 L40.7909776,11.9052774 C40.102041,14.4084137 39.1375298,16.7278335 37.943373,18.8635369 L38.2419122,20.4940202 C39.2753171,20.402162 40.2857574,20.2414101 41.2961977,20.0576937 C40.4005802,22.0326452 39.4360689,23.8468449 38.4026641,25.5232572 L38.8619551,27.1996696 C40.0561119,27.0618823 41.2732332,26.8092722 42.513319,26.4648039 C42.3296026,27.0389177 42.0999571,27.5671024 41.8703115,28.0263935 C41.0895167,29.4501958 39.8264663,30.5754589 38.0811603,31.3562537 L38.7241678,32.8948787 C40.8139421,31.9762966 42.2607089,30.6902816 43.0874328,29.0827629 C44.0289795,27.2915278 44.5801288,24.8802498 44.7638452,21.8948579 L43.3170784,21.7570706 Z M15.6677567,38.8401197 L15.6677567,40.3787447 L24.6698615,40.3787447 L24.6698615,42.3766608 L17.6427083,42.3766608 L17.6427083,51.4706237 L24.3713223,51.4706237 C24.1416767,52.6647805 23.7283148,53.6522563 23.1771655,54.4330511 C21.8911506,53.767079 20.6969938,52.9862842 19.6176598,52.0906667 L18.3546094,52.9633197 C19.4798725,53.9278309 20.7199584,54.7775193 22.0519024,55.512385 C20.5821711,56.5687545 18.2397867,57.211762 15.0477138,57.464372 L15.759615,58.9800325 C19.4109789,58.5666706 22.0519024,57.6940176 23.6594211,56.3161444 C27.0811395,57.877734 31.0999363,58.7733515 35.7158114,58.957068 L36.1291733,57.3725138 C31.7199792,57.2347265 27.9078634,56.4768963 24.692826,55.1219876 C25.3358335,54.2034055 25.77216,52.9862842 26.0477346,51.4706237 L33.4423207,51.4706237 L33.4423207,42.3766608 L26.3233093,42.3766608 L26.3233093,40.3787447 L35.3483785,40.3787447 L35.3483785,38.8401197 L15.6677567,38.8401197 Z M31.8118374,50.0238569 L26.2544156,50.0238569 L26.3233093,48.3933737 L26.3233093,47.5896143 L31.8118374,47.5896143 L31.8118374,50.0238569 Z M24.6009678,50.0238569 L19.2731915,50.0238569 L19.2731915,47.5896143 L24.6698615,47.5896143 L24.6698615,48.3933737 C24.6698615,48.9445229 24.6468969,49.4956722 24.6009678,50.0238569 L24.6009678,50.0238569 Z M19.2731915,46.2117411 L19.2731915,43.8004631 L24.6698615,43.8004631 L24.6698615,46.2117411 L19.2731915,46.2117411 Z M26.3233093,43.8004631 L31.8118374,43.8004631 L31.8118374,46.2117411 L26.3233093,46.2117411 L26.3233093,43.8004631 Z M42.72,46.6251031 L42.72,49.1741685 L38.5174868,49.1741685 L38.5174868,50.6668644 L42.72,50.6668644 L42.72,59.0259616 L44.3734478,59.0259616 L44.3734478,50.6668644 L48.4841028,50.6668644 L48.4841028,49.1741685 L44.3734478,49.1741685 L44.3734478,46.6251031 L48.8745002,46.6251031 L48.8745002,45.1324072 L46.2565411,45.1324072 C46.623974,44.3516124 46.9684423,43.4789593 47.289946,42.5144481 L45.7972501,42.009228 C45.4987109,43.1115265 45.1542426,44.1449314 44.7638452,45.1324072 L42.2836735,45.1324072 C41.9392052,43.9152859 41.5717724,42.881881 41.1584104,42.009228 L39.7116436,42.5374127 C40.1250055,43.341172 40.4924384,44.213825 40.8139421,45.1324072 L38.150054,45.1324072 L38.150054,46.6251031 L42.72,46.6251031 Z M57.6010302,38.1511831 C55.3734686,39.0927298 52.8703324,39.5979499 50.0916215,39.643879 L50.0916215,49.3349203 C49.9767987,52.894426 49.241933,55.6731369 47.8640598,57.6940176 L49.0582166,58.9111389 C50.7116644,56.5228254 51.5843174,53.3307525 51.6761756,49.3349203 L51.6761756,46.785855 L55.0060358,46.785855 L55.0060358,59.0029971 L56.636519,59.0029971 L56.636519,46.785855 L59.0248325,46.785855 L59.0248325,45.2013008 L51.6761756,45.2013008 L51.6761756,40.9758231 C54.1563473,40.8380358 56.4068735,40.3787447 58.4277541,39.643879 L57.6010302,38.1511831 Z M38.3796995,39.9194537 L38.3796995,41.4351141 L48.7367128,41.4351141 L48.7367128,39.9194537 L44.3964124,39.9194537 C44.0978732,39.1156943 43.799334,38.3808286 43.5007948,37.7378211 L41.7784533,38.0133958 C42.1458862,38.5875096 42.4673899,39.2305171 42.7888937,39.9194537 L38.3796995,39.9194537 Z M40.1250055,51.9528793 C39.6657145,53.97376 38.9078842,55.8109242 37.8515148,57.464372 L39.2064234,58.337025 C40.2398283,56.6146836 41.0435876,54.5938029 41.6177015,52.2743831 L40.1250055,51.9528793 Z M46.7387967,51.8380566 L45.337959,52.2054894 C45.8891083,53.560398 46.3713639,54.9382712 46.7617613,56.3620735 L48.162599,55.8338888 C47.8181307,54.639732 47.3358751,53.307788 46.7387967,51.8380566 L46.7387967,51.8380566 Z" id="城鄉" fill="#FFFFFF" sketch:type="MSShapeGroup"></path>
            <path d="M109.109419,12.0201002 L109.109419,18.8635369 L103.988324,18.8635369 L103.988324,20.4940202 L109.109419,20.4940202 L109.109419,30.5524943 L103.184565,30.5524943 L103.184565,32.1829776 L116.595863,32.1829776 L116.595863,30.5524943 L110.808796,30.5524943 L110.808796,20.4940202 L116.044714,20.4940202 L116.044714,18.8635369 L110.808796,18.8635369 L110.808796,12.0201002 L109.109419,12.0201002 Z M99.1887324,23.3645893 L99.1887324,32.9178433 L100.819216,32.9178433 L100.819216,23.2038374 C101.737798,23.8468449 102.65638,24.6506042 103.597927,25.6151154 L104.516509,24.1913132 C103.368281,23.1579083 102.15116,22.2622907 100.819216,21.5044605 C102.105231,19.8510127 103.069742,18.1975649 103.66682,16.5441171 L103.66682,15.1432793 L100.773287,15.1432793 L101.255542,14.9595629 C100.957003,13.9950517 100.543641,12.9616468 100.038421,11.8134192 L98.4538667,12.2497457 C98.9361223,13.1683278 99.3494842,14.132839 99.7169171,15.1432793 L96.1803759,15.1432793 L96.1803759,16.7278335 L101.990408,16.7278335 C100.934038,19.2309698 98.798335,21.8029997 95.6292267,24.4209587 L96.1344468,26.1662647 C97.2597099,25.224718 98.2701502,24.2831714 99.1887324,23.3645893 L99.1887324,23.3645893 Z M132.71698,19.9658354 C132.372511,20.8844176 131.982114,21.6422478 131.568752,22.2393262 L132.694015,22.6297236 C133.153306,21.940787 133.543703,21.1599922 133.842243,20.2414101 L132.71698,19.9658354 Z M125.460181,19.9428709 L124.334918,20.3103037 C124.794209,21.0451694 125.207571,21.8029997 125.529074,22.6297236 L126.654338,22.3541489 C126.309869,21.4355668 125.919472,20.6318075 125.460181,19.9428709 L125.460181,19.9428709 Z M121.050987,18.3353522 L121.050987,24.1913132 L137.172103,24.1913132 L137.172103,18.3353522 L121.050987,18.3353522 Z M135.656442,22.9512273 L129.869375,22.9512273 L129.869375,19.5984026 L135.656442,19.5984026 L135.656442,22.9512273 Z M128.353714,22.9512273 L122.566647,22.9512273 L122.566647,19.5984026 L128.353714,19.5984026 L128.353714,22.9512273 Z M136.345379,25.431399 L121.900675,25.431399 L121.900675,33.032666 L123.485229,33.032666 L123.485229,32.1370485 L134.760825,32.1370485 L134.760825,33.0097015 L136.345379,33.0097015 L136.345379,25.431399 Z M123.485229,30.8280689 L123.485229,29.335373 L134.760825,29.335373 L134.760825,30.8280689 L123.485229,30.8280689 Z M123.485229,28.1641808 L123.485229,26.6714849 L134.760825,26.6714849 L134.760825,28.1641808 L123.485229,28.1641808 Z M124.541599,16.1996488 L124.541599,17.0952663 L133.658526,17.0952663 L133.658526,16.1307551 C135.220116,16.9804436 136.919493,17.830132 138.779621,18.702785 L139.652274,17.3249119 C135.954981,15.7862868 132.602157,13.9950517 129.616765,11.9741711 L128.606325,11.9741711 C125.620933,14.0180163 122.268108,15.8092514 118.570815,17.370841 L119.443468,18.7487141 C121.280632,17.8990257 122.980009,17.0493372 124.541599,16.1996488 L124.541599,16.1996488 Z M133.153306,15.8551805 L125.138677,15.8551805 C126.562479,15.0284566 127.894423,14.2246972 129.111545,13.3979733 C130.328666,14.2246972 131.683575,15.0284566 133.153306,15.8551805 L133.153306,15.8551805 Z M102.128195,41.8484761 L102.128195,43.4789593 L108.30566,43.4789593 L108.30566,48.9674875 L102.840096,48.9674875 L102.840096,50.5520416 L108.30566,50.5520416 L108.30566,56.591719 L101.760762,56.591719 L101.760762,58.2222023 L116.549934,58.2222023 L116.549934,56.591719 L110.005037,56.591719 L110.005037,50.5520416 L115.424671,50.5520416 L115.424671,48.9674875 L110.005037,48.9674875 L110.005037,43.4789593 L116.067679,43.4789593 L116.067679,41.8484761 L109.247207,41.8484761 L110.028001,41.5499369 C109.729462,40.4476384 109.3161,39.2534816 108.764951,37.9215376 L107.111503,38.3578641 C107.639688,39.4831272 108.098979,40.6543193 108.489376,41.8484761 L102.128195,41.8484761 Z M100.773287,37.8067148 C99.670988,41.3432559 97.9027174,44.4893997 95.4684748,47.2221815 L95.9966595,48.9674875 C96.8693125,48.0718699 97.6730719,47.1303233 98.4079376,46.1198829 L98.4079376,59.0259616 L100.038421,59.0259616 L100.038421,43.6397112 C100.957003,42.0321925 101.714833,40.3328156 102.311912,38.5186159 L100.773287,37.8067148 Z M138.136614,49.9090341 L128.744112,50.1616442 L128.744112,46.1428475 C131.086496,45.7524501 133.268129,45.293159 135.24308,44.7420098 L134.714896,43.2722784 C131.132425,44.2827187 126.998806,44.9946198 122.314037,45.3620527 L122.635541,46.9236423 C124.151201,46.785855 125.643897,46.6021385 127.090664,46.3954576 L127.090664,50.2075733 L119.787936,50.3912898 L119.787936,52.021773 L127.090664,51.815092 L127.090664,56.5457899 C127.090664,57.877734 127.733672,58.543706 129.042651,58.543706 L136.138698,58.543706 C137.034315,58.543706 137.700287,58.337025 138.113649,57.9236631 C138.61887,57.464372 138.940373,56.132428 139.101125,53.9507954 L137.516571,53.4455753 C137.424713,55.1449522 137.218032,56.1783571 136.942457,56.5228254 C136.712812,56.7984 136.345379,56.9591519 135.840159,56.9591519 L129.570836,56.9591519 C129.019687,56.9591519 128.744112,56.6835772 128.744112,56.1783571 L128.744112,51.7691629 L138.136614,51.5165528 L138.136614,49.9090341 Z M138.710728,40.1720637 L130.259772,40.1720637 C129.961233,39.2994107 129.639729,38.4956514 129.318226,37.8067148 L127.549955,38.0822894 C127.894423,38.7023324 128.215927,39.3912689 128.514466,40.1720637 L119.443468,40.1720637 L119.443468,45.3161236 L121.11988,45.3161236 L121.11988,41.7795824 L137.034315,41.7795824 L137.034315,45.086478 L138.710728,45.086478 L138.710728,40.1720637 Z" id="社會" fill="#FFFFFF" sketch:type="MSShapeGroup"></path>
            <path d="M34.0623636,86.970201 L25.2669398,86.970201 L25.2669398,104.584013 L23.1082719,104.584013 L23.1082719,106.168567 L35.991386,106.168567 L35.991386,104.584013 L34.0623636,104.584013 L34.0623636,86.970201 Z M26.851494,104.584013 L26.851494,100.243713 L32.4089158,100.243713 L32.4089158,104.584013 L26.851494,104.584013 Z M26.851494,98.6821229 L26.851494,94.364787 L32.4089158,94.364787 L32.4089158,98.6821229 L26.851494,98.6821229 Z M26.851494,92.8031974 L26.851494,88.5317906 L32.4089158,88.5317906 L32.4089158,92.8031974 L26.851494,92.8031974 Z M15.4151467,92.2520481 L15.4151467,93.8366023 L18.8827941,93.8366023 C18.0560702,96.4545613 16.7011616,98.7969457 14.7951037,100.88672 L15.4840403,102.586097 C16.9767363,100.771897 18.170893,98.728052 19.043546,96.4775259 L19.043546,107.133078 L20.6969938,107.133078 L20.6969938,96.7531005 C21.3859304,97.5338953 22.2126543,98.5902647 23.1771655,99.8992442 L24.0727831,98.5213711 C22.9245554,97.2583207 21.7992924,96.1330576 20.6969938,95.1226172 L20.6969938,93.8366023 L23.8890667,93.8366023 L23.8890667,92.2520481 L20.6969938,92.2520481 L20.6969938,88.5547551 C21.7533633,88.3251096 22.7867681,88.0724995 23.7512793,87.7969249 L23.1771655,86.2582998 C20.9496039,86.9931655 18.4005385,87.4983857 15.5070049,87.7739603 L15.8285086,89.2666563 C16.9308072,89.1518335 17.9871766,89.0140462 19.043546,88.8532943 L19.043546,92.2520481 L15.4151467,92.2520481 Z M49.5634367,99.4858823 L49.5634367,101.575657 L43.5467239,101.575657 L43.5467239,103.045388 L49.5634367,103.045388 L49.5634367,105.089233 L42.3984963,105.089233 L42.3984963,106.581929 L58.1062504,106.581929 L58.1062504,105.089233 L51.1709554,105.089233 L51.1709554,103.045388 L56.7743063,103.045388 L56.7743063,101.575657 L51.1709554,101.575657 L51.1709554,99.3251304 C52.2962185,99.2332722 53.4444462,99.0954849 54.6386029,98.9576976 C54.9141776,99.4629177 55.2127167,99.9911024 55.5112559,100.565216 L56.9120937,99.8762797 C56.0853698,98.3835837 55.2127167,97.0057106 54.2941346,95.7426602 L52.9621906,96.3856676 C53.2607298,96.7990296 53.5592689,97.2353561 53.8807727,97.6946472 C51.4465301,98.0161509 48.9663584,98.2457964 46.3943285,98.3606192 C47.3818042,97.5798244 48.2774218,96.6382777 49.0582166,95.5130146 L57.1876683,95.5130146 L57.1876683,94.0432833 L43.0644683,94.0432833 L43.0644683,95.5130146 L47.3129106,95.5130146 C46.2795057,96.8908878 45.0623844,97.9242927 43.6385821,98.6361938 L44.0749086,99.807386 C45.9120728,99.7384924 47.7492371,99.6236696 49.5634367,99.4858823 L49.5634367,99.4858823 Z M55.4653268,88.4399324 L55.4653268,90.8971395 L42.1458862,90.8971395 L42.1458862,88.4399324 L55.4653268,88.4399324 Z M42.1458862,92.4128 L57.049881,92.4128 L57.049881,86.9242719 L40.5842966,86.9242719 L40.5842966,94.4796098 C40.561332,99.2562367 39.7346081,103.137246 38.1041249,106.145603 L39.3901398,107.270866 C41.2043395,103.71136 42.1229216,99.4399532 42.1458862,94.4796098 L42.1458862,92.4128 Z M15.3232885,114.708803 L15.3232885,116.293357 L24.6468969,116.293357 L24.6468969,119.301713 L17.4819564,119.301713 L17.4819564,129.888372 L19.1124397,129.888372 L19.1124397,120.886267 L24.6468969,120.886267 L24.6468969,133.080445 L26.3462738,133.080445 L26.3462738,120.886267 L32.1563057,120.886267 L32.1563057,127.270413 C32.1563057,127.91342 31.834802,128.234924 31.1917945,128.234924 L29.010162,128.143066 L29.4235239,129.72762 L31.7199792,129.72762 C33.0978524,129.72762 33.8097535,129.015719 33.8097535,127.637846 L33.8097535,119.301713 L26.3462738,119.301713 L26.3462738,116.293357 L35.6698823,116.293357 L35.6698823,114.708803 L26.2773802,114.708803 C25.9099473,113.652433 25.5425145,112.687922 25.1750816,111.838233 L23.4068111,112.113808 C23.820173,112.894603 24.233535,113.744291 24.6009678,114.708803 L15.3232885,114.708803 Z M38.0811603,118.17645 L38.0811603,119.783969 L40.7220839,119.783969 L40.7220839,127.982314 C39.8035018,128.257889 38.8619551,128.487534 37.8974439,128.694215 L38.3108059,130.278769 C40.6072611,129.681691 42.7659291,128.923861 44.7638452,128.051208 L44.7638452,126.443689 C43.9600859,126.811122 43.133362,127.132626 42.306638,127.454129 L42.306638,119.783969 L44.8097743,119.783969 L44.8097743,118.17645 L42.306638,118.17645 L42.306638,112.113808 L40.7220839,112.113808 L40.7220839,118.17645 L38.0811603,118.17645 Z M46.6699031,112.894603 L46.6699031,119.761004 L57.2335974,119.761004 L57.2335974,112.894603 L46.6699031,112.894603 Z M55.6949724,118.474989 L48.1855636,118.474989 L48.1855636,116.959329 L55.6949724,116.959329 L55.6949724,118.474989 Z M48.1855636,115.742207 L48.1855636,114.226547 L55.6949724,114.226547 L55.6949724,115.742207 L48.1855636,115.742207 Z M45.2231363,121.115913 L45.2231363,122.56268 L48.5529964,122.56268 C47.7722016,123.779801 46.5550803,124.83617 44.878668,125.731788 L45.7972501,126.971874 C46.623974,126.466654 47.3588397,125.938469 48.0018472,125.341391 L50.2983024,125.341391 C49.241933,126.857051 47.496627,128.074172 45.0623844,129.038684 L46.0268956,130.186911 C48.7367128,129.015719 50.6657353,127.4082 51.859892,125.341391 L53.8348436,125.341391 C52.4110413,128.46457 50.0456924,130.554344 46.7387967,131.656643 L47.6344143,132.988587 C51.19392,131.748501 53.7429854,129.199435 55.304575,125.341391 L56.5905899,125.341391 C56.4757672,127.936385 56.2690862,129.635762 55.9935115,130.416557 C55.6949724,131.197352 55.0749294,131.587749 54.1333828,131.587749 C53.6970563,131.587749 53.2377652,131.564784 52.7555096,131.518855 L53.1688715,133.011551 L54.891213,133.011551 C55.8097951,132.965622 56.4757672,132.690047 56.8891291,132.184827 C57.3024911,131.633678 57.6010302,130.692131 57.7847467,129.337223 C57.9684631,127.95935 58.0832859,126.191079 58.129215,123.986482 L49.241933,123.986482 C49.5864013,123.527191 49.8849405,123.0679 50.1605151,122.56268 L58.9329743,122.56268 L58.9329743,121.115913 L45.2231363,121.115913 Z" id="租屋" fill="#FFFFFF" sketch:type="MSShapeGroup"></path>
            <path d="M106.192921,86.0286543 C105.549913,89.4733372 104.493544,92.1142608 103.023813,93.951425 L104.240934,94.9848299 C105.021729,94.0203187 105.710665,92.826162 106.330708,91.3564306 L107.915262,91.3564306 C107.042609,95.7656247 105.435091,99.0036267 103.069742,101.024507 L104.149076,102.264593 C106.721106,99.9911024 108.466412,96.3627031 109.384994,91.3564306 L111.176229,91.3564306 C110.739902,94.8470426 110.07393,97.6716826 109.178313,99.807386 C108.213802,101.920125 106.789999,103.849147 104.860977,105.594453 L105.871417,106.903433 C107.961192,104.997375 109.522781,102.838707 110.579151,100.450393 C111.474768,98.2228319 112.163705,95.1915109 112.668925,91.3564306 L114.230514,91.3564306 C114.184585,98.0161509 114.092727,102.011983 113.931975,103.297998 C113.725294,104.767729 112.921535,105.502595 111.520697,105.502595 C110.992513,105.502595 110.37247,105.456666 109.637604,105.410737 L110.028001,106.903433 C110.854725,106.949362 111.428839,106.972327 111.750343,106.972327 C113.977904,106.972327 115.21799,105.961886 115.4706,103.941006 C115.700246,102.14977 115.815069,97.4190725 115.815069,89.7489119 L106.904822,89.7489119 C107.226326,88.7384715 107.5019,87.636173 107.754511,86.4420163 L106.192921,86.0286543 Z M97.8797528,92.4587291 L99.7628462,92.4587291 L99.7628462,98.6591584 C98.4768312,99.1643785 97.1448872,99.5777405 95.767014,99.8992442 L96.1574114,101.506763 C97.3974972,101.116366 98.591654,100.680039 99.7628462,100.220748 L99.7628462,107.110114 L101.370365,107.110114 L101.370365,99.5318114 C101.990408,99.2332722 102.610451,98.934733 103.207529,98.6132293 L103.207529,97.0516397 C102.610451,97.3731434 102.013372,97.6716826 101.370365,97.9702218 L101.370365,92.4587291 L103.299387,92.4587291 L103.299387,90.8512104 L101.370365,90.8512104 L101.370365,86.0745834 L99.7628462,86.0745834 L99.7628462,90.8512104 L98.1553275,90.8512104 C98.2931148,89.8637346 98.384973,88.8532943 98.4309021,87.842854 L96.9841353,87.7280312 C96.8693125,90.4148839 96.3870569,92.9639493 95.5144039,95.3981919 L96.9611707,95.8115538 C97.3286036,94.7322198 97.6271428,93.6069567 97.8797528,92.4587291 L97.8797528,92.4587291 Z M126.240976,86.0516189 L126.240976,89.5422309 L124.220095,89.5422309 C123.760804,88.3480741 123.278548,87.3146693 122.750364,86.4420163 L121.211739,87.0161301 C121.762888,87.7969249 122.245143,88.6466133 122.635541,89.5422309 L119.099,89.5422309 L119.099,90.9889977 L139.12409,90.9889977 L139.12409,89.5422309 L135.472726,89.5422309 C136.000911,88.8303298 136.529095,87.9806413 137.05728,86.9931655 L135.54162,86.4190517 C135.082328,87.5213502 134.508215,88.5547551 133.819278,89.5422309 L131.867291,89.5422309 L131.867291,86.0516189 L130.259772,86.0516189 L130.259772,89.5422309 L127.848494,89.5422309 L127.848494,86.0516189 L126.240976,86.0516189 Z M120.10944,93.5150985 L120.10944,94.9618654 L128.284821,94.9618654 L128.284821,96.6612423 L121.234703,96.6612423 L121.234703,98.0391154 L128.284821,98.0391154 L128.284821,99.7614569 L119.121964,99.7614569 L119.121964,101.231188 L128.284821,101.231188 L128.284821,107.179007 L129.961233,107.179007 L129.961233,101.231188 L139.101125,101.231188 L139.101125,99.7614569 L129.961233,99.7614569 L129.961233,98.0391154 L136.988386,98.0391154 L136.988386,96.6612423 L129.961233,96.6612423 L129.961233,94.9618654 L138.113649,94.9618654 L138.113649,93.5150985 L133.061448,93.5150985 C133.497774,92.9639493 133.911136,92.3668709 134.301534,91.6779343 L132.71698,91.126785 C132.303618,91.9764735 131.798397,92.7802328 131.247248,93.5150985 L126.838054,93.5150985 C126.424692,92.5735519 125.965401,91.7697925 125.460181,91.0808559 L123.921556,91.6549698 C124.380847,92.2290836 124.771244,92.8491265 125.115713,93.5150985 L120.10944,93.5150985 Z M133.658526,102.057912 L132.579192,103.091317 C134.646002,104.400297 136.253521,105.640382 137.424713,106.78861 L138.61887,105.617418 C137.286926,104.423261 135.633478,103.252069 133.658526,102.057912 L133.658526,102.057912 Z M124.702351,102.011983 C123.278548,103.343927 121.556207,104.492155 119.512362,105.456666 L120.545767,106.78861 C122.635541,105.686312 124.380847,104.423261 125.804649,102.999459 L124.702351,102.011983 Z M112.714854,121.138877 L99.6020943,121.138877 L99.6020943,133.103409 L101.255542,133.103409 L101.255542,132.161863 L112.14074,132.161863 L112.14074,133.126374 L113.771223,133.126374 L113.771223,127.224484 L101.255542,127.224484 L101.255542,125.63993 L112.714854,125.63993 L112.714854,121.138877 Z M101.255542,130.692131 L101.255542,128.556428 L112.14074,128.556428 L112.14074,130.692131 L101.255542,130.692131 Z M101.255542,124.307986 L101.255542,122.470821 L111.107335,122.470821 L111.107335,124.307986 L101.255542,124.307986 Z M115.883962,118.360167 L107.157432,118.360167 C106.927787,117.717159 106.675177,117.143045 106.422567,116.61486 L107.662652,117.372691 C108.167873,116.683754 108.650128,115.948888 109.06349,115.168094 L110.510257,115.168094 C111.061406,115.902959 111.543662,116.683754 111.957024,117.510478 L113.426755,116.959329 C113.15118,116.40818 112.760783,115.811101 112.278527,115.168094 L116.366218,115.168094 L116.366218,113.721327 L109.729462,113.721327 C109.913179,113.262036 110.07393,112.802745 110.234682,112.320489 L108.650128,111.976021 C108.144908,113.629469 107.364113,115.122165 106.261815,116.500038 L106.399602,116.591896 L104.792083,116.867471 C105.044693,117.326762 105.274339,117.809017 105.503984,118.360167 L96.4100215,118.360167 L96.4100215,122.516751 L98.0175402,122.516751 L98.0175402,119.783969 L114.276444,119.783969 L114.276444,122.516751 L115.883962,122.516751 L115.883962,118.360167 Z M99.1657678,115.168094 L100.474747,115.168094 C101.048861,115.994818 101.554081,116.844506 101.967443,117.717159 L103.483104,117.143045 C103.1616,116.523002 102.725273,115.85703 102.220053,115.168094 L106.078098,115.168094 L106.078098,113.721327 L99.923598,113.721327 C100.107314,113.262036 100.313995,112.802745 100.497712,112.297525 L98.9131577,111.953056 C98.2701502,113.698362 97.2597099,115.305881 95.8818367,116.729683 L97.3286036,117.648265 C98.0175402,116.890435 98.6146185,116.063711 99.1657678,115.168094 L99.1657678,115.168094 Z M127.389203,112.963497 L127.389203,123.596085 L132.096937,123.596085 L132.096937,126.39776 L126.998806,126.39776 L126.998806,127.936385 L132.096937,127.936385 L132.096937,130.852883 L126.309869,130.852883 L126.309869,132.437437 L139.537452,132.437437 L139.537452,130.852883 L133.750384,130.852883 L133.750384,127.936385 L138.802586,127.936385 L138.802586,126.39776 L133.750384,126.39776 L133.750384,123.596085 L138.435153,123.596085 L138.435153,112.963497 L127.389203,112.963497 Z M136.850599,122.126353 L133.750384,122.126353 L133.750384,119.003174 L136.850599,119.003174 L136.850599,122.126353 Z M132.096937,122.126353 L128.973757,122.126353 L128.973757,119.003174 L132.096937,119.003174 L132.096937,122.126353 Z M128.973757,117.579372 L128.973757,114.433228 L132.096937,114.433228 L132.096937,117.579372 L128.973757,117.579372 Z M133.750384,114.433228 L136.850599,114.433228 L136.850599,117.579372 L133.750384,117.579372 L133.750384,114.433228 Z M119.121964,120.564764 L119.121964,122.172282 L121.579171,122.172282 L121.579171,127.867491 C120.568731,128.143066 119.535326,128.395676 118.501921,128.602357 L118.915283,130.186911 C121.441384,129.543904 123.829698,128.763109 126.034295,127.798598 L126.034295,126.214044 C125.115713,126.627406 124.19713,126.994838 123.278548,127.316342 L123.278548,122.172282 L125.781685,122.172282 L125.781685,120.564764 L123.278548,120.564764 L123.278548,115.145129 L126.034295,115.145129 L126.034295,113.58354 L118.80046,113.58354 L118.80046,115.145129 L121.579171,115.145129 L121.579171,120.564764 L119.121964,120.564764 Z" id="物業" fill="#FFFFFF" sketch:type="MSShapeGroup"></path>
        </g>
    </g>
</svg>