<?xml version="1.0" encoding="UTF-8" standalone="no"?>
<svg width="240px" height="240px" viewBox="0 0 240 240" version="1.1" xmlns="http://www.w3.org/2000/svg" xmlns:xlink="http://www.w3.org/1999/xlink" xmlns:sketch="http://www.bohemiancoding.com/sketch/ns">
    <!-- Generator: Sketch 3.3.3 (12072) - http://www.bohemiancoding.com/sketch -->
    <title>hp2_2</title>
    <desc>Created with Sketch.</desc>
    <defs></defs>
    <g id="Page-1" stroke="none" stroke-width="1" fill="none" fill-rule="evenodd" sketch:type="MSPage">
        <g id="Imported-Layers" sketch:type="MSLayerGroup" transform="translate(42.000000, 38.000000)">
            <path d="M1.29530973,1.49389381 L142.160619,1.49389381 L142.160619,163.833363 L1.29530973,163.833363 L1.29530973,1.49389381 Z" id="Fill-1" fill="#BAA792" sketch:type="MSShapeGroup"></path>
            <path d="M1.29530973,1.49389381 L11.1222124,1.49389381 L11.1222124,163.833363 L1.29530973,163.833363 L1.29530973,1.49389381 Z" id="Fill-2" fill="#12979F" sketch:type="MSShapeGroup"></path>
            <path d="M11.1222124,1.49389381 L15.6715929,1.49389381 L15.6715929,163.833363 L11.1222124,163.833363 L11.1222124,1.49389381 Z" id="Fill-3" fill="#08858C" sketch:type="MSShapeGroup"></path>
            <path d="M76.4578761,59.1434513 L37.899469,86.0350442 L37.899469,141.381327 L114.926018,141.381327 L114.926018,86.0350442 L115.020796,86.0350442 L76.4578761,59.1434513" id="Fill-4" fill="#FFFFFF" sketch:type="MSShapeGroup"></path>
            <path d="M37.899469,24.3265487 L115.020796,24.3265487 L115.020796,30.3442478 L37.899469,30.3442478 L37.899469,24.3265487 Z" id="Fill-5" fill="#FFFFFF" sketch:type="MSShapeGroup"></path>
            <path d="M37.899469,38.869823 L115.020796,38.869823 L115.020796,40.3742478 L37.899469,40.3742478 L37.899469,38.869823 Z" id="Fill-6" fill="#FFFFFF" sketch:type="MSShapeGroup"></path>
            <path d="M142.160619,74.8376106 L114.926018,102.880088 L114.926018,141.381327 L114.322743,141.381327 L142.160619,163.831858 L142.160619,74.8376106" id="Fill-7" fill="#8B7E6E" sketch:type="MSShapeGroup"></path>
            <path d="M114.926018,102.880088 L93.6940708,124.743894 L114.322743,141.381327 L114.926018,141.381327 L114.926018,102.880088" id="Fill-8" fill="#BFC0C0" sketch:type="MSShapeGroup"></path>
            <path d="M109.293451,118.171062 L100.269912,109.147522 L156.780619,52.6383186 L165.804159,61.6588496 L109.293451,118.171062" id="Fill-9" fill="#3FC45C" sketch:type="MSShapeGroup"></path>
            <path d="M169.801416,57.6646018 L160.779381,48.6410619 L156.780619,52.6368142 L165.804159,61.6588496 L169.801416,57.6646018" id="Fill-10" fill="#EFCA82" sketch:type="MSShapeGroup"></path>
            <path d="M109.293451,118.171062 L100.269912,109.147522 L93.6940708,124.743894 L109.293451,118.171062" id="Fill-11" fill="#7E634C" sketch:type="MSShapeGroup"></path>
            <path d="M87.8381514,113.52159 C87.8381514,110.727237 87.0841197,108.465142 85.3986371,106.868369 C84.0679929,105.626434 82.2494459,104.828048 79.3663835,104.3845 L77.6809009,104.118371 L77.6809009,96.4006348 C79.499448,96.5336993 81.6728334,97.1103117 83.136542,98.5296655 L87.0397649,94.6707974 C84.6446054,92.3643476 81.8946074,91.2554774 78.3018682,91.0337034 L78.3018682,87.0861257 L73.8220329,87.0861257 L73.8220329,91.0780582 C68.0559082,91.6990255 64.5962334,95.4691839 64.5962334,100.569987 C64.5962334,103.231275 65.3502651,105.227241 66.8583284,106.735304 C68.1889726,108.065949 70.3180033,109.041754 72.9792916,109.396593 L74.3986453,109.574012 L74.3986453,117.602232 C71.737357,117.513522 69.2091331,116.803845 67.3462313,114.940943 L63.3542988,118.932876 C66.2373612,121.860293 69.5639716,122.969163 73.8220329,123.102228 L73.8220329,127.892547 L78.3018682,127.892547 L78.3018682,122.924808 C83.8462189,122.259486 87.8381514,118.932876 87.8381514,113.52159 L87.8381514,113.52159 Z M81.8058978,113.699009 C81.8058978,115.872394 80.3421893,117.203039 77.6809009,117.513522 L77.6809009,109.884496 C79.3220287,110.10627 80.1204152,110.372399 80.8300921,111.037721 C81.4954142,111.658688 81.8058978,112.590139 81.8058978,113.699009 L81.8058978,113.699009 Z M74.3986453,103.852242 C73.1567108,103.674823 72.1809051,103.27563 71.4712282,102.610308 C70.8059061,101.98934 70.5397773,101.146599 70.5397773,100.348213 C70.5397773,98.3966011 71.8260666,96.7998281 74.3986453,96.4449896 L74.3986453,103.852242 Z" id="$" fill="#3FC45C" sketch:type="MSShapeGroup"></path>
        </g>
    </g>
</svg>