<?xml version="1.0" encoding="UTF-8" standalone="no"?>
<svg width="240px" height="240px" viewBox="0 0 240 240" version="1.1" xmlns="http://www.w3.org/2000/svg" xmlns:xlink="http://www.w3.org/1999/xlink" xmlns:sketch="http://www.bohemiancoding.com/sketch/ns">
    <!-- Generator: Sketch 3.3.3 (12072) - http://www.bohemiancoding.com/sketch -->
    <title>hp2_1</title>
    <desc>Created with Sketch.</desc>
    <defs></defs>
    <g id="Page-1" stroke="none" stroke-width="1" fill="none" fill-rule="evenodd" sketch:type="MSPage">
        <g id="Imported-Layers" sketch:type="MSLayerGroup" transform="translate(20.000000, 26.000000)">
            <path d="M121.694872,45.7153846 L121.694872,146.391026 L11.0230769,146.391026 L11.0230769,40.6333333 L65.6628205,14.0076923 L121.694872,45.7153846" id="Fill-1" fill="#BDAA94" sketch:type="MSShapeGroup"></path>
            <path d="M124.74359,61.6653846 L61.9320513,20.6807692 L68.7897436,9.98461538 L131.603846,50.974359 L124.74359,61.6653846" id="Fill-2" fill="#12979F" sketch:type="MSShapeGroup"></path>
            <path d="M7.88461538,57.95 L80.1564103,10.8051282 L73.2961538,0.11025641 L1.02564103,47.2602564 L7.88461538,57.95" id="Fill-3" fill="#12979F" sketch:type="MSShapeGroup"></path>
            <path d="M82.9871795,65.1705128 C82.9871795,74.3782051 75.5217949,81.8371795 66.3141026,81.8371795 C57.1064103,81.8371795 49.6435897,74.3782051 49.6435897,65.1705128 C49.6435897,55.9653846 57.1064103,48.5 66.3141026,48.5 C75.5217949,48.5 82.9871795,55.9653846 82.9871795,65.1705128" id="Fill-4" fill="#FFFFFF" sketch:type="MSShapeGroup"></path>
            <path d="M91.5961538,99.124359 C85.7641026,91.5294872 76.6128205,86.6064103 66.3012821,86.6064103 C55.9794872,86.6064103 46.8307692,91.5294872 41.0038462,99.124359 L40.9679487,99.124359 L40.9679487,149.10641 L91.7923077,149.10641 L91.7923077,99.124359 L91.5961538,99.124359" id="Fill-5" fill="#FFFFFF" sketch:type="MSShapeGroup"></path>
            <path d="M66.5051282,67.1692308 C66.5051282,67.1692308 60.0461538,66.3769231 59.8102564,73.8551282 C59.8102564,73.8551282 66.8948718,74.8602564 66.5051282,67.1692308" id="Fill-6" fill="#998269" sketch:type="MSShapeGroup"></path>
            <path d="M66.5358974,67.1692308 C66.5358974,67.1692308 72.9948718,66.3769231 73.225641,73.8551282 C73.225641,73.8551282 66.1461538,74.8602564 66.5358974,67.1692308" id="Fill-7" fill="#998269" sketch:type="MSShapeGroup"></path>
            <path d="M190.561538,65.1871795 C190.561538,74.0935897 183.337179,81.3166667 174.437179,81.3166667 C165.524359,81.3166667 158.307692,74.0935897 158.307692,65.1871795 C158.307692,56.2794872 165.524359,49.0576923 174.437179,49.0576923 C183.337179,49.0576923 190.561538,56.2794872 190.561538,65.1871795" id="Fill-8" fill="#998269" sketch:type="MSShapeGroup"></path>
            <path d="M198.891026,98.0397436 C193.247436,90.6833333 184.396154,85.9269231 174.415385,85.9269231 C164.432051,85.9269231 155.584615,90.6833333 149.94359,98.0397436 L149.911538,98.0397436 L149.911538,146.392308 L199.075641,146.392308 L199.075641,98.0397436 L198.891026,98.0397436" id="Fill-9" fill="#998269" sketch:type="MSShapeGroup"></path>
            <path d="M83.7794872,104.560256 L156.370513,104.560256 L156.370513,188.223077 L83.7794872,188.223077 L83.7794872,104.560256 Z" id="Fill-10" fill="#FAE395" sketch:type="MSShapeGroup"></path>
            <path d="M83.7794872,104.560256 L94.1205128,104.560256 L94.1205128,188.223077 L83.7794872,188.223077 L83.7794872,104.560256 Z" id="Fill-11" fill="#12979F" sketch:type="MSShapeGroup"></path>
            <path d="M91.7923077,104.560256 L94.1205128,104.560256 L94.1205128,188.223077 L91.7923077,188.223077 L91.7923077,104.560256 Z" id="Fill-12" fill="#08858C" sketch:type="MSShapeGroup"></path>
            <path d="M122.512821,134.271795 L102.638462,148.128205 L102.638462,176.653846 L142.337179,176.653846 L142.337179,148.128205 L142.387179,148.128205 L122.512821,134.271795" id="Fill-13" fill="#FFFFFF" sketch:type="MSShapeGroup"></path>
            <path d="M102.638462,116.151282 L142.387179,116.151282 L142.387179,119.602564 L102.638462,119.602564 L102.638462,116.151282 Z" id="Fill-14" fill="#FFFFFF" sketch:type="MSShapeGroup"></path>
            <path d="M108.252564,155.635897 L112.194872,155.635897 L112.194872,161.64359 L108.252564,161.64359 L108.252564,155.635897 Z" id="Fill-15" fill="#42A437" sketch:type="MSShapeGroup"></path>
            <path d="M115.288462,160.244872 L119.228205,160.244872 L119.228205,166.25 L115.288462,166.25 L115.288462,160.244872 Z" id="Fill-16" fill="#3FC45C" sketch:type="MSShapeGroup"></path>
            <path d="M183.575641,146.392308 L156.370513,146.392308 L156.370513,146.39359 L183.578205,146.39359 L183.575641,146.392308" id="Fill-17" fill="#BFC0C0" sketch:type="MSShapeGroup"></path>
            <path d="M156.370513,113.962821 L156.370513,146.392308 L183.575641,146.392308 L156.370513,113.962821" id="Fill-18" fill="#73624F" sketch:type="MSShapeGroup"></path>
        </g>
    </g>
</svg>