<?xml version="1.0" encoding="UTF-8" standalone="no"?>
<svg width="540px" height="360px" viewBox="0 0 540 360" version="1.1" xmlns="http://www.w3.org/2000/svg" xmlns:xlink="http://www.w3.org/1999/xlink" xmlns:sketch="http://www.bohemiancoding.com/sketch/ns">
    <!-- Generator: Sketch 3.3.3 (12072) - http://www.bohemiancoding.com/sketch -->
    <title>hp3_1</title>
    <desc>Created with Sketch.</desc>
    <defs></defs>
    <g id="Page-1" stroke="none" stroke-width="1" fill="none" fill-rule="evenodd" sketch:type="MSPage">
        <g id="hp3_1" sketch:type="MSLayerGroup" transform="translate(14.000000, 17.000000)">
            <g id="Page-1">
                <g id="hp3_1">
                    <g id="Group">
                        <g id="Group-+-Shape" transform="translate(35.811434, 0.012766)" sketch:type="MSShapeGroup">
                            <g id="Group" transform="translate(0.811989, 0.000000)">
                                <rect id="Rectangle-path" fill="#196627" x="219.191666" y="275.54355" width="-0.135276074" height="-0.135415987"></rect>
                                <rect id="Rectangle-path" fill="#196627" x="219.191666" y="275.54355" width="-0.135276074" height="-0.135415987"></rect>
                                <rect id="Rectangle-path" fill="#196627" x="219.191666" y="275.54355" width="-0.135276074" height="-0.135415987"></rect>
                                <rect id="Rectangle-path" fill="#196627" x="219.191666" y="275.54355" width="-0.135276074" height="-0.135415987"></rect>
                                <rect id="Rectangle-path" fill="#196627" x="219.191666" y="275.54355" width="-0.135276074" height="-0.135415987"></rect>
                                <rect id="Rectangle-path" fill="#196627" x="219.191666" y="275.54355" width="-0.135276074" height="-0.135415987"></rect>
                                <path d="M219.326942,275.678966 L0.8086614,217.485071 L0.8086614,218.834234 C0.8086614,238.621957 3.41434813,257.870015 8.3561678,276.128688 L219.326942,275.678966 L219.326942,275.678966 Z" id="Shape" fill="#E48A39"></path>
                                <path d="M219.326942,275.678966 L10.2430444,155.153741 C4.22300953,174.851521 0.988363933,195.808519 0.898512666,217.395126 L219.326942,275.678966 L219.326942,275.678966 Z" id="Shape" fill="#FAE395"></path>
                                <path d="M219.326942,275.678966 L148.524144,11.7826899 C125.791773,19.5178909 104.856428,30.940804 86.1673647,45.3318757 L219.326942,275.678966 L219.326942,275.678966 Z" id="Shape" fill="#E48A39"></path>
                                <path d="M219.326942,275.678966 L219.326942,275.678966 L38.8157472,95.4307938 C26.4162724,113.599522 16.7123356,133.657078 10.1531931,155.243685 L219.326942,275.678966 L219.326942,275.678966 Z" id="Shape" fill="#E48A39"></path>
                                <path d="M290.039889,11.7826899 C267.846626,4.2273773 244.03604,0.0899441979 219.326942,0.0899441979 L219.326942,275.76891 L290.039889,11.7826899 L290.039889,11.7826899 Z" id="Shape" fill="#E48A39"></path>
                                <path d="M86.1673647,45.3318757 C67.8377063,59.4531148 51.8441809,76.362624 38.8157472,95.4307938 L219.237091,275.678966 L86.1673647,45.3318757 L86.1673647,45.3318757 Z" id="Shape" fill="#FAE395"></path>
                                <path d="M219.326942,275.678966 L219.326942,275.678966 L219.326942,0 C194.527992,0 170.807258,4.13743311 148.613995,11.6927457 L219.326942,275.678966 L219.326942,275.678966 Z" id="Shape" fill="#FAE395"></path>
                                <path d="M219.326942,275.678966 L352.396668,45.3318757 C333.797455,30.940804 312.772259,19.6078352 290.039889,11.7826899 L219.326942,275.678966 L219.326942,275.678966 Z" id="Shape" fill="#FAE395"></path>
                                <rect id="Rectangle-path" fill="#196627" x="219.191666" y="275.54355" width="-0.135276074" height="-0.135415987"></rect>
                                <rect id="Rectangle-path" fill="#196627" x="219.191666" y="275.54355" width="-0.135276074" height="-0.135415987"></rect>
                                <rect id="Rectangle-path" fill="#196627" x="219.191666" y="275.54355" width="-0.135276074" height="-0.135415987"></rect>
                                <path d="M428.410839,155.243685 C421.851697,133.747022 412.14776,113.599522 399.748286,95.4307938 L219.326942,275.678966 L428.410839,155.243685 L428.410839,155.243685 Z" id="Shape" fill="#FAE395"></path>
                                <path d="M219.326942,275.678966 L399.748286,95.4307938 C386.719851,76.362624 370.726326,59.3631706 352.396668,45.3318757 L219.326942,275.678966 L219.326942,275.678966 Z" id="Shape" fill="#E48A39"></path>
                                <path d="M219.326942,275.678966 L430.207864,276.038744 C435.149684,257.780071 437.755371,238.532013 437.755371,218.744289 L437.755371,217.395126 L219.326942,275.678966 L219.326942,275.678966 Z" id="Shape" fill="#FAE395"></path>
                                <path d="M437.755371,217.485071 C437.66552,195.808519 434.341023,174.941465 428.410839,155.243685 L219.326942,275.76891 L437.755371,217.485071 L437.755371,217.485071 Z" id="Shape" fill="#E48A39"></path>
                                <rect id="Rectangle-path" fill="#196627" x="219.191666" y="275.54355" width="-0.135276074" height="-0.135415987"></rect>
                            </g>
                            <path d="M203.69615,62.1514407 L266.322482,17.719007 L306.216444,39.9352239 L281.597197,92.2827473 L270.006384,186.18449 L228.405248,258.139848 L228.405248,293.75775 L216.275326,289.170596 L203.69615,263.356612 L150.594051,201.654891 L159.758879,130.958752 L203.69615,62.1514407 L203.69615,62.1514407 Z" id="Shape" fill="#42A437"></path>
                        </g>
                        <path d="M256.247343,326.701064 C397.66077,326.287549 512.231371,306.65985 512.147942,282.861371 C512.064513,259.062892 397.358648,240.105634 255.94522,240.519149 C114.531793,240.932664 -0.038807766,260.560363 0.04462103,284.358842 C0.12804983,308.15732 114.833915,327.114579 256.247343,326.701064 L256.247343,326.701064 L256.247343,326.701064 Z" id="Oval" fill="#8AD179" sketch:type="MSShapeGroup"></path>
                        <path d="M195.116605,325.659043 L113.843911,262.366489 L60.2627306,262.366489 L135.18155,322.017553 C152.536162,323.491489 175.77048,324.878723 195.116605,325.659043 L195.116605,325.659043 L195.116605,325.659043 Z" id="Shape" fill="#BFC0C0" sketch:type="MSShapeGroup"></path>
                        <path d="M100.092989,249.968085 L195.211439,325.659043 C204.410332,326.005851 213.798893,326.265957 223.377122,326.439362 L123.801476,247.106915 C115.550923,247.973936 107.584871,248.92766 100.092989,249.968085 L100.092989,249.968085 L100.092989,249.968085 Z" id="Shape" fill="#8AD179" sketch:type="MSShapeGroup"></path>
                        <path d="M468.902214,307.018085 L410.769004,260.719149 L345.049077,260.719149 L415.605535,316.902128 C436.184502,314.040957 454.202952,310.746277 468.902214,307.018085 L468.902214,307.018085 L468.902214,307.018085 Z" id="Shape" fill="#BFC0C0" sketch:type="MSShapeGroup"></path>
                        <path d="M319.15941,299.388298 L189.331734,299.388298 L223.377122,326.439362 C234.188192,326.612766 245.094096,326.699468 256.284502,326.699468 C289.191882,326.612766 320.581919,325.485638 349.506273,323.491489 L319.15941,299.388298 L319.15941,299.388298 Z" id="Shape" fill="#BFC0C0" sketch:type="MSShapeGroup"></path>
                        <path d="M512.146494,282.914894 C512.051661,267.655319 464.72952,254.389894 393.509225,246.933511 L468.997048,307.018085 C496.214391,300.081915 512.146494,291.758511 512.146494,282.914894 L512.146494,282.914894 L512.146494,282.914894 Z" id="Shape" fill="#8AD179" sketch:type="MSShapeGroup"></path>
                        <path d="M255.905166,240.604255 C252.39631,240.604255 248.887454,240.604255 245.378598,240.690957 L349.411439,323.578191 C373.404428,321.930851 395.690406,319.676596 415.605535,316.98883 L321.34059,241.904787 C300.382288,240.951064 278.475646,240.517553 255.905166,240.604255 L255.905166,240.604255 L255.905166,240.604255 Z" id="Shape" fill="#8AD179" sketch:type="MSShapeGroup"></path>
                        <g id="$" transform="translate(373.000000, 224.000000)" stroke="#FFFFFF" font-weight="normal" font-family="Helvetica" stroke-width="5.97785978" fill="#000000" sketch:type="MSTextLayer" font-size="14.4978376">
                            <text>
                                <tspan x="0.632978" y="14.16874">$</tspan>
                            </text>
                        </g>
                        <g transform="translate(54.952030, 174.537234)" stroke="#FFFFFF" fill="#7E634C" sketch:type="MSShapeGroup">
                            <path d="M110.576384,49.9404255 C116.266421,49.9404255 120.81845,45.7787234 120.81845,40.5765957 C120.81845,35.3744681 116.171587,31.212766 110.576384,31.212766 C104.886347,31.212766 100.334317,35.3744681 100.334317,40.5765957 C100.334317,45.7787234 104.886347,49.9404255 110.576384,49.9404255 L110.576384,49.9404255 L110.576384,49.9404255 Z" id="Shape" stroke-width="5.97785978"></path>
                            <path d="M110.576384,52.6281915 C104.222509,52.6281915 98.6273063,55.4026596 95.0236162,59.6510638 L95.0236162,59.6510638 L95.0236162,68.8414894 L77.1,68.8414894 L77.1,35.3744681 L78.996679,36.5015957 L83.3590406,30.2590426 L47.4169742,8.75691489 L50.6413284,6.84946809 L46.2789668,0.606914894 L0.284501845,28.0914894 L4.64686347,34.3340426 L6.73321033,33.1202128 L6.73321033,87.8292553 L25.6051661,87.8292553 L25.6051661,89.3898936 L52.8225092,89.3898936 L52.8225092,117.568085 L57.9435424,117.568085 L59.4608856,117.568085 L99.101476,117.568085 L99.101476,87.8292553 L116.456089,87.8292553 L126.318819,87.8292553 L126.318819,81.3265957 L126.318819,59.8244681 L126.318819,59.6510638 L126.129151,59.6510638 C122.525461,55.4026596 116.930258,52.6281915 110.576384,52.6281915 L110.576384,52.6281915 L110.576384,52.6281915 Z" id="Shape" stroke-width="5.97785978"></path>
                            <path d="M228.929151,38.4090426 L230.446494,39.7962766 L234.714022,35.8946809 L211.384871,14.7393617 L215.273063,11.0978723 L211.005535,7.28297872 L179.710332,35.8946809 L183.97786,39.7962766 L185.495203,38.4090426 L185.495203,56.356383 L138.742066,56.356383 L138.742066,66.0670213 L141.966421,66.0670213 L141.966421,124.851064 L167.666421,124.851064 L167.666421,126.151596 L167.666421,131.006915 L187.391882,131.006915 L191.374908,131.006915 L204.651661,131.006915 L213.850554,131.006915 L220.394096,131.006915 L223.049446,131.006915 L244.197417,131.006915 L244.197417,126.064894 L244.197417,124.851064 L258.043173,124.851064 L272.457934,124.851064 L272.457934,66.0670213 L275.682288,66.0670213 L275.682288,56.356383 L228.929151,56.356383 L228.929151,38.4090426 L228.929151,38.4090426 Z" id="Shape" stroke-width="5.97785978"></path>
                            <path d="M363.972694,38.7558511 L357.144649,44.9984043 L357.144649,16.9069149 L298.157934,16.9069149 L295.976753,16.9069149 L291.424723,16.9069149 L291.424723,86.1819149 L295.976753,86.1819149 L298.157934,86.1819149 L357.144649,86.1819149 L357.144649,52.6281915 L368.145387,42.5707447 L363.972694,38.7558511 L363.972694,38.7558511 Z" id="Shape" stroke-width="5.97785978"></path>
                            <path d="M363.98003,38.779605 L365.857629,37.0647805 L370.086594,40.9271262 L368.208996,42.6419507 L363.98003,38.779605 L363.98003,38.779605 Z" id="Rectangle-path" stroke-width="5.97780245"></path>
                        </g>
                        <g transform="translate(54.483128, 174.537234)" sketch:type="MSShapeGroup">
                            <g>
                                <g id="Shape">
                                    <g id="Group">
                                        <path d="M77.5741697,29.218617 L77.5741697,87.8292553 L7.11254613,87.8292553 L7.11254613,26.2707447 L41.9166052,10.7510638 L77.5741697,29.218617 L77.5741697,29.218617 Z" id="Shape" fill="#BDAA94"></path>
                                        <path d="M79.4708487,36.5015957 L39.5457565,12.6585106 L43.9081181,6.41595745 L83.8332103,30.2590426 L79.4708487,36.5015957 L79.4708487,36.5015957 Z" id="Shape" fill="#12979F"></path>
                                        <path d="M5.12103321,34.3340426 L51.1154982,6.93617021 L46.7531365,0.693617021 L0.758671587,28.0914894 L5.12103321,34.3340426 L5.12103321,34.3340426 Z" id="Shape" fill="#12979F"></path>
                                    </g>
                                    <g id="Group" transform="translate(25.605166, 30.345745)">
                                        <g id="Shape" fill="#FFFFFF">
                                            <path d="M27.3121771,10.1441489 C27.3121771,15.5196809 22.5704797,19.8547872 16.6907749,19.8547872 C10.8110701,19.8547872 6.06937269,15.5196809 6.06937269,10.1441489 C6.06937269,4.76861702 10.8110701,0.433510638 16.6907749,0.433510638 C22.5704797,0.433510638 27.3121771,4.85531915 27.3121771,10.1441489 L27.3121771,10.1441489 L27.3121771,10.1441489 Z"></path>
                                            <path d="M32.8125461,29.912234 C29.1140221,25.4904255 23.2343173,22.6292553 16.6907749,22.6292553 C10.1472325,22.6292553 4.26752768,25.4904255 0.56900369,29.912234 L0.56900369,29.912234 L0.56900369,52.4547872 L0.56900369,59.0441489 L32.9073801,59.0441489 L32.9073801,52.3680851 L32.9073801,30.0856383 L32.9073801,29.912234 L32.8125461,29.912234 L32.8125461,29.912234 Z"></path>
                                        </g>
                                        <path d="M16.8804428,11.3579787 C16.8804428,11.3579787 12.802583,10.9244681 12.6129151,15.2595745 C12.6129151,15.2595745 17.0701107,15.7797872 16.8804428,11.3579787 L16.8804428,11.3579787 L16.8804428,11.3579787 Z" id="Shape" fill="#998269"></path>
                                        <path d="M16.8804428,11.3579787 C16.8804428,11.3579787 20.9583026,10.9244681 21.1479705,15.2595745 C21.1479705,15.2595745 16.595941,15.7797872 16.8804428,11.3579787 L16.8804428,11.3579787 L16.8804428,11.3579787 Z" id="Shape" fill="#998269"></path>
                                    </g>
                                </g>
                                <g id="Shape" transform="translate(94.833948, 30.345745)" fill="#998269">
                                    <path d="M26.6483395,10.1441489 C26.6483395,15.3462766 22.001476,19.5079787 16.4062731,19.5079787 C10.7162362,19.5079787 6.16420664,15.3462766 6.16420664,10.1441489 C6.16420664,4.94202128 10.7162362,0.780319149 16.4062731,0.780319149 C22.001476,0.780319149 26.6483395,5.0287234 26.6483395,10.1441489 L26.6483395,10.1441489 L26.6483395,10.1441489 Z"></path>
                                    <path d="M31.9590406,29.3053191 C28.3553506,25.0569149 22.7601476,22.2824468 16.4062731,22.2824468 C10.0523985,22.2824468 4.45719557,25.0569149 0.853505535,29.3053191 L0.853505535,29.3053191 L0.853505535,51.0675532 L0.853505535,57.3968085 L32.1487085,57.3968085 L32.1487085,50.8941489 L32.1487085,29.4787234 L32.1487085,29.3053191 L31.9590406,29.3053191 L31.9590406,29.3053191 Z"></path>
                                </g>
                                <g transform="translate(51.679233, 68.494681)">
                                    <rect id="Rectangle-path" fill="#FAE395" x="0.379335793" y="0.346808511" width="46.1841328" height="48.7265957"></rect>
                                    <rect id="Rectangle-path" fill="#12979F" x="0.379335793" y="0.346808511" width="6.54354244" height="48.7265957"></rect>
                                    <rect id="Rectangle-path" fill="#09858C" x="5.500369" y="0.346808511" width="1.51734317" height="48.7265957"></rect>
                                    <path d="M25.0361624,17.687234 L12.3284133,25.7505319 L12.3284133,42.3106383 L37.6490775,42.3106383 L37.6490775,25.7505319 L25.0361624,17.687234 L25.0361624,17.687234 Z" id="Shape" fill="#FFFFFF"></path>
                                    <rect id="Rectangle-path" fill="#FFFFFF" x="12.3284133" y="7.10957447" width="25.3206642" height="1.99414894"></rect>
                                    <rect id="Rectangle-path" fill="#42A437" x="15.9321033" y="30.0856383" width="2.46568266" height="3.46808511"></rect>
                                    <rect id="Rectangle-path" fill="#3FC45C" x="20.3892989" y="32.7734043" width="2.46568266" height="3.46808511"></rect>
                                </g>
                            </g>
                            <path d="M98.2427019,68.9281915 L115.597314,87.8292553 L98.2427019,87.8292553 L98.2427019,68.9281915 L98.2427019,68.9281915 Z" id="Shape" fill="#BFC0C0"></path>
                        </g>
                        <g transform="translate(193.409594, 181.473404)" sketch:type="MSShapeGroup">
                            <g>
                                <g>
                                    <g transform="translate(40.778598, 0.000000)">
                                        <path d="M49.6929889,26.4441489 L49.6929889,117.914894 L6.25904059,117.914894 L6.25904059,26.6175532 L27.1225092,7.97659574 L49.6929889,26.4441489 L49.6929889,26.4441489 Z" id="Shape" fill="#EFCA82"></path>
                                        <path d="M11.6645756,23.1494681 L49.6929889,63.4659574 L49.6929889,29.4787234 L28.0708487,7.97659574 L11.6645756,23.1494681 L11.6645756,23.1494681 Z" id="Shape" fill="#BFC0C0"></path>
                                        <g transform="translate(15.173432, 22.542553)">
                                            <path d="M24.1826568,11.2712766 C24.1826568,17.1670213 18.9667897,21.9356383 12.5180812,21.9356383 C6.06937269,21.9356383 0.853505535,17.1670213 0.853505535,11.2712766 C0.853505535,5.37553191 6.06937269,0.606914894 12.5180812,0.606914894 C18.9667897,0.606914894 24.1826568,5.37553191 24.1826568,11.2712766 L24.1826568,11.2712766 L24.1826568,11.2712766 Z" id="Shape" fill="#85BA54"></path>
                                            <ellipse id="Oval" fill="#FFFFFF" cx="12.5180812" cy="11.2712766" rx="9.48339483" ry="8.67021277"></ellipse>
                                            <rect id="Rectangle-path" fill="#85BA54" x="3.03468635" y="10.4042553" width="18.8719557" height="1.64734043"></rect>
                                            <rect id="Rectangle-path" fill="#85BA54" x="11.5697417" y="2.60106383" width="1.80184502" height="8.67021277"></rect>
                                        </g>
                                        <g id="Rectangle-path" fill="#FAE395">
                                            <path d="M30.238914,6.02994083 L55.4955653,28.895653 L51.2183076,32.8365075 L25.9616563,9.97079529 L30.238914,6.02994083 L30.238914,6.02994083 Z" id="Shape"></path>
                                            <path d="M31.7740142,0.346286161 L36.0662746,4.26533065 L4.72266013,32.8997834 L0.430399756,28.9807389 L31.7740142,0.346286161 L31.7740142,0.346286161 Z" id="Shape"></path>
                                        </g>
                                    </g>
                                    <rect id="Rectangle-path" fill="#FAE395" x="90.4715867" y="59.1308511" width="43.5287823" height="58.7840426"></rect>
                                    <rect id="Rectangle-path" fill="#12979F" x="90.4715867" y="49.4202128" width="46.7531365" height="9.7106383"></rect>
                                    <rect id="Rectangle-path" fill="#FAE395" x="3.50885609" y="59.1308511" width="43.5287823" height="58.7840426"></rect>
                                    <rect id="Rectangle-path" fill="#12979F" x="0.284501845" y="49.4202128" width="46.7531365" height="9.7106383"></rect>
                                    <g transform="translate(55.952030, 22.542553)">
                                        <path d="M24.1826568,11.2712766 C24.1826568,17.1670213 18.9667897,21.9356383 12.5180812,21.9356383 C6.06937269,21.9356383 0.853505535,17.1670213 0.853505535,11.2712766 C0.853505535,5.37553191 6.06937269,0.606914894 12.5180812,0.606914894 C18.9667897,0.606914894 24.1826568,5.37553191 24.1826568,11.2712766 L24.1826568,11.2712766 L24.1826568,11.2712766 Z" id="Shape" fill="#998269"></path>
                                        <ellipse id="Oval" fill="#FFFFFF" cx="12.5180812" cy="11.2712766" rx="9.48339483" ry="8.67021277"></ellipse>
                                        <rect id="Rectangle-path" fill="#998269" x="3.03468635" y="10.4042553" width="18.8719557" height="1.64734043"></rect>
                                        <rect id="Rectangle-path" fill="#998269" x="11.5697417" y="2.60106383" width="1.80184502" height="8.67021277"></rect>
                                    </g>
                                    <rect id="Rectangle-path" fill="#FFFFFF" x="14.5095941" y="64.9398936" width="4.83653137" height="5.0287234"></rect>
                                    <rect id="Rectangle-path" fill="#3FC45C" x="9.67306273" y="73.35" width="4.83653137" height="5.0287234"></rect>
                                    <rect id="Rectangle-path" fill="#3FC45C" x="125.180812" y="67.1941489" width="4.83653137" height="5.0287234"></rect>
                                    <rect id="Rectangle-path" fill="#FFFFFF" x="118.447601" y="74.9973404" width="4.83653137" height="5.0287234"></rect>
                                </g>
                                <g transform="translate(28.450185, 75.430851)">
                                    <g transform="translate(53.107011, 5.202128)">
                                        <g id="Shape" fill="#7E634C">
                                            <path d="M20.0099631,7.54308511 C20.0099631,11.4446809 16.501107,14.6526596 12.2335793,14.6526596 C7.96605166,14.6526596 4.45719557,11.4446809 4.45719557,7.54308511 C4.45719557,3.64148936 7.96605166,0.433510638 12.2335793,0.433510638 C16.501107,0.433510638 20.0099631,3.64148936 20.0099631,7.54308511 L20.0099631,7.54308511 L20.0099631,7.54308511 Z"></path>
                                            <path d="M24.0878229,22.1090426 C21.3376384,18.9010638 17.0701107,16.7335106 12.2335793,16.7335106 C7.39704797,16.7335106 3.1295203,18.8143617 0.379335793,22.1090426 L0.379335793,22.1090426 L0.379335793,38.5824468 L0.379335793,43.3510638 L24.0878229,43.3510638 L24.0878229,38.4090426 L24.0878229,22.1090426 L24.0878229,22.1090426 Z"></path>
                                        </g>
                                        <g transform="translate(10.431734, 19.074468)" fill="#FFFFFF">
                                            <path d="M1.82897759,0.598391953 L3.17144697,1.822054 L1.8302472,3.04940932 L0.48777783,1.82574727 L1.82897759,0.598391953 L1.82897759,0.598391953 Z" id="Rectangle-path"></path>
                                            <path d="M1.80184502,6.41595745 L0.474169742,5.20212766 L1.80184502,3.98829787 L3.1295203,5.20212766 L1.80184502,6.41595745 L1.80184502,6.41595745 Z" id="Shape"></path>
                                            <path d="M1.77282651,7.37349571 L3.11529588,8.59733099 L1.77390626,9.82468631 L0.431436884,8.60085103 L1.77282651,7.37349571 L1.77282651,7.37349571 Z" id="Rectangle-path"></path>
                                        </g>
                                    </g>
                                    <g id="Shape" transform="translate(19.915129, 0.000000)">
                                        <g id="Group" fill="#7E634C">
                                            <path d="M22.4756458,8.58351064 C22.4756458,13.0053191 18.5874539,16.5601064 13.7509225,16.5601064 C8.91439114,16.5601064 5.02619926,13.0053191 5.02619926,8.58351064 C5.02619926,4.16170213 8.91439114,0.606914894 13.7509225,0.606914894 C18.5874539,0.606914894 22.4756458,4.16170213 22.4756458,8.58351064 L22.4756458,8.58351064 L22.4756458,8.58351064 Z" id="Shape"></path>
                                            <path d="M26.9328413,24.7968085 C23.898155,21.1553191 19.1564576,18.8143617 13.7509225,18.8143617 C8.34538745,18.8143617 3.60369004,21.1553191 0.56900369,24.7968085 L0.56900369,24.7968085 L0.56900369,43.2643617 L0.56900369,48.6398936 L27.1225092,48.6398936 L27.1225092,43.1776596 L27.1225092,24.9702128 L27.1225092,24.8835106 L26.9328413,24.8835106 L26.9328413,24.7968085 L26.9328413,24.7968085 Z" id="Shape"></path>
                                        </g>
                                        <path d="M13.8457565,9.53723404 C13.8457565,9.53723404 10.4317343,9.19042553 10.3369004,12.7452128 C10.3369004,12.7452128 14.0354244,13.1787234 13.8457565,9.53723404 L13.8457565,9.53723404 L13.8457565,9.53723404 Z" fill="#FFFFFF"></path>
                                        <path d="M13.8457565,9.53723404 C13.8457565,9.53723404 17.2597786,9.19042553 17.3546125,12.7452128 C17.3546125,12.7452128 13.6560886,13.1787234 13.8457565,9.53723404 L13.8457565,9.53723404 L13.8457565,9.53723404 Z" fill="#FFFFFF"></path>
                                    </g>
                                    <g transform="translate(36.985240, 16.473404)">
                                        <g fill="#BAA792">
                                            <ellipse id="Oval" cx="9.95756458" cy="5.89574468" rx="6.06937269" ry="5.54893617"></ellipse>
                                            <path d="M19.0616236,17.1670213 C16.9752768,14.6526596 13.6560886,13.0053191 9.95756458,13.0053191 C6.25904059,13.0053191 2.9398524,14.6526596 0.758671587,17.1670213 L0.758671587,17.1670213 L0.758671587,29.9989362 L0.758671587,32.1664894 L19.1564576,32.1664894 L19.1564576,29.912234 L19.0616236,17.1670213 L19.0616236,17.1670213 Z" id="Shape"></path>
                                        </g>
                                        <path d="M5.02619926,10.2308511 C5.02619926,10.2308511 1.61217712,9.88404255 1.51734317,13.4388298 C1.42250923,13.4388298 5.21586716,13.9590426 5.02619926,10.2308511 L5.02619926,10.2308511 L5.02619926,10.2308511 Z" id="Shape" fill="#FFFFFF"></path>
                                        <path d="M14.7940959,10.2308511 C14.7940959,10.2308511 18.2081181,9.88404255 18.302952,13.4388298 C18.302952,13.4388298 14.5095941,13.9590426 14.7940959,10.2308511 L14.7940959,10.2308511 L14.7940959,10.2308511 Z" id="Shape" fill="#FFFFFF"></path>
                                    </g>
                                    <g transform="translate(0.000000, 5.202128)">
                                        <g fill="#998269">
                                            <ellipse id="Oval" cx="12.6129151" cy="7.54308511" rx="7.77638376" ry="7.10957447"></ellipse>
                                            <path d="M24.3723247,22.1090426 C21.6221402,18.9010638 17.3546125,16.7335106 12.5180812,16.7335106 C7.68154982,16.7335106 3.41402214,18.8143617 0.663837638,22.1090426 L0.663837638,22.1090426 L0.663837638,38.5824468 L0.663837638,43.3510638 L24.3723247,43.3510638 L24.3723247,38.4090426 L24.3723247,22.1090426 L24.3723247,22.1090426 Z" id="Shape"></path>
                                        </g>
                                        <g transform="translate(9.483395, 18.207447)" fill="#FFFFFF">
                                            <path d="M3.09679654,0.536766233 L5.37609255,2.61964206 L3.09314804,4.70349302 L0.813852021,2.62061719 L3.09679654,0.536766233 L3.09679654,0.536766233 Z" id="Rectangle-path"></path>
                                            <path d="M3.1295203,14.1324468 L0.853505535,12.0515957 L3.1295203,4.59521277 L5.31070111,12.0515957 L3.1295203,14.1324468 L3.1295203,14.1324468 Z" id="Shape"></path>
                                        </g>
                                    </g>
                                </g>
                            </g>
                            <path d="M105.739852,102.742021 L119.585609,117.914894 L105.739852,117.914894 L105.739852,102.742021 L105.739852,102.742021 Z" id="Shape" fill="#BFC0C0"></path>
                        </g>
                        <g transform="translate(345.195572, 190.010638)">
                            <g transform="translate(0.000000, 1.000000)">
                                <rect id="Rectangle-path" fill="#BAA792" sketch:type="MSShapeGroup" x="0.853505535" y="0.433510638" width="65.7199262" height="69.275"></rect>
                                <rect id="Rectangle-path" fill="#12979F" sketch:type="MSShapeGroup" x="0.853505535" y="0.433510638" width="4.55202952" height="69.275"></rect>
                                <rect id="Rectangle-path" fill="#09858C" sketch:type="MSShapeGroup" x="5.40553506" y="0.433510638" width="2.08634686" height="69.275"></rect>
                                <path d="M35.9420664,25.0569149 L17.9236162,36.5015957 L17.9236162,60.0845745 L53.8656827,60.0845745 L53.8656827,36.5015957 L53.9605166,36.5015957 L35.9420664,25.0569149 L35.9420664,25.0569149 Z" id="Shape" fill="#FFFFFF" sketch:type="MSShapeGroup"></path>
                                <text id="$" fill="#000000" sketch:type="MSTextLayer" font-family="Helvetica" font-size="14.4978376" font-weight="normal">
                                    <tspan x="29.4374059" y="47.1581016">$</tspan>
                                </text>
                                <path d="M17.9236162,11.4446809 L53.9605166,11.4446809" id="Shape" stroke="#FFFFFF" stroke-width="2.65682657" sketch:type="MSShapeGroup"></path>
                                <path d="M17.9236162,16.7335106 L53.9605166,16.7335106" id="Shape" stroke="#FFFFFF" stroke-width="0.664206642" sketch:type="MSShapeGroup"></path>
                            </g>
                            <path d="M44.002952,54.0617021 L66.5734317,70.7085106 L66.5734317,32.7329787 L44.002952,54.0617021 L44.002952,54.0617021 Z" id="Shape" fill="#BFC0C0" sketch:type="MSShapeGroup"></path>
                            <g transform="translate(43.623616, 20.941489)" sketch:type="MSShapeGroup">
                                <path d="M29.8437246,2.29311665 L34.0677235,6.15201739 L7.68330155,30.2422903 L3.45930266,26.3833895 L29.8437246,2.29311665 L29.8437246,2.29311665 Z" id="Rectangle-path" fill="#3FC45C"></path>
                                <path d="M31.6814844,0.604488675 L35.9054833,4.46338941 L34.0256771,6.17974473 L29.8016783,2.32084399 L31.6814844,0.604488675 L31.6814844,0.604488675 Z" id="Rectangle-path" fill="#EFCA82"></path>
                                <path d="M7.68154982,30.2590426 L3.41402214,26.4441489 L0.379335793,33.1202128 L7.68154982,30.2590426 L7.68154982,30.2590426 Z" id="Shape" fill="#7E634C"></path>
                            </g>
                        </g>
                    </g>
                </g>
            </g>
        </g>
    </g>
</svg>