<?xml version="1.0" encoding="UTF-8" standalone="no"?>
<svg width="540px" height="360px" viewBox="0 0 540 360" version="1.1" xmlns="http://www.w3.org/2000/svg" xmlns:xlink="http://www.w3.org/1999/xlink" xmlns:sketch="http://www.bohemiancoding.com/sketch/ns">
    <!-- Generator: Sketch 3.3.3 (12072) - http://www.bohemiancoding.com/sketch -->
    <title>hp3_1</title>
    <desc>Created with Sketch.</desc>
    <defs></defs>
    <g id="Page-1" stroke="none" stroke-width="1" fill="none" fill-rule="evenodd" sketch:type="MSPage">
        <g id="hp3_1" sketch:type="MSLayerGroup" transform="translate(13.000000, 17.000000)">
            <g id="Group" transform="translate(0.000000, 0.000000)">
                <g transform="translate(26.900369, 0.000000)" sketch:type="MSShapeGroup">
                    <rect id="Rectangle-path" fill="#196627" x="243.199262" y="305.68484" width="-0.15" height="-0.150155142"></rect>
                    <rect id="Rectangle-path" fill="#196627" x="243.199262" y="305.68484" width="-0.15" height="-0.150155142"></rect>
                    <rect id="Rectangle-path" fill="#196627" x="243.199262" y="305.68484" width="-0.15" height="-0.150155142"></rect>
                    <rect id="Rectangle-path" fill="#196627" x="243.199262" y="305.68484" width="-0.15" height="-0.150155142"></rect>
                    <rect id="Rectangle-path" fill="#196627" x="243.199262" y="305.68484" width="-0.15" height="-0.150155142"></rect>
                    <rect id="Rectangle-path" fill="#196627" x="243.199262" y="305.68484" width="-0.15" height="-0.150155142"></rect>
                    <path d="M243.199262,305.68484 L0.896678967,241.156915 L0.896678967,242.652926 C0.896678967,264.594415 3.78597786,285.9375 9.26568266,306.183511 L243.199262,305.68484 L243.199262,305.68484 Z" id="Shape" fill="#E48A39"></path>
                    <path d="M243.199262,305.68484 L11.3579336,172.041223 C4.68265683,193.882979 1.09594096,217.121011 0.996309963,241.057181 L243.199262,305.68484 L243.199262,305.68484 Z" id="Shape" fill="#FAE395"></path>
                    <path d="M243.199262,305.68484 L164.690037,13.0651596 C139.483395,21.6422872 116.269373,34.3085106 95.5461255,50.2659574 L243.199262,305.68484 L243.199262,305.68484 Z" id="Shape" fill="#E48A39"></path>
                    <path d="M243.199262,305.68484 L243.199262,305.68484 L43.0405904,105.817819 C29.2915129,125.964096 18.5313653,148.204787 11.2583026,172.140957 L243.199262,305.68484 L243.199262,305.68484 Z" id="Shape" fill="#E48A39"></path>
                    <path d="M321.608856,13.0651596 C297,4.6875 270.597786,0.0997340426 243.199262,0.0997340426 L243.199262,305.784574 L321.608856,13.0651596 L321.608856,13.0651596 Z" id="Shape" fill="#E48A39"></path>
                    <path d="M95.5461255,50.2659574 C75.2214022,65.9242021 57.4870849,84.6742021 43.0405904,105.817819 L243.099631,305.68484 L95.5461255,50.2659574 L95.5461255,50.2659574 Z" id="Shape" fill="#FAE395"></path>
                    <path d="M243.199262,305.68484 L243.199262,305.68484 L243.199262,0 C215.701107,0 189.398524,4.58776596 164.789668,12.9654255 L243.199262,305.68484 L243.199262,305.68484 Z" id="Shape" fill="#FAE395"></path>
                    <path d="M243.199262,305.68484 L390.752768,50.2659574 C370.129151,34.3085106 346.815498,21.7420213 321.608856,13.0651596 L243.199262,305.68484 L243.199262,305.68484 Z" id="Shape" fill="#FAE395"></path>
                    <rect id="Rectangle-path" fill="#196627" x="243.199262" y="305.68484" width="-0.15" height="-0.150155142"></rect>
                    <rect id="Rectangle-path" fill="#196627" x="243.199262" y="305.68484" width="-0.15" height="-0.150155142"></rect>
                    <rect id="Rectangle-path" fill="#196627" x="243.199262" y="305.68484" width="-0.15" height="-0.150155142"></rect>
                    <path d="M475.04059,172.140957 C467.767528,148.304521 457.00738,125.964096 443.258303,105.817819 L243.199262,305.68484 L475.04059,172.140957 L475.04059,172.140957 Z" id="Shape" fill="#FAE395"></path>
                    <path d="M243.199262,305.68484 L443.258303,105.817819 C428.811808,84.6742021 411.077491,65.8244681 390.752768,50.2659574 L243.199262,305.68484 L243.199262,305.68484 Z" id="Shape" fill="#E48A39"></path>
                    <path d="M243.199262,305.68484 L477.03321,306.083777 C482.512915,285.837766 485.402214,264.494681 485.402214,242.553191 L485.402214,241.057181 L243.199262,305.68484 L243.199262,305.68484 Z" id="Shape" fill="#FAE395"></path>
                    <path d="M485.402214,241.156915 C485.302583,217.121011 481.616236,193.982713 475.04059,172.140957 L243.199262,305.784574 L485.402214,241.156915 L485.402214,241.156915 Z" id="Shape" fill="#E48A39"></path>
                    <rect id="Rectangle-path" fill="#196627" x="243.199262" y="305.68484" width="-0.15" height="-0.150155142"></rect>
                </g>
                <path d="M251.867159,68.9162234 L321.309963,19.6476064 L365.546125,44.2819149 L338.247232,102.327128 L325.394834,206.449468 L279.265683,286.236702 L279.265683,325.731383 L265.815498,320.644947 L251.867159,292.021277 L192.98524,223.603723 L203.147601,145.212766 L251.867159,68.9162234 Z" id="Shape" fill="#42A437" sketch:type="MSShapeGroup"></path>
                <path d="M257.247343,324.701064 C398.66077,324.287549 513.231371,304.65985 513.147942,280.861371 C513.064513,257.062892 398.358648,238.105634 256.94522,238.519149 C115.531793,238.932664 0.961192234,258.560363 1.04462103,282.358842 C1.12804983,306.15732 115.833915,325.114579 257.247343,324.701064 L257.247343,324.701064 Z" id="Oval" fill="#8AD179" sketch:type="MSShapeGroup"></path>
                <path d="M196.116605,323.659043 L114.843911,260.366489 L61.2627306,260.366489 L136.18155,320.017553 C153.536162,321.491489 176.77048,322.878723 196.116605,323.659043 L196.116605,323.659043 Z" id="Shape" fill="#BFC0C0" sketch:type="MSShapeGroup"></path>
                <path d="M101.092989,247.968085 L196.211439,323.659043 C205.410332,324.005851 214.798893,324.265957 224.377122,324.439362 L124.801476,245.106915 C116.550923,245.973936 108.584871,246.92766 101.092989,247.968085 L101.092989,247.968085 Z" id="Shape" fill="#8AD179" sketch:type="MSShapeGroup"></path>
                <path d="M469.902214,305.018085 L411.769004,258.719149 L346.049077,258.719149 L416.605535,314.902128 C437.184502,312.040957 455.202952,308.746277 469.902214,305.018085 L469.902214,305.018085 Z" id="Shape" fill="#BFC0C0" sketch:type="MSShapeGroup"></path>
                <path d="M320.15941,297.388298 L190.331734,297.388298 L224.377122,324.439362 C235.188192,324.612766 246.094096,324.699468 257.284502,324.699468 C290.191882,324.612766 321.581919,323.485638 350.506273,321.491489 L320.15941,297.388298 L320.15941,297.388298 Z" id="Shape" fill="#BFC0C0" sketch:type="MSShapeGroup"></path>
                <path d="M513.146494,280.914894 C513.051661,265.655319 465.72952,252.389894 394.509225,244.933511 L469.997048,305.018085 C497.214391,298.081915 513.146494,289.758511 513.146494,280.914894 L513.146494,280.914894 Z" id="Shape" fill="#8AD179" sketch:type="MSShapeGroup"></path>
                <path d="M256.905166,238.604255 C253.39631,238.604255 249.887454,238.604255 246.378598,238.690957 L350.411439,321.578191 C374.404428,319.930851 396.690406,317.676596 416.605535,314.98883 L322.34059,239.904787 C301.382288,238.951064 279.475646,238.517553 256.905166,238.604255 L256.905166,238.604255 Z" id="Shape" fill="#8AD179" sketch:type="MSShapeGroup"></path>
                <text id="$" stroke="#FFFFFF" stroke-width="5.97785978" fill="#3FC45C" sketch:type="MSTextLayer" font-family="Helvetica" font-size="14.4978376" font-weight="normal">
                    <tspan x="374.632978" y="236.16874" fill="#000000">$</tspan>
                </text>
                <g transform="translate(55.952030, 172.537234)" stroke="#FFFFFF" fill="#7E634C" sketch:type="MSShapeGroup">
                    <path d="M110.576384,49.9404255 C116.266421,49.9404255 120.81845,45.7787234 120.81845,40.5765957 C120.81845,35.3744681 116.171587,31.212766 110.576384,31.212766 C104.886347,31.212766 100.334317,35.3744681 100.334317,40.5765957 C100.334317,45.7787234 104.886347,49.9404255 110.576384,49.9404255 L110.576384,49.9404255 Z" id="Shape" stroke-width="5.97785978"></path>
                    <path d="M110.576384,52.6281915 C104.222509,52.6281915 98.6273063,55.4026596 95.0236162,59.6510638 L95.0236162,59.6510638 L95.0236162,68.8414894 L77.1,68.8414894 L77.1,35.3744681 L78.996679,36.5015957 L83.3590406,30.2590426 L47.4169742,8.75691489 L50.6413284,6.84946809 L46.2789668,0.606914894 L0.284501845,28.0914894 L4.64686347,34.3340426 L6.73321033,33.1202128 L6.73321033,87.8292553 L25.6051661,87.8292553 L25.6051661,89.3898936 L52.8225092,89.3898936 L52.8225092,117.568085 L57.9435424,117.568085 L59.4608856,117.568085 L99.101476,117.568085 L99.101476,87.8292553 L116.456089,87.8292553 L126.318819,87.8292553 L126.318819,81.3265957 L126.318819,59.8244681 L126.318819,59.6510638 L126.129151,59.6510638 C122.525461,55.4026596 116.930258,52.6281915 110.576384,52.6281915 L110.576384,52.6281915 Z" id="Shape" stroke-width="5.97785978"></path>
                    <path d="M228.929151,38.4090426 L230.446494,39.7962766 L234.714022,35.8946809 L211.384871,14.7393617 L215.273063,11.0978723 L211.005535,7.28297872 L179.710332,35.8946809 L183.97786,39.7962766 L185.495203,38.4090426 L185.495203,56.356383 L138.742066,56.356383 L138.742066,66.0670213 L141.966421,66.0670213 L141.966421,124.851064 L167.666421,124.851064 L167.666421,126.151596 L167.666421,131.006915 L187.391882,131.006915 L191.374908,131.006915 L204.651661,131.006915 L213.850554,131.006915 L220.394096,131.006915 L223.049446,131.006915 L244.197417,131.006915 L244.197417,126.064894 L244.197417,124.851064 L258.043173,124.851064 L272.457934,124.851064 L272.457934,66.0670213 L275.682288,66.0670213 L275.682288,56.356383 L228.929151,56.356383 L228.929151,38.4090426 Z" id="Shape" stroke-width="5.97785978"></path>
                    <path d="M363.972694,38.7558511 L357.144649,44.9984043 L357.144649,16.9069149 L298.157934,16.9069149 L295.976753,16.9069149 L291.424723,16.9069149 L291.424723,86.1819149 L295.976753,86.1819149 L298.157934,86.1819149 L357.144649,86.1819149 L357.144649,52.6281915 L368.145387,42.5707447 L363.972694,38.7558511 Z" id="Shape" stroke-width="5.97785978"></path>
                    <path d="M363.98003,38.779605 L365.857629,37.0647805 L370.086594,40.9271262 L368.208996,42.6419507 L363.98003,38.779605 L363.98003,38.779605 Z" id="Rectangle-path" stroke-width="5.97780245"></path>
                </g>
                <g transform="translate(55.483128, 172.537234)" sketch:type="MSShapeGroup">
                    <g>
                        <g id="Shape">
                            <g>
                                <path d="M77.5741697,29.218617 L77.5741697,87.8292553 L7.11254613,87.8292553 L7.11254613,26.2707447 L41.9166052,10.7510638 L77.5741697,29.218617 Z" fill="#BDAA94"></path>
                                <path d="M79.4708487,36.5015957 L39.5457565,12.6585106 L43.9081181,6.41595745 L83.8332103,30.2590426 L79.4708487,36.5015957 Z" fill="#12979F"></path>
                                <path d="M5.12103321,34.3340426 L51.1154982,6.93617021 L46.7531365,0.693617021 L0.758671587,28.0914894 L5.12103321,34.3340426 Z" fill="#12979F"></path>
                            </g>
                            <g transform="translate(25.605166, 30.345745)">
                                <g fill="#FFFFFF">
                                    <path d="M27.3121771,10.1441489 C27.3121771,15.5196809 22.5704797,19.8547872 16.6907749,19.8547872 C10.8110701,19.8547872 6.06937269,15.5196809 6.06937269,10.1441489 C6.06937269,4.76861702 10.8110701,0.433510638 16.6907749,0.433510638 C22.5704797,0.433510638 27.3121771,4.85531915 27.3121771,10.1441489 L27.3121771,10.1441489 Z"></path>
                                    <path d="M32.8125461,29.912234 C29.1140221,25.4904255 23.2343173,22.6292553 16.6907749,22.6292553 C10.1472325,22.6292553 4.26752768,25.4904255 0.56900369,29.912234 L0.56900369,29.912234 L0.56900369,52.4547872 L0.56900369,59.0441489 L32.9073801,59.0441489 L32.9073801,52.3680851 L32.9073801,30.0856383 L32.9073801,29.912234 L32.8125461,29.912234 L32.8125461,29.912234 Z"></path>
                                </g>
                                <path d="M16.8804428,11.3579787 C16.8804428,11.3579787 12.802583,10.9244681 12.6129151,15.2595745 C12.6129151,15.2595745 17.0701107,15.7797872 16.8804428,11.3579787 L16.8804428,11.3579787 Z" fill="#998269"></path>
                                <path d="M16.8804428,11.3579787 C16.8804428,11.3579787 20.9583026,10.9244681 21.1479705,15.2595745 C21.1479705,15.2595745 16.595941,15.7797872 16.8804428,11.3579787 L16.8804428,11.3579787 Z" fill="#998269"></path>
                            </g>
                        </g>
                        <g transform="translate(94.833948, 30.345745)" id="Shape" fill="#998269">
                            <path d="M26.6483395,10.1441489 C26.6483395,15.3462766 22.001476,19.5079787 16.4062731,19.5079787 C10.7162362,19.5079787 6.16420664,15.3462766 6.16420664,10.1441489 C6.16420664,4.94202128 10.7162362,0.780319149 16.4062731,0.780319149 C22.001476,0.780319149 26.6483395,5.0287234 26.6483395,10.1441489 L26.6483395,10.1441489 Z"></path>
                            <path d="M31.9590406,29.3053191 C28.3553506,25.0569149 22.7601476,22.2824468 16.4062731,22.2824468 C10.0523985,22.2824468 4.45719557,25.0569149 0.853505535,29.3053191 L0.853505535,29.3053191 L0.853505535,51.0675532 L0.853505535,57.3968085 L32.1487085,57.3968085 L32.1487085,50.8941489 L32.1487085,29.4787234 L32.1487085,29.3053191 L31.9590406,29.3053191 L31.9590406,29.3053191 Z"></path>
                        </g>
                        <g transform="translate(51.679233, 68.494681)">
                            <rect id="Rectangle-path" fill="#FAE395" x="0.379335793" y="0.346808511" width="46.1841328" height="48.7265957"></rect>
                            <rect id="Rectangle-path" fill="#12979F" x="0.379335793" y="0.346808511" width="6.54354244" height="48.7265957"></rect>
                            <rect id="Rectangle-path" fill="#09858C" x="5.500369" y="0.346808511" width="1.51734317" height="48.7265957"></rect>
                            <path d="M25.0361624,17.687234 L12.3284133,25.7505319 L12.3284133,42.3106383 L37.6490775,42.3106383 L37.6490775,25.7505319 L25.0361624,17.687234 Z" id="Shape" fill="#FFFFFF"></path>
                            <rect id="Rectangle-path" fill="#FFFFFF" x="12.3284133" y="7.10957447" width="25.3206642" height="1.99414894"></rect>
                            <rect id="Rectangle-path" fill="#42A437" x="15.9321033" y="30.0856383" width="2.46568266" height="3.46808511"></rect>
                            <rect id="Rectangle-path" fill="#3FC45C" x="20.3892989" y="32.7734043" width="2.46568266" height="3.46808511"></rect>
                        </g>
                    </g>
                    <path d="M98.2427019,68.9281915 L115.597314,87.8292553 L98.2427019,87.8292553 L98.2427019,68.9281915 Z" id="Shape" fill="#BFC0C0"></path>
                </g>
                <g transform="translate(194.409594, 179.473404)" sketch:type="MSShapeGroup">
                    <g>
                        <g>
                            <g transform="translate(40.778598, 0.000000)">
                                <path d="M49.6929889,26.4441489 L49.6929889,117.914894 L6.25904059,117.914894 L6.25904059,26.6175532 L27.1225092,7.97659574 L49.6929889,26.4441489 Z" id="Shape" fill="#EFCA82"></path>
                                <path d="M11.6645756,23.1494681 L49.6929889,63.4659574 L49.6929889,29.4787234 L28.0708487,7.97659574 L11.6645756,23.1494681 Z" id="Shape" fill="#BFC0C0"></path>
                                <g transform="translate(15.173432, 22.542553)">
                                    <path d="M24.1826568,11.2712766 C24.1826568,17.1670213 18.9667897,21.9356383 12.5180812,21.9356383 C6.06937269,21.9356383 0.853505535,17.1670213 0.853505535,11.2712766 C0.853505535,5.37553191 6.06937269,0.606914894 12.5180812,0.606914894 C18.9667897,0.606914894 24.1826568,5.37553191 24.1826568,11.2712766 L24.1826568,11.2712766 Z" id="Shape" fill="#85BA54"></path>
                                    <ellipse id="Oval" fill="#FFFFFF" cx="12.5180812" cy="11.2712766" rx="9.48339483" ry="8.67021277"></ellipse>
                                    <rect id="Rectangle-path" fill="#85BA54" x="3.03468635" y="10.4042553" width="18.8719557" height="1.64734043"></rect>
                                    <rect id="Rectangle-path" fill="#85BA54" x="11.5697417" y="2.60106383" width="1.80184502" height="8.67021277"></rect>
                                </g>
                                <g id="Rectangle-path" fill="#FAE395">
                                    <path d="M30.238914,6.02994083 L55.4955653,28.895653 L51.2183076,32.8365075 L25.9616563,9.97079529 L30.238914,6.02994083 L30.238914,6.02994083 Z"></path>
                                    <path d="M31.7740142,0.346286161 L36.0662746,4.26533065 L4.72266013,32.8997834 L0.430399756,28.9807389 L31.7740142,0.346286161 L31.7740142,0.346286161 Z"></path>
                                </g>
                            </g>
                            <rect id="Rectangle-path" fill="#FAE395" x="90.4715867" y="59.1308511" width="43.5287823" height="58.7840426"></rect>
                            <rect id="Rectangle-path" fill="#12979F" x="90.4715867" y="49.4202128" width="46.7531365" height="9.7106383"></rect>
                            <rect id="Rectangle-path" fill="#FAE395" x="3.50885609" y="59.1308511" width="43.5287823" height="58.7840426"></rect>
                            <rect id="Rectangle-path" fill="#12979F" x="0.284501845" y="49.4202128" width="46.7531365" height="9.7106383"></rect>
                            <g transform="translate(55.952030, 22.542553)">
                                <path d="M24.1826568,11.2712766 C24.1826568,17.1670213 18.9667897,21.9356383 12.5180812,21.9356383 C6.06937269,21.9356383 0.853505535,17.1670213 0.853505535,11.2712766 C0.853505535,5.37553191 6.06937269,0.606914894 12.5180812,0.606914894 C18.9667897,0.606914894 24.1826568,5.37553191 24.1826568,11.2712766 L24.1826568,11.2712766 Z" id="Shape" fill="#998269"></path>
                                <ellipse id="Oval" fill="#FFFFFF" cx="12.5180812" cy="11.2712766" rx="9.48339483" ry="8.67021277"></ellipse>
                                <rect id="Rectangle-path" fill="#998269" x="3.03468635" y="10.4042553" width="18.8719557" height="1.64734043"></rect>
                                <rect id="Rectangle-path" fill="#998269" x="11.5697417" y="2.60106383" width="1.80184502" height="8.67021277"></rect>
                            </g>
                            <rect id="Rectangle-path" fill="#FFFFFF" x="14.5095941" y="64.9398936" width="4.83653137" height="5.0287234"></rect>
                            <rect id="Rectangle-path" fill="#3FC45C" x="9.67306273" y="73.35" width="4.83653137" height="5.0287234"></rect>
                            <rect id="Rectangle-path" fill="#3FC45C" x="125.180812" y="67.1941489" width="4.83653137" height="5.0287234"></rect>
                            <rect id="Rectangle-path" fill="#FFFFFF" x="118.447601" y="74.9973404" width="4.83653137" height="5.0287234"></rect>
                        </g>
                        <g transform="translate(28.450185, 75.430851)">
                            <g transform="translate(53.107011, 5.202128)">
                                <g id="Shape" fill="#7E634C">
                                    <path d="M20.0099631,7.54308511 C20.0099631,11.4446809 16.501107,14.6526596 12.2335793,14.6526596 C7.96605166,14.6526596 4.45719557,11.4446809 4.45719557,7.54308511 C4.45719557,3.64148936 7.96605166,0.433510638 12.2335793,0.433510638 C16.501107,0.433510638 20.0099631,3.64148936 20.0099631,7.54308511 L20.0099631,7.54308511 Z"></path>
                                    <path d="M24.0878229,22.1090426 C21.3376384,18.9010638 17.0701107,16.7335106 12.2335793,16.7335106 C7.39704797,16.7335106 3.1295203,18.8143617 0.379335793,22.1090426 L0.379335793,22.1090426 L0.379335793,38.5824468 L0.379335793,43.3510638 L24.0878229,43.3510638 L24.0878229,38.4090426 L24.0878229,22.1090426 L24.0878229,22.1090426 Z"></path>
                                </g>
                                <g transform="translate(10.431734, 19.074468)" fill="#FFFFFF">
                                    <path d="M1.82897759,0.598391953 L3.17144697,1.822054 L1.8302472,3.04940932 L0.48777783,1.82574727 L1.82897759,0.598391953 L1.82897759,0.598391953 Z" id="Rectangle-path"></path>
                                    <path d="M1.80184502,6.41595745 L0.474169742,5.20212766 L1.80184502,3.98829787 L3.1295203,5.20212766 L1.80184502,6.41595745 Z" id="Shape"></path>
                                    <path d="M1.77282651,7.37349571 L3.11529588,8.59733099 L1.77390626,9.82468631 L0.431436884,8.60085103 L1.77282651,7.37349571 L1.77282651,7.37349571 Z" id="Rectangle-path"></path>
                                </g>
                            </g>
                            <g transform="translate(19.915129, 0.000000)" id="Shape">
                                <g fill="#7E634C">
                                    <path d="M22.4756458,8.58351064 C22.4756458,13.0053191 18.5874539,16.5601064 13.7509225,16.5601064 C8.91439114,16.5601064 5.02619926,13.0053191 5.02619926,8.58351064 C5.02619926,4.16170213 8.91439114,0.606914894 13.7509225,0.606914894 C18.5874539,0.606914894 22.4756458,4.16170213 22.4756458,8.58351064 L22.4756458,8.58351064 Z"></path>
                                    <path d="M26.9328413,24.7968085 C23.898155,21.1553191 19.1564576,18.8143617 13.7509225,18.8143617 C8.34538745,18.8143617 3.60369004,21.1553191 0.56900369,24.7968085 L0.56900369,24.7968085 L0.56900369,43.2643617 L0.56900369,48.6398936 L27.1225092,48.6398936 L27.1225092,43.1776596 L27.1225092,24.9702128 L27.1225092,24.8835106 L26.9328413,24.8835106 L26.9328413,24.7968085 Z"></path>
                                </g>
                                <path d="M13.8457565,9.53723404 C13.8457565,9.53723404 10.4317343,9.19042553 10.3369004,12.7452128 C10.3369004,12.7452128 14.0354244,13.1787234 13.8457565,9.53723404 L13.8457565,9.53723404 Z" fill="#FFFFFF"></path>
                                <path d="M13.8457565,9.53723404 C13.8457565,9.53723404 17.2597786,9.19042553 17.3546125,12.7452128 C17.3546125,12.7452128 13.6560886,13.1787234 13.8457565,9.53723404 L13.8457565,9.53723404 Z" fill="#FFFFFF"></path>
                            </g>
                            <g transform="translate(36.985240, 16.473404)">
                                <g fill="#BAA792">
                                    <ellipse id="Oval" cx="9.95756458" cy="5.89574468" rx="6.06937269" ry="5.54893617"></ellipse>
                                    <path d="M19.0616236,17.1670213 C16.9752768,14.6526596 13.6560886,13.0053191 9.95756458,13.0053191 C6.25904059,13.0053191 2.9398524,14.6526596 0.758671587,17.1670213 L0.758671587,17.1670213 L0.758671587,29.9989362 L0.758671587,32.1664894 L19.1564576,32.1664894 L19.1564576,29.912234 L19.0616236,17.1670213 L19.0616236,17.1670213 Z" id="Shape"></path>
                                </g>
                                <path d="M5.02619926,10.2308511 C5.02619926,10.2308511 1.61217712,9.88404255 1.51734317,13.4388298 C1.42250923,13.4388298 5.21586716,13.9590426 5.02619926,10.2308511 L5.02619926,10.2308511 Z" id="Shape" fill="#FFFFFF"></path>
                                <path d="M14.7940959,10.2308511 C14.7940959,10.2308511 18.2081181,9.88404255 18.302952,13.4388298 C18.302952,13.4388298 14.5095941,13.9590426 14.7940959,10.2308511 L14.7940959,10.2308511 Z" id="Shape" fill="#FFFFFF"></path>
                            </g>
                            <g transform="translate(0.000000, 5.202128)">
                                <g fill="#998269">
                                    <ellipse id="Oval" cx="12.6129151" cy="7.54308511" rx="7.77638376" ry="7.10957447"></ellipse>
                                    <path d="M24.3723247,22.1090426 C21.6221402,18.9010638 17.3546125,16.7335106 12.5180812,16.7335106 C7.68154982,16.7335106 3.41402214,18.8143617 0.663837638,22.1090426 L0.663837638,22.1090426 L0.663837638,38.5824468 L0.663837638,43.3510638 L24.3723247,43.3510638 L24.3723247,38.4090426 L24.3723247,22.1090426 L24.3723247,22.1090426 Z" id="Shape"></path>
                                </g>
                                <g transform="translate(9.483395, 18.207447)" fill="#FFFFFF">
                                    <path d="M3.09679654,0.536766233 L5.37609255,2.61964206 L3.09314804,4.70349302 L0.813852021,2.62061719 L3.09679654,0.536766233 L3.09679654,0.536766233 Z" id="Rectangle-path"></path>
                                    <path d="M3.1295203,14.1324468 L0.853505535,12.0515957 L3.1295203,4.59521277 L5.31070111,12.0515957 L3.1295203,14.1324468 Z" id="Shape"></path>
                                </g>
                            </g>
                        </g>
                    </g>
                    <path d="M105.739852,102.742021 L119.585609,117.914894 L105.739852,117.914894 L105.739852,102.742021 Z" id="Shape" fill="#BFC0C0"></path>
                </g>
                <g transform="translate(345.195572, 189.010638)">
                    <g>
                        <rect id="Rectangle-path" fill="#BAA792" sketch:type="MSShapeGroup" x="0.853505535" y="0.433510638" width="65.7199262" height="69.275"></rect>
                        <rect id="Rectangle-path" fill="#12979F" sketch:type="MSShapeGroup" x="0.853505535" y="0.433510638" width="4.55202952" height="69.275"></rect>
                        <rect id="Rectangle-path" fill="#09858C" sketch:type="MSShapeGroup" x="5.40553506" y="0.433510638" width="2.08634686" height="69.275"></rect>
                        <path d="M35.9420664,25.0569149 L17.9236162,36.5015957 L17.9236162,60.0845745 L53.8656827,60.0845745 L53.8656827,36.5015957 L53.9605166,36.5015957 L35.9420664,25.0569149 Z" id="Shape" fill="#FFFFFF" sketch:type="MSShapeGroup"></path>
                        <text id="$" fill="#3FC45C" sketch:type="MSTextLayer" font-family="Helvetica" font-size="14.4978376" font-weight="normal">
                            <tspan x="29.4374059" y="47.1581016" fill="#000000">$</tspan>
                        </text>
                        <path d="M17.9236162,11.4446809 L53.9605166,11.4446809" id="Shape" stroke="#FFFFFF" stroke-width="2.65682657" sketch:type="MSShapeGroup"></path>
                        <path d="M17.9236162,16.7335106 L53.9605166,16.7335106" id="Shape" stroke="#FFFFFF" stroke-width="0.664206642" sketch:type="MSShapeGroup"></path>
                    </g>
                    <path d="M44.002952,53.0617021 L66.5734317,69.7085106 L66.5734317,31.7329787 L44.002952,53.0617021 Z" id="Shape" fill="#BFC0C0" sketch:type="MSShapeGroup"></path>
                    <g transform="translate(43.623616, 19.941489)" sketch:type="MSShapeGroup">
                        <path d="M29.8437246,2.29311665 L34.0677235,6.15201739 L7.68330155,30.2422903 L3.45930266,26.3833895 L29.8437246,2.29311665 L29.8437246,2.29311665 Z" id="Rectangle-path" fill="#3FC45C"></path>
                        <path d="M31.6814844,0.604488675 L35.9054833,4.46338941 L34.0256771,6.17974473 L29.8016783,2.32084399 L31.6814844,0.604488675 L31.6814844,0.604488675 Z" id="Rectangle-path" fill="#EFCA82"></path>
                        <path d="M7.68154982,30.2590426 L3.41402214,26.4441489 L0.379335793,33.1202128 L7.68154982,30.2590426 Z" id="Shape" fill="#7E634C"></path>
                    </g>
                </g>
            </g>
        </g>
    </g>
</svg>