<?xml version="1.0" encoding="UTF-8" standalone="no"?>
<svg width="283px" height="48px" viewBox="0 0 283 48" version="1.1" xmlns="http://www.w3.org/2000/svg" xmlns:xlink="http://www.w3.org/1999/xlink" xmlns:sketch="http://www.bohemiancoding.com/sketch/ns">
    <!-- Generator: Sketch 3.4.4 (17249) - http://www.bohemiancoding.com/sketch -->
    <title>logo-es</title>
    <desc>Created with Sketch.</desc>
    <defs></defs>
    <g id="logo" stroke="none" stroke-width="1" fill="none" fill-rule="evenodd" sketch:type="MSPage">
        <g id="logo-es" sketch:type="MSArtboardGroup">
            <g id="Fill-1-+-Fill-2-+-Fill-3" sketch:type="MSLayerGroup" transform="translate(5.000000, 4.000000)">
                <path d="M20.333,40 C17.707,40 15.154,39.499 12.745,38.51 L13.504,36.66 C15.671,37.549 17.969,38 20.333,38 C30.258,38 38.333,29.925 38.333,20 C38.333,10.075 30.258,2 20.333,2 C10.408,2 2.333,10.075 2.333,20 L0.333,20 C0.333,8.972 9.305,0 20.333,0 C31.361,0 40.333,8.972 40.333,20 C40.333,31.028 31.361,40 20.333,40" id="Fill-1" fill="#56B879" sketch:type="MSShapeGroup"></path>
                <path d="M9.781,34.584 C5.117,31.204 2.333,25.752 2.333,20 C2.333,19.447 1.885,19 1.333,19 C0.781,19 0.333,19.447 0.333,20 C0.333,26.391 3.426,32.448 8.607,36.203 L9.781,34.584" id="Fill-2" fill="#9ED16B" sketch:type="MSShapeGroup"></path>
                <path d="M13.124,38.585 C12.998,38.585 12.869,38.562 12.745,38.51 C11.283,37.91 9.891,37.134 8.607,36.203 C8.16,35.879 8.06,35.254 8.384,34.807 C8.71,34.359 9.335,34.26 9.781,34.584 C10.936,35.422 12.189,36.12 13.504,36.66 C14.015,36.869 14.259,37.453 14.05,37.965 C13.891,38.352 13.518,38.585 13.124,38.585" id="Fill-3" fill="#F0ED1F" sketch:type="MSShapeGroup"></path>
            </g>
            <g id="ILUMINEMOS-A-TAIWÁN-Copy-+-Tsai-Ing-wen-,-Chen-" sketch:type="MSLayerGroup" transform="translate(60.000000, 10.000000)" fill="#000000">
                <path d="M3.251,28.559 L3.251,22.151 L2,22.151 L2,28.559 L3.251,28.559 Z M10.903,28.559 L10.903,27.443 L7.996,27.443 L7.996,22.151 L6.745,22.151 L6.745,28.559 L10.903,28.559 Z M18.222,26.363 L18.222,22.151 L16.98,22.151 L16.98,26.318 C16.98,27.056 16.539,27.497 15.864,27.497 C15.189,27.497 14.757,27.056 14.757,26.318 L14.757,22.151 L13.506,22.151 L13.506,26.363 C13.506,27.722 14.55,28.613 15.864,28.613 C17.178,28.613 18.222,27.722 18.222,26.363 L18.222,26.363 Z M27.422,28.559 L27.422,22.151 L26.189,22.151 L24.524,25.616 L22.85,22.151 L21.617,22.151 L21.617,28.559 L22.868,28.559 L22.868,24.824 L24.101,27.254 L24.947,27.254 L26.171,24.824 L26.171,28.559 L27.422,28.559 Z M32.167,28.559 L32.167,22.151 L30.916,22.151 L30.916,28.559 L32.167,28.559 Z M40.566,28.559 L40.566,22.151 L39.315,22.151 L39.315,26.075 L36.777,22.151 L35.661,22.151 L35.661,28.559 L36.912,28.559 L36.912,24.626 L39.45,28.559 L40.566,28.559 Z M48.281,28.559 L48.281,27.443 L45.311,27.443 L45.311,25.886 L47.84,25.886 L47.84,24.77 L45.311,24.77 L45.311,23.267 L48.281,23.267 L48.281,22.151 L44.06,22.151 L44.06,28.559 L48.281,28.559 Z M57.31,28.559 L57.31,22.151 L56.077,22.151 L54.412,25.616 L52.738,22.151 L51.505,22.151 L51.505,28.559 L52.756,28.559 L52.756,24.824 L53.989,27.254 L54.835,27.254 L56.059,24.824 L56.059,28.559 L57.31,28.559 Z M65.322,25.355 C65.322,24.131 65.304,23.411 64.665,22.772 C64.233,22.34 63.693,22.097 62.955,22.097 C62.217,22.097 61.668,22.34 61.236,22.772 C60.597,23.411 60.588,24.131 60.588,25.355 C60.588,26.579 60.597,27.299 61.236,27.938 C61.668,28.37 62.217,28.613 62.955,28.613 C63.693,28.613 64.233,28.37 64.665,27.938 C65.304,27.299 65.322,26.579 65.322,25.355 L65.322,25.355 Z M64.071,25.355 C64.071,26.579 63.99,26.876 63.756,27.146 C63.576,27.353 63.297,27.497 62.955,27.497 C62.613,27.497 62.334,27.353 62.145,27.146 C61.911,26.876 61.839,26.579 61.839,25.355 C61.839,24.131 61.911,23.825 62.145,23.555 C62.334,23.348 62.613,23.213 62.955,23.213 C63.297,23.213 63.576,23.348 63.756,23.555 C63.99,23.825 64.071,24.131 64.071,25.355 L64.071,25.355 Z M72.74,26.669 C72.74,26.093 72.587,25.634 72.245,25.319 C71.966,25.049 71.606,24.896 71.021,24.815 L70.256,24.698 C69.986,24.662 69.797,24.572 69.671,24.455 C69.536,24.329 69.491,24.167 69.491,23.996 C69.491,23.555 69.806,23.186 70.472,23.186 C70.895,23.186 71.39,23.24 71.786,23.627 L72.578,22.844 C72.029,22.313 71.39,22.097 70.508,22.097 C69.122,22.097 68.276,22.898 68.276,24.041 C68.276,24.581 68.429,25.004 68.735,25.301 C69.023,25.58 69.41,25.751 69.977,25.832 L70.742,25.949 C71.066,25.994 71.192,26.048 71.318,26.165 C71.453,26.3 71.516,26.48 71.516,26.696 C71.516,27.209 71.12,27.497 70.373,27.497 C69.788,27.497 69.239,27.362 68.834,26.957 L68.024,27.767 C68.654,28.406 69.392,28.613 70.364,28.613 C71.714,28.613 72.74,27.911 72.74,26.669 L72.74,26.669 Z M84.957,28.559 L82.617,22.151 L81.636,22.151 L79.305,28.559 L80.61,28.559 L80.997,27.425 L83.274,27.425 L83.652,28.559 L84.957,28.559 Z M82.941,26.372 L81.348,26.372 L82.158,24.041 L82.941,26.372 Z M95.959,23.267 L95.959,22.151 L91.36,22.151 L91.36,23.267 L93.034,23.267 L93.034,28.559 L94.285,28.559 L94.285,23.267 L95.959,23.267 Z M103.296,28.559 L100.956,22.151 L99.975,22.151 L97.644,28.559 L98.949,28.559 L99.336,27.425 L101.613,27.425 L101.991,28.559 L103.296,28.559 Z M101.28,26.372 L99.687,26.372 L100.497,24.041 L101.28,26.372 Z M107.339,28.559 L107.339,22.151 L106.088,22.151 L106.088,28.559 L107.339,28.559 Z M118.015,22.151 L116.71,22.151 L115.711,26.192 L114.541,22.151 L113.605,22.151 L112.435,26.192 L111.445,22.151 L110.14,22.151 L111.85,28.559 L112.894,28.559 L114.073,24.671 L115.252,28.559 L116.296,28.559 L118.015,22.151 Z M125.586,28.559 L123.246,22.151 L122.265,22.151 L119.934,28.559 L121.239,28.559 L121.626,27.425 L123.903,27.425 L124.281,28.559 L125.586,28.559 Z M123.57,26.372 L121.977,26.372 L122.787,24.041 L123.57,26.372 Z M124.056,20 L122.823,20 L122.247,21.53 L123.03,21.53 L124.056,20 Z M133.283,28.559 L133.283,22.151 L132.032,22.151 L132.032,26.075 L129.494,22.151 L128.378,22.151 L128.378,28.559 L129.629,28.559 L129.629,24.626 L132.167,28.559 L133.283,28.559 Z" id="ILUMINEMOS-A-TAIWÁN-Copy" sketch:type="MSShapeGroup"></path>
                <path d="M8.276,1.696 L8.276,0.608 L0.468,0.608 L0.468,1.696 L3.764,1.696 L3.764,12 L4.98,12 L4.98,1.696 L8.276,1.696 Z M15.876,9.696 C15.876,8.208 14.932,7.696 13.556,7.568 L12.324,7.456 C11.348,7.36 10.916,7.008 10.916,6.304 C10.916,5.488 11.524,5.008 12.676,5.008 C13.492,5.008 14.212,5.2 14.772,5.632 L15.524,4.88 C14.804,4.304 13.828,4.032 12.692,4.032 C10.996,4.032 9.796,4.896 9.796,6.336 C9.796,7.648 10.612,8.32 12.148,8.448 L13.444,8.56 C14.372,8.64 14.756,9.008 14.756,9.712 C14.756,10.64 13.972,11.104 12.66,11.104 C11.684,11.104 10.82,10.832 10.212,10.192 L9.444,10.96 C10.292,11.792 11.332,12.096 12.676,12.096 C14.596,12.096 15.876,11.216 15.876,9.696 L15.876,9.696 Z M23.748,12 L23.748,6.656 C23.748,4.96 22.724,4.032 20.596,4.032 C19.3,4.032 18.5,4.304 17.812,5.216 L18.596,5.936 C19.076,5.28 19.588,5.024 20.58,5.024 C22.036,5.024 22.596,5.616 22.596,6.752 L22.596,7.504 L20.244,7.504 C18.484,7.504 17.508,8.384 17.508,9.776 C17.508,10.4 17.7,10.992 18.1,11.376 C18.644,11.904 19.236,12.096 20.324,12.096 C21.38,12.096 21.972,11.872 22.596,11.248 L22.596,12 L23.748,12 Z M22.596,9.216 C22.596,9.872 22.468,10.32 22.196,10.576 C21.684,11.04 21.108,11.104 20.452,11.104 C19.188,11.104 18.628,10.672 18.628,9.76 C18.628,8.832 19.22,8.368 20.404,8.368 L22.596,8.368 L22.596,9.216 Z M27.7,12 L27.7,4.128 L26.548,4.128 L26.548,12 L27.7,12 Z M27.78,1.888 L27.78,0.592 L26.484,0.592 L26.484,1.888 L27.78,1.888 Z M35.988,12 L35.988,0.608 L34.772,0.608 L34.772,12 L35.988,12 Z M45.268,12 L45.268,6.96 C45.268,6.048 45.012,5.312 44.452,4.768 C43.972,4.288 43.284,4.032 42.436,4.032 C41.556,4.032 40.788,4.352 40.228,4.992 L40.228,4.128 L39.076,4.128 L39.076,12 L40.228,12 L40.228,7.152 C40.228,5.776 40.996,5.056 42.18,5.056 C43.364,5.056 44.116,5.76 44.116,7.152 L44.116,12 L45.268,12 Z M53.876,12.24 L53.876,4.128 L52.74,4.128 L52.74,5.056 C52.1,4.224 51.396,4.032 50.532,4.032 C49.732,4.032 49.028,4.304 48.612,4.72 C47.828,5.504 47.652,6.72 47.652,8 C47.652,9.28 47.828,10.496 48.612,11.28 C49.028,11.696 49.716,11.984 50.516,11.984 C51.364,11.984 52.084,11.776 52.724,10.96 L52.724,12.192 C52.724,13.536 52.084,14.608 50.564,14.608 C49.652,14.608 49.252,14.336 48.676,13.824 L47.924,14.56 C48.756,15.312 49.412,15.616 50.596,15.616 C52.66,15.616 53.876,14.192 53.876,12.24 L53.876,12.24 Z M52.724,8 C52.724,9.472 52.484,10.944 50.772,10.944 C49.06,10.944 48.804,9.472 48.804,8 C48.804,6.528 49.06,5.056 50.772,5.056 C52.484,5.056 52.724,6.528 52.724,8 L52.724,8 Z M60.916,8.224 L60.916,7.152 L56.532,7.152 L56.532,8.224 L60.916,8.224 Z M73.54,4.128 L72.292,4.128 L70.5,10.448 L68.42,4.128 L67.428,4.128 L65.364,10.448 L63.556,4.128 L62.308,4.128 L64.804,12 L65.876,12 L67.924,5.888 L69.988,12 L71.06,12 L73.54,4.128 Z M81.188,8.368 L81.188,7.856 C81.188,5.488 80.004,4.032 77.956,4.032 C75.956,4.032 74.724,5.504 74.724,8.064 C74.724,10.848 76.068,12.096 78.164,12.096 C79.492,12.096 80.244,11.68 81.044,10.88 L80.26,10.192 C79.636,10.816 79.108,11.088 78.196,11.088 C76.676,11.088 75.876,10.096 75.876,8.368 L81.188,8.368 Z M80.052,7.504 L75.876,7.504 C75.908,6.864 75.924,6.608 76.116,6.192 C76.452,5.472 77.108,5.008 77.956,5.008 C78.804,5.008 79.46,5.472 79.796,6.192 C79.988,6.608 80.004,6.864 80.052,7.504 L80.052,7.504 Z M89.828,12 L89.828,6.96 C89.828,6.048 89.572,5.312 89.012,4.768 C88.532,4.288 87.844,4.032 86.996,4.032 C86.116,4.032 85.348,4.352 84.788,4.992 L84.788,4.128 L83.636,4.128 L83.636,12 L84.788,12 L84.788,7.152 C84.788,5.776 85.556,5.056 86.74,5.056 C87.924,5.056 88.676,5.76 88.676,7.152 L88.676,12 L89.828,12 Z M97.988,13.04 L97.988,10.592 L96.58,10.592 L96.58,14.304 L97.988,13.04 Z M112.532,8.704 L111.316,8.704 C111.012,10.112 110.004,11.008 108.58,11.008 C107.812,11.008 107.14,10.736 106.612,10.208 C105.892,9.472 105.812,8.64 105.812,6.304 C105.812,3.968 105.892,3.136 106.612,2.4 C107.14,1.872 107.812,1.6 108.58,1.6 C110.004,1.6 110.98,2.496 111.284,3.904 L112.532,3.904 C112.132,1.776 110.644,0.512 108.58,0.512 C107.396,0.512 106.436,0.928 105.732,1.632 C104.66,2.704 104.596,3.696 104.596,6.304 C104.596,8.912 104.66,9.904 105.732,10.976 C106.436,11.68 107.396,12.096 108.58,12.096 C110.628,12.096 112.132,10.832 112.532,8.704 L112.532,8.704 Z M121.204,12 L121.204,6.944 C121.204,5.168 120.164,4.032 118.372,4.032 C117.476,4.032 116.74,4.352 116.164,4.992 L116.164,0.608 L115.012,0.608 L115.012,12 L116.164,12 L116.164,7.136 C116.164,5.744 116.932,5.056 118.132,5.056 C119.332,5.056 120.052,5.744 120.052,7.136 L120.052,12 L121.204,12 Z M130.036,8.368 L130.036,7.856 C130.036,5.488 128.852,4.032 126.804,4.032 C124.804,4.032 123.572,5.504 123.572,8.064 C123.572,10.848 124.916,12.096 127.012,12.096 C128.34,12.096 129.092,11.68 129.892,10.88 L129.108,10.192 C128.484,10.816 127.956,11.088 127.044,11.088 C125.524,11.088 124.724,10.096 124.724,8.368 L130.036,8.368 Z M128.9,7.504 L124.724,7.504 C124.756,6.864 124.772,6.608 124.964,6.192 C125.3,5.472 125.956,5.008 126.804,5.008 C127.652,5.008 128.308,5.472 128.644,6.192 C128.836,6.608 128.852,6.864 128.9,7.504 L128.9,7.504 Z M138.676,12 L138.676,6.96 C138.676,6.048 138.42,5.312 137.86,4.768 C137.38,4.288 136.692,4.032 135.844,4.032 C134.964,4.032 134.196,4.352 133.636,4.992 L133.636,4.128 L132.484,4.128 L132.484,12 L133.636,12 L133.636,7.152 C133.636,5.776 134.404,5.056 135.588,5.056 C136.772,5.056 137.524,5.76 137.524,7.152 L137.524,12 L138.676,12 Z M153.172,8.704 L151.956,8.704 C151.652,10.112 150.644,11.008 149.22,11.008 C148.452,11.008 147.78,10.736 147.252,10.208 C146.532,9.472 146.452,8.64 146.452,6.304 C146.452,3.968 146.532,3.136 147.252,2.4 C147.78,1.872 148.452,1.6 149.22,1.6 C150.644,1.6 151.62,2.496 151.924,3.904 L153.172,3.904 C152.772,1.776 151.284,0.512 149.22,0.512 C148.036,0.512 147.076,0.928 146.372,1.632 C145.3,2.704 145.236,3.696 145.236,6.304 C145.236,8.912 145.3,9.904 146.372,10.976 C147.076,11.68 148.036,12.096 149.22,12.096 C151.268,12.096 152.772,10.832 153.172,8.704 L153.172,8.704 Z M161.844,12 L161.844,6.944 C161.844,5.168 160.804,4.032 159.012,4.032 C158.116,4.032 157.38,4.352 156.804,4.992 L156.804,0.608 L155.652,0.608 L155.652,12 L156.804,12 L156.804,7.136 C156.804,5.744 157.572,5.056 158.772,5.056 C159.972,5.056 160.692,5.744 160.692,7.136 L160.692,12 L161.844,12 Z M165.796,12 L165.796,4.128 L164.644,4.128 L164.644,12 L165.796,12 Z M165.876,1.888 L165.876,0.592 L164.58,0.592 L164.58,1.888 L165.876,1.888 Z M174.708,8.368 L174.708,7.856 C174.708,5.488 173.524,4.032 171.476,4.032 C169.476,4.032 168.244,5.504 168.244,8.064 C168.244,10.848 169.588,12.096 171.684,12.096 C173.012,12.096 173.764,11.68 174.564,10.88 L173.78,10.192 C173.156,10.816 172.628,11.088 171.716,11.088 C170.196,11.088 169.396,10.096 169.396,8.368 L174.708,8.368 Z M173.572,7.504 L169.396,7.504 C169.428,6.864 169.444,6.608 169.636,6.192 C169.972,5.472 170.628,5.008 171.476,5.008 C172.324,5.008 172.98,5.472 173.316,6.192 C173.508,6.608 173.524,6.864 173.572,7.504 L173.572,7.504 Z M183.348,12 L183.348,6.96 C183.348,6.048 183.092,5.312 182.532,4.768 C182.052,4.288 181.364,4.032 180.516,4.032 C179.636,4.032 178.868,4.352 178.308,4.992 L178.308,4.128 L177.156,4.128 L177.156,12 L178.308,12 L178.308,7.152 C178.308,5.776 179.076,5.056 180.26,5.056 C181.444,5.056 182.196,5.76 182.196,7.152 L182.196,12 L183.348,12 Z M190.308,8.224 L190.308,7.152 L185.924,7.152 L185.924,8.224 L190.308,8.224 Z M194.116,13.424 L194.116,4.128 L192.964,4.128 L192.964,13.376 C192.964,14.144 192.708,14.528 191.908,14.528 L191.284,14.528 L191.284,15.536 L192.116,15.536 C193.492,15.536 194.116,14.624 194.116,13.424 L194.116,13.424 Z M194.196,1.888 L194.196,0.592 L192.9,0.592 L192.9,1.888 L194.196,1.888 Z M203.044,8.368 L203.044,7.856 C203.044,5.488 201.86,4.032 199.812,4.032 C197.812,4.032 196.58,5.504 196.58,8.064 C196.58,10.848 197.924,12.096 200.02,12.096 C201.348,12.096 202.1,11.68 202.9,10.88 L202.116,10.192 C201.492,10.816 200.964,11.088 200.052,11.088 C198.532,11.088 197.732,10.096 197.732,8.368 L203.044,8.368 Z M201.908,7.504 L197.732,7.504 C197.764,6.864 197.78,6.608 197.972,6.192 C198.308,5.472 198.964,5.008 199.812,5.008 C200.66,5.008 201.316,5.472 201.652,6.192 C201.844,6.608 201.86,6.864 201.908,7.504 L201.908,7.504 Z M211.684,12 L211.684,6.96 C211.684,6.048 211.428,5.312 210.868,4.768 C210.388,4.288 209.7,4.032 208.852,4.032 C207.972,4.032 207.204,4.352 206.644,4.992 L206.644,4.128 L205.492,4.128 L205.492,12 L206.644,12 L206.644,7.152 C206.644,5.776 207.412,5.056 208.596,5.056 C209.78,5.056 210.532,5.76 210.532,7.152 L210.532,12 L211.684,12 Z" id="Tsai-Ing-wen-,-Chen-" sketch:type="MSShapeGroup"></path>
            </g>
        </g>
    </g>
</svg>