<?xml version="1.0" encoding="UTF-8" standalone="no"?>
<svg width="283px" height="48px" viewBox="0 0 283 48" version="1.1" xmlns="http://www.w3.org/2000/svg" xmlns:xlink="http://www.w3.org/1999/xlink" xmlns:sketch="http://www.bohemiancoding.com/sketch/ns">
    <!-- Generator: Sketch 3.4.4 (17249) - http://www.bohemiancoding.com/sketch -->
    <title>logo-en</title>
    <desc>Created with Sketch.</desc>
    <defs></defs>
    <g id="logo" stroke="none" stroke-width="1" fill="none" fill-rule="evenodd" sketch:type="MSPage">
        <g id="logo-en" sketch:type="MSArtboardGroup">
            <g id="logo" sketch:type="MSLayerGroup" transform="translate(5.000000, 4.000000)">
                <path d="M20.333,40 C17.707,40 15.154,39.499 12.745,38.51 L13.504,36.66 C15.671,37.549 17.969,38 20.333,38 C30.258,38 38.333,29.925 38.333,20 C38.333,10.075 30.258,2 20.333,2 C10.408,2 2.333,10.075 2.333,20 L0.333,20 C0.333,8.972 9.305,0 20.333,0 C31.361,0 40.333,8.972 40.333,20 C40.333,31.028 31.361,40 20.333,40" id="Fill-1" fill="#56B879" sketch:type="MSShapeGroup"></path>
                <path d="M9.781,34.584 C5.117,31.204 2.333,25.752 2.333,20 C2.333,19.447 1.885,19 1.333,19 C0.781,19 0.333,19.447 0.333,20 C0.333,26.391 3.426,32.448 8.607,36.203 L9.781,34.584" id="Fill-2" fill="#9ED16B" sketch:type="MSShapeGroup"></path>
                <path d="M13.124,38.585 C12.998,38.585 12.869,38.562 12.745,38.51 C11.283,37.91 9.891,37.134 8.607,36.203 C8.16,35.879 8.06,35.254 8.384,34.807 C8.71,34.359 9.335,34.26 9.781,34.584 C10.936,35.422 12.189,36.12 13.504,36.66 C14.015,36.869 14.259,37.453 14.05,37.965 C13.891,38.352 13.518,38.585 13.124,38.585" id="Fill-3" fill="#F0ED1F" sketch:type="MSShapeGroup"></path>
            </g>
            <g id="light-up-+-Tsai-Ing-wen-,-Chen-" sketch:type="MSLayerGroup" transform="translate(60.000000, 10.000000)" fill="#000000">
                <g id="light-up" transform="translate(1.000000, 22.000000)" sketch:type="MSShapeGroup">
                    <path d="M0.232,6.155 L0.232,0.393 L1.356,0.393 L1.356,5.151 L3.969,5.151 L3.969,6.155 L0.232,6.155" id="Fill-48"></path>
                    <path d="M7.307,0.393 L8.432,0.393 L8.432,6.154 L7.307,6.154 L7.307,0.393 Z" id="Fill-49"></path>
                    <path d="M15.749,5.548 C15.289,6.025 14.739,6.203 14.124,6.203 C13.493,6.203 12.976,5.976 12.571,5.572 C11.989,4.99 12.005,4.269 12.005,3.274 C12.005,2.279 11.989,1.559 12.571,0.976 C12.976,0.571 13.477,0.345 14.124,0.345 C15.458,0.345 16.138,1.219 16.292,2.19 L15.159,2.19 C15.029,1.648 14.698,1.348 14.124,1.348 C13.817,1.348 13.566,1.47 13.405,1.656 C13.186,1.899 13.129,2.165 13.129,3.274 C13.129,4.382 13.186,4.658 13.405,4.901 C13.566,5.087 13.817,5.2 14.124,5.2 C14.464,5.2 14.739,5.079 14.925,4.876 C15.111,4.666 15.183,4.407 15.183,4.107 L15.183,3.889 L14.124,3.889 L14.124,2.95 L16.3,2.95 L16.3,3.792 C16.3,4.625 16.154,5.127 15.749,5.548" id="Fill-50"></path>
                    <path d="M22.938,6.155 L22.938,3.743 L20.988,3.743 L20.988,6.155 L19.864,6.155 L19.864,0.393 L20.988,0.393 L20.988,2.748 L22.938,2.748 L22.938,0.393 L24.062,0.393 L24.062,6.155 L22.938,6.155" id="Fill-51"></path>
                    <path d="M30.029,1.397 L30.029,6.155 L28.904,6.155 L28.904,1.397 L27.4,1.397 L27.4,0.393 L31.533,0.393 L31.533,1.397 L30.029,1.397" id="Fill-52"></path>
                    <path d="M41.203,6.203 C40.022,6.203 39.084,5.402 39.084,4.18 L39.084,0.393 L40.208,0.393 L40.208,4.14 C40.208,4.803 40.596,5.2 41.203,5.2 C41.809,5.2 42.205,4.803 42.205,4.14 L42.205,0.393 L43.321,0.393 L43.321,4.18 C43.321,5.402 42.383,6.203 41.203,6.203" id="Fill-53"></path>
                    <path d="M49.232,3.986 L48.124,3.986 L48.124,6.155 L47,6.155 L47,0.393 L49.232,0.393 C50.421,0.393 51.133,1.211 51.133,2.19 C51.133,3.169 50.421,3.986 49.232,3.986 M49.176,1.397 L48.124,1.397 L48.124,2.974 L49.176,2.974 C49.685,2.974 50.009,2.659 50.009,2.19 C50.009,1.72 49.685,1.397 49.176,1.397" id="Fill-54"></path>
                    <path d="M61.004,1.397 L61.004,6.155 L59.88,6.155 L59.88,1.397 L58.376,1.397 L58.376,0.393 L62.508,0.393 L62.508,1.397 L61.004,1.397" id="Fill-55"></path>
                    <path d="M68.637,6.155 L68.297,5.135 L66.251,5.135 L65.903,6.155 L64.731,6.155 L66.826,0.393 L67.707,0.393 L69.809,6.155 L68.637,6.155 L68.637,6.155 Z M67.295,2.093 L66.567,4.188 L67.998,4.188 L67.295,2.093 L67.295,2.093 Z" id="Fill-56"></path>
                    <path d="M72.946,0.393 L74.07,0.393 L74.07,6.154 L72.946,6.154 L72.946,0.393 Z" id="Fill-57"></path>
                    <path d="M82.747,6.155 L81.809,6.155 L80.749,2.659 L79.69,6.155 L78.752,6.155 L77.215,0.393 L78.388,0.393 L79.278,4.026 L80.329,0.393 L81.17,0.393 L82.221,4.026 L83.119,0.393 L84.291,0.393 L82.747,6.155" id="Fill-58"></path>
                    <path d="M90.58,6.155 L90.241,5.135 L88.195,5.135 L87.847,6.155 L86.674,6.155 L88.769,0.393 L89.65,0.393 L91.753,6.155 L90.58,6.155 L90.58,6.155 Z M89.238,2.093 L88.51,4.188 L89.941,4.188 L89.238,2.093 L89.238,2.093 Z" id="Fill-59"></path>
                    <path d="M98.294,6.155 L96.013,2.619 L96.013,6.155 L94.889,6.155 L94.889,0.393 L95.892,0.393 L98.172,3.921 L98.172,0.393 L99.297,0.393 L99.297,6.155 L98.294,6.155" id="Fill-60"></path>
                </g>
                <path d="M8.76,1.696 L8.76,0.608 L0.952,0.608 L0.952,1.696 L4.248,1.696 L4.248,12 L5.464,12 L5.464,1.696 L8.76,1.696 Z M16.36,9.696 C16.36,8.208 15.416,7.696 14.04,7.568 L12.808,7.456 C11.832,7.36 11.4,7.008 11.4,6.304 C11.4,5.488 12.008,5.008 13.16,5.008 C13.976,5.008 14.696,5.2 15.256,5.632 L16.008,4.88 C15.288,4.304 14.312,4.032 13.176,4.032 C11.48,4.032 10.28,4.896 10.28,6.336 C10.28,7.648 11.096,8.32 12.632,8.448 L13.928,8.56 C14.856,8.64 15.24,9.008 15.24,9.712 C15.24,10.64 14.456,11.104 13.144,11.104 C12.168,11.104 11.304,10.832 10.696,10.192 L9.928,10.96 C10.776,11.792 11.816,12.096 13.16,12.096 C15.08,12.096 16.36,11.216 16.36,9.696 L16.36,9.696 Z M24.232,12 L24.232,6.656 C24.232,4.96 23.208,4.032 21.08,4.032 C19.784,4.032 18.984,4.304 18.296,5.216 L19.08,5.936 C19.56,5.28 20.072,5.024 21.064,5.024 C22.52,5.024 23.08,5.616 23.08,6.752 L23.08,7.504 L20.728,7.504 C18.968,7.504 17.992,8.384 17.992,9.776 C17.992,10.4 18.184,10.992 18.584,11.376 C19.128,11.904 19.72,12.096 20.808,12.096 C21.864,12.096 22.456,11.872 23.08,11.248 L23.08,12 L24.232,12 Z M23.08,9.216 C23.08,9.872 22.952,10.32 22.68,10.576 C22.168,11.04 21.592,11.104 20.936,11.104 C19.672,11.104 19.112,10.672 19.112,9.76 C19.112,8.832 19.704,8.368 20.888,8.368 L23.08,8.368 L23.08,9.216 Z M28.184,12 L28.184,4.128 L27.032,4.128 L27.032,12 L28.184,12 Z M28.264,1.888 L28.264,0.592 L26.968,0.592 L26.968,1.888 L28.264,1.888 Z M36.472,12 L36.472,0.608 L35.256,0.608 L35.256,12 L36.472,12 Z M45.752,12 L45.752,6.96 C45.752,6.048 45.496,5.312 44.936,4.768 C44.456,4.288 43.768,4.032 42.92,4.032 C42.04,4.032 41.272,4.352 40.712,4.992 L40.712,4.128 L39.56,4.128 L39.56,12 L40.712,12 L40.712,7.152 C40.712,5.776 41.48,5.056 42.664,5.056 C43.848,5.056 44.6,5.76 44.6,7.152 L44.6,12 L45.752,12 Z M54.36,12.24 L54.36,4.128 L53.224,4.128 L53.224,5.056 C52.584,4.224 51.88,4.032 51.016,4.032 C50.216,4.032 49.512,4.304 49.096,4.72 C48.312,5.504 48.136,6.72 48.136,8 C48.136,9.28 48.312,10.496 49.096,11.28 C49.512,11.696 50.2,11.984 51,11.984 C51.848,11.984 52.568,11.776 53.208,10.96 L53.208,12.192 C53.208,13.536 52.568,14.608 51.048,14.608 C50.136,14.608 49.736,14.336 49.16,13.824 L48.408,14.56 C49.24,15.312 49.896,15.616 51.08,15.616 C53.144,15.616 54.36,14.192 54.36,12.24 L54.36,12.24 Z M53.208,8 C53.208,9.472 52.968,10.944 51.256,10.944 C49.544,10.944 49.288,9.472 49.288,8 C49.288,6.528 49.544,5.056 51.256,5.056 C52.968,5.056 53.208,6.528 53.208,8 L53.208,8 Z M61.4,8.224 L61.4,7.152 L57.016,7.152 L57.016,8.224 L61.4,8.224 Z M74.024,4.128 L72.776,4.128 L70.984,10.448 L68.904,4.128 L67.912,4.128 L65.848,10.448 L64.04,4.128 L62.792,4.128 L65.288,12 L66.36,12 L68.408,5.888 L70.472,12 L71.544,12 L74.024,4.128 Z M81.672,8.368 L81.672,7.856 C81.672,5.488 80.488,4.032 78.44,4.032 C76.44,4.032 75.208,5.504 75.208,8.064 C75.208,10.848 76.552,12.096 78.648,12.096 C79.976,12.096 80.728,11.68 81.528,10.88 L80.744,10.192 C80.12,10.816 79.592,11.088 78.68,11.088 C77.16,11.088 76.36,10.096 76.36,8.368 L81.672,8.368 Z M80.536,7.504 L76.36,7.504 C76.392,6.864 76.408,6.608 76.6,6.192 C76.936,5.472 77.592,5.008 78.44,5.008 C79.288,5.008 79.944,5.472 80.28,6.192 C80.472,6.608 80.488,6.864 80.536,7.504 L80.536,7.504 Z M90.312,12 L90.312,6.96 C90.312,6.048 90.056,5.312 89.496,4.768 C89.016,4.288 88.328,4.032 87.48,4.032 C86.6,4.032 85.832,4.352 85.272,4.992 L85.272,4.128 L84.12,4.128 L84.12,12 L85.272,12 L85.272,7.152 C85.272,5.776 86.04,5.056 87.224,5.056 C88.408,5.056 89.16,5.76 89.16,7.152 L89.16,12 L90.312,12 Z M98.472,13.04 L98.472,10.592 L97.064,10.592 L97.064,14.304 L98.472,13.04 Z M113.016,8.704 L111.8,8.704 C111.496,10.112 110.488,11.008 109.064,11.008 C108.296,11.008 107.624,10.736 107.096,10.208 C106.376,9.472 106.296,8.64 106.296,6.304 C106.296,3.968 106.376,3.136 107.096,2.4 C107.624,1.872 108.296,1.6 109.064,1.6 C110.488,1.6 111.464,2.496 111.768,3.904 L113.016,3.904 C112.616,1.776 111.128,0.512 109.064,0.512 C107.88,0.512 106.92,0.928 106.216,1.632 C105.144,2.704 105.08,3.696 105.08,6.304 C105.08,8.912 105.144,9.904 106.216,10.976 C106.92,11.68 107.88,12.096 109.064,12.096 C111.112,12.096 112.616,10.832 113.016,8.704 L113.016,8.704 Z M121.688,12 L121.688,6.944 C121.688,5.168 120.648,4.032 118.856,4.032 C117.96,4.032 117.224,4.352 116.648,4.992 L116.648,0.608 L115.496,0.608 L115.496,12 L116.648,12 L116.648,7.136 C116.648,5.744 117.416,5.056 118.616,5.056 C119.816,5.056 120.536,5.744 120.536,7.136 L120.536,12 L121.688,12 Z M130.52,8.368 L130.52,7.856 C130.52,5.488 129.336,4.032 127.288,4.032 C125.288,4.032 124.056,5.504 124.056,8.064 C124.056,10.848 125.4,12.096 127.496,12.096 C128.824,12.096 129.576,11.68 130.376,10.88 L129.592,10.192 C128.968,10.816 128.44,11.088 127.528,11.088 C126.008,11.088 125.208,10.096 125.208,8.368 L130.52,8.368 Z M129.384,7.504 L125.208,7.504 C125.24,6.864 125.256,6.608 125.448,6.192 C125.784,5.472 126.44,5.008 127.288,5.008 C128.136,5.008 128.792,5.472 129.128,6.192 C129.32,6.608 129.336,6.864 129.384,7.504 L129.384,7.504 Z M139.16,12 L139.16,6.96 C139.16,6.048 138.904,5.312 138.344,4.768 C137.864,4.288 137.176,4.032 136.328,4.032 C135.448,4.032 134.68,4.352 134.12,4.992 L134.12,4.128 L132.968,4.128 L132.968,12 L134.12,12 L134.12,7.152 C134.12,5.776 134.888,5.056 136.072,5.056 C137.256,5.056 138.008,5.76 138.008,7.152 L138.008,12 L139.16,12 Z M153.656,8.704 L152.44,8.704 C152.136,10.112 151.128,11.008 149.704,11.008 C148.936,11.008 148.264,10.736 147.736,10.208 C147.016,9.472 146.936,8.64 146.936,6.304 C146.936,3.968 147.016,3.136 147.736,2.4 C148.264,1.872 148.936,1.6 149.704,1.6 C151.128,1.6 152.104,2.496 152.408,3.904 L153.656,3.904 C153.256,1.776 151.768,0.512 149.704,0.512 C148.52,0.512 147.56,0.928 146.856,1.632 C145.784,2.704 145.72,3.696 145.72,6.304 C145.72,8.912 145.784,9.904 146.856,10.976 C147.56,11.68 148.52,12.096 149.704,12.096 C151.752,12.096 153.256,10.832 153.656,8.704 L153.656,8.704 Z M162.328,12 L162.328,6.944 C162.328,5.168 161.288,4.032 159.496,4.032 C158.6,4.032 157.864,4.352 157.288,4.992 L157.288,0.608 L156.136,0.608 L156.136,12 L157.288,12 L157.288,7.136 C157.288,5.744 158.056,5.056 159.256,5.056 C160.456,5.056 161.176,5.744 161.176,7.136 L161.176,12 L162.328,12 Z M166.28,12 L166.28,4.128 L165.128,4.128 L165.128,12 L166.28,12 Z M166.36,1.888 L166.36,0.592 L165.064,0.592 L165.064,1.888 L166.36,1.888 Z M175.192,8.368 L175.192,7.856 C175.192,5.488 174.008,4.032 171.96,4.032 C169.96,4.032 168.728,5.504 168.728,8.064 C168.728,10.848 170.072,12.096 172.168,12.096 C173.496,12.096 174.248,11.68 175.048,10.88 L174.264,10.192 C173.64,10.816 173.112,11.088 172.2,11.088 C170.68,11.088 169.88,10.096 169.88,8.368 L175.192,8.368 Z M174.056,7.504 L169.88,7.504 C169.912,6.864 169.928,6.608 170.12,6.192 C170.456,5.472 171.112,5.008 171.96,5.008 C172.808,5.008 173.464,5.472 173.8,6.192 C173.992,6.608 174.008,6.864 174.056,7.504 L174.056,7.504 Z M183.832,12 L183.832,6.96 C183.832,6.048 183.576,5.312 183.016,4.768 C182.536,4.288 181.848,4.032 181,4.032 C180.12,4.032 179.352,4.352 178.792,4.992 L178.792,4.128 L177.64,4.128 L177.64,12 L178.792,12 L178.792,7.152 C178.792,5.776 179.56,5.056 180.744,5.056 C181.928,5.056 182.68,5.76 182.68,7.152 L182.68,12 L183.832,12 Z M190.792,8.224 L190.792,7.152 L186.408,7.152 L186.408,8.224 L190.792,8.224 Z M194.6,13.424 L194.6,4.128 L193.448,4.128 L193.448,13.376 C193.448,14.144 193.192,14.528 192.392,14.528 L191.768,14.528 L191.768,15.536 L192.6,15.536 C193.976,15.536 194.6,14.624 194.6,13.424 L194.6,13.424 Z M194.68,1.888 L194.68,0.592 L193.384,0.592 L193.384,1.888 L194.68,1.888 Z M203.528,8.368 L203.528,7.856 C203.528,5.488 202.344,4.032 200.296,4.032 C198.296,4.032 197.064,5.504 197.064,8.064 C197.064,10.848 198.408,12.096 200.504,12.096 C201.832,12.096 202.584,11.68 203.384,10.88 L202.6,10.192 C201.976,10.816 201.448,11.088 200.536,11.088 C199.016,11.088 198.216,10.096 198.216,8.368 L203.528,8.368 Z M202.392,7.504 L198.216,7.504 C198.248,6.864 198.264,6.608 198.456,6.192 C198.792,5.472 199.448,5.008 200.296,5.008 C201.144,5.008 201.8,5.472 202.136,6.192 C202.328,6.608 202.344,6.864 202.392,7.504 L202.392,7.504 Z M212.168,12 L212.168,6.96 C212.168,6.048 211.912,5.312 211.352,4.768 C210.872,4.288 210.184,4.032 209.336,4.032 C208.456,4.032 207.688,4.352 207.128,4.992 L207.128,4.128 L205.976,4.128 L205.976,12 L207.128,12 L207.128,7.152 C207.128,5.776 207.896,5.056 209.08,5.056 C210.264,5.056 211.016,5.76 211.016,7.152 L211.016,12 L212.168,12 Z" id="Tsai-Ing-wen-,-Chen-" sketch:type="MSShapeGroup"></path>
            </g>
        </g>
    </g>
</svg>