<?xml version="1.0" encoding="UTF-8" standalone="no"?>
<svg width="240px" height="48px" viewBox="0 0 240 48" version="1.1" xmlns="http://www.w3.org/2000/svg" xmlns:xlink="http://www.w3.org/1999/xlink" xmlns:sketch="http://www.bohemiancoding.com/sketch/ns">
    <!-- Generator: Sketch 3.3.3 (12072) - http://www.bohemiancoding.com/sketch -->
    <title>logo-zh</title>
    <desc>Created with Sketch.</desc>
    <defs></defs>
    <g id="Page-1" stroke="none" stroke-width="1" fill="none" fill-rule="evenodd" sketch:type="MSPage">
        <g id="logo-zh" sketch:type="MSArtboardGroup">
            <g id="logo" sketch:type="MSLayerGroup" transform="translate(4.000000, 4.000000)">
                <path d="M20,40 C17.374,40 14.821,39.499 12.412,38.51 L13.171,36.66 C15.338,37.549 17.636,38 20,38 C29.925,38 38,29.925 38,20 C38,10.075 29.925,2 20,2 C10.075,2 2,10.075 2,20 L0,20 C0,8.972 8.972,0 20,0 C31.028,0 40,8.972 40,20 C40,31.028 31.028,40 20,40" id="1" fill="#56B879" sketch:type="MSShapeGroup"></path>
                <path d="M9.448,34.584 C4.784,31.204 2,25.752 2,20 C2,19.447 1.552,19 1,19 C0.448,19 0,19.447 0,20 C0,26.391 3.093,32.448 8.274,36.203 L9.448,34.584" id="2" fill="#9ED16B" sketch:type="MSShapeGroup"></path>
                <path d="M12.791,38.585 C12.665,38.585 12.536,38.562 12.412,38.51 C10.95,37.91 9.558,37.134 8.274,36.203 C7.827,35.879 7.727,35.254 8.051,34.807 C8.377,34.359 9.002,34.26 9.448,34.584 C10.603,35.422 11.856,36.12 13.171,36.66 C13.682,36.869 13.926,37.453 13.717,37.965 C13.558,38.352 13.185,38.585 12.791,38.585" id="3" fill="#F0ED1F" sketch:type="MSShapeGroup"></path>
            </g>
            <g id="Imported-Layers" sketch:type="MSLayerGroup" transform="translate(59.000000, 9.000000)">
                <g id="Group" transform="translate(1.000000, 23.000000)" fill="#000000" sketch:type="MSShapeGroup">
                    <path d="M0.597235772,6.44178182 L0.597235772,0.680327273 L1.72117073,0.680327273 L1.72117073,5.43847273 L4.3335935,5.43847273 L4.3335935,6.44178182 L0.597235772,6.44178182" id="Fill-1"></path>
                    <path d="M7.67203252,0.680327273 L8.79658537,0.680327273 L8.79658537,6.44178182 L7.67203252,6.44178182 L7.67203252,0.680327273 Z" id="Fill-2"></path>
                    <path d="M16.1142114,5.83472727 C15.6538862,6.31196364 15.1039675,6.49 14.4891707,6.49 C13.8583089,6.49 13.3405203,6.26312727 12.9358049,5.85883636 C12.3537561,5.27650909 12.3698211,4.55632727 12.3698211,3.56105455 C12.3698211,2.56578182 12.3537561,1.8456 12.9358049,1.26265455 C13.3405203,0.858363636 13.841626,0.631490909 14.4891707,0.631490909 C15.823187,0.631490909 16.5028618,1.5056 16.6567154,2.47676364 L15.5241301,2.47676364 C15.394374,1.93461818 15.063187,1.63541818 14.4891707,1.63541818 C14.1814634,1.63541818 13.9306016,1.75658182 13.7693333,1.94265455 C13.5512195,2.1856 13.494374,2.45203636 13.494374,3.56105455 C13.494374,4.66945455 13.5512195,4.94454545 13.7693333,5.18749091 C13.9306016,5.37356364 14.1814634,5.48669091 14.4891707,5.48669091 C14.8283902,5.48669091 15.1039675,5.36552727 15.2899512,5.16338182 C15.475935,4.95258182 15.5482276,4.69356364 15.5482276,4.39436364 L15.5482276,4.17614545 L14.4891707,4.17614545 L14.4891707,3.23712727 L16.664748,3.23712727 L16.664748,4.07847273 C16.664748,4.9124 16.5189268,5.41374545 16.1142114,5.83472727" id="Fill-3"></path>
                    <path d="M23.3026992,6.44178182 L23.3026992,4.03025455 L21.3532683,4.03025455 L21.3532683,6.44178182 L20.2293333,6.44178182 L20.2293333,0.680327273 L21.3532683,0.680327273 L21.3532683,3.03498182 L23.3026992,3.03498182 L23.3026992,0.680327273 L24.4266341,0.680327273 L24.4266341,6.44178182 L23.3026992,6.44178182" id="Fill-4"></path>
                    <path d="M30.393561,1.68363636 L30.393561,6.44178182 L29.2690081,6.44178182 L29.2690081,1.68363636 L27.7650732,1.68363636 L27.7650732,0.680327273 L31.8974959,0.680327273 L31.8974959,1.68363636 L30.393561,1.68363636" id="Fill-5"></path>
                    <path d="M41.5674146,6.49 C40.3866341,6.49 39.4486829,5.68883636 39.4486829,4.46730909 L39.4486829,0.680327273 L40.5726179,0.680327273 L40.5726179,4.42650909 C40.5726179,5.09043636 40.9606504,5.48669091 41.5674146,5.48669091 C42.1741789,5.48669091 42.5702439,5.09043636 42.5702439,4.42650909 L42.5702439,0.680327273 L43.6861463,0.680327273 L43.6861463,4.46730909 C43.6861463,5.68883636 42.7481951,6.49 41.5674146,6.49" id="Fill-6"></path>
                    <path d="M49.5968455,4.2732 L48.4889756,4.2732 L48.4889756,6.44178182 L47.3650407,6.44178182 L47.3650407,0.680327273 L49.5968455,0.680327273 C50.7862764,0.680327273 51.4974634,1.49756364 51.4974634,2.47676364 C51.4974634,3.45596364 50.7862764,4.2732 49.5968455,4.2732 M49.5406179,1.68363636 L48.4889756,1.68363636 L48.4889756,3.26123636 L49.5406179,3.26123636 C50.0497561,3.26123636 50.3735285,2.94596364 50.3735285,2.47676364 C50.3735285,2.00694545 50.0497561,1.68363636 49.5406179,1.68363636" id="Fill-7"></path>
                    <path d="M61.368813,1.68363636 L61.368813,6.44178182 L60.244878,6.44178182 L60.244878,1.68363636 L58.7409431,1.68363636 L58.7409431,0.680327273 L62.8733659,0.680327273 L62.8733659,1.68363636 L61.368813,1.68363636" id="Fill-8"></path>
                    <path d="M69.0021789,6.44178182 L68.6623415,5.42178182 L66.6159024,5.42178182 L66.2680325,6.44178182 L65.0959024,6.44178182 L67.1905366,0.680327273 L68.0716423,0.680327273 L70.1743089,6.44178182 L69.0021789,6.44178182 L69.0021789,6.44178182 Z M67.6595122,2.37970909 L66.9316423,4.47534545 L68.3626667,4.47534545 L67.6595122,2.37970909 L67.6595122,2.37970909 Z" id="Fill-9"></path>
                    <path d="M73.3113171,0.680327273 L74.435252,0.680327273 L74.435252,6.44178182 L73.3113171,6.44178182 L73.3113171,0.680327273 Z" id="Fill-10"></path>
                    <path d="M83.1122276,6.44178182 L82.1742764,6.44178182 L81.1139837,2.94596364 L80.0549268,6.44178182 L79.1169756,6.44178182 L77.5796748,0.680327273 L78.7530407,0.680327273 L79.6427967,4.31338182 L80.6938211,0.680327273 L81.5347642,0.680327273 L82.5864065,4.31338182 L83.4841951,0.680327273 L84.6563252,0.680327273 L83.1122276,6.44178182" id="Fill-11"></path>
                    <path d="M90.9451707,6.44178182 L90.6059512,5.42178182 L88.5595122,5.42178182 L88.2116423,6.44178182 L87.0388943,6.44178182 L89.1335285,0.680327273 L90.015252,0.680327273 L92.1179187,6.44178182 L90.9451707,6.44178182 L90.9451707,6.44178182 Z M89.6025041,2.37970909 L88.875252,4.47534545 L90.3062764,4.47534545 L89.6025041,2.37970909 L89.6025041,2.37970909 Z" id="Fill-12"></path>
                    <path d="M98.6588618,6.44178182 L96.3782439,2.90578182 L96.3782439,6.44178182 L95.2543089,6.44178182 L95.2543089,0.680327273 L96.2571382,0.680327273 L98.5371382,4.20829091 L98.5371382,0.680327273 L99.6616911,0.680327273 L99.6616911,6.44178182 L98.6588618,6.44178182" id="Fill-13"></path>
                </g>
                <path d="M85.6513821,18.2592364 C85.4950569,18.2592364 85.3683902,18.1325091 85.3683902,17.9761091 L85.3683902,1.12818182 C85.3683902,0.971781818 85.4950569,0.845054545 85.6513821,0.845054545 C85.8077073,0.845054545 85.934374,0.971781818 85.934374,1.12818182 L85.934374,17.9761091 C85.934374,18.1325091 85.8077073,18.2592364 85.6513821,18.2592364" id="Fill-14" fill="#9ED1A7" sketch:type="MSShapeGroup"></path>
                <path d="M133.35652,2.5296 L129.450862,2.5296 L129.450862,1.15229091 C129.450862,1.08367273 129.395252,1.02803636 129.326667,1.02803636 L128.467805,1.02803636 C128.39922,1.02803636 128.342992,1.08367273 128.342992,1.15229091 L128.342992,2.5296 L124.676455,2.5296 L124.676455,1.15229091 C124.676455,1.08367273 124.620228,1.02803636 124.551642,1.02803636 L123.69278,1.02803636 C123.624195,1.02803636 123.568585,1.08367273 123.568585,1.15229091 L123.568585,2.5296 L119.663545,2.5296 C119.594959,2.5296 119.538732,2.58585455 119.538732,2.65447273 L119.538732,3.51312727 C119.538732,3.58174545 119.594959,3.63738182 119.663545,3.63738182 L123.568585,3.63738182 L123.568585,5.01469091 C123.568585,5.08392727 123.624195,5.13956364 123.69278,5.13956364 L124.551642,5.13956364 C124.620228,5.13956364 124.676455,5.08392727 124.676455,5.01469091 L124.676455,3.63738182 L128.342992,3.63738182 L128.342992,5.01469091 C128.342992,5.08392727 128.39922,5.13956364 128.467805,5.13956364 L129.326667,5.13956364 C129.395252,5.13956364 129.450862,5.08392727 129.450862,5.01469091 L129.450862,3.63738182 L133.35652,3.63738182 C133.425106,3.63738182 133.480715,3.58174545 133.480715,3.51312727 L133.480715,2.65447273 C133.480715,2.58585455 133.425106,2.5296 133.35652,2.5296" id="Fill-15" fill="#000000" sketch:type="MSShapeGroup"></path>
                <path d="M133.35652,10.1876364 L131.061073,10.1876364 L131.061073,7.00770909 C131.061073,6.902 130.975187,6.81607273 130.869528,6.81607273 L127.061496,6.81607273 L127.068293,5.28050909 C127.068293,5.20323636 127.005886,5.14018182 126.92865,5.14018182 L126.101301,5.13894545 C126.024065,5.13894545 125.961041,5.20138182 125.961041,5.27865455 L125.958569,6.81607273 L122.27535,6.81607273 C122.169691,6.81607273 122.083805,6.902 122.083805,7.00770909 L122.083805,10.1876364 L119.663545,10.1876364 C119.594959,10.1876364 119.538732,10.2432727 119.538732,10.3125091 L119.538732,11.1705455 C119.538732,11.2391636 119.594959,11.2954182 119.663545,11.2954182 L125.61935,11.2954182 C125.015057,12.4953091 123.572293,14.1582182 120.131285,14.9569091 C120.063935,14.9729818 120.020065,15.0385091 120.035512,15.1065091 C120.081236,15.3136 120.175154,15.7339636 120.221496,15.9429091 C120.236943,16.0115273 120.306764,16.0541818 120.37535,16.0387273 C124.159285,15.1615273 125.831902,13.2834909 126.567805,11.8703273 C127.08065,12.9181455 128.555545,14.9643273 132.45935,15.8019636 C132.527935,15.8168 132.595902,15.7722909 132.610114,15.7042909 L132.782504,14.8641818 C132.796098,14.7968 132.75161,14.7318909 132.684878,14.7176727 C129.062829,13.9381455 127.863512,12.0539273 127.51935,11.2954182 L133.35652,11.2954182 C133.425106,11.2954182 133.480715,11.2391636 133.480715,11.1705455 L133.480715,10.3125091 C133.480715,10.2432727 133.425106,10.1876364 133.35652,10.1876364 L133.35652,10.1876364 Z M129.827154,7.92385455 C129.896976,7.92385455 129.953203,7.98010909 129.953203,8.04996364 L129.953203,10.1876364 L127.046049,10.1876364 L127.056553,7.92385455 L129.827154,7.92385455 L129.827154,7.92385455 Z M123.191675,8.04996364 C123.191675,7.98010909 123.247902,7.92385455 123.317724,7.92385455 L125.957333,7.92385455 L125.954244,10.1876364 L123.191675,10.1876364 L123.191675,8.04996364 L123.191675,8.04996364 Z" id="Fill-16" fill="#000000" sketch:type="MSShapeGroup"></path>
                <path d="M109.90774,2.33054545 L109.90774,0.877818182 L108.869691,0.877818182 L108.869691,2.33054545 L105.827837,2.33054545 L105.827837,0.877818182 L104.790407,0.877818182 L104.790407,2.33054545 L100.377463,2.33054545 L100.377463,3.36847273 L104.790407,3.36847273 L104.790407,4.53250909 L105.827837,4.53250909 L105.827837,3.36847273 L108.869691,3.36847273 L108.869691,4.53250909 L109.90774,4.53250909 L109.90774,3.36847273 L114.320065,3.36847273 L114.320065,2.33054545 L109.90774,2.33054545" id="Fill-17" fill="#000000" sketch:type="MSShapeGroup"></path>
                <path d="M107.12787,6.05941818 L107.33239,5.51047273 C107.33239,5.51047273 107.393561,5.35901818 107.237854,5.35901818 L103.668325,5.35901818 C103.86852,4.99614545 103.982211,4.72414545 104.037821,4.58381818 C104.08478,4.46203636 103.984065,4.44534545 103.984065,4.44534545 L103.159805,4.19621818 C103.159805,4.19621818 103.070211,4.20796364 103.046114,4.26916364 C102.903382,4.6308 102.287967,5.95432727 100.559122,7.49112727 C100.481886,7.56036364 100.544911,7.62094545 100.544911,7.62094545 L101.113984,8.27745455 C101.113984,8.27745455 101.16465,8.34174545 101.236943,8.27807273 C102.03278,7.58014545 102.61174,6.9156 103.033756,6.34192727 L105.664098,6.34192727 C105.753073,6.34192727 105.809301,6.43650909 105.765431,6.51378182 C105.541138,6.91189091 105.218602,7.4188 104.786699,7.96527273 L103.919187,7.08807273 L103.182049,7.81938182 L104.103317,8.75036364 C103.922894,8.94014545 103.730732,9.13054545 103.52374,9.31909091 L102.585789,8.37141818 L101.84865,9.10210909 L102.721106,9.98363636 C102.055642,10.4837455 101.285138,10.9467636 100.391675,11.3145818 L100.348423,11.4153455 L100.677138,12.2288727 L100.78774,12.2752364 C105.485528,10.3378545 107.111805,6.10269091 107.12787,6.05941818" id="Fill-18" fill="#000000" sketch:type="MSShapeGroup"></path>
                <path d="M111.40426,9.12436364 L113.214667,5.66749091 C113.288195,5.52716364 113.186244,5.35901818 113.028065,5.35901818 L107.994764,5.35901818 C107.862537,5.35901818 107.915057,5.50985455 107.915057,5.50985455 L108.086211,6.0384 C108.410602,7.03923636 109.779837,10.4268727 113.784358,11.9772727 L114.159415,11.0092 C112.913138,10.6141818 111.66748,9.46869091 111.417236,9.22945455 L111.40426,9.12436364 L111.40426,9.12436364 Z M110.498439,8.32690909 C109.978797,7.67225455 109.624748,7.03243636 109.391187,6.52490909 C109.363382,6.46370909 109.410959,6.39756364 109.478309,6.39756364 L111.508065,6.39756364 C111.577268,6.39756364 111.621756,6.47112727 111.589626,6.53232727 L110.656618,8.31330909 C110.625724,8.37265455 110.540455,8.37945455 110.498439,8.32690909 L110.498439,8.32690909 Z" id="Fill-19" fill="#000000" sketch:type="MSShapeGroup"></path>
                <path d="M105.670276,9.17752727 L105.670276,10.0497818 L105.753691,10.1326182 L109.060618,10.1326182 L109.144033,10.0497818 L109.144033,9.17752727 L109.060618,9.09469091 L105.753691,9.09469091 L105.670276,9.17752727" id="Fill-20" fill="#000000" sketch:type="MSShapeGroup"></path>
                <path d="M110.990276,12.3797091 L111.073691,12.2962545 L111.073691,11.4246182 L110.990276,11.3411636 L103.926602,11.3411636 L103.843805,11.4246182 L103.843805,12.2962545 L103.926602,12.3797091 L106.954244,12.3797091 L106.954244,15.0168727 C106.954244,15.0922909 106.893073,15.1534909 106.817691,15.1534909 L106.108976,15.1534909 C106.033593,15.1534909 105.972423,15.2146909 105.972423,15.2894909 L105.972423,16.0554182 C105.972423,16.1308364 106.033593,16.1920364 106.108976,16.1920364 L107.532585,16.1920364 C107.786537,16.1920364 107.992293,15.9861818 107.992293,15.7321091 L107.992293,12.3797091 L110.990276,12.3797091" id="Fill-21" fill="#000000" sketch:type="MSShapeGroup"></path>
                <path d="M113.29561,15.2363273 L110.224715,13.2785455 L110.083837,13.3094545 L109.63587,14.0129455 L109.666764,14.1545091 L112.737659,16.1122909 L112.879154,16.0807636 L113.327122,15.3772727 L113.29561,15.2363273" id="Fill-22" fill="#000000" sketch:type="MSShapeGroup"></path>
                <path d="M104.347382,13.1233818 L104.205268,13.0949455 L101.061463,15.1930545 L101.033659,15.3352364 L101.495837,16.0288364 L101.637951,16.0572727 L104.781138,13.9591636 L104.809561,13.8169818 L104.347382,13.1233818" id="Fill-23" fill="#000000" sketch:type="MSShapeGroup"></path>
                <path d="M151.673138,3.74123636 L138.630179,3.74123636 C138.559122,3.74123636 138.501659,3.79872727 138.501659,3.86981818 L138.501659,4.7532 C138.501659,4.82429091 138.559122,4.88178182 138.630179,4.88178182 L151.673138,4.88178182 C151.744195,4.88178182 151.801659,4.82429091 151.801659,4.7532 L151.801659,3.86981818 C151.801659,3.79872727 151.744195,3.74123636 151.673138,3.74123636" id="Fill-24" fill="#000000" sketch:type="MSShapeGroup"></path>
                <path d="M144.710179,2.59512727 L145.59252,2.59512727 C145.663577,2.59512727 145.721041,2.53763636 145.721041,2.46654545 L145.721041,0.726981818 C145.721041,0.655890909 145.663577,0.5984 145.59252,0.5984 L144.710179,0.5984 C144.639122,0.5984 144.581659,0.655890909 144.581659,0.726981818 L144.581659,2.46654545 C144.581659,2.53763636 144.639122,2.59512727 144.710179,2.59512727" id="Fill-25" fill="#000000" sketch:type="MSShapeGroup"></path>
                <path d="M151.561919,14.3857091 C149.42465,13.4578182 147.54813,12.2010545 145.94348,10.6308727 C147.005626,9.46312727 147.941724,8.1532 148.744976,6.69985455 C148.779577,6.63741818 148.756098,6.55767273 148.693073,6.52305455 L147.918862,6.10083636 C147.857073,6.06683636 147.779837,6.09032727 147.745854,6.15152727 C147.000683,7.49978182 146.133171,8.71698182 145.15135,9.80498182 C144.170146,8.71698182 143.302634,7.49978182 142.556846,6.15152727 C142.522862,6.09032727 142.446244,6.06683636 142.384455,6.10083636 L141.609626,6.52305455 C141.54722,6.55767273 141.52374,6.63741818 141.558341,6.69985455 C142.361593,8.1532 143.297691,9.46312727 144.35922,10.6308727 C142.754569,12.2010545 140.878667,13.4578182 138.741398,14.3857091 C138.67652,14.4135273 138.646862,14.4877091 138.674049,14.552 L139.020065,15.3649091 C139.048488,15.4304364 139.125724,15.4613455 139.19122,15.4329091 C141.45948,14.4487636 143.449691,13.1159636 145.15135,11.4524364 C146.853626,13.1159636 148.843837,14.4487636 151.112098,15.4329091 C151.177593,15.4613455 151.254829,15.4304364 151.282634,15.3649091 L151.629268,14.552 C151.656455,14.4877091 151.626179,14.4135273 151.561919,14.3857091" id="Fill-26" fill="#000000" sketch:type="MSShapeGroup"></path>
                <path d="M0.724162602,10.8404364 L0.818699187,11.5723636 L8.4897561,10.5820364 L8.39521951,9.85072727 L5.22546341,10.2593455 L5.22546341,8.89687273 L8.31056911,8.89687273 L8.31056911,8.16 L5.22546341,8.16 L5.22546341,6.68563636 L8.1721626,6.68563636 L8.1721626,1.47992727 L1.5422439,1.47992727 L1.5422439,6.68563636 L4.48894309,6.68563636 L4.48894309,8.16 L1.4038374,8.16 L1.4038374,8.89687273 L4.48894309,8.89687273 L4.48894309,10.3545455 L0.724162602,10.8404364 L0.724162602,10.8404364 Z M5.22546341,2.21741818 L7.43564228,2.21741818 L7.43564228,5.94876364 L5.22546341,5.94876364 L5.22546341,2.21741818 Z M2.27876423,2.21741818 L4.48894309,2.21741818 L4.48894309,5.94876364 L2.27876423,5.94876364 L2.27876423,2.21741818 Z" id="Fill-27" fill="#000000" sketch:type="MSShapeGroup"></path>
                <path d="M3.35450407,3.0396 L2.66741463,3.30541818 L3.37365854,5.1272 L4.06074797,4.86076364 L3.35450407,3.0396" id="Fill-28" fill="#000000" sketch:type="MSShapeGroup"></path>
                <path d="M6.34013008,5.1272 L7.04699187,3.30541818 L6.35990244,3.0396 L5.65365854,4.86076364 L6.34013008,5.1272" id="Fill-29" fill="#000000" sketch:type="MSShapeGroup"></path>
                <path d="M0.552390244,15.5744727 L1.18757724,15.9472364 C2.12305691,14.3498545 2.28308943,12.6177091 2.28494309,12.6010182 L1.55027642,12.5429091 C1.54904065,12.5583636 1.39086179,14.1427636 0.552390244,15.5744727" id="Fill-30" fill="#000000" sketch:type="MSShapeGroup"></path>
                <path d="M3.42494309,12.7209455 C3.63131707,13.4244364 3.78702439,14.4586545 3.85190244,15.5596364 L4.58718699,15.5157455 C4.51921951,14.3622182 4.35300813,13.2680364 4.13242276,12.5132364 L3.42494309,12.7209455" id="Fill-31" fill="#000000" sketch:type="MSShapeGroup"></path>
                <path d="M5.35521951,12.5039636 C5.59557724,13.2241455 5.80813008,14.2923636 5.9100813,15.2919636 L6.64289431,15.2171636 C6.53414634,14.1514182 6.31417886,13.0498182 6.05404878,12.2709091 L5.35521951,12.5039636" id="Fill-32" fill="#000000" sketch:type="MSShapeGroup"></path>
                <path d="M7.34295935,12.1917818 C7.55613008,12.8031636 7.83047154,13.6537818 8.056,14.8178182 L8.77892683,14.6774909 C8.54474797,13.4677091 8.26052033,12.5837091 8.03869919,11.9482182 L7.34295935,12.1917818" id="Fill-33" fill="#000000" sketch:type="MSShapeGroup"></path>
                <path d="M14.760065,4.72785455 L14.760065,3.99098182 L11.9974959,3.99098182 L11.9974959,1.43418182 L11.2609756,1.43418182 L11.2609756,8.874 L9.58773984,8.874 L9.58773984,14.4716364 L14.4146667,14.4716364 L14.4146667,8.874 L11.9974959,8.874 L11.9974959,4.72785455 L14.760065,4.72785455 L14.760065,4.72785455 Z M10.3242602,9.61149091 L13.6781463,9.61149091 L13.6781463,13.7341455 L10.3242602,13.7341455 L10.3242602,9.61149091 Z" id="Fill-34" fill="#000000" sketch:type="MSShapeGroup"></path>
                <path d="M32.6157398,2.28727273 L27.1122276,2.28727273 L27.1122276,0.590363636 L26.3750894,0.590363636 L26.3750894,2.28727273 L20.8715772,2.28727273 L20.8715772,3.02476364 L32.6157398,3.02476364 L32.6157398,2.28727273" id="Fill-35" fill="#000000" sketch:type="MSShapeGroup"></path>
                <path d="M23.6112846,7.2012 L29.9507967,7.2012 L29.9507967,4.08370909 L23.6112846,4.08370909 L23.6112846,7.2012 Z M24.3478049,4.8212 L29.2142764,4.8212 L29.2142764,6.46370909 L24.3478049,6.46370909 L24.3478049,4.8212 Z" id="Fill-36" fill="#000000" sketch:type="MSShapeGroup"></path>
                <path d="M21.1205854,9.1324 L32.5310894,9.1324 L32.5310894,10.6345818 L33.2676098,10.6345818 L33.2676098,8.39552727 L20.384065,8.39552727 L20.384065,10.6345818 L21.1205854,10.6345818 L21.1205854,9.1324" id="Fill-37" fill="#000000" sketch:type="MSShapeGroup"></path>
                <path d="M19.9082927,15.096 L20.0720325,15.8149455 C24.7321301,14.7541455 25.3042927,11.4784 25.3339512,10.1190182 L24.5974309,10.1029455 C24.5653008,11.5766909 23.9134309,14.1848 19.9082927,15.096" id="Fill-38" fill="#000000" sketch:type="MSShapeGroup"></path>
                <path d="M33.152065,13.2167273 L32.7955447,14.1804727 C32.7454959,14.3127636 32.6175935,14.4017818 32.4760976,14.4017818 L29.1772033,14.4017818 C28.9547642,14.4017818 28.7743415,14.2200364 28.7743415,13.9968727 L28.7743415,10.0658545 L28.0378211,10.0658545 L28.0378211,13.9968727 C28.0378211,14.6268 28.548813,15.1386545 29.1772033,15.1386545 L32.4760976,15.1386545 C32.9222114,15.1386545 33.3269268,14.8586182 33.4851057,14.4382545 L33.8428618,13.4720364 L33.152065,13.2167273" id="Fill-39" fill="#000000" sketch:type="MSShapeGroup"></path>
                <path d="M51.2950569,7.75261818 C50.165561,6.01058182 48.8253659,4.27225455 48.1827642,3.59905455 L47.6495285,4.10781818 C47.9281951,4.3996 48.3483577,4.90898182 48.8228943,5.5284 L41.5355447,6.44887273 L44.3432195,1.13869091 L43.6919675,0.793745455 L40.6426992,6.56138182 L38.5999675,6.81978182 L38.6920325,7.55109091 L49.3314146,6.20716364 C49.7750569,6.81298182 50.2409431,7.48061818 50.6771707,8.15381818 L51.2950569,7.75261818" id="Fill-40" fill="#000000" sketch:type="MSShapeGroup"></path>
                <path d="M40.6717398,15.9150909 L41.408878,15.9150909 L41.408878,14.9173455 L48.3922276,14.9173455 L48.3922276,15.9150909 L49.128748,15.9150909 L49.128748,9.89585455 L40.6717398,9.89585455 L40.6717398,15.9150909 L40.6717398,15.9150909 Z M41.408878,10.6327273 L48.3922276,10.6327273 L48.3922276,14.1798545 L41.408878,14.1798545 L41.408878,10.6327273 Z" id="Fill-41" fill="#000000" sketch:type="MSShapeGroup"></path>
                <path d="M56.4883902,1.63818182 L58.3815935,3.5632 L58.9,3.0532 L57.0061789,1.12818182 L56.4883902,1.63818182" id="Fill-42" fill="#000000" sketch:type="MSShapeGroup"></path>
                <path d="M58.3692358,6.8884 L56.4760325,4.96338182 L55.957626,5.47338182 L57.8514472,7.39901818 L58.3692358,6.8884" id="Fill-43" fill="#000000" sketch:type="MSShapeGroup"></path>
                <path d="M57.7062439,10.0330909 C57.4164553,11.1563273 56.9307967,13.0368364 55.8624715,15.7883636 L56.5402927,16.0517091 C57.6234472,13.2606182 58.1356748,11.2793455 58.4106341,10.2148364 C58.4718049,9.97869091 58.5224715,9.78210909 58.5663415,9.62509091 L57.8662764,9.42789091 C57.8211707,9.58923636 57.7692683,9.79076364 57.7062439,10.0330909" id="Fill-44" fill="#000000" sketch:type="MSShapeGroup"></path>
                <path d="M59.040878,9.16145455 L59.5734959,9.27890909 C59.8002602,8.25025455 59.9547317,7.20861818 59.9559675,7.19810909 L59.4165528,7.11898182 C59.4146992,7.12887273 59.263935,8.15134545 59.040878,9.16145455" id="Fill-45" fill="#000000" sketch:type="MSShapeGroup"></path>
                <path d="M60.6690081,7.242 L60.6881626,7.39407273 C60.7277073,7.69945455 60.8105041,8.33494545 60.8376911,9.09716364 L61.3826667,9.07738182 C61.3542439,8.28981818 61.2689756,7.63701818 61.228813,7.3236 L61.2108943,7.1808 L60.6690081,7.242" id="Fill-46" fill="#000000" sketch:type="MSShapeGroup"></path>
                <path d="M61.9264065,7.14432727 C62.0258862,7.38912727 62.3329756,8.45425455 62.396,9.00505455 L62.9385041,8.94261818 C62.8674472,8.32690909 62.5455285,7.21789091 62.4312195,6.93785455 L61.9264065,7.14432727" id="Fill-47" fill="#000000" sketch:type="MSShapeGroup"></path>
                <path d="M66.9745366,7.12392727 C66.7706341,8.30836364 66.619252,8.82021818 66.5284228,9.04029091 L67.032,9.248 C67.1821463,8.88574545 67.3384715,8.2212 67.5120976,7.21665455 L67.5256911,7.14 L66.9906016,7.03305455 L66.9745366,7.12392727" id="Fill-48" fill="#000000" sketch:type="MSShapeGroup"></path>
                <path d="M68.394439,9.04029091 L68.9394146,9.02050909 C68.9233496,8.58036364 68.8454959,7.91952727 68.7089431,7.05530909 L68.1707642,7.14 C68.3036098,7.9832 68.3789919,8.6224 68.394439,9.04029091" id="Fill-49" fill="#000000" sketch:type="MSShapeGroup"></path>
                <path d="M69.9830244,6.89767273 L69.4646179,7.07014545 C69.5863415,7.43487273 69.7902439,8.04378182 70.0034146,8.96734545 L70.5347967,8.84370909 C70.3154472,7.89541818 70.1072195,7.27105455 69.9830244,6.89767273" id="Fill-50" fill="#000000" sketch:type="MSShapeGroup"></path>
                <path d="M59.4764878,6.61392727 L62.1741789,6.01305455 L62.4182439,6.61021818 L62.9230569,6.40374545 L62.2421463,4.73589091 L61.7367154,4.94298182 L61.9647154,5.50058182 L60.2686179,5.87829091 C61.5803902,4.31552727 62.5393496,2.68538182 62.5844553,2.60872727 L62.113626,2.33301818 C62.1086829,2.34167273 61.9004553,2.69527273 61.554439,3.22072727 L60.0894309,3.51930909 C60.7264715,2.26625455 61.3066667,0.995272727 61.3134634,0.981054545 L60.8166829,0.7548 C60.8098862,0.769636364 60.1073496,2.31014545 59.4029593,3.66334545 L59.410374,3.66705455 L59.5172683,4.19312727 L61.1163577,3.86734545 C60.6449106,4.54178182 60.04,5.3448 59.3751545,6.07301818 L59.3788618,6.07610909 L59.3578537,6.08105455 L59.4764878,6.61392727" id="Fill-51" fill="#000000" sketch:type="MSShapeGroup"></path>
                <path d="M67.0214959,6.61392727 L69.719187,6.01305455 L69.963252,6.61021818 L70.4686829,6.40374545 L69.7871545,4.73589091 L69.2817236,4.94298182 L69.5097236,5.50058182 L67.813626,5.87829091 C69.1253984,4.31552727 70.0843577,2.68538182 70.1294634,2.60872727 L69.659252,2.33301818 C69.6543089,2.34167273 69.4454634,2.69527273 69.0994472,3.22072727 L67.634439,3.51930909 C68.2708618,2.26625455 68.8516748,0.995272727 68.8584715,0.981054545 L68.3616911,0.7548 C68.3548943,0.769636364 67.6523577,2.31014545 66.9479675,3.66334545 L66.9547642,3.66705455 L67.0622764,4.19312727 L68.6613659,3.86734545 C68.1899187,4.54178182 67.5850081,5.3448 66.9201626,6.07301818 L66.9238699,6.07672727 L66.9034797,6.08105455 L67.0214959,6.61392727" id="Fill-52" fill="#000000" sketch:type="MSShapeGroup"></path>
                <path d="M66.7465366,2.09563636 L65.099252,2.09563636 L65.099252,0.708436364 L64.5536585,0.708436364 L64.5536585,2.09563636 L62.9286179,2.09563636 L62.9286179,2.64149091 L66.7465366,2.64149091 L66.7465366,2.09563636" id="Fill-53" fill="#000000" sketch:type="MSShapeGroup"></path>
                <path d="M63.4853333,3.41421818 L66.1780813,3.41421818 L66.1780813,3.96007273 L63.4853333,3.96007273 L63.4853333,3.41421818 Z" id="Fill-54" fill="#000000" sketch:type="MSShapeGroup"></path>
                <path d="M63.4853333,4.6988 L66.1780813,4.6988 L66.1780813,5.24465455 L63.4853333,5.24465455 L63.4853333,4.6988 Z" id="Fill-55" fill="#000000" sketch:type="MSShapeGroup"></path>
                <path d="M63.5767805,8.81465455 L66.0989919,8.81465455 L66.0989919,6.33636364 L63.5767805,6.33636364 L63.5767805,8.81465455 Z M64.1217561,6.8816 L65.5540163,6.8816 L65.5540163,8.2688 L64.1217561,8.2688 L64.1217561,6.8816 Z" id="Fill-56" fill="#000000" sketch:type="MSShapeGroup"></path>
                <path d="M69.3410407,13.0980364 L61.0236748,13.0980364 L61.2492033,12.1441818 L61.3307642,12.0798909 L69.0673171,12.0798909 L69.0673171,9.7444 L60.1444228,9.7444 L60.1444228,10.3625818 L68.448813,10.3625818 L68.448813,11.4610909 L60.8413984,11.4610909 L60.7598374,11.526 L60.2636748,13.6265818 L60.3347317,13.7162182 L68.9455935,13.7162182 L68.5489106,15.3778909 L68.4840325,15.4285818 L65.5422764,15.4285818 L65.5422764,16.0473818 L68.4840325,16.0473818 C68.8010081,16.0473818 69.0765854,15.8297818 69.1501138,15.5213091 L69.6209431,13.5505455 C69.6481301,13.4411273 69.6635772,13.3131636 69.594374,13.2241455 C69.594374,13.2241455 69.5369106,13.0980364 69.3410407,13.0980364" id="Fill-57" fill="#000000" sketch:type="MSShapeGroup"></path>
            </g>
        </g>
    </g>
</svg>