<?xml version="1.0" encoding="UTF-8" standalone="no"?>
<svg width="162px" height="48px" viewBox="0 0 162 48" version="1.1" xmlns="http://www.w3.org/2000/svg" xmlns:xlink="http://www.w3.org/1999/xlink" xmlns:sketch="http://www.bohemiancoding.com/sketch/ns">
    <!-- Generator: Sketch 3.3.2 (12043) - http://www.bohemiancoding.com/sketch -->
    <title>Group + Logo 彩色 </title>
    <desc>Created with Sketch.</desc>
    <defs></defs>
    <g id="Page-1" stroke="none" stroke-width="1" fill="none" fill-rule="evenodd" sketch:type="MSPage">
        <g id="Group-+-Logo-彩色-" sketch:type="MSLayerGroup" transform="translate(0.000000, 2.000000)">
            <g id="Group" transform="translate(60.000000, 6.000000)" fill="#000000" sketch:type="MSShapeGroup">
                <g id="LIGHT-UP-TAIWAN" transform="translate(0.162169, 22.445246)">
                    <path d="M5.23200021,7 L5.23200021,5.80959995 L2.13120008,5.80959995 L2.13120008,0.164799728 L0.796800032,0.164799728 L0.796800032,7 L5.23200021,7 Z M9.29222603,7 L9.29222603,0.164799728 L7.95782597,0.164799728 L7.95782597,7 L9.29222603,7 Z M17.394052,4.19679989 L17.394052,3.19839985 L14.8116519,3.19839985 L14.8116519,4.32159989 L16.069252,4.32159989 L16.069252,4.5711999 C16.069252,4.92639992 15.982852,5.23359993 15.7620519,5.48319994 C15.5508519,5.72319995 15.2244519,5.86719995 14.8116519,5.86719995 C14.4468519,5.86719995 14.1588519,5.73279995 13.9572519,5.51199994 C13.7076519,5.22399993 13.6308519,4.88799992 13.6308519,3.58239986 C13.6308519,2.27679981 13.7076519,1.9503998 13.9572519,1.66239979 C14.1588519,1.44159978 14.4468519,1.29759977 14.8116519,1.29759977 C15.4932519,1.29759977 15.8868519,1.64319979 16.040452,2.29599981 L17.384452,2.29599981 C17.202052,1.14399977 16.405252,0.107199726 14.8116519,0.107199726 C14.0340519,0.107199726 13.4580519,0.366399736 12.9876518,0.827199755 C12.3060518,1.50879978 12.2964518,2.27679981 12.2964518,3.58239986 C12.2964518,4.88799992 12.3060518,5.65599995 12.9876518,6.33759997 C13.4580519,6.79839999 14.0340519,7.0576 14.8116519,7.0576 C15.5412519,7.0576 16.174852,6.8752 16.741252,6.27999997 C17.240452,5.76159995 17.394052,5.18559993 17.394052,4.19679989 L17.394052,4.19679989 Z M25.380678,7 L25.380678,0.164799728 L24.0462779,0.164799728 L24.0462779,2.95839984 L21.7326778,2.95839984 L21.7326778,0.164799728 L20.3982778,0.164799728 L20.3982778,7 L21.7326778,7 L21.7326778,4.13919989 L24.0462779,4.13919989 L24.0462779,7 L25.380678,7 Z M33.0121039,1.35519978 L33.0121039,0.164799728 L28.1065037,0.164799728 L28.1065037,1.35519978 L29.8921038,1.35519978 L29.8921038,7 L31.2265039,7 L31.2265039,1.35519978 L33.0121039,1.35519978 Z M44.5309557,4.65759991 L44.5309557,0.164799728 L43.2061557,0.164799728 L43.2061557,4.60959991 C43.2061557,5.39679994 42.7357556,5.86719995 42.0157556,5.86719995 C41.2957556,5.86719995 40.8349556,5.39679994 40.8349556,4.60959991 L40.8349556,0.164799728 L39.5005555,0.164799728 L39.5005555,4.65759991 C39.5005555,6.10719996 40.6141556,7.0576 42.0157556,7.0576 C43.4173557,7.0576 44.5309557,6.10719996 44.5309557,4.65759991 L44.5309557,4.65759991 Z M52.5655817,2.29599981 C52.5655817,1.13439977 51.7303817,0.164799728 50.3095816,0.164799728 L47.6599815,0.164799728 L47.6599815,7 L48.9943816,7 L48.9943816,4.4271999 L50.3095816,4.4271999 C51.7303817,4.4271999 52.5655817,3.45759986 52.5655817,2.29599981 L52.5655817,2.29599981 Z M51.2311816,2.29599981 C51.2311816,2.85279984 50.8471816,3.22719985 50.2423816,3.22719985 L48.9943816,3.22719985 L48.9943816,1.35519978 L50.2423816,1.35519978 C50.8471816,1.35519978 51.2311816,1.73919979 51.2311816,2.29599981 L51.2311816,2.29599981 Z M63.5948334,1.35519978 L63.5948334,0.164799728 L58.6892333,0.164799728 L58.6892333,1.35519978 L60.4748333,1.35519978 L60.4748333,7 L61.8092334,7 L61.8092334,1.35519978 L63.5948334,1.35519978 Z M70.9286594,7 L68.4326593,0.164799728 L67.3862593,0.164799728 L64.8998592,7 L66.2918592,7 L66.7046592,5.79039995 L69.1334593,5.79039995 L69.5366593,7 L70.9286594,7 Z M68.7782593,4.66719991 L67.0790592,4.66719991 L67.9430593,2.18079981 L68.7782593,4.66719991 Z M74.7488852,7 L74.7488852,0.164799728 L73.4144852,0.164799728 L73.4144852,7 L74.7488852,7 Z M85.6443113,0.164799728 L84.2523112,0.164799728 L83.1867112,4.4751999 L81.9387111,0.164799728 L80.9403111,0.164799728 L79.6923111,4.4751999 L78.636311,0.164799728 L77.244311,0.164799728 L79.068311,7 L80.1819111,7 L81.4395111,2.85279984 L82.6971112,7 L83.8107112,7 L85.6443113,0.164799728 Z M93.2277373,7 L90.7317372,0.164799728 L89.6853371,0.164799728 L87.198937,7 L88.5909371,7 L89.0037371,5.79039995 L91.4325372,5.79039995 L91.8357372,7 L93.2277373,7 Z M91.0773372,4.66719991 L89.3781371,4.66719991 L90.2421371,2.18079981 L91.0773372,4.66719991 Z M100.945563,7 L100.945563,0.164799728 L99.6111632,0.164799728 L99.6111632,4.35039989 L96.9039631,0.164799728 L95.713563,0.164799728 L95.713563,7 L97.0479631,7 L97.0479631,2.80479983 L99.7551632,7 L100.945563,7 Z"></path>
                </g>
                <g transform="translate(0.000000, 0.969697)" stroke="#000000" stroke-width="0.5">
                    <path d="M0.494788029,8.84698917 L0.581407591,9.52070638 L7.63657092,8.60882384 L7.54995135,7.93554044 L4.6343369,8.31209327 L4.6343369,7.05749559 L7.47199375,7.05749559 L7.47199375,6.37900639 L4.6343369,6.37900639 L4.6343369,5.02159417 L7.34466299,5.02159417 L7.34466299,0.228354291 L1.24664583,0.228354291 L1.24664583,5.02159417 L3.95697192,5.02159417 L3.95697192,6.37900639 L1.11974817,6.37900639 L1.11974817,7.05749559 L3.95697192,7.05749559 L3.95697192,8.39972423 L0.494788029,8.84698917 L0.494788029,8.84698917 Z M4.6343369,0.907277308 L6.66686492,0.907277308 L6.66686492,4.34310497 L4.6343369,4.34310497 L4.6343369,0.907277308 Z M1.9244439,0.907277308 L3.95697192,0.907277308 L3.95697192,4.34310497 L1.9244439,4.34310497 L1.9244439,0.907277308 Z" id="Fill-1"></path>
                    <path d="M2.9136393,1.6638535 L2.28218269,1.90895989 L2.93182941,3.58652878 L3.56371911,3.34098857 L2.9136393,1.6638535" id="Fill-2"></path>
                    <path d="M5.65991251,3.58652878 L6.30912613,1.90895989 L5.67723642,1.6638535 L5.02802281,3.34098857 L5.65991251,3.58652878" id="Fill-3"></path>
                    <path d="M0.336707328,13.2055448 L0.920956274,13.5486937 C1.78152162,12.0784892 1.92877488,10.4833455 1.93007417,10.4677281 L1.25444159,10.4139348 C1.25357539,10.4286846 1.10805453,11.8876099 0.336707328,13.2055448" id="Fill-4"></path>
                    <path d="M2.97817087,10.5783513 C3.16786771,11.2260395 3.31122309,12.178267 3.37099059,13.1916627 L4.04748936,13.1513177 C3.98469018,12.0897684 3.83180666,11.0820124 3.62868378,10.387472 L2.97817087,10.5783513" id="Fill-5"></path>
                    <path d="M4.75387189,10.3787957 C4.97475178,11.0416675 5.17007889,12.0251298 5.26362801,12.9456886 L5.93796131,12.8767118 C5.83834881,11.8954186 5.63522594,10.8811553 5.39615594,10.1640564 L4.75387189,10.3787957" id="Fill-6"></path>
                    <path d="M6.58197775,10.0911752 C6.77817106,10.6542692 7.03023398,11.4373082 7.23768783,12.5092691 L7.90249297,12.3799918 C7.68681026,11.2659507 7.42565228,10.4521107 7.22166321,9.86732587 L6.58197775,10.0911752" id="Fill-7"></path>
                    <path d="M13.4032683,3.2190861 L13.4032683,2.54016308 L10.8627165,2.54016308 L10.8627165,0.185840262 L10.1849184,0.185840262 L10.1849184,7.03623858 L8.64612191,7.03623858 L8.64612191,12.1899801 L13.0858076,12.1899801 L13.0858076,7.03623858 L10.8627165,7.03623858 L10.8627165,3.2190861 L13.4032683,3.2190861 L13.4032683,3.2190861 Z M9.32391998,7.71516159 L12.4084426,7.71516159 L12.4084426,11.5114909 L9.32391998,11.5114909 L9.32391998,7.71516159 Z" id="Fill-8"></path>
                </g>
                <g transform="translate(21.192661, 0.000000)" stroke="#000000" stroke-width="0.5">
                    <path d="M12.2165026,1.95506127 L7.15532156,1.95506127 L7.15532156,0.39245379 L6.47752349,0.39245379 L6.47752349,1.95506127 L1.41634248,1.95506127 L1.41634248,2.63355047 L12.2165026,2.63355047 L12.2165026,1.95506127" id="Fill-9"></path>
                    <path d="M3.93567244,6.47890103 L9.76603516,6.47890103 L9.76603516,3.60877024 L3.93567244,3.60877024 L3.93567244,6.47890103 Z M4.61347052,4.28769326 L9.08867019,4.28769326 L9.08867019,5.80041183 L4.61347052,5.80041183 L4.61347052,4.28769326 Z" id="Fill-10"></path>
                    <path d="M1.64501813,8.25711537 L12.1389781,8.25711537 L12.1389781,9.6409904 L12.816343,9.6409904 L12.816343,7.57862617 L0.967653152,7.57862617 L0.967653152,9.6409904 L1.64501813,9.6409904 L1.64501813,8.25711537" id="Fill-11"></path>
                    <path d="M0.530657462,13.7483662 L0.680942402,14.4099366 C4.96644523,13.4334153 5.49265907,10.4170883 5.52037733,9.16552738 L4.84257926,9.15121143 C4.81312861,10.507756 4.21328814,12.9093649 0.530657462,13.7483662" id="Fill-12"></path>
                    <path d="M12.709801,12.0178717 L12.3819459,12.9054605 C12.3360376,13.027363 12.218235,13.1089205 12.0887387,13.1089205 L9.05445546,13.1089205 C8.85003329,13.1089205 8.68415683,12.9419011 8.68415683,12.7367058 L8.68415683,9.11693992 L8.00635876,9.11693992 L8.00635876,12.7367058 C8.00635876,13.3162848 8.47670298,13.7878435 9.05445546,13.7878435 L12.0887387,13.7878435 C12.4984492,13.7878435 12.8709134,13.5297226 13.0164342,13.1427582 L13.3451555,12.2530003 L12.709801,12.0178717" id="Fill-13"></path>
                </g>
                <g id="Fill-14-+-Fill-15" transform="translate(42.385321, 0.000000)" stroke="#000000" stroke-width="0.5">
                    <path d="M12.3026113,6.81077075 C11.2636097,5.20651687 10.0314464,3.60616734 9.44026792,2.98580957 L8.9495681,3.45476534 C9.20596201,3.72329783 9.59228525,4.1922536 10.0288478,4.76272246 L3.32709234,5.61040015 L5.90922148,0.720419158 L5.31024721,0.403299205 L2.50593889,5.71408232 L0.627160587,5.95138001 L0.71161466,6.62509723 L10.4965935,5.38785222 C10.9045716,5.94530658 11.3329054,6.56045855 11.7339539,7.17994869 L12.3026113,6.81077075" id="Fill-14"></path>
                    <path d="M2.53279095,14.3262099 L3.21015593,14.3262099 L3.21015593,13.4073863 L9.63256335,13.4073863 L9.63256335,14.3262099 L10.3103614,14.3262099 L10.3103614,8.78376875 L2.53279095,8.78376875 L2.53279095,14.3262099 L2.53279095,14.3262099 Z M3.21015593,9.46269177 L9.63256335,9.46269177 L9.63256335,12.7288971 L3.21015593,12.7288971 L3.21015593,9.46269177 Z" id="Fill-15"></path>
                </g>
                <g transform="translate(62.614679, 0.000000)" stroke="#000000" stroke-width="0.5">
                    <path d="M1.50429241,1.1806986 L3.24577871,2.95370714 L3.7221863,2.48344992 L1.9807,0.710875192 L1.50429241,1.1806986" id="Fill-16"></path>
                    <path d="M3.23451816,6.01471724 L1.49303187,4.24214251 L1.01662428,4.71239973 L2.75811057,6.48454064 L3.23451816,6.01471724" id="Fill-17"></path>
                    <path d="M2.62514954,8.91000939 C2.3579282,9.94466204 1.91140435,11.6760242 0.929138521,14.2095133 L1.55236627,14.4520168 C2.54892433,11.8820871 3.01970165,10.0578882 3.27263077,9.07746261 C3.32850039,8.8605543 3.37527495,8.67965276 3.41598615,8.53519183 L2.7724028,8.35342266 C2.73039231,8.50135413 2.68275155,8.68702765 2.62514954,8.91000939" id="Fill-18"></path>
                    <path d="M3.85254874,8.10788245 L4.34194926,8.21590279 C4.55070241,7.2688811 4.69232539,6.30971254 4.69362469,6.30016858 L4.1972946,6.22728739 C4.1959953,6.23639754 4.0569709,7.17821343 3.85254874,8.10788245" id="Fill-19"></path>
                    <path d="M5.34933477,6.34051353 L5.36709178,6.48063629 C5.403472,6.76174947 5.47926411,7.34653428 5.50438379,8.04888339 L6.00591105,8.03066309 C5.97949208,7.3053217 5.90153448,6.70448567 5.86472116,6.41599762 L5.84783035,6.28411736 L5.34933477,6.34051353" id="Fill-20"></path>
                    <path d="M6.50570592,6.25027967 C6.59752266,6.47629813 6.87946933,7.45628988 6.93750444,7.96385533 L7.43686621,7.90615772 C7.37103535,7.33959321 7.07522954,6.31838888 6.96998677,6.06026799 L6.50570592,6.25027967" id="Fill-21"></path>
                    <path d="M11.1485144,6.23162555 C10.96055,7.32224055 10.8215256,7.7933654 10.7383708,7.99639158 L11.2013524,8.18770471 C11.3390775,7.85366591 11.4832991,7.24198447 11.642679,6.31708743 L11.6552389,6.24680913 L11.1632398,6.14789894 L11.1485144,6.23162555" id="Fill-22"></path>
                    <path d="M12.4538712,7.99639158 L12.9553985,7.97773747 C12.9402401,7.57298655 12.8687789,6.96434183 12.7431806,6.16872214 L12.2481498,6.24680913 C12.3707165,7.02334089 12.4400121,7.61159623 12.4538712,7.99639158" id="Fill-23"></path>
                    <path d="M13.9151433,6.02339357 L13.4387357,6.18260427 C13.5504749,6.51794452 13.7375732,7.07886942 13.9341996,7.92871619 L14.4227339,7.81549005 C14.2209103,6.94221718 14.0294811,6.36697634 13.9151433,6.02339357" id="Fill-24"></path>
                    <path d="M4.25316421,5.76223597 L6.73394847,5.20868595 L6.95829313,5.75876543 L7.42257399,5.56831993 L6.79631455,4.0330429 L6.3316006,4.2234884 L6.54121994,4.73712728 L4.98120163,5.0846144 C6.18781213,3.64607847 7.06959927,2.14507295 7.11117666,2.07436084 L6.67851195,1.82057812 C6.67374787,1.82838682 6.48231864,2.15374928 6.16399175,2.63788864 L4.81619137,2.91292838 C5.4021727,1.75897616 5.9357492,0.588538904 5.94181257,0.575524405 L5.48532748,0.367292425 C5.47926411,0.381174557 4.83308218,1.7993211 4.18516786,3.04567626 L4.19166432,3.0491468 L4.28997753,3.53328615 L5.76077769,3.23308505 C5.32724678,3.85431045 4.77114919,4.59353398 4.15918199,5.26378066 L4.16307987,5.2672512 L4.14402356,5.27158936 L4.25316421,5.76223597" id="Fill-25"></path>
                    <path d="M11.1913911,5.76223597 L13.6726085,5.20868595 L13.8973862,5.75876543 L14.3616671,5.56831993 L13.7349746,4.0330429 L13.2706937,4.2234884 L13.4803131,4.73712728 L11.9198616,5.08504821 C13.1269052,3.64607847 14.0086924,2.14507295 14.0498367,2.07436084 L13.617172,1.82057812 C13.612841,1.82838682 13.4209787,2.15374928 13.1026518,2.63788864 L11.7552845,2.91292838 C12.3408327,1.75897616 12.8748423,0.588538904 12.8809057,0.575524405 L12.4244206,0.367292425 C12.417491,0.381174557 11.7717422,1.7993211 11.124261,3.04567626 L11.1303243,3.04871298 L11.2295037,3.53328615 L12.6998708,3.23308505 C12.2663399,3.85431045 11.7098092,4.59353398 11.0982751,5.26378066 L11.102173,5.2672512 L11.0831167,5.27158936 L11.1913911,5.76223597" id="Fill-26"></path>
                    <path d="M10.9388951,1.60193454 L9.42348587,1.60193454 L9.42348587,0.324778396 L8.9219586,0.324778396 L8.9219586,1.60193454 L7.42733806,1.60193454 L7.42733806,2.10429419 L10.9388951,2.10429419 L10.9388951,1.60193454" id="Fill-27"></path>
                    <path d="M7.93925967,2.81618727 L10.415713,2.81618727 L10.415713,3.31854692 L7.93925967,3.31854692 L7.93925967,2.81618727 Z" id="Fill-28"></path>
                    <path d="M7.93925967,3.9992052 L10.415713,3.9992052 L10.415713,4.50156485 L7.93925967,4.50156485 L7.93925967,3.9992052 Z" id="Fill-29"></path>
                    <path d="M8.02371375,7.78859342 L10.3433856,7.78859342 L10.3433856,5.50671797 L8.02371375,5.50671797 L8.02371375,7.78859342 Z M8.52524101,6.00864381 L9.84185835,6.00864381 L9.84185835,7.28579995 L8.52524101,7.28579995 L8.52524101,6.00864381 Z" id="Fill-30"></path>
                    <path d="M13.3248309,11.7324203 L5.67589052,11.7324203 L5.88291127,10.8539417 C5.89114013,10.8192364 5.92232317,10.7945088 5.95783719,10.7945088 L13.0732011,10.7945088 L13.0732011,8.64451362 L4.86686381,8.64451362 L4.86686381,9.21411484 L12.5045437,9.21411484 L12.5045437,10.2253414 L5.50784857,10.2253414 C5.47233455,10.2253414 5.44115151,10.2500689 5.43292265,10.2847743 L4.97687065,12.2191626 C4.9669094,12.2612428 4.99895864,12.3015878 5.04226842,12.3015878 L12.9610288,12.3015878 L12.5963604,13.831659 C12.5742724,13.8490117 12.559114,13.8611585 12.5365929,13.8785112 L9.83103091,13.8785112 L9.83103091,14.4481124 L12.5365929,14.4481124 C12.8285009,14.4481124 13.0818631,14.2476891 13.1494263,13.9635392 L13.582091,12.1488843 C13.6072107,12.0482389 13.6210698,11.9302407 13.5578376,11.8486832 C13.5578376,11.8486832 13.5045665,11.7324203 13.3248309,11.7324203" id="Fill-31"></path>
                </g>
            </g>
            <g id="Logo-彩色-" sketch:type="MSShapeGroup">
                <path d="M6.20892857,31.6983965 C6.28285714,31.8080904 6.34607143,31.9209184 6.42107143,32.0285228 C6.83678571,32.6250486 6.67714286,33.437828 6.06535714,33.8421283 C5.835,33.9956997 5.57357143,34.0677843 5.31428571,34.0677843 C4.9275,34.0677843 4.55464286,33.8985423 4.29428571,33.5934888 C5.85,35.8082604 7.79464286,37.6970845 10.0446429,39.1878766 C9.46928571,38.774174 9.31928571,37.9927357 9.72428571,37.4097911 C9.98464286,37.0378766 10.4067857,36.8372935 10.8353571,36.8372935 C11.0935714,36.8372935 11.355,36.9104227 11.5853571,37.0639942 L11.7492857,37.163241 C9.54642857,35.7424441 7.665,33.8922741 6.20892857,31.6983965" id="Fill-1" fill="#DDEF00"></path>
                <path d="M24.5132143,1.39258989 C24.4853571,2.11239067 23.8446429,2.69533528 23.1246429,2.64832362 C22.9842857,2.6431001 22.8439286,2.64936832 22.7035714,2.64727891 C25.3907143,2.68593294 28.0039286,3.26156463 30.4135714,4.33238581 L30.2389286,4.24985423 C29.5617857,3.95838192 29.2553571,3.18739067 29.5542857,2.5281827 C29.8467857,1.88360058 30.6032143,1.59526239 31.2675,1.84912536 C28.7635714,0.773080661 26.0732143,0.165063168 23.3057143,0.0574586978 C24.0032143,0.126409135 24.54,0.699951409 24.5132143,1.39258989" id="Fill-2" fill="#88C8AB"></path>
                <path d="M20.3164286,41.5457726 C20.3432143,40.8259718 20.9603571,40.2336249 21.705,40.2900389 C21.8485714,40.2963071 21.9921429,40.2889942 22.1357143,40.2910836 C19.4378571,40.2534742 16.8160714,39.6747085 14.4,38.597619 L14.5907143,38.6885083 C15.2678571,38.9799806 15.5742857,39.7520165 15.2753571,40.4101798 C15.0535714,40.8991011 14.5639286,41.1895287 14.0485714,41.1895287 C13.9028571,41.1895287 13.755,41.1581876 13.6114286,41.1101312 C16.1014286,42.1736395 18.7746429,42.774344 21.5239286,42.8809038 C20.8264286,42.8119534 20.2896429,42.2384111 20.3164286,41.5457726" id="Fill-3" fill="#88C8AB"></path>
                <path d="M15.2753571,40.4101798 C15.5742857,39.7520165 15.2678571,38.9799806 14.5907143,38.6885083 L14.4,38.597619 C14.1471429,38.4847911 13.8985714,38.3656948 13.6510714,38.2424198 C13.4475,38.1410836 13.245,38.0387026 13.0446429,37.9310982 C12.8592857,37.8308066 12.6771429,37.7252915 12.495,37.6187318 C12.2432143,37.4714286 11.9935714,37.3209913 11.7492857,37.163241 L11.5853571,37.0629495 C10.9746429,36.6576045 10.1421429,36.8132653 9.72428571,37.4097911 C9.31928571,37.9927357 9.46821429,38.774174 10.0446429,39.1878766 L10.2739286,39.3424927 C10.5492857,39.521137 10.83,39.6882896 11.1117857,39.8533528 C11.3228571,39.9766278 11.5339286,40.0999028 11.7492857,40.2158649 C11.9753571,40.3380952 12.2046429,40.4530126 12.4328571,40.5668853 C12.7157143,40.7068756 12.9996429,40.8447765 13.29,40.9743197 C13.3960714,41.0213314 13.5042857,41.0641642 13.6114286,41.1101312 C13.755,41.1581876 13.9028571,41.1895287 14.0485714,41.1895287 C14.5639286,41.1895287 15.0535714,40.8991011 15.2753571,40.4101798" id="Fill-4" fill="#B7DD0E"></path>
                <path d="M6.06535714,9.0951895 C6.67821429,9.5005345 6.83678571,10.3122692 6.42107143,10.9087949 L6.30964286,11.0832604 C7.76678571,8.93117104 9.66535714,7.09353741 11.9175,5.67169582 C11.8071429,5.74064626 11.6935714,5.80228377 11.5853571,5.87436832 C10.9746429,6.28075802 10.14,6.12509718 9.72428571,5.52752672 C9.32571429,4.95398445 9.46821429,4.19030612 10.0221429,3.77137998 C7.73357143,5.29246842 5.78357143,7.19800777 4.245,9.40442177 C4.67035714,8.84759475 5.47178571,8.70029155 6.06535714,9.0951895" id="Fill-5" fill="#88C8AB"></path>
                <path d="M9.72428571,5.52752672 C10.14,6.12509718 10.9746429,6.28075802 11.5853571,5.87436832 C11.6935714,5.80228377 11.8071429,5.74064626 11.9175,5.67169582 L12.18,5.49723032 L12.4489286,5.34783771 C12.6932143,5.20366861 12.9396429,5.06576774 13.1892857,4.93204568 C13.3585714,4.84220117 13.5289286,4.75549077 13.7003571,4.66982507 C13.9510714,4.54655005 14.2039286,4.42745384 14.4589286,4.31462585 C14.6517857,4.23000486 14.8457143,4.14851798 15.0396429,4.06912051 C15.27,3.97614189 15.5003571,3.88734208 15.7339286,3.80376579 C15.9696429,3.7191448 16.2064286,3.63870262 16.4442857,3.56348397 C16.6382143,3.50184645 16.8321429,3.44334305 17.0271429,3.38797376 C17.3121429,3.30648688 17.5992857,3.23231293 17.8875,3.16440719 C18.0417857,3.12888727 18.1971429,3.09336735 18.3535714,3.06098154 C18.6803571,2.9930758 19.0082143,2.93248299 19.3382143,2.88129252 C19.4678571,2.86039845 19.5975,2.84159378 19.7282143,2.82383382 C20.0742857,2.77682216 20.4203571,2.73921283 20.7696429,2.71100583 C20.9025,2.69951409 21.0364286,2.69011176 21.1703571,2.68175413 C21.4982143,2.66190476 21.8271429,2.64936832 22.1571429,2.64623421 L22.4153571,2.63683188 C22.5117857,2.63683188 22.6071429,2.64623421 22.7035714,2.64727891 C22.8439286,2.64936832 22.9842857,2.6431001 23.1246429,2.64832362 C23.8446429,2.69533528 24.4853571,2.11239067 24.5132143,1.39258989 C24.54,0.699951409 24.0032143,0.126409135 23.3057143,0.0574586978 C23.1310714,0.0511904762 22.9564286,0.0417881438 22.7817857,0.038654033 C22.5385714,0.0344752187 22.2953571,0.0344752187 22.0521429,0.038654033 C21.7403571,0.0428328474 21.4285714,0.054324587 21.1178571,0.0720845481 C20.8810714,0.0856656948 20.6453571,0.102380952 20.4096429,0.123275024 C20.1085714,0.150437318 19.8085714,0.182823129 19.5096429,0.221477162 C19.2578571,0.253862974 19.0060714,0.2904276 18.7553571,0.332215743 C18.4832143,0.376093294 18.2121429,0.426239067 17.9432143,0.480563654 C17.6657143,0.536977648 17.3903571,0.597570457 17.1160714,0.663386783 C16.8782143,0.720845481 16.6414286,0.783527697 16.4046429,0.84829932 C16.1057143,0.930830904 15.8078571,1.01963071 15.5132143,1.11574344 C15.3042857,1.18260447 15.0953571,1.25364431 14.8885714,1.32677357 C14.5789286,1.43751215 14.2703571,1.55451895 13.9639286,1.67883868 C13.7721429,1.75719145 13.5803571,1.83867833 13.3907143,1.92225462 C13.0842857,2.05702138 12.78,2.19910107 12.48,2.34744898 C12.2903571,2.4414723 12.1017857,2.53758503 11.9142857,2.63683188 C11.6282143,2.7893586 11.3453571,2.94815355 11.0646429,3.11321672 C10.8621429,3.23231293 10.6617857,3.35454325 10.4635714,3.47990768 C10.3135714,3.573931 10.1689286,3.67317784 10.0221429,3.77137998 C9.46821429,4.19030612 9.32571429,4.95398445 9.72428571,5.52752672" id="Fill-6" fill="#50B584"></path>
                <path d="M39.5153571,34.0677843 C39.2560714,34.0677843 38.9946429,33.9956997 38.7642857,33.8421283 C38.1525,33.437828 37.9928571,32.6250486 38.4085714,32.0285228 L38.5082143,31.872862 C37.0510714,34.0186832 35.1546429,35.8510933 32.9057143,37.2698008 C33.0182143,37.1987609 33.1339286,37.1360787 33.2442857,37.0629495 C33.8571429,36.6607386 34.6885714,36.8132653 35.1053571,37.4097911 C35.5039286,37.9833333 35.3614286,38.7470117 34.8075,39.1659378 C37.0885714,37.6500729 39.0342857,35.7518465 40.5707143,33.5558795 C40.3092857,33.8849611 39.9182143,34.0677843 39.5153571,34.0677843" id="Fill-7" fill="#89C693"></path>
                <path d="M35.1053571,37.4097911 C34.6885714,36.8132653 33.8571429,36.6607386 33.2442857,37.0629495 C33.1339286,37.1360787 33.0182143,37.1987609 32.9057143,37.2698008 L32.6507143,37.4390428 L32.3892857,37.5853013 C32.1407143,37.7315598 31.89,37.87155 31.6371429,38.0073615 C31.4689286,38.0961613 31.2996429,38.1828717 31.1303571,38.2674927 C30.8817857,38.389723 30.6310714,38.5077745 30.3782143,38.6195578 C30.1789286,38.7083576 29.9785714,38.7929786 29.7760714,38.8744655 C29.5575,38.9622206 29.3378571,39.0468416 29.1160714,39.1272838 C28.8642857,39.218173 28.6125,39.3038387 28.3575,39.3842809 C28.1839286,39.4396501 28.0092857,39.4918853 27.8335714,39.5420311 C27.5260714,39.6308309 27.2175,39.7102284 26.9057143,39.7833576 C26.775,39.813654 26.6453571,39.8429057 26.5146429,39.870068 C26.1621429,39.9452867 25.8085714,40.0090136 25.4517857,40.0643829 C25.3489286,40.0810982 25.245,40.095724 25.1410714,40.1103499 C24.7725,40.1615403 24.4017857,40.2012391 24.0289286,40.2315355 C23.9164286,40.2398931 23.8039286,40.2482507 23.6914286,40.2555637 C23.3475,40.2764577 23.0035714,40.2889942 22.6575,40.293173 L22.4153571,40.3015306 L22.1357143,40.2910836 C21.9921429,40.2889942 21.8485714,40.2963071 21.705,40.2900389 C20.9603571,40.2336249 20.3432143,40.8259718 20.3164286,41.5457726 C20.2896429,42.2384111 20.8264286,42.8119534 21.5239286,42.8809038 C21.8217857,42.8923955 22.1175,42.9132896 22.4153571,42.9132896 C22.9682143,42.9132896 23.5189286,42.8934402 24.0653571,42.8537415 L24.0696429,42.8537415 C24.5957143,42.8150875 25.1175,42.7565841 25.6371429,42.6824101 C25.7732143,42.6636054 25.9071429,42.6343537 26.0421429,42.612415 C26.4203571,42.5518222 26.7964286,42.4870505 27.1692857,42.4066084 C27.3792857,42.3616861 27.5871429,42.3052721 27.7960714,42.2540816 C28.0875,42.1819971 28.3789286,42.1109572 28.6660714,42.027381 C28.92,41.9542517 29.1707143,41.8706754 29.4225,41.7881438 C29.6592857,41.7097911 29.895,41.6335277 30.1285714,41.547862 C30.4060714,41.4465258 30.6792857,41.3357872 30.9514286,41.2229592 C31.1560714,41.1383382 31.3607143,41.0547619 31.5632143,40.9638727 C31.8439286,40.8385083 32.1214286,40.7037415 32.3967857,40.5668853 C32.5896429,40.4707726 32.7825,40.3736152 32.9732143,40.2712342 C33.2389286,40.1291545 33.5003571,39.9808066 33.7607143,39.8272352 C33.9610714,39.7091837 34.1603571,39.5879981 34.3585714,39.4626336 C34.5107143,39.3665209 34.6585714,39.2651846 34.8075,39.1659378 C35.3614286,38.7470117 35.5039286,37.9833333 35.1053571,37.4097911" id="Fill-8" fill="#53B475"></path>
                <path d="M43.0575,23.5162779 L43.0060714,23.5152332 C42.2667857,23.4880709 41.6892857,22.8810982 41.7182143,22.1612974 C41.7235714,22.0213071 41.7160714,21.8813168 41.7182143,21.7413265 C41.6796429,24.3750243 41.085,26.9366375 39.9771429,29.2955782 L40.0746429,29.0981293 C40.3757143,28.4378766 41.1653571,28.1401361 41.8414286,28.4316084 C42.4992857,28.714723 42.7960714,29.4491497 42.5389286,30.0947765 C43.6403571,27.6564383 44.2628571,25.0384111 44.3742857,22.3441205 C44.3014286,23.0043732 43.7432143,23.5162779 43.0575,23.5162779" id="Fill-9" fill="#89C693"></path>
                <path d="M41.8414286,28.4316084 C41.1653571,28.1401361 40.3757143,28.4378766 40.0746429,29.0981293 L39.9771429,29.2955782 C39.8646429,29.5337707 39.7457143,29.7677843 39.6235714,30.0017979 C39.5164286,30.2076045 39.4082143,30.4123664 39.2935714,30.6129495 C39.1939286,30.787415 39.0889286,30.9597911 38.9828571,31.1321672 C38.8296429,31.382896 38.6732143,31.6304908 38.5082143,31.872862 L38.4085714,32.0285228 C37.9928571,32.6250486 38.1525,33.437828 38.7642857,33.8421283 C38.9946429,33.9956997 39.2560714,34.0677843 39.5153571,34.0677843 C39.9182143,34.0677843 40.3092857,33.8849611 40.5707143,33.5558795 L40.7421429,33.3114189 C40.9296429,33.0377065 41.1053571,32.7577259 41.2789286,32.4767007 C41.3989286,32.2792517 41.52,32.0828474 41.6335714,31.8812196 C41.7664286,31.6492954 41.8907143,31.4131924 42.0139286,31.1770894 C42.1489286,30.9169582 42.2828571,30.6557823 42.4082143,30.3893829 C42.4532143,30.2922255 42.495,30.1929786 42.5389286,30.0947765 C42.7960714,29.4491497 42.4992857,28.714723 41.8414286,28.4316084" id="Fill-10" fill="#54B36C"></path>
                <path d="M1.82357143,19.4231293 C2.56285714,19.4492468 3.14035714,20.0562196 3.11142857,20.7760204 C3.10607143,20.9160107 3.11357143,21.0549563 3.11142857,21.1949466 C3.15,18.5706511 3.74142857,16.0194849 4.84178571,13.6668124 L4.75607143,13.8402332 C4.53428571,14.3291545 4.04464286,14.6185374 3.52928571,14.6185374 C3.34821429,14.6185374 3.165,14.5830175 2.98928571,14.5067541 C2.33035714,14.2225948 2.0325,13.4839893 2.29392857,12.8373178 C1.19142857,15.2767007 0.567857143,17.897862 0.456428571,20.594242 C0.529285714,19.9172741 1.10571429,19.3949223 1.82357143,19.4231293" id="Fill-11" fill="#89C693"></path>
                <path d="M5.31428571,34.0677843 C5.57357143,34.0677843 5.835,33.9956997 6.06535714,33.8421283 C6.67821429,33.437828 6.83678571,32.6250486 6.42107143,32.0285228 C6.34607143,31.9209184 6.28285714,31.8070457 6.21,31.6983965 L6.03642857,31.4487123 L5.88642857,31.1958941 C5.73535714,30.9514334 5.58964286,30.7038387 5.45035714,30.4541545 C5.3625,30.297449 5.27785714,30.1396987 5.19535714,29.9819485 C5.06035714,29.7239067 4.93285714,29.4637755 4.81071429,29.2005102 C4.73357143,29.0333576 4.65964286,28.8662051 4.58678571,28.6980078 C4.47964286,28.4451895 4.37678571,28.1913265 4.28035714,27.9343294 C4.20857143,27.742104 4.14,27.5488338 4.07357143,27.3555637 C3.99535714,27.12155 3.92142857,26.8875364 3.85178571,26.6514334 C3.78535714,26.4247328 3.72321429,26.1980321 3.66642857,25.9702867 C3.61392857,25.7623907 3.56464286,25.55345 3.51964286,25.3434645 C3.46392857,25.0833333 3.41357143,24.8211127 3.36857143,24.5588921 C3.3375,24.3750243 3.30857143,24.1901118 3.28392857,24.0051992 C3.24428571,23.7189504 3.21107143,23.4316569 3.18535714,23.1443635 C3.16928571,22.9709427 3.15642857,22.7975219 3.14464286,22.6241011 C3.12642857,22.3305394 3.11571429,22.0369776 3.11142857,21.7413265 L3.10178571,21.4697036 L3.11142857,21.1949466 C3.11357143,21.0549563 3.10607143,20.9160107 3.11142857,20.7760204 C3.14035714,20.0562196 2.56285714,19.4492468 1.82357143,19.4231293 C1.10571429,19.3949223 0.529285714,19.9172741 0.456428571,20.594242 C0.448928571,20.7770651 0.438214286,20.9588435 0.435,21.1416667 C0.431785714,21.358965 0.431785714,21.5752187 0.435,21.7904276 C0.440357143,22.1195092 0.452142857,22.4475462 0.4725,22.7745384 C0.485357143,22.9782556 0.500357143,23.1809281 0.518571429,23.3825559 C0.548571429,23.7074587 0.585,24.0313168 0.63,24.3530855 C0.658928571,24.5641156 0.691071429,24.7751458 0.7275,24.9861759 C0.778928571,25.2880952 0.836785714,25.5889699 0.901071429,25.8877551 C0.951428571,26.1196793 1.005,26.3516035 1.06285714,26.582483 C1.13035714,26.8509718 1.20321429,27.1173712 1.28142857,27.3827259 C1.3575,27.6418124 1.43892857,27.8998542 1.52571429,28.1558066 C1.60285714,28.3877308 1.68535714,28.6175656 1.77214286,28.8463557 C1.87821429,29.127381 1.98964286,29.4063168 2.1075,29.684208 C2.19428571,29.8868805 2.28428571,30.0874636 2.3775,30.2880466 C2.51142857,30.5784742 2.65285714,30.8657677 2.80071429,31.1499271 C2.89928571,31.3379738 2.99892857,31.523931 3.10285714,31.7098882 C3.25928571,31.9898688 3.42321429,32.2667153 3.59357143,32.5414723 C3.71357143,32.7347425 3.83571429,32.9259232 3.96214286,33.1160593 C4.06928571,33.2779883 4.18285714,33.4346939 4.29428571,33.5934888 C4.55464286,33.8985423 4.92857143,34.0677843 5.31428571,34.0677843" id="Fill-12" fill="#81C063"></path>
                <path d="M2.98928571,14.5067541 C3.165,14.5830175 3.34821429,14.6185374 3.52928571,14.6185374 C4.04464286,14.6185374 4.53428571,14.3291545 4.75607143,13.8402332 L4.84178571,13.6668124 C4.96285714,13.4098154 5.09142857,13.1559524 5.22321429,12.9031341 C5.32071429,12.7161322 5.41928571,12.5301749 5.52321429,12.3473518 C5.63357143,12.1551263 5.74821429,11.9649903 5.865,11.7758989 C6.00964286,11.5418853 6.15642857,11.3099611 6.30964286,11.0832604 L6.42107143,10.9087949 C6.83678571,10.3122692 6.67821429,9.5005345 6.06535714,9.0951895 C5.47178571,8.70029155 4.67035714,8.84759475 4.245,9.40442177 L4.07464286,9.6457483 C3.89892857,9.90379009 3.73392857,10.1670554 3.57107143,10.4303207 C3.43928571,10.6455296 3.3075,10.8596939 3.18321429,11.0790816 C3.06214286,11.2922012 2.94857143,11.5084548 2.835,11.7247085 C2.68821429,12.0057337 2.54464286,12.2878037 2.40964286,12.5761419 L2.29392857,12.8373178 C2.0325,13.4839893 2.33035714,14.2225948 2.98928571,14.5067541" id="Fill-13" fill="#53B475"></path>
                <path d="M35.1053571,5.52752672 C34.8471429,5.8983965 34.425,6.1000243 33.9964286,6.1000243 C33.7360714,6.1000243 33.4746429,6.02689504 33.2442857,5.87436832 L33.0664286,5.76571914 C35.2735714,7.18547133 37.1571429,9.03773081 38.6164286,11.2326531 C38.5446429,11.1260933 38.4825,11.01431 38.4085714,10.9087949 C37.9928571,10.3122692 38.1525,9.5005345 38.7642857,9.0951895 C39.3525,8.70551506 40.1367857,8.84550534 40.5653571,9.3856171 C39.0042857,7.15413022 37.0510714,5.25276968 34.7882143,3.75257532 C35.3614286,4.16732264 35.5092857,4.94667153 35.1053571,5.52752672" id="Fill-14" fill="#89C693"></path>
                <path d="M29.5542857,2.5281827 C29.2553571,3.18739067 29.5617857,3.95838192 30.2389286,4.24985423 L30.4135714,4.33238581 C30.6792857,4.45148202 30.9417857,4.57684645 31.2021429,4.7074344 C31.3928571,4.80250243 31.5825,4.89757046 31.7689286,4.997862 C31.9671429,5.10546647 32.1610714,5.21829446 32.3560714,5.33216715 C32.5960714,5.47215743 32.8339286,5.61528183 33.0664286,5.76571914 L33.2442857,5.87436832 C33.4746429,6.02689504 33.7360714,6.1000243 33.9964286,6.1000243 C34.425,6.1000243 34.8471429,5.8983965 35.1053571,5.52752672 C35.5092857,4.94667153 35.3614286,4.16732264 34.7882143,3.75257532 L34.5407143,3.58542274 C34.2760714,3.41513605 34.0060714,3.2542517 33.735,3.09441205 C33.5153571,2.96591351 33.2946429,2.83741497 33.0696429,2.71622935 C32.8510714,2.59817784 32.6303571,2.48743926 32.4085714,2.37774538 C32.1203571,2.23357629 31.83,2.09358601 31.5342857,1.96299806 L31.2675,1.84912536 C30.6032143,1.59526239 29.8467857,1.88360058 29.5542857,2.5281827" id="Fill-15" fill="#53B475"></path>
                <path d="M38.7642857,9.0951895 C38.1525,9.5005345 37.9928571,10.3122692 38.4085714,10.9087949 C38.4825,11.01431 38.5446429,11.1260933 38.6164286,11.2326531 L38.7942857,11.4896501 L38.9475,11.7497813 C39.0964286,11.9900632 39.24,12.2334791 39.3771429,12.4789845 C39.4660714,12.6388241 39.5528571,12.7997085 39.6375,12.9616375 C39.7703571,13.2155005 39.8967857,13.4724976 40.0167857,13.7315841 C40.0960714,13.9029155 40.1721429,14.0752915 40.2460714,14.2487123 C40.3521429,14.4952624 40.4517857,14.7439018 40.5460714,14.9946307 C40.6210714,15.1931244 40.6917857,15.3926628 40.7592857,15.5942906 C40.8353571,15.8199466 40.9071429,16.0466472 40.9746429,16.2743926 C41.0442857,16.5094509 41.1075,16.7455539 41.1675,16.9827017 C41.2178571,17.1811953 41.2639286,17.379689 41.3067857,17.5802721 C41.3657143,17.8498056 41.4171429,18.1214286 41.4642857,18.3930515 C41.4932143,18.5685617 41.52,18.7440719 41.5446429,18.9206268 C41.5853571,19.2141885 41.6196429,19.5098397 41.6464286,19.8065355 C41.6614286,19.9715986 41.6732143,20.1366618 41.6839286,20.3027697 C41.7032143,20.6025996 41.7139286,20.9013848 41.7182143,21.2022595 L41.7278571,21.4697036 L41.7182143,21.7413265 C41.7160714,21.8813168 41.7235714,22.0213071 41.7182143,22.1612974 C41.6892857,22.8810982 42.2667857,23.4880709 43.0060714,23.5152332 L43.0575,23.5162779 C43.7432143,23.5162779 44.3014286,23.0043732 44.3742857,22.3441205 C44.3817857,22.1612974 44.3914286,21.979519 44.3946429,21.7966958 C44.3978571,21.5793975 44.3978571,21.3631438 44.3946429,21.1479349 C44.3892857,20.8178086 44.3775,20.4887269 44.3571429,20.16069 C44.3453571,19.9601069 44.3292857,19.7595238 44.3110714,19.5589407 C44.2821429,19.2309038 44.2446429,18.9049563 44.1996429,18.5800534 C44.1707143,18.3711127 44.1385714,18.1642614 44.1032143,17.9574101 C44.0517857,17.651312 43.9928571,17.3473032 43.9275,17.0443392 C43.8782143,16.8155491 43.8257143,16.5878037 43.7689286,16.361103 C43.7003571,16.0894801 43.6253571,15.8178571 43.5460714,15.5483236 C43.4710714,15.2944606 43.3917857,15.0405977 43.3071429,14.7888241 C43.2278571,14.5527211 43.1432143,14.3176628 43.0553571,14.0836492 C42.9514286,13.8078474 42.8410714,13.5330904 42.7253571,13.2614674 C42.6364286,13.0535714 42.5453571,12.8477648 42.45,12.6419582 C42.3171429,12.3577988 42.1789286,12.0757289 42.0332143,11.7957483 C41.9325,11.6024781 41.8296429,11.4112974 41.7225,11.2201166 C41.5692857,10.9453596 41.4085714,10.6737366 41.2414286,10.4042031 C41.1192857,10.2057094 40.9928571,10.0093052 40.8642857,9.81499028 C40.7667857,9.66977648 40.665,9.52769679 40.5653571,9.3856171 C40.1367857,8.84550534 39.3525,8.70551506 38.7642857,9.0951895" id="Fill-16" fill="#54B36C"></path>
            </g>
        </g>
    </g>
</svg>