<?xml version="1.0" encoding="UTF-8" standalone="no"?>
<svg width="217px" height="44px" viewBox="0 0 217 44" version="1.1" xmlns="http://www.w3.org/2000/svg" xmlns:xlink="http://www.w3.org/1999/xlink" xmlns:sketch="http://www.bohemiancoding.com/sketch/ns">
    <!-- Generator: Sketch 3.3.2 (12043) - http://www.bohemiancoding.com/sketch -->
    <title>logo</title>
    <desc>Created with Sketch.</desc>
    <defs></defs>
    <g id="Page-1" stroke="none" stroke-width="1" fill="none" fill-rule="evenodd" sketch:type="MSPage">
        <g id="Desktop" sketch:type="MSArtboardGroup" transform="translate(-20.000000, -705.000000)">
            <g id="nav-bar" sketch:type="MSLayerGroup" transform="translate(-14.000000, 697.000000)">
                <rect id="TOP" stroke="#979797" sketch:type="MSShapeGroup" x="0" y="0" width="1310" height="60"></rect>
                <g id="logo" transform="translate(34.000000, 8.000000)">
                    <g id="LIGHT-UP-TAIWAN" transform="translate(63.168347, 25.052910)" letter-spacing="4.1785718" font-size="11.7" font-family="DIN Pro" fill="#000000" sketch:type="MSTextLayer" font-weight="bold">
                        <text>
                            <tspan x="0" y="12">LIGHT UP TAIWAN</tspan>
                        </text>
                    </g>
                    <g id="點亮台灣" transform="translate(62.943548, 5.314796)" stroke="#000000" stroke-width="0.5" fill="#000000" sketch:type="MSShapeGroup">
                        <path d="M0.57008871,9.80866166 L0.660008065,10.5034325 L7.98393952,9.56305367 L7.89402016,8.86873016 L4.86733468,9.25705026 L4.86733468,7.96324641 L7.81309274,7.96324641 L7.81309274,7.26355442 L4.86733468,7.26355442 L4.86733468,5.86372307 L7.68091129,5.86372307 L7.68091129,0.920694444 L1.35058871,0.920694444 L1.35058871,5.86372307 L4.16416532,5.86372307 L4.16416532,7.26355442 L1.21885685,7.26355442 L1.21885685,7.96324641 L4.16416532,7.96324641 L4.16416532,9.34741969 L0.57008871,9.80866166 L0.57008871,9.80866166 Z M4.86733468,1.62083381 L6.97729234,1.62083381 L6.97729234,5.16403108 L4.86733468,5.16403108 L4.86733468,1.62083381 Z M2.05420766,1.62083381 L4.16416532,1.62083381 L4.16416532,5.16403108 L2.05420766,5.16403108 L2.05420766,1.62083381 Z" id="Fill-1"></path>
                        <path d="M3.08108669,2.401053 L2.4255746,2.65381897 L3.09996976,4.38381189 L3.75593145,4.13059854 L3.08108669,2.401053" id="Fill-2"></path>
                        <path d="M5.93197984,4.38381189 L6.6059254,2.65381897 L5.94996371,2.401053 L5.27601815,4.13059854 L5.93197984,4.38381189" id="Fill-3"></path>
                        <path d="M0.405985887,14.3034221 L1.01249194,14.6572945 C1.90584073,13.1411461 2.05870363,11.4961541 2.06005242,11.4800487 L1.35868145,11.4245744 C1.35778226,11.4397851 1.20671774,12.9443018 0.405985887,14.3034221" id="Fill-4"></path>
                        <path d="M3.14807661,11.5941289 C3.345,12.2620574 3.49381653,13.244042 3.55586089,14.2891062 L4.25813105,14.2475005 C4.19293952,13.1527778 4.03423185,12.1135294 3.82337097,11.3972846 L3.14807661,11.5941289" id="Fill-5"></path>
                        <path d="M4.99142339,11.3883371 C5.22071774,12.0719237 5.42348589,13.0861191 5.52059879,14.0354455 L6.22062097,13.9643131 C6.11721371,12.9523545 5.90635282,11.9063955 5.6581754,11.1668873 L4.99142339,11.3883371" id="Fill-6"></path>
                        <path d="M6.88917137,11.0917286 C7.09283871,11.6724192 7.35450403,12.4799282 7.56986089,13.5853878 L8.25999194,13.4520706 C8.03609274,12.3032157 7.76498589,11.4639432 7.55322581,10.8608839 L6.88917137,11.0917286" id="Fill-7"></path>
                        <path d="M13.9703206,4.00488662 L13.9703206,3.30474726 L11.3329859,3.30474726 L11.3329859,0.876851852 L10.6293669,0.876851852 L10.6293669,7.94132511 L9.0319496,7.94132511 L9.0319496,13.256121 L13.6407661,13.256121 L13.6407661,7.94132511 L11.3329859,7.94132511 L11.3329859,4.00488662 L13.9703206,4.00488662 L13.9703206,4.00488662 Z M9.73556855,8.64146447 L12.9375968,8.64146447 L12.9375968,12.556429 L9.73556855,12.556429 L9.73556855,8.64146447 Z" id="Fill-8"></path>
                        <path d="M50.7383448,1.70136102 L45.4843569,1.70136102 L45.4843569,0.0899220522 L44.7807379,0.0899220522 L44.7807379,1.70136102 L39.52675,1.70136102 L39.52675,2.401053 L50.7383448,2.401053 L50.7383448,1.70136102" id="Fill-9"></path>
                        <path d="M42.1420544,6.36657077 L48.1945262,6.36657077 L48.1945262,3.40674839 L42.1420544,3.40674839 L42.1420544,6.36657077 Z M42.8456734,4.10688776 L47.4913569,4.10688776 L47.4913569,5.66687878 L42.8456734,5.66687878 L42.8456734,4.10688776 Z" id="Fill-10"></path>
                        <path d="M39.7641371,8.20035431 L50.6578669,8.20035431 L50.6578669,9.62747543 L51.3610363,9.62747543 L51.3610363,7.50066232 L39.0609677,7.50066232 L39.0609677,9.62747543 L39.7641371,9.62747543 L39.7641371,8.20035431" id="Fill-11"></path>
                        <path d="M38.6073246,13.8632067 L38.7633347,14.5454512 C43.2120948,13.5384136 43.7583548,10.4278264 43.787129,9.1371542 L43.0835101,9.12239087 C43.0529375,10.5213275 42.430246,12.9979866 38.6073246,13.8632067" id="Fill-12"></path>
                        <path d="M51.2504355,12.0786343 L50.9100907,12.9939602 C50.8624335,13.1196721 50.7401431,13.2037783 50.6057137,13.2037783 L47.4558387,13.2037783 C47.243629,13.2037783 47.0714335,13.0315396 47.0714335,12.819932 L47.0714335,9.08704837 L46.3678145,9.08704837 L46.3678145,12.819932 C46.3678145,13.4176228 46.8560766,13.9039177 47.4558387,13.9039177 L50.6057137,13.9039177 C51.0310323,13.9039177 51.4176855,13.6377305 51.56875,13.2386735 L51.909994,12.3211106 L51.2504355,12.0786343" id="Fill-13"></path>
                        <path d="M88.8277339,6.70881141 C87.7491512,5.0544246 86.4700484,3.40406415 85.8563488,2.7643202 L85.3469556,3.24793084 C85.6131169,3.52485497 86.0141573,4.00846561 86.4673508,4.59676162 L79.5102903,5.47092923 L82.1907863,0.428136338 L81.568994,0.101106387 L78.6578548,5.57785147 L76.707504,5.82256472 L76.7951754,6.5173356 L86.9529153,5.24142668 C87.3764355,5.81630149 87.8210867,6.45067697 88.2374133,7.08952617 L88.8277339,6.70881141" id="Fill-14"></path>
                        <path d="M78.6857298,14.4591081 L79.3888992,14.4591081 L79.3888992,13.5115712 L86.0559698,13.5115712 L86.0559698,14.4591081 L86.7595887,14.4591081 L86.7595887,8.74346561 L78.6857298,8.74346561 L78.6857298,14.4591081 L78.6857298,14.4591081 Z M79.3888992,9.44360497 L86.0559698,9.44360497 L86.0559698,12.8118793 L79.3888992,12.8118793 L79.3888992,9.44360497 Z" id="Fill-15"></path>
                        <path d="M113.61805,0.902799509 L115.425879,2.73121457 L115.920435,2.24626181 L114.112607,0.418294123 L113.61805,0.902799509" id="Fill-16"></path>
                        <path d="M115.41419,5.88788124 L113.606361,4.05991355 L113.111804,4.54486631 L114.919633,6.37238662 L115.41419,5.88788124" id="Fill-17"></path>
                        <path d="M114.781607,8.87365127 C114.504206,9.94063681 114.040671,11.726104 113.020986,14.3387646 L113.667956,14.5888464 C114.702478,11.9386064 115.19119,10.0574013 115.453754,9.0463374 C115.511752,8.8226507 115.560308,8.63609599 115.602571,8.48712065 L114.93447,8.2996712 C114.890859,8.45222553 114.841403,8.64370134 114.781607,8.87365127" id="Fill-18"></path>
                        <path d="M116.055764,8.04645786 L116.563808,8.15785384 C116.780514,7.18123772 116.927532,6.19209514 116.928881,6.18225293 L116.413643,6.1070942 C116.412294,6.11648904 116.267974,7.08773668 116.055764,8.04645786" id="Fill-19"></path>
                        <path d="M117.609571,6.22385865 L117.628004,6.36836026 C117.66577,6.65825822 117.74445,7.26131755 117.770526,7.98561508 L118.291159,7.9668254 C118.263734,7.21881708 118.182806,6.59920493 118.144591,6.30170163 L118.127056,6.16570011 L117.609571,6.22385865" id="Fill-20"></path>
                        <path d="M118.809994,6.13080499 C118.905308,6.36388653 119.197996,7.37450302 119.258242,7.89792989 L119.776627,7.83842923 C119.708288,7.25415958 119.401214,6.20104261 119.291962,5.93485544 L118.809994,6.13080499" id="Fill-21"></path>
                        <path d="M123.629671,6.11156793 C123.434546,7.23626464 123.290226,7.72211215 123.203903,7.9314829 L123.684522,8.12877457 C123.827494,7.78429705 123.97721,7.15350057 124.142661,6.19970049 L124.1557,6.127226 L123.644958,6.02522487 L123.629671,6.11156793" id="Fill-22"></path>
                        <path d="M124.984756,7.9314829 L125.505389,7.91224584 C125.489653,7.49484647 125.41547,6.86718159 125.285087,6.04669879 L124.771198,6.127226 C124.898433,6.92802438 124.970369,7.5346627 124.984756,7.9314829" id="Fill-23"></path>
                        <path d="M126.501696,5.8968287 L126.007139,6.06101474 C126.123135,6.40683437 126.317361,6.98528817 126.521478,7.86169265 L127.028623,7.74492819 C126.819111,6.84436555 126.620389,6.25114843 126.501696,5.8968287" id="Fill-24"></path>
                        <path d="M116.471641,5.62750992 L119.046931,5.05666147 L119.279823,5.62393093 L119.76179,5.42753401 L119.111673,3.84427957 L118.629256,4.04067649 L118.846861,4.57036659 L117.227413,4.92871268 C118.47999,3.44522251 119.395369,1.89731056 119.43853,1.8243887 L118.989383,1.56267526 C118.984438,1.57072799 118.785716,1.90625803 118.455262,2.40552674 L117.056117,2.68916147 C117.664421,1.49914824 118.218325,0.292134826 118.224619,0.278713624 L117.750744,0.0639743953 C117.74445,0.0782903439 117.073651,1.54075397 116.401054,2.82605773 L116.407798,2.82963672 L116.509857,3.32890542 L118.036688,3.01932303 C117.586641,3.65996173 117.009359,4.422286 116.374079,5.11347789 L116.378125,5.11705688 L116.358343,5.12153061 L116.471641,5.62750992" id="Fill-25"></path>
                        <path d="M123.674181,5.62750992 L126.249921,5.05666147 L126.483262,5.62393093 L126.96523,5.42753401 L126.314663,3.84427957 L125.832696,4.04067649 L126.0503,4.57036659 L124.430403,4.92916005 C125.683429,3.44522251 126.598808,1.89731056 126.64152,1.8243887 L126.192373,1.56267526 C126.187877,1.57072799 125.988706,1.90625803 125.658252,2.40552674 L124.259556,2.68916147 C124.867411,1.49914824 125.421764,0.292134826 125.428058,0.278713624 L124.954183,0.0639743953 C124.94699,0.0782903439 124.276641,1.54075397 123.604494,2.82605773 L123.610788,2.82918934 L123.713746,3.32890542 L125.240127,3.01932303 C124.790081,3.65996173 124.212349,4.422286 123.577518,5.11347789 L123.581565,5.11705688 L123.561782,5.12153061 L123.674181,5.62750992" id="Fill-26"></path>
                        <path d="M123.412067,1.33719907 L121.838927,1.33719907 L121.838927,0.0201318027 L121.318294,0.0201318027 L121.318294,1.33719907 L119.766736,1.33719907 L119.766736,1.85525746 L123.412067,1.85525746 L123.412067,1.33719907" id="Fill-27"></path>
                        <path d="M120.298159,2.5893972 L122.868954,2.5893972 L122.868954,3.10745559 L120.298159,3.10745559 L120.298159,2.5893972 Z" id="Fill-28"></path>
                        <path d="M120.298159,3.80938445 L122.868954,3.80938445 L122.868954,4.32744284 L120.298159,4.32744284 L120.298159,3.80938445 Z" id="Fill-29"></path>
                        <path d="M120.385831,7.71719104 L122.793871,7.71719104 L122.793871,5.36400699 L120.385831,5.36400699 L120.385831,7.71719104 Z M120.906464,5.88161801 L122.273238,5.88161801 L122.273238,7.19868528 L120.906464,7.19868528 L120.906464,5.88161801 Z" id="Fill-30"></path>
                        <path d="M125.888895,11.7842626 L117.948567,11.7842626 L118.163474,10.8783314 C118.172016,10.8425416 118.204387,10.8170413 118.241254,10.8170413 L125.627679,10.8170413 L125.627679,8.59985875 L117.10872,8.59985875 L117.10872,9.18726002 L125.037359,9.18726002 L125.037359,10.2300874 L117.774123,10.2300874 C117.737256,10.2300874 117.704885,10.2555877 117.696343,10.2913776 L117.222917,12.2862155 C117.212577,12.3296107 117.245847,12.3712165 117.290806,12.3712165 L125.511234,12.3712165 L125.132673,13.9491024 C125.109744,13.9669974 125.094008,13.9795238 125.070629,13.9974187 L122.261998,13.9974187 L122.261998,14.58482 L125.070629,14.58482 C125.373657,14.58482 125.636671,14.3781335 125.706808,14.0851039 L126.155956,12.213741 C126.182032,12.1099504 126.196419,11.9882648 126.130778,11.9041586 C126.130778,11.9041586 126.075478,11.7842626 125.888895,11.7842626" id="Fill-31"></path>
                    </g>
                    <g id="Logo-彩色" sketch:type="MSShapeGroup">
                        <path d="M6.20336502,31.9963369 C6.27722734,32.1070618 6.34038498,32.2209503 6.41531778,32.3295661 C6.83065956,32.9316988 6.67115975,33.7521177 6.05992224,34.1602181 C5.82977151,34.3152329 5.56857719,34.387995 5.30952381,34.387995 C4.92308468,34.387995 4.55056164,34.2171623 4.29043779,33.9092416 C5.84475806,36.1448303 7.78765841,38.0514079 10.0356423,39.5562122 C9.46080069,39.1386211 9.3109351,38.3498379 9.7155722,37.7614141 C9.97569604,37.3860039 10.3974606,37.1835355 10.825648,37.1835355 C11.083631,37.1835355 11.3448253,37.2573521 11.574976,37.412367 L11.7387577,37.5125467 C9.53787442,36.0783954 7.65813172,34.2108352 6.20336502,31.9963369" id="Fill-1" fill="#DDEF00"></path>
                        <path d="M24.491249,1.40567916 C24.4634169,2.13224551 23.8232767,2.72066934 23.1039219,2.6732158 C22.9636905,2.66794319 22.8234591,2.67427033 22.6832277,2.67216128 C25.3679627,2.71117863 27.9788354,3.2922208 30.3863191,4.37310688 L30.2118328,4.28979956 C29.5352967,3.99558765 29.2291427,3.21734967 29.5278034,2.55194566 C29.8200413,1.90130497 30.5757921,1.61025662 31.2394825,1.86650571 C28.7377976,0.78034702 26.0498512,0.166614634 23.284831,0.057998765 C23.981706,0.127597283 24.5180108,0.70653041 24.491249,1.40567916" id="Fill-2" fill="#88C8AB"></path>
                        <path d="M20.2982239,41.9362707 C20.3249856,41.2097043 20.9415755,40.6117898 21.6855511,40.668734 C21.8289939,40.6750611 21.9724366,40.6676795 22.1158794,40.6697885 C19.4204397,40.6318257 16.8010033,40.04762 14.3870968,38.9604067 L14.5776402,39.0521502 C15.2541763,39.3463622 15.5603303,40.1256547 15.2616695,40.7900042 C15.0400826,41.2835209 14.5508785,41.5766783 14.0359831,41.5766783 C13.8903994,41.5766783 13.7426747,41.5450426 13.599232,41.4965346 C16.0870008,42.570039 18.7578197,43.1763897 21.5046419,43.283951 C20.8077669,43.2143525 20.2714622,42.6354194 20.2982239,41.9362707" id="Fill-3" fill="#88C8AB"></path>
                        <path d="M15.2616695,40.7900042 C15.5603303,40.1256547 15.2541763,39.3463622 14.5776402,39.0521502 L14.3870968,38.9604067 C14.1344662,38.8465183 13.8861175,38.7263026 13.6388393,38.6018689 C13.4354503,38.4995802 13.2331317,38.3962369 13.0329541,38.2876211 C12.8477631,38.1863869 12.6657834,38.07988 12.4838038,37.9723187 C12.2322437,37.823631 11.9828245,37.6717796 11.7387577,37.5125467 L11.574976,37.4113125 C10.9648089,37.0021575 10.1330549,37.1592815 9.7155722,37.7614141 C9.3109351,38.3498379 9.45973022,39.1386211 10.0356423,39.5562122 L10.2647225,39.7122816 C10.5398329,39.8926051 10.8202957,40.0613288 11.1018289,40.2279434 C11.3127112,40.3523771 11.5235935,40.4768108 11.7387577,40.5938629 C11.9646265,40.7172421 12.1937068,40.8332396 12.4217166,40.9481826 C12.7043203,41.0894887 12.9879944,41.2286857 13.2780914,41.3594466 C13.3840678,41.4069001 13.4921851,41.4501355 13.599232,41.4965346 C13.7426747,41.5450426 13.8903994,41.5766783 14.0359831,41.5766783 C14.5508785,41.5766783 15.0400826,41.2835209 15.2616695,40.7900042" id="Fill-4" fill="#B7DD0E"></path>
                        <path d="M6.05992224,9.18067724 C6.67223022,9.58983216 6.83065956,10.4091965 6.41531778,11.0113292 L6.30398906,11.1874345 C7.75982623,9.01511712 9.65669643,7.16021117 11.9068212,5.72500537 C11.796563,5.79460388 11.6830933,5.85682074 11.574976,5.92958283 C10.9648089,6.33979227 10.130914,6.18266835 9.7155722,5.57948119 C9.31735791,5.00054806 9.45973022,4.22969175 10.0131624,3.80682803 C7.72664171,5.34221352 5.77838902,7.26566347 4.24119624,9.49281604 C4.66617224,8.93075528 5.46688268,8.78206754 6.05992224,9.18067724" id="Fill-5" fill="#88C8AB"></path>
                        <path d="M9.7155722,5.57948119 C10.130914,6.18266835 10.9648089,6.33979227 11.574976,5.92958283 C11.6830933,5.85682074 11.796563,5.79460388 11.9068212,5.72500537 L12.169086,5.54890002 L12.4377736,5.39810324 C12.6818404,5.25257906 12.9280482,5.11338203 13.1774674,4.97840308 C13.3466014,4.8877141 13.5168059,4.80018869 13.6880808,4.71371781 C13.9385705,4.58928409 14.191201,4.46906847 14.4459725,4.35517999 C14.6386569,4.26976363 14.8324117,4.18751083 15.0261665,4.10736708 C15.2563172,4.01351454 15.4864679,3.92388008 15.7198301,3.83951824 C15.9553331,3.75410188 16.1919067,3.67290361 16.4295507,3.59697795 C16.6233055,3.53476109 16.8170603,3.47570781 17.0118856,3.41981809 C17.2966302,3.33756529 17.5835157,3.26269416 17.8714718,3.19415017 C18.0256192,3.15829638 18.1808372,3.1224426 18.3371256,3.08975239 C18.6636185,3.02120839 18.9911818,2.96004606 19.3208861,2.90837443 C19.4504128,2.88728397 19.5799395,2.86830256 19.7105367,2.85037567 C20.056298,2.80292213 20.4020593,2.76495931 20.7510321,2.73648718 C20.8837702,2.72488743 21.0175787,2.71539672 21.1513873,2.70696054 C21.4789507,2.6869246 21.8075845,2.67427033 22.1372888,2.67110676 L22.3952717,2.66161605 C22.4916139,2.66161605 22.5868856,2.67110676 22.6832277,2.67216128 C22.8234591,2.67427033 22.9636905,2.66794319 23.1039219,2.6732158 C23.8232767,2.72066934 24.4634169,2.13224551 24.491249,1.40567916 C24.5180108,0.70653041 23.981706,0.127597283 23.284831,0.057998765 C23.1103447,0.051671627 22.9358583,0.04218092 22.7613719,0.039017351 C22.5183756,0.034799259 22.2753792,0.034799259 22.0323829,0.039017351 C21.7208765,0.043235443 21.4093702,0.054835196 21.0989343,0.072762087 C20.8623608,0.086470886 20.6268577,0.103343254 20.3913546,0.124433714 C20.090553,0.151851312 19.7908218,0.184541525 19.4921611,0.223558876 C19.240601,0.256249089 18.9890409,0.293157394 18.7385513,0.335338314 C18.4666523,0.37962828 18.1958237,0.430245384 17.9271361,0.48508058 C17.6498848,0.542024822 17.3747744,0.603187156 17.1007344,0.669622105 C16.8630904,0.72762087 16.6265169,0.79089225 16.3899434,0.856272676 C16.0912826,0.939579993 15.7936924,1.02921445 15.4993136,1.12623056 C15.2905722,1.19372004 15.0818308,1.2654276 14.8752304,1.33924421 C14.565865,1.45102365 14.2575701,1.56913022 13.9514161,1.69461846 C13.7598022,1.77370769 13.5681884,1.85596048 13.3787154,1.94032232 C13.0725614,2.07635579 12.7685484,2.21977091 12.4688172,2.36951318 C12.2793443,2.46442025 12.0909418,2.56143637 11.9036098,2.66161605 C11.6177947,2.81557641 11.3351911,2.97586391 11.0547283,3.14247854 C10.8524098,3.26269416 10.6522321,3.38607335 10.4541955,3.51261611 C10.3043299,3.60752318 10.1598166,3.70770287 10.0131624,3.80682803 C9.45973022,4.22969175 9.31735791,5.00054806 9.7155722,5.57948119" id="Fill-6" fill="#50B584"></path>
                        <path d="M39.4799491,34.387995 C39.2208957,34.387995 38.9597014,34.3152329 38.7295507,34.1602181 C38.1183132,33.7521177 37.9588134,32.9316988 38.3741551,32.3295661 L38.4737087,32.1724422 C37.0178715,34.3384324 35.1231423,36.1880658 32.8762289,37.620108 C32.9886281,37.5484004 33.1042387,37.4851291 33.2144969,37.4113125 C33.8268049,37.0053211 34.6574885,37.1592815 35.0739007,37.7614141 C35.472115,38.3403472 35.3297427,39.1112035 34.7763105,39.5340673 C37.0553379,38.0039544 38.9993088,36.0878861 40.5343606,33.8712787 C40.2731663,34.2034535 39.8824453,34.387995 39.4799491,34.387995" id="Fill-7" fill="#89C693"></path>
                        <path d="M35.0739007,37.7614141 C34.6574885,37.1592815 33.8268049,37.0053211 33.2144969,37.4113125 C33.1042387,37.4851291 32.9886281,37.5484004 32.8762289,37.620108 L32.6214574,37.7909407 L32.3602631,37.938574 C32.1119144,38.0862072 31.8614247,38.2275133 31.6087942,38.3646013 C31.4407306,38.4542357 31.2715966,38.5417611 31.1024626,38.6271775 C30.8541139,38.7505567 30.6036242,38.8697178 30.3509937,38.9825517 C30.1518865,39.0721862 29.9517089,39.1576025 29.7493904,39.2398553 C29.5310148,39.3284353 29.3115687,39.4138516 29.0899818,39.4950499 C28.8384217,39.5867934 28.5868616,39.6732643 28.3320901,39.7544626 C28.1586742,39.8103523 27.9841878,39.8630784 27.808631,39.9136955 C27.5014065,40.00333 27.1931116,40.0834737 26.8816052,40.1572904 C26.7510081,40.1878715 26.6214814,40.2173982 26.4908842,40.2448158 C26.1387001,40.3207414 25.7854455,40.3850673 25.4289795,40.440957 C25.3262145,40.4578294 25.222379,40.4725927 25.1185436,40.487356 C24.7503024,40.5390277 24.3799203,40.5790996 24.0073973,40.6096807 C23.8949981,40.6181169 23.7825989,40.6265531 23.6701997,40.6339347 C23.3265793,40.6550252 22.9829589,40.6676795 22.6371976,40.6718976 L22.3952717,40.6803338 L22.1158794,40.6697885 C21.9724366,40.6676795 21.8289939,40.6750611 21.6855511,40.668734 C20.9415755,40.6117898 20.3249856,41.2097043 20.2982239,41.9362707 C20.2714622,42.6354194 20.8077669,43.2143525 21.5046419,43.283951 C21.8022321,43.2955508 22.0976815,43.3166413 22.3952717,43.3166413 C22.9476334,43.3166413 23.4978543,43.2966053 24.0437932,43.2565334 L24.0480751,43.2565334 C24.5736751,43.2175161 25.0949933,43.1584628 25.6141705,43.0835917 C25.75012,43.0646103 25.8839286,43.0350836 26.0188076,43.0129386 C26.396683,42.9517763 26.7724174,42.8863959 27.1449405,42.8051976 C27.3547523,42.7598531 27.5624232,42.7029089 27.7711646,42.6512372 C28.062332,42.5784752 28.3534994,42.5067676 28.640385,42.4224058 C28.894086,42.3485891 29.1445757,42.2642273 29.3961358,42.18092 C29.6327093,42.1018308 29.8682124,42.0248506 30.1015745,41.9383797 C30.3788258,41.836091 30.6517953,41.7243115 30.9236943,41.610423 C31.1281538,41.5250067 31.3326133,41.4406448 31.5349318,41.3489013 C31.8153946,41.2223586 32.0926459,41.0863251 32.3677563,40.9481826 C32.5604407,40.8511665 32.753125,40.7530958 32.9436684,40.6497526 C33.2091446,40.5063375 33.4703389,40.3565952 33.7304627,40.2015803 C33.9306404,40.0824192 34.1297475,39.9600945 34.3277842,39.8335518 C34.4797907,39.7365357 34.6275154,39.6342469 34.7763105,39.5340673 C35.3297427,39.1112035 35.472115,38.3403472 35.0739007,37.7614141" id="Fill-8" fill="#53B475"></path>
                        <path d="M43.018918,23.7373127 L42.9675355,23.7362582 C42.2289123,23.7088406 41.6519297,23.0961627 41.6808324,22.3695964 C41.6861847,22.2282903 41.6786914,22.0869842 41.6808324,21.9456781 C41.6422955,24.6041306 41.0481855,27.189821 39.941321,29.570934 L40.0387337,29.3716291 C40.3395353,28.7051706 41.1284706,28.4046315 41.8039363,28.6988434 C42.4612039,28.9846192 42.7577237,29.7259488 42.5008113,30.3776441 C43.6012529,27.9163874 44.2231951,25.2737527 44.3345238,22.5541379 C44.261732,23.2205965 43.7040179,23.7373127 43.018918,23.7373127" id="Fill-9" fill="#89C693"></path>
                        <path d="M41.8039363,28.6988434 C41.1284706,28.4046315 40.3395353,28.7051706 40.0387337,29.3716291 L39.941321,29.570934 C39.8289219,29.8113652 39.7100998,30.0475784 39.5880664,30.2837915 C39.4810196,30.4915325 39.3729023,30.698219 39.2583621,30.9006875 C39.1588086,31.0767928 39.0539026,31.2507891 38.9479263,31.4247854 C38.7948493,31.6778709 38.6385609,31.9277929 38.4737087,32.1724422 L38.3741551,32.3295661 C37.9588134,32.9316988 38.1183132,33.7521177 38.7295507,34.1602181 C38.9597014,34.3152329 39.2208957,34.387995 39.4799491,34.387995 C39.8824453,34.387995 40.2731663,34.2034535 40.5343606,33.8712787 L40.7056356,33.6245204 C40.8929675,33.3482353 41.0685244,33.0656232 41.2419403,32.7819565 C41.3618328,32.5826516 41.4827957,32.3844013 41.5962654,32.1808784 C41.7290035,31.9467743 41.8531778,31.7084521 41.9762817,31.4701299 C42.1111607,31.2075537 42.2449693,30.9439229 42.3702141,30.6750195 C42.4151738,30.5769489 42.456922,30.4767692 42.5008113,30.3776441 C42.7577237,29.7259488 42.4612039,28.9846192 41.8039363,28.6988434" id="Fill-10" fill="#54B36C"></path>
                        <path d="M1.8219374,19.6056916 C2.56056068,19.6320547 3.1375432,20.2447325 3.10864055,20.9712989 C3.10328821,21.112605 3.11078149,21.2528565 3.10864055,21.3941626 C3.14717742,18.7452008 3.73807604,16.1700557 4.8374472,13.7952699 L4.75180972,13.9703207 C4.53022273,14.4638375 4.04101863,14.7559403 3.52612327,14.7559403 C3.34521409,14.7559403 3.16216398,14.7200866 2.98660714,14.6431064 C2.32826901,14.3562761 2.03067876,13.6107284 2.29187308,12.9579786 C1.19036098,15.4202898 0.56734831,18.066088 0.456019585,20.7878119 C0.528811444,20.104481 1.1047235,19.5772195 1.8219374,19.6056916" id="Fill-11" fill="#89C693"></path>
                        <path d="M5.30952381,34.387995 C5.56857719,34.387995 5.82977151,34.3152329 6.05992224,34.1602181 C6.67223022,33.7521177 6.83065956,32.9316988 6.41531778,32.3295661 C6.34038498,32.2209503 6.27722734,32.1060072 6.20443548,31.9963369 L6.03101959,31.7443059 L5.88115399,31.4891113 C5.73021793,31.2423529 5.58463422,30.992431 5.44547331,30.7404 C5.35769489,30.5822215 5.27312788,30.4229885 5.1907018,30.2637556 C5.05582277,30.0032884 4.92843702,29.7407122 4.80640361,29.4749724 C4.72932988,29.3062487 4.65546755,29.137525 4.58267569,28.9677468 C4.47562884,28.7125522 4.37286386,28.4563031 4.2765217,28.1968905 C4.20480031,28.0028583 4.13629032,27.8077715 4.06992127,27.6126847 C3.99177707,27.3764716 3.91791475,27.1402584 3.84833429,26.9019362 C3.78196525,26.6731048 3.71987807,26.4442733 3.66314324,26.2143872 C3.61069028,26.0045372 3.56144873,25.7936326 3.51648906,25.5816734 C3.46082469,25.3190972 3.41051267,25.0544119 3.365553,24.7897267 C3.33450941,24.6041306 3.30560676,24.4174801 3.28098598,24.2308295 C3.24137865,23.9418902 3.20819412,23.6518964 3.18250288,23.3619025 C3.16644585,23.1868517 3.15360023,23.0118009 3.14182508,22.8367501 C3.12362711,22.5404291 3.11292243,22.2441082 3.10864055,21.9456781 L3.09900634,21.6715022 L3.10864055,21.3941626 C3.11078149,21.2528565 3.10328821,21.112605 3.10864055,20.9712989 C3.1375432,20.2447325 2.56056068,19.6320547 1.8219374,19.6056916 C1.1047235,19.5772195 0.528811444,20.104481 0.456019585,20.7878119 C0.448526306,20.9723534 0.437821621,21.1558404 0.434610215,21.3403819 C0.43139881,21.5597227 0.43139881,21.778009 0.434610215,21.9952407 C0.439962558,22.3274155 0.451737711,22.6585357 0.472076613,22.9886014 C0.484922235,23.1942334 0.499908794,23.3988108 0.518106759,23.6023338 C0.548079877,23.9302904 0.584475806,24.2571926 0.629435484,24.5819856 C0.658338134,24.7949993 0.690452189,25.0080129 0.726848118,25.2210266 C0.778230607,25.5257837 0.836035906,25.8294864 0.900264017,26.1310799 C0.950576037,26.365184 1.00409946,26.5992881 1.06190476,26.8323377 C1.12934428,27.1033501 1.20213614,27.3722535 1.28028034,27.6401023 C1.3562836,27.901624 1.43763921,28.1620912 1.52434716,28.4204494 C1.60142089,28.6545535 1.68384697,28.8865485 1.77055492,29.1174891 C1.8765313,29.4011558 1.98786002,29.6827134 2.10561156,29.9632165 C2.19231951,30.167794 2.28223886,30.3702624 2.37536962,30.5727308 C2.50917819,30.8658882 2.65048003,31.155882 2.79820469,31.4427123 C2.89668779,31.6325264 2.99624136,31.8202315 3.1000768,32.0079366 C3.25636521,32.2905488 3.42014689,32.5699974 3.59035138,32.8473369 C3.71024386,33.0424237 3.83227727,33.2354014 3.95859255,33.4273246 C4.0656394,33.5907756 4.17910906,33.7489541 4.29043779,33.9092416 C4.55056164,34.2171623 4.92415515,34.387995 5.30952381,34.387995" id="Fill-12" fill="#81C063"></path>
                        <path d="M2.98660714,14.6431064 C3.16216398,14.7200866 3.34521409,14.7559403 3.52612327,14.7559403 C4.04101863,14.7559403 4.53022273,14.4638375 4.75180972,13.9703207 L4.8374472,13.7952699 C4.95841014,13.5358572 5.08686636,13.2796081 5.21853399,13.0244136 C5.31594662,12.835654 5.41442972,12.6479489 5.51826517,12.4634073 C5.62852343,12.2693751 5.74306356,12.0774519 5.85974462,11.8865833 C6.00425787,11.6503701 6.15091206,11.416266 6.30398906,11.1874345 L6.41531778,11.0113292 C6.83065956,10.4091965 6.67223022,9.58983216 6.05992224,9.18067724 C5.46688268,8.78206754 4.66617224,8.93075528 4.24119624,9.49281604 L4.07099174,9.73641086 C3.89543491,9.99687804 3.73058276,10.2626178 3.56787154,10.5283576 C3.43620392,10.7455894 3.30453629,10.9617666 3.18036194,11.1832164 C3.059399,11.3983391 2.94592934,11.6166254 2.83245968,11.8349116 C2.68580549,12.1185783 2.54236271,12.4032995 2.40748368,12.6943479 L2.29187308,12.9579786 C2.03067876,13.6107284 2.32826901,14.3562761 2.98660714,14.6431064" id="Fill-13" fill="#53B475"></path>
                        <path d="M35.0739007,5.57948119 C34.8159178,5.95383686 34.3941532,6.1573598 33.9659658,6.1573598 C33.705842,6.1573598 33.4446477,6.08354319 33.2144969,5.92958283 L33.0367992,5.81991244 C35.2419643,7.25300919 37.1238479,9.12267847 38.581826,11.3382313 C38.5101046,11.2306699 38.4480175,11.117836 38.3741551,11.0113292 C37.9588134,10.4091965 38.1183132,9.58983216 38.7295507,9.18067724 C39.3172379,8.78734016 40.1008209,8.92864624 40.5290083,9.47383463 C38.9693356,7.2213735 37.0178715,5.30214164 34.7570421,3.78784661 C35.3297427,4.20649225 35.4774674,4.9931664 35.0739007,5.57948119" id="Fill-14" fill="#89C693"></path>
                        <path d="M29.5278034,2.55194566 C29.2291427,3.21734967 29.5352967,3.99558765 30.2118328,4.28979956 L30.3863191,4.37310688 C30.6517953,4.4933225 30.9140601,4.61986526 31.1741839,4.75168064 C31.3647273,4.84764223 31.5542003,4.94360382 31.7404618,5.04483803 C31.9384985,5.1534539 32.1322533,5.26734238 32.3270785,5.38228539 C32.5668635,5.52359147 32.8045075,5.66806112 33.0367992,5.81991244 L33.2144969,5.92958283 C33.4446477,6.08354319 33.705842,6.1573598 33.9659658,6.1573598 C34.3941532,6.1573598 34.8159178,5.95383686 35.0739007,5.57948119 C35.4774674,4.9931664 35.3297427,4.20649225 34.7570421,3.78784661 L34.5097638,3.61912293 C34.2453581,3.44723569 33.9756,3.28483914 33.7047715,3.12349713 C33.4853255,2.9937908 33.2648089,2.86408447 33.0400106,2.7417598 C32.821635,2.6225987 32.6011185,2.51081926 32.3795315,2.40009435 C32.0915755,2.25457017 31.8014785,2.11326409 31.5060292,1.98144872 L31.2394825,1.86650571 C30.5757921,1.61025662 29.8200413,1.90130497 29.5278034,2.55194566" id="Fill-15" fill="#53B475"></path>
                        <path d="M38.7295507,9.18067724 C38.1183132,9.58983216 37.9588134,10.4091965 38.3741551,11.0113292 C38.4480175,11.117836 38.5101046,11.2306699 38.581826,11.3382313 L38.7595238,11.597644 L38.9126008,11.8602202 C39.0613959,12.1027605 39.2048387,12.3484643 39.3418587,12.5962772 C39.4307076,12.7576193 39.5174155,12.9200158 39.6019825,13.0834669 C39.7347206,13.3397159 39.8610359,13.5991286 39.9809284,13.8606503 C40.060143,14.0335921 40.1361463,14.2075884 40.2100086,14.3826392 C40.315985,14.6315066 40.4155386,14.8824831 40.5097398,15.1355686 C40.5846726,15.335928 40.6553235,15.5373419 40.7227631,15.7408648 C40.7987663,15.9686418 40.8704877,16.1974733 40.9379272,16.4273593 C41.0075077,16.664627 41.0706653,16.9029492 41.1306116,17.1423259 C41.1809236,17.3426853 41.2269537,17.5430446 41.2697725,17.745513 C41.3286482,18.01758 41.3800307,18.291756 41.4271313,18.5659319 C41.456034,18.7430918 41.4827957,18.9202517 41.5074165,19.098466 C41.5480943,19.394787 41.5823493,19.693217 41.609111,19.9927016 C41.6240975,20.1593162 41.6358727,20.3259308 41.6465774,20.4936 C41.6658458,20.7962481 41.6765505,21.0978417 41.6808324,21.4015443 L41.6904666,21.6715022 L41.6808324,21.9456781 C41.6786914,22.0869842 41.6861847,22.2282903 41.6808324,22.3695964 C41.6519297,23.0961627 42.2289123,23.7088406 42.9675355,23.7362582 L43.018918,23.7373127 C43.7040179,23.7373127 44.261732,23.2205965 44.3345238,22.5541379 C44.3420171,22.3695964 44.3516513,22.1861094 44.3548627,22.0015679 C44.3580741,21.7822271 44.3580741,21.5639408 44.3548627,21.3467091 C44.3495104,21.0134798 44.3377352,20.6813051 44.3173963,20.3501848 C44.3056212,20.1477164 44.2895641,19.945248 44.2713662,19.7427796 C44.2424635,19.4116594 44.2049971,19.0826482 44.1600374,18.7546915 C44.1311348,18.5437869 44.0990207,18.3349914 44.0636953,18.1261958 C44.0123128,17.8172206 43.953437,17.5103544 43.8881384,17.2045427 C43.8388969,16.9736022 43.7864439,16.7437162 43.7297091,16.5148847 C43.6611991,16.2407087 43.5862663,15.9665327 43.5070517,15.6944658 C43.4321189,15.4382167 43.3529042,15.1819676 43.2683372,14.9278276 C43.1891225,14.6895054 43.1045555,14.4522377 43.0167771,14.2160246 C42.9129416,13.9376305 42.8026834,13.6602909 42.6870728,13.386115 C42.5982239,13.1762649 42.5072341,12.9685239 42.4119624,12.7607828 C42.2792243,12.4739526 42.1411338,12.1892314 41.9955501,11.9066192 C41.8949261,11.7115324 41.7921611,11.5185547 41.6851142,11.325577 C41.5320373,11.0482375 41.371467,10.7740615 41.2044739,10.5019946 C41.0824405,10.3016352 40.9561252,10.1033849 40.827669,9.90724358 C40.7302563,9.76066489 40.6285618,9.61724976 40.5290083,9.47383463 C40.1008209,8.92864624 39.3172379,8.78734016 38.7295507,9.18067724" id="Fill-16" fill="#54B36C"></path>
                    </g>
                </g>
            </g>
        </g>
    </g>
</svg>