<?xml version="1.0" encoding="UTF-8" standalone="no"?>
<svg width="130px" height="128px" viewBox="0 0 130 128" version="1.1" xmlns="http://www.w3.org/2000/svg" xmlns:xlink="http://www.w3.org/1999/xlink" xmlns:sketch="http://www.bohemiancoding.com/sketch/ns">
    <!-- Generator: Sketch 3.3.2 (12043) - http://www.bohemiancoding.com/sketch -->
    <title>menu-logo</title>
    <desc>Created with Sketch.</desc>
    <defs></defs>
    <g id="Page-1" stroke="none" stroke-width="1" fill="none" fill-rule="evenodd" sketch:type="MSPage">
        <g id="Logo-彩色--Copy" sketch:type="MSLayerGroup" transform="translate(-1.000000, 0.500000)">
            <path d="M18.2128571,93.6208455 C18.4297143,93.9448251 18.6151429,94.2780612 18.8351429,94.5958698 C20.0545714,96.3577017 19.5862857,98.7582362 17.7917143,99.9523324 C17.116,100.405904 16.3491429,100.618805 15.5885714,100.618805 C14.454,100.618805 13.3602857,100.11895 12.5965714,99.2179786 C17.16,105.759281 22.8642857,111.337901 29.4642857,115.740938 C27.7765714,114.519072 27.3365714,112.211103 28.5245714,110.489383 C29.2882857,109.390938 30.5265714,108.798518 31.7837143,108.798518 C32.5411429,108.798518 33.308,109.014504 33.9837143,109.468076 L34.4645714,109.7612 C28.0028571,105.564893 22.484,100.100437 18.2128571,93.6208455" id="Fill-1" fill="#DDEF00" sketch:type="MSShapeGroup"></path>
            <path d="M71.9054286,4.11299806 C71.8237143,6.23892128 69.9442857,7.9606414 67.8322857,7.821793 C67.4205714,7.8063654 67.0088571,7.82487852 66.5971429,7.81870748 C74.4794286,7.93287172 82.1448571,9.6329932 89.2131429,12.7956511 L88.7008571,12.551895 C86.7145714,11.691035 85.8157143,9.41392128 86.6925714,7.46695821 C87.5505714,5.56319242 89.7694286,4.71158892 91.718,5.46137026 C84.3731429,2.28328474 76.4814286,0.487512148 68.3634286,0.169703596 C70.4094286,0.373347911 71.984,2.06729835 71.9054286,4.11299806" id="Fill-2" fill="#88C8AB" sketch:type="MSShapeGroup"></path>
            <path d="M59.5948571,122.704956 C59.6734286,120.579033 61.4837143,118.829543 63.668,118.996161 C64.0891429,119.014674 64.5102857,118.993076 64.9314286,118.999247 C57.0177143,118.888168 49.3271429,117.17879 42.24,113.997619 L42.7994286,114.266059 C44.7857143,115.126919 45.6845714,117.407119 44.8077143,119.350996 C44.1571429,120.795019 42.7208571,121.652794 41.2091429,121.652794 C40.7817143,121.652794 40.348,121.560228 39.9268571,121.418294 C47.2308571,124.559354 55.0722857,126.333528 63.1368571,126.648251 C61.0908571,126.444606 59.5162857,124.750656 59.5948571,122.704956" id="Fill-3" fill="#88C8AB" sketch:type="MSShapeGroup"></path>
            <path d="M44.8077143,119.350996 C45.6845714,117.407119 44.7857143,115.126919 42.7994286,114.266059 L42.24,113.997619 C41.4982857,113.664383 40.7691429,113.312634 40.0431429,112.948542 C39.446,112.649247 38.852,112.346866 38.2642857,112.029057 C37.7205714,111.732847 37.1862857,111.42121 36.652,111.106487 C35.9134286,110.671429 35.1811429,110.227114 34.4645714,109.7612 L33.9837143,109.46499 C32.1922857,108.267809 29.7502857,108.727551 28.5245714,110.489383 C27.3365714,112.211103 27.7734286,114.519072 29.4642857,115.740938 L30.1368571,116.197595 C30.9445714,116.725219 31.768,117.218902 32.5945714,117.706414 C33.2137143,118.070505 33.8328571,118.434597 34.4645714,118.777089 C35.1277143,119.138095 35.8002857,119.477502 36.4697143,119.813824 C37.2994286,120.227284 38.1322857,120.634572 38.984,121.017177 C39.2951429,121.156025 39.6125714,121.282532 39.9268571,121.418294 C40.348,121.560228 40.7817143,121.652794 41.2091429,121.652794 C42.7208571,121.652794 44.1571429,120.795019 44.8077143,119.350996" id="Fill-4" fill="#B7DD0E" sketch:type="MSShapeGroup"></path>
            <path d="M17.7917143,26.8625364 C19.5894286,28.0597182 20.0545714,30.4571672 18.8351429,32.218999 L18.5082857,32.7342809 C22.7825714,26.3781098 28.3517143,20.9506803 34.958,16.7512877 C34.6342857,16.954932 34.3011429,17.1369776 33.9837143,17.3498785 C32.1922857,18.5501458 29.744,18.0904033 28.5245714,16.3254859 C27.3554286,14.6315355 27.7734286,12.3760204 29.3982857,11.1387269 C22.6851429,15.6312439 16.9651429,21.2592323 12.452,27.7758503 C13.6997143,26.1312682 16.0505714,25.6962099 17.7917143,26.8625364" id="Fill-5" fill="#88C8AB" sketch:type="MSShapeGroup"></path>
            <path d="M28.5245714,16.3254859 C29.744,18.0904033 32.1922857,18.5501458 33.9837143,17.3498785 C34.3011429,17.1369776 34.6342857,16.954932 34.958,16.7512877 L35.728,16.2360058 L36.5168571,15.7947765 C37.2334286,15.3689747 37.9562857,14.9616861 38.6885714,14.5667396 C39.1851429,14.3013848 39.6848571,14.0452867 40.1877143,13.7922741 C40.9231429,13.4281827 41.6648571,13.0764334 42.4128571,12.7431973 C42.9785714,12.4932702 43.5474286,12.2525996 44.1162857,12.0181001 C44.792,11.7434888 45.4677143,11.4812196 46.1528571,11.234378 C46.8442857,10.9844509 47.5388571,10.7468659 48.2365714,10.5247085 C48.8054286,10.3426628 49.3742857,10.1698737 49.9462857,10.0063411 C50.7822857,9.76567055 51.6245714,9.54659864 52.47,9.34603984 C52.9225714,9.24113217 53.3782857,9.13622449 53.8371429,9.04057337 C54.7957143,8.84001458 55.7574286,8.66105442 56.7254286,8.50986395 C57.1057143,8.44815355 57.486,8.39261419 57.8694286,8.34016035 C58.8845714,8.20131195 59.8997143,8.09023324 60.9242857,8.0069242 C61.314,7.97298348 61.7068571,7.9452138 62.0997143,7.92052964 C63.0614286,7.86190476 64.0262857,7.82487852 64.9942857,7.81562196 L65.7517143,7.78785228 C66.0345714,7.78785228 66.3142857,7.81562196 66.5971429,7.81870748 C67.0088571,7.82487852 67.4205714,7.8063654 67.8322857,7.821793 C69.9442857,7.9606414 71.8237143,6.23892128 71.9054286,4.11299806 C71.984,2.06729835 70.4094286,0.373347911 68.3634286,0.169703596 C67.8511429,0.151190476 67.3388571,0.123420797 66.8265714,0.114164237 C66.1131429,0.101822157 65.3997143,0.101822157 64.6862857,0.114164237 C63.7717143,0.126506317 62.8571429,0.160447036 61.9457143,0.212900875 C61.2511429,0.253012634 60.5597143,0.302380952 59.8682857,0.364091351 C58.9851429,0.444314869 58.1051429,0.539965986 57.2282857,0.654130224 C56.4897143,0.749781341 55.7511429,0.857774538 55.0157143,0.981195335 C54.2174286,1.11078717 53.4222857,1.25889213 52.6334286,1.41933916 C51.8194286,1.58595724 51.0117143,1.7649174 50.2071429,1.95930515 C49.5094286,2.12900875 48.8148571,2.31413994 48.1202857,2.50544218 C47.2434286,2.74919825 46.3697143,3.01146744 45.5054286,3.29533528 C44.8925714,3.49280855 44.2797143,3.70262391 43.6731429,3.9186103 C42.7648571,4.24567541 41.8597143,4.59125364 40.9608571,4.95843052 C40.3982857,5.18984451 39.8357143,5.43051506 39.2794286,5.67735666 C38.3805714,6.07538873 37.488,6.49501944 36.608,6.93316327 C36.0517143,7.21086006 35.4985714,7.49472789 34.9485714,7.78785228 C34.1094286,8.23833819 33.2797143,8.70733722 32.4562857,9.19484937 C31.8622857,9.54659864 31.2745714,9.90760447 30.6931429,10.2778669 C30.2531429,10.5555637 29.8288571,10.848688 29.3982857,11.1387269 C27.7734286,12.3760204 27.3554286,14.6315355 28.5245714,16.3254859" id="Fill-6" fill="#50B584" sketch:type="MSShapeGroup"></path>
            <path d="M115.911714,100.618805 C115.151143,100.618805 114.384286,100.405904 113.708571,99.9523324 C111.914,98.7582362 111.445714,96.3577017 112.665143,94.5958698 L112.957429,94.1361273 C108.683143,100.473785 103.120286,105.885787 96.5234286,110.075923 C96.8534286,109.866108 97.1928571,109.680977 97.5165714,109.46499 C99.3142857,108.277065 101.753143,108.727551 102.975714,110.489383 C104.144857,112.183333 103.726857,114.438848 102.102,115.676142 C108.793143,111.199052 114.500571,105.592663 119.007429,99.1068999 C118.240571,100.078839 117.093429,100.618805 115.911714,100.618805" id="Fill-7" fill="#89C693" sketch:type="MSShapeGroup"></path>
            <path d="M102.975714,110.489383 C101.753143,108.727551 99.3142857,108.277065 97.5165714,109.46499 C97.1928571,109.680977 96.8534286,109.866108 96.5234286,110.075923 L95.7754286,110.575777 L95.0085714,111.00775 C94.2794286,111.439723 93.544,111.853183 92.8022857,112.2543 C92.3088571,112.516569 91.8122857,112.772668 91.3157143,113.022595 C90.5865714,113.383601 89.8511429,113.732264 89.1094286,114.062415 C88.5248571,114.324684 87.9371429,114.574611 87.3431429,114.815282 C86.702,115.074466 86.0577143,115.324393 85.4071429,115.561978 C84.6685714,115.830418 83.93,116.083431 83.182,116.321016 C82.6728571,116.484548 82.1605714,116.638824 81.6451429,116.786929 C80.7431429,117.049198 79.838,117.283698 78.9234286,117.499684 C78.54,117.589164 78.1597143,117.675559 77.7762857,117.755782 C76.7422857,117.97794 75.7051429,118.166156 74.6585714,118.329689 C74.3568571,118.379057 74.052,118.422255 73.7471429,118.465452 C72.666,118.616642 71.5785714,118.733892 70.4848571,118.823372 C70.1548571,118.848056 69.8248571,118.872741 69.4948571,118.894339 C68.486,118.95605 67.4771429,118.993076 66.462,119.005418 L65.7517143,119.030102 L64.9314286,118.999247 C64.5102857,118.993076 64.0891429,119.014674 63.668,118.996161 C61.4837143,118.829543 59.6734286,120.579033 59.5948571,122.704956 C59.5162857,124.750656 61.0908571,126.444606 63.1368571,126.648251 C64.0105714,126.682191 64.878,126.743902 65.7517143,126.743902 C67.3734286,126.743902 68.9888571,126.685277 70.5917143,126.568027 L70.6042857,126.568027 C72.1474286,126.453863 73.678,126.281074 75.2022857,126.062002 C75.6014286,126.006463 75.9942857,125.920068 76.3902857,125.855272 C77.4997143,125.676312 78.6028571,125.48501 79.6965714,125.247425 C80.3125714,125.114747 80.9222857,124.948129 81.5351429,124.796939 C82.39,124.584038 83.2448571,124.374223 84.0871429,124.127381 C84.832,123.911395 85.5674286,123.664553 86.306,123.420797 C87.0005714,123.189383 87.692,122.96414 88.3771429,122.711127 C89.1911429,122.411832 89.9925714,122.084767 90.7908571,121.751531 C91.3911429,121.501603 91.9914286,121.254762 92.5854286,120.986322 C93.4088571,120.616059 94.2228571,120.218027 95.0305714,119.813824 C95.5962857,119.529956 96.162,119.243003 96.7214286,118.940622 C97.5008571,118.520991 98.2677143,118.082847 99.0314286,117.629276 C99.6191429,117.280612 100.203714,116.922692 100.785143,116.55243 C101.231429,116.268562 101.665143,115.969266 102.102,115.676142 C103.726857,114.438848 104.144857,112.183333 102.975714,110.489383" id="Fill-8" fill="#53B475" sketch:type="MSShapeGroup"></path>
            <path d="M126.302,69.4550534 L126.151143,69.4519679 C123.982571,69.3717444 122.288571,67.5790573 122.373429,65.4531341 C122.389143,65.0396744 122.367143,64.6262148 122.373429,64.2127551 C122.260286,71.9913508 120.516,79.5570457 117.266286,86.5241497 L117.552286,85.9409864 C118.435429,83.9909378 120.751714,83.1115646 122.734857,83.9724247 C124.664571,84.8086006 125.535143,86.9777211 124.780857,88.8845724 C128.011714,81.6829689 129.837714,73.950656 130.164571,65.9931001 C129.950857,67.9431487 128.313429,69.4550534 126.302,69.4550534" id="Fill-9" fill="#89C693" sketch:type="MSShapeGroup"></path>
            <path d="M122.734857,83.9724247 C120.751714,83.1115646 118.435429,83.9909378 117.552286,85.9409864 L117.266286,86.5241497 C116.936286,87.2276482 116.587429,87.9188047 116.229143,88.6099611 C115.914857,89.2178086 115.597429,89.8225705 115.261143,90.4149903 C114.968857,90.9302721 114.660857,91.4393829 114.349714,91.9484937 C113.900286,92.6890185 113.441429,93.4202867 112.957429,94.1361273 L112.665143,94.5958698 C111.445714,96.3577017 111.914,98.7582362 113.708571,99.9523324 C114.384286,100.405904 115.151143,100.618805 115.911714,100.618805 C117.093429,100.618805 118.240571,100.078839 119.007429,99.1068999 L119.510286,98.3848882 C120.060286,97.576482 120.575714,96.7495627 121.084857,95.9195578 C121.436857,95.3363946 121.792,94.7563168 122.125143,94.1608115 C122.514857,93.475826 122.879429,92.7784985 123.240857,92.081171 C123.636857,91.3128766 124.029714,90.5414966 124.397429,89.754689 C124.529429,89.4677357 124.652,89.1746113 124.780857,88.8845724 C125.535143,86.9777211 124.664571,84.8086006 122.734857,83.9724247" id="Fill-10" fill="#54B36C" sketch:type="MSShapeGroup"></path>
            <path d="M5.34914286,57.3659864 C7.51771429,57.4431244 9.21171429,59.2358115 9.12685714,61.3617347 C9.11114286,61.7751944 9.13314286,62.1855685 9.12685714,62.5990282 C9.24,54.8482021 10.9748571,47.3133625 14.2025714,40.3647716 L13.9511429,40.8769679 C13.3005714,42.3209913 11.8642857,43.1756803 10.3525714,43.1756803 C9.82142857,43.1756803 9.284,43.0707726 8.76857143,42.8455296 C6.83571429,42.0062682 5.962,39.8248056 6.72885714,37.9148688 C3.49485714,45.1195578 1.66571429,52.8611273 1.33885714,60.8248542 C1.55257143,58.8254373 3.24342857,57.2826774 5.34914286,57.3659864" id="Fill-11" fill="#89C693" sketch:type="MSShapeGroup"></path>
            <path d="M15.5885714,100.618805 C16.3491429,100.618805 17.116,100.405904 17.7917143,99.9523324 C19.5894286,98.7582362 20.0545714,96.3577017 18.8351429,94.5958698 C18.6151429,94.2780612 18.4297143,93.9417396 18.216,93.6208455 L17.7068571,92.8834062 L17.2668571,92.1367104 C16.8237143,91.4146987 16.3962857,90.6834305 15.9877143,89.9459913 C15.73,89.4831633 15.4817143,89.0172498 15.2397143,88.5513362 C14.8437143,87.7892128 14.4697143,87.0209184 14.1114286,86.2433673 C13.8851429,85.7496842 13.6682857,85.256001 13.4545714,84.7592323 C13.1402857,84.0125364 12.8385714,83.2627551 12.5557143,82.5037172 C12.3451429,81.9359815 12.144,81.3651603 11.9491429,80.7943392 C11.7197143,80.1031827 11.5028571,79.4120262 11.2985714,78.7146987 C11.1037143,78.0451409 10.9214286,77.3755831 10.7548571,76.7029397 C10.6008571,76.0889213 10.4562857,75.4718173 10.3242857,74.8516278 C10.1608571,74.0833333 10.0131429,73.3088678 9.88114286,72.5344023 C9.79,71.9913508 9.70514286,71.4452138 9.63285714,70.8990768 C9.51657143,70.0536443 9.41914286,69.2051263 9.34371429,68.3566084 C9.29657143,67.8444121 9.25885714,67.3322157 9.22428571,66.8200194 C9.17085714,65.9529883 9.13942857,65.0859572 9.12685714,64.2127551 L9.09857143,63.4105199 L9.12685714,62.5990282 C9.13314286,62.1855685 9.11114286,61.7751944 9.12685714,61.3617347 C9.21171429,59.2358115 7.51771429,57.4431244 5.34914286,57.3659864 C3.24342857,57.2826774 1.55257143,58.8254373 1.33885714,60.8248542 C1.31685714,61.3648202 1.28542857,61.9017007 1.276,62.4416667 C1.26657143,63.0834548 1.26657143,63.7221574 1.276,64.3577745 C1.29171429,65.3297133 1.32628571,66.2985666 1.386,67.2643343 C1.42371429,67.8660107 1.46771429,68.4646016 1.52114286,69.0601069 C1.60914286,70.0197036 1.716,70.9762148 1.848,71.9265549 C1.93285714,72.5498299 2.02714286,73.173105 2.134,73.79638 C2.28485714,74.6880952 2.45457143,75.576725 2.64314286,76.4591837 C2.79085714,77.1441691 2.948,77.8291545 3.11771429,78.5110544 C3.31571429,79.304033 3.52942857,80.0908406 3.75885714,80.8745627 C3.982,81.6397716 4.22085714,82.401895 4.47542857,83.1578474 C4.70171429,83.8428328 4.94371429,84.5216472 5.19828571,85.1973761 C5.50942857,86.027381 5.83628571,86.8512148 6.182,87.6719631 C6.43657143,88.2705539 6.70057143,88.8629738 6.974,89.4553936 C7.36685714,90.3131681 7.78171429,91.1616861 8.21542857,92.0009475 C8.50457143,92.5563411 8.79685714,93.1055637 9.10171429,93.6547862 C9.56057143,94.4817055 10.0414286,95.2993683 10.5411429,96.1108601 C10.8931429,96.6816812 11.2514286,97.2463314 11.6222857,97.807896 C11.9365714,98.2861516 12.2697143,98.7489796 12.5965714,99.2179786 C13.3602857,100.11895 14.4571429,100.618805 15.5885714,100.618805" id="Fill-12" fill="#81C063" sketch:type="MSShapeGroup"></path>
            <path d="M8.76857143,42.8455296 C9.284,43.0707726 9.82142857,43.1756803 10.3525714,43.1756803 C11.8642857,43.1756803 13.3005714,42.3209913 13.9511429,40.8769679 L14.2025714,40.3647716 C14.5577143,39.6057337 14.9348571,38.8559524 15.3214286,38.1092566 C15.6074286,37.5569485 15.8965714,37.0077259 16.2014286,36.46776 C16.5251429,35.9000243 16.8614286,35.3384597 17.204,34.7799806 C17.6282857,34.0888241 18.0588571,33.4038387 18.5082857,32.7342809 L18.8351429,32.218999 C20.0545714,30.4571672 19.5894286,28.0597182 17.7917143,26.8625364 C16.0505714,25.6962099 13.6997143,26.1312682 12.452,27.7758503 L11.9522857,28.4886054 C11.4368571,29.2507289 10.9528571,30.0282799 10.4751429,30.8058309 C10.0885714,31.441448 9.702,32.0739796 9.33742857,32.7219388 C8.98228571,33.3513848 8.64914286,33.9900875 8.316,34.6287901 C7.88542857,35.4587949 7.46428571,36.2918853 7.06828571,37.1434888 L6.72885714,37.9148688 C5.962,39.8248056 6.83571429,42.0062682 8.76857143,42.8455296" id="Fill-13" fill="#53B475" sketch:type="MSShapeGroup"></path>
            <path d="M102.975714,16.3254859 C102.218286,17.4208455 100.98,18.0163508 99.7228571,18.0163508 C98.9591429,18.0163508 98.1922857,17.8003644 97.5165714,17.3498785 L96.9948571,17.0289845 C103.469143,21.222206 108.994286,26.6928328 113.274857,33.1755102 C113.064286,32.8607872 112.882,32.5306365 112.665143,32.218999 C111.445714,30.4571672 111.914,28.0597182 113.708571,26.8625364 C115.434,25.7116375 117.734571,26.1250972 118.991714,27.720311 C114.412571,21.1296404 108.683143,15.5139942 102.045429,11.0831876 C103.726857,12.308139 104.160571,14.6099368 102.975714,16.3254859" id="Fill-14" fill="#89C693" sketch:type="MSShapeGroup"></path>
            <path d="M86.6925714,7.46695821 C85.8157143,9.41392128 86.7145714,11.691035 88.7008571,12.551895 L89.2131429,12.7956511 C89.9925714,13.1474004 90.7625714,13.5176628 91.5262857,13.9033528 C92.0857143,14.1841351 92.642,14.4649174 93.1888571,14.7611273 C93.7702857,15.0789359 94.3391429,15.412172 94.9111429,15.7484937 C95.6151429,16.1619534 96.3128571,16.5846696 96.9948571,17.0289845 L97.5165714,17.3498785 C98.1922857,17.8003644 98.9591429,18.0163508 99.7228571,18.0163508 C100.98,18.0163508 102.218286,17.4208455 102.975714,16.3254859 C104.160571,14.6099368 103.726857,12.308139 102.045429,11.0831876 L101.319429,10.5895044 C100.543143,10.0865646 99.7511429,9.61139456 98.956,9.13931001 C98.3117143,8.75979106 97.6642857,8.38027211 97.0042857,8.0223518 C96.3631429,7.67368805 95.7157143,7.34662293 95.0651429,7.02264334 C94.2197143,6.59684159 93.368,6.18338192 92.5005714,5.79769193 L91.718,5.46137026 C89.7694286,4.71158892 87.5505714,5.56319242 86.6925714,7.46695821" id="Fill-15" fill="#53B475" sketch:type="MSShapeGroup"></path>
            <path d="M113.708571,26.8625364 C111.914,28.0597182 111.445714,30.4571672 112.665143,32.218999 C112.882,32.5306365 113.064286,32.8607872 113.274857,33.1755102 L113.796571,33.9345481 L114.246,34.7028426 C114.682857,35.4125121 115.104,36.1314383 115.506286,36.8565355 C115.767143,37.32862 116.021714,37.8037901 116.27,38.2820457 C116.659714,39.031827 117.030571,39.7908649 117.382571,40.5560739 C117.615143,41.0620991 117.838286,41.5712099 118.055143,42.0834062 C118.366286,42.8115889 118.658571,43.5459427 118.935143,44.2864674 C119.155143,44.8727162 119.362571,45.4620505 119.560571,46.0575559 C119.783714,46.7240282 119.994286,47.393586 120.192286,48.0662293 C120.396571,48.7604713 120.582,49.4577988 120.758,50.1582119 C120.905714,50.7444606 121.040857,51.3307094 121.166571,51.9231293 C121.339429,52.7191934 121.490286,53.5214286 121.628571,54.3236638 C121.713429,54.8420311 121.792,55.3603984 121.864286,55.8818513 C121.983714,56.7488824 122.084286,57.6220845 122.162857,58.4983722 C122.206857,58.9858844 122.241429,59.4733965 122.272857,59.9639942 C122.329429,60.8495384 122.360857,61.7319971 122.373429,62.6206268 L122.401714,63.4105199 L122.373429,64.2127551 C122.367143,64.6262148 122.389143,65.0396744 122.373429,65.4531341 C122.288571,67.5790573 123.982571,69.3717444 126.151143,69.4519679 L126.302,69.4550534 C128.313429,69.4550534 129.950857,67.9431487 130.164571,65.9931001 C130.186571,65.4531341 130.214857,64.9162536 130.224286,64.3762877 C130.233714,63.7344995 130.233714,63.0957969 130.224286,62.4601798 C130.208571,61.4851555 130.174,60.5132167 130.114286,59.5443635 C130.079714,58.9519436 130.032571,58.3595238 129.979143,57.767104 C129.894286,56.7982507 129.784286,55.8355685 129.652286,54.8759718 C129.567429,54.2588678 129.473143,53.6479349 129.369429,53.0370019 C129.218571,52.1329446 129.045714,51.2350583 128.854,50.3402575 C128.709429,49.6645287 128.555429,48.9918853 128.388857,48.3223275 C128.187714,47.5200923 127.967714,46.7178571 127.735143,45.921793 C127.515143,45.1720117 127.282571,44.4222303 127.034286,43.67862 C126.801714,42.9812925 126.553429,42.2870505 126.295714,41.5958941 C125.990857,40.7813168 125.667143,39.9698251 125.327714,39.1675899 C125.066857,38.5535714 124.799714,37.945724 124.52,37.3378766 C124.130286,36.4986152 123.724857,35.6655248 123.297429,34.8386054 C123.002,34.2677843 122.700286,33.7031341 122.386,33.138484 C121.936571,32.3269922 121.465143,31.524757 120.974857,30.7286929 C120.616571,30.1424441 120.245714,29.5623664 119.868571,28.9884597 C119.582571,28.5595724 119.284,28.1399417 118.991714,27.720311 C117.734571,26.1250972 115.434,25.7116375 113.708571,26.8625364" id="Fill-16" fill="#54B36C" sketch:type="MSShapeGroup"></path>
        </g>
    </g>
</svg>