<?xml version="1.0" encoding="UTF-8" standalone="no"?>
<svg width="270px" height="164px" viewBox="0 0 270 164" version="1.1" xmlns="http://www.w3.org/2000/svg" xmlns:xlink="http://www.w3.org/1999/xlink" xmlns:sketch="http://www.bohemiancoding.com/sketch/ns">
    <!-- Generator: Sketch 3.3.2 (12043) - http://www.bohemiancoding.com/sketch -->
    <title>volunteer-img-mobile</title>
    <desc>Created with Sketch.</desc>
    <defs>
        <rect id="path-1" x="0" y="0" width="298" height="168"></rect>
    </defs>
    <g id="Page-1" stroke="none" stroke-width="1" fill="none" fill-rule="evenodd" sketch:type="MSPage">
        <g id="volunteer-img-mobile" sketch:type="MSLayerGroup" transform="translate(-11.000000, -4.000000)">
            <mask id="mask-2" sketch:name="Mask" fill="white">
                <use xlink:href="#path-1"></use>
            </mask>
            <use id="Mask" sketch:type="MSShapeGroup" xlink:href="#path-1"></use>
            <g id="插圖" mask="url(#mask-2)">
                <g transform="translate(11.000000, 4.000000)">
                    <g id="Path-1492-+-Path-1492-+-Path-1492" stroke-width="1" fill="none" sketch:type="MSLayerGroup" transform="translate(0.041209, 46.105590)">
                        <path d="M191.334962,84.250064 C189.331754,81.3871614 184.103183,75.4946184 184.103183,75.4946184 L171.534839,59.221808 C171.534839,59.221808 167.844291,52.6208144 171.931845,50.3194885 C176.019399,48.0181627 179.54171,51.5749493 179.54171,51.5749493 C179.54171,51.5749493 185.35793,59.5700075 186.126127,60.2397834 C186.894323,60.9095592 188.275386,59.6790306 188.275386,57.0806368 C188.275386,54.482243 187.984753,26.5101048 187.984753,26.5101048 C187.984753,26.5101048 187.524993,19.3686419 192.63043,19.3686419 C197.735867,19.3686419 197.144364,26.7188552 197.144364,26.7188552 L197.478614,44.2543159 C197.478614,44.2543159 197.301921,47.0855468 198.859677,47.0855468 C200.417434,47.0855468 200.501553,44.9405725 200.501553,44.9405725 L200.586117,17.8989373 C200.586117,17.8989373 199.99029,13.8314129 204.870234,13.8314131 C209.750179,13.8314133 209.750179,17.9961288 209.750179,17.9961288 L210.311862,44.3007988 C210.311862,44.3007988 209.881476,46.9401823 211.63373,46.9680718 C213.385983,46.9959614 213.411798,44.5340584 213.411798,44.5340584 L213.385984,22.5839905 C213.385984,22.5839905 213.221306,16.6303766 218.090855,17.3132526 C222.960403,17.9961286 222.428095,23.3619451 222.428095,23.3619451 L222.428095,46.9959616 C222.428095,46.9959616 222.137908,49.3982823 223.944906,49.8588853 C225.751903,50.3194883 225.917026,47.8258925 225.917026,47.8258925 L226.06034,29.9658967 C226.06034,29.9658967 226.137334,26.4053072 230.456775,26.405307 C234.776216,26.4053068 234.776216,31.4875774 234.776216,31.4875774 L234.303103,74.1005598 C234.303103,74.1005598 233.633204,82.3785152 228.539341,86.2136907 C223.445477,90.0488662 223.944906,100.013263 223.944906,100.013263 L226.060339,162.996513 L194.518956,163.932562 C194.518956,163.932562 193.922951,97.7521103 193.570769,92.1991935 C193.413889,89.725635 192.944081,86.5497499 191.334962,84.250064 Z" id="Path-1492" fill="#55B36C" sketch:type="MSShapeGroup" transform="translate(202.391202, 88.881988) scale(-1, 1) rotate(4.000000) translate(-202.391202, -88.881988) "></path>
                        <path d="M22.2845789,73.4616675 C20.2066449,70.4919705 14.7830336,64.3796191 14.7830336,64.3796191 L1.74585543,47.4997868 C1.74585543,47.4997868 -2.08236131,40.6525575 2.15767035,38.2653857 C6.39770201,35.8782139 10.0514053,39.5676787 10.0514053,39.5676787 C10.0514053,39.5676787 16.0845865,47.8609752 16.8814388,48.5557356 C17.6782912,49.250496 19.1108722,47.9740652 19.1108719,45.2787439 C19.1108715,42.5834227 18.8093975,13.5678447 18.8093975,13.5678447 C18.8093975,13.5678447 18.3324866,6.15998506 23.6283707,6.15998506 C28.9242549,6.15998506 28.3106879,13.7843821 28.3106879,13.7843821 L28.6574066,31.973965 C28.6574066,31.973965 28.4741215,34.9108088 30.0899869,34.9108088 C31.7058523,34.9108088 31.7931094,32.6858209 31.7931094,32.6858209 L31.8808278,4.63545631 C31.8808278,4.63545631 31.2627744,0.416201765 36.3247546,0.416201987 C41.3867347,0.416202209 41.3867351,4.73627334 41.3867351,4.73627334 L41.9693701,32.0221819 C41.9693701,32.0221819 41.5229298,34.7600218 43.3405475,34.7889517 C45.1581653,34.8178816 45.1849429,32.2641427 45.1849429,32.2641427 L45.1581657,9.49527523 C45.1581657,9.49527523 44.9873453,3.31957477 50.0385415,4.02792395 C55.0897378,4.73627313 54.5375737,10.3022498 54.5375737,10.3022498 L54.5375737,34.8178818 C54.5375737,34.8178818 54.2365613,37.3098159 56.1109652,37.7876007 C57.9853691,38.2653855 58.1566512,35.6787715 58.1566512,35.6787715 L58.3053109,17.1525474 C58.3053109,17.1525474 58.3851775,13.4591378 62.8657456,13.4591376 C67.3463137,13.4591374 67.3463137,18.7309911 67.3463137,18.7309911 L66.8555522,62.9335581 C66.8555522,62.9335581 66.1606644,71.5203046 60.8767856,75.498543 C55.5929068,79.4767814 56.1109656,89.8128782 56.1109656,89.8128782 L58.30531,155.145581 L25.587344,156.116548 C25.587344,156.116548 24.9691068,87.4673783 24.6037878,81.7073219 C24.4410557,79.1414928 23.9537224,75.8471381 22.2845789,73.4616675 Z" id="Path-1492" fill-opacity="0.0683027627" fill="#000000" sketch:type="MSShapeGroup" transform="translate(33.753248, 78.266375) scale(-1, 1) translate(-33.753248, -78.266375) "></path>
                        <path d="M75.170149,84.5256055 C73.2861062,81.8330097 68.3685697,76.2909992 68.3685697,76.2909992 L56.5478853,60.9862171 C56.5478853,60.9862171 53.0768779,54.7778999 56.9212739,52.6134741 C60.76567,50.4490483 64.0784477,53.7942507 64.0784477,53.7942507 C64.0784477,53.7942507 69.5486753,61.3137031 70.2711737,61.9436357 C70.993672,62.5735683 72.2925795,61.4162407 72.2925792,58.9724188 C72.2925789,56.5285969 72.0192353,30.2204504 72.0192353,30.2204504 C72.0192353,30.2204504 71.5868247,23.5038151 76.3885522,23.5038151 C81.1902796,23.5038151 80.6339643,30.4167828 80.6339643,30.4167828 L80.9483307,46.9091033 C80.9483307,46.9091033 80.7821479,49.5719114 82.2472376,49.5719114 C83.7123273,49.5719114 83.7914424,47.5545362 83.7914424,47.5545362 L83.8709759,22.1215395 C83.8709759,22.1215395 83.3105927,18.2959819 87.9002417,18.2959821 C92.4898906,18.2959823 92.4898909,22.2129493 92.4898909,22.2129493 L93.0181604,46.9528211 C93.0181604,46.9528211 92.6133773,49.4351943 94.2613939,49.4614247 C95.9094105,49.4876552 95.9336895,47.1722046 95.9336895,47.1722046 L95.9094108,26.5278907 C95.9094108,26.5278907 95.7545296,20.9284423 100.334401,21.5706957 C104.914272,22.2129492 104.41363,27.2595668 104.41363,27.2595668 L104.41363,49.4876554 C104.41363,49.4876554 104.140705,51.7470681 105.840209,52.180271 C107.539713,52.6134739 107.695013,50.2682158 107.695013,50.2682158 L107.829801,33.470666 C107.829801,33.470666 107.902216,30.121887 111.964704,30.1218868 C116.027192,30.1218866 116.027192,34.9018258 116.027192,34.9018258 L115.582223,74.9798695 C115.582223,74.9798695 114.952175,82.7653903 110.161333,86.3724209 C105.370491,89.9794515 105.84021,99.3510915 105.84021,99.3510915 L107.829801,158.587627 L78.1647345,159.467993 C78.1647345,159.467993 77.6041847,97.2244492 77.2729535,92.0018613 C77.1254058,89.6754486 76.6835454,86.6884888 75.170149,84.5256055 Z" id="Path-1492" fill="#50B584" sketch:type="MSShapeGroup"></path>
                        <path d="M124.307119,87.4471619 C122.899082,84.8060734 119.086528,79.2702837 119.086528,79.2702837 L110.105396,64.1515649 C110.105396,64.1515649 107.62675,58.1458026 111.208243,56.5371316 C114.789736,54.9284605 117.394037,58.3029747 117.394037,58.3029747 C117.394037,58.3029747 121.509801,65.6986239 122.087001,66.3435468 C122.6642,66.9884697 123.913687,66.0556769 124.139728,63.8227286 C124.365769,61.5897804 126.558725,37.5254884 126.558725,37.5254884 C126.558725,37.5254884 126.799658,31.3469182 131.022962,31.8077937 C135.246267,32.2686692 134.117551,38.5317315 134.117551,38.5317315 L132.868591,53.6311278 C132.868591,53.6311278 132.476131,56.0482157 133.764733,56.1888368 C135.053336,56.3294578 135.309518,54.4937525 135.309518,54.4937525 L137.731896,31.2629645 C137.731896,31.2629645 137.592863,27.7137222 141.629636,28.1542423 C145.666409,28.5947625 145.304109,32.1737404 145.304109,32.1737404 L143.480428,54.8295498 C143.480428,54.8295498 142.894798,57.0588712 144.341866,57.2410168 C145.788934,57.4231625 146.024456,55.309839 146.024456,55.309839 L147.912598,36.4445616 C147.912598,36.4445616 148.294295,31.3134155 152.263063,32.3398313 C156.231831,33.3662471 155.32471,37.9293475 155.32471,37.9293475 L153.268723,58.2394078 C153.268723,58.2394078 152.819691,60.2776635 154.274401,60.8366064 C155.729111,61.3955493 156.082628,59.2675659 156.082628,59.2675659 L157.754869,43.9323885 C157.754869,43.9323885 158.128306,40.879521 161.701421,41.2694432 C165.274535,41.6593655 164.832415,46.026851 164.832415,46.026851 L160.734029,82.603912 C160.734029,82.603912 158.331859,88.9917057 155.101087,92.7298859 C151.870315,96.4680661 151.784109,102.914522 151.784109,102.914522 L150.274226,154.152917 L126.602661,156.116548 C126.602661,156.116548 125.273368,99.2838631 125.4651,94.4801325 C125.550508,92.3403006 125.438154,89.5686708 124.307119,87.4471619 L124.307119,87.4471619 Z" id="Path-1492" fill="#89C693" sketch:type="MSShapeGroup"></path>
                    </g>
                    <g id="Group" stroke-width="1" fill="none" sketch:type="MSLayerGroup" transform="translate(34.000000, 118.993789)">
                        <rect id="Rectangle-301" fill="#89C693" sketch:type="MSShapeGroup" x="0" y="0" width="30.7252747" height="78.0496894" rx="17"></rect>
                        <ellipse id="Oval-52" fill="#55B36C" sketch:type="MSShapeGroup" cx="15.3626374" cy="19.5818008" rx="6.7076304" ry="6.68381318"></ellipse>
                        <ellipse id="Oval-52" fill="#55B36C" sketch:type="MSShapeGroup" cx="8.65500696" cy="10.2029017" rx="2.70468968" ry="2.69508596"></ellipse>
                        <ellipse id="Oval-52" fill="#55B36C" sketch:type="MSShapeGroup" cx="15.3626374" cy="7.5078157" rx="2.70468968" ry="2.69508596"></ellipse>
                        <ellipse id="Oval-52" fill="#55B36C" sketch:type="MSShapeGroup" cx="22.0702678" cy="10.2029017" rx="2.70468968" ry="2.69508596"></ellipse>
                    </g>
                    <g id="Group" stroke-width="1" fill="none" sketch:type="MSLayerGroup" transform="translate(143.818681, 0.000000)">
                        <path d="M13.3920234,36.8043701 L7.01213485,4.03563342 C6.66911377,2.27378954 4.96278357,1.12360641 3.20093969,1.46662749 C1.43909581,1.80964858 0.288912682,3.51597878 0.631933769,5.27782266 L7.01182236,38.0465593 C7.35484345,39.8084032 9.06117365,40.9585863 10.8230175,40.6155653 C12.5848614,40.2725442 13.7350445,38.566214 13.3920234,36.8043701 L13.3920234,36.8043701 Z" id="Shape" fill="#88C8AB" sketch:type="MSShapeGroup"></path>
                        <path d="M121.513168,72.7375644 L93.6385039,82.3338375 C91.9413359,82.9181131 91.0391584,84.7675886 91.623434,86.4647567 C92.2077097,88.1619247 94.0571852,89.0641022 95.7543532,88.4798266 L123.629018,78.8835535 C125.326186,78.2992779 126.228363,76.4498024 125.644088,74.7526343 C125.059812,73.0554663 123.210336,72.1532888 121.513168,72.7375644 L121.513168,72.7375644 Z" id="Shape" fill="#88C8AB" sketch:type="MSShapeGroup"></path>
                        <path d="M53.6416376,34.5213161 L61.3229561,8.93125491 C61.8389891,7.21210768 60.8636724,5.40013604 59.1445252,4.88410299 C57.4253779,4.36806993 55.6134063,5.34338668 55.0973732,7.06253391 L47.4160547,32.6525951 C46.9000217,34.3717424 47.8753384,36.183714 49.5944857,36.6997471 C51.3136329,37.2157801 53.1256045,36.2404634 53.6416376,34.5213161 L53.6416376,34.5213161 Z" id="Shape" fill="#53B375" sketch:type="MSShapeGroup"></path>
                        <path d="M116.773144,13.9660229 L77.2680593,51.7853005 C75.9714926,53.0265386 75.9266399,55.0838359 77.167878,56.3804026 C78.4091161,57.6769694 80.4664134,57.7218221 81.7629801,56.480584 L121.268065,18.6613063 C122.564632,17.4200682 122.609485,15.3627709 121.368247,14.0662042 C120.127008,12.7696375 118.069711,12.7247848 116.773144,13.9660229 L116.773144,13.9660229 Z" id="Shape" fill="#89C693" sketch:type="MSShapeGroup"></path>
                        <ellipse id="Oval-13" fill="#53B375" sketch:type="MSShapeGroup" cx="119.361869" cy="16.2281533" rx="3.5293726" ry="3.52739684"></ellipse>
                        <ellipse id="Oval-13" fill="#E7E879" sketch:type="MSShapeGroup" cx="3.50197937" cy="3.51369674" rx="3.48825601" ry="3.48630326"></ellipse>
                    </g>
                    <ellipse id="Oval-13" fill="#E7E879" sketch:type="MSShapeGroup" cx="125.401234" cy="47.1561443" rx="6.21552445" ry="6.21204497"></ellipse>
                    <ellipse id="Oval-13" fill="#E7E879" sketch:type="MSShapeGroup" cx="231.886743" cy="131.334539" rx="8.86875124" ry="8.86378646"></ellipse>
                    <ellipse id="Oval-13" fill="#89C693" sketch:type="MSShapeGroup" cx="95.290522" cy="32.1985809" rx="3.68063187" ry="3.67857143"></ellipse>
                    <ellipse id="Oval-13" fill="#53B475" sketch:type="MSShapeGroup" cx="241.875687" cy="65.4656616" rx="3.68063187" ry="3.67857143"></ellipse>
                </g>
            </g>
        </g>
    </g>
</svg>