<?xml version="1.0" encoding="UTF-8" standalone="no"?>
<svg width="370px" height="252px" viewBox="0 0 370 252" version="1.1" xmlns="http://www.w3.org/2000/svg" xmlns:xlink="http://www.w3.org/1999/xlink" xmlns:sketch="http://www.bohemiancoding.com/sketch/ns">
    <!-- Generator: Sketch 3.3.2 (12043) - http://www.bohemiancoding.com/sketch -->
    <title>volunteer-img</title>
    <desc>Created with Sketch.</desc>
    <defs>
        <rect id="path-1" x="0" y="0" width="391" height="258"></rect>
    </defs>
    <g id="Page-1" stroke="none" stroke-width="1" fill="none" fill-rule="evenodd" sketch:type="MSPage">
        <g id="volunteer-img" sketch:type="MSLayerGroup" transform="translate(-12.000000, -6.000000)">
            <mask id="mask-2" sketch:name="Mask" fill="white">
                <use xlink:href="#path-1"></use>
            </mask>
            <use id="Mask" sketch:type="MSShapeGroup" xlink:href="#path-1"></use>
            <g id="Path-1492-+-Path-1492-+-Path-1492" mask="url(#mask-2)" sketch:type="MSShapeGroup">
                <g transform="translate(23.000000, 64.000000)" id="Path-1492">
                    <path d="M218.732347,138.781211 C215.602871,134.306188 207.434632,125.095514 207.434632,125.095514 L187.799966,99.6593736 C187.799966,99.6593736 182.034474,89.3413156 188.420181,85.7440976 C194.805888,82.1468795 200.308554,87.7065167 200.308554,87.7065167 C200.308554,87.7065167 209.394838,100.203647 210.594939,101.250578 C211.795039,102.297509 213.952581,100.374061 213.95258,96.3124944 C213.95258,92.2509274 213.498544,48.527488 213.498544,48.527488 C213.498544,48.527488 212.780292,37.3646188 220.756167,37.3646188 C228.732043,37.3646188 227.807979,48.8537873 227.807979,48.8537873 L228.330156,76.263585 C228.330156,76.263585 228.054119,80.6891012 230.487696,80.6891012 C232.921273,80.6891012 233.052686,77.3362773 233.052686,77.3362773 L233.184795,35.0673136 C233.184795,35.0673136 232.253974,28.7093385 239.877579,28.7093389 C247.501183,28.7093392 247.501183,35.2192343 247.501183,35.2192343 L248.378662,76.3362428 C248.378662,76.3362428 247.7063,80.461881 250.443726,80.5054753 C253.181153,80.5490697 253.221481,76.7008525 253.221481,76.7008525 L253.181153,42.3905521 C253.181153,42.3905521 252.923889,33.0844178 260.531252,34.1518259 C268.138615,35.219234 267.307027,43.6065782 267.307027,43.6065782 L267.307027,80.54907 C267.307027,80.54907 266.853687,84.3041538 269.676636,85.0241255 C272.499586,85.7440972 272.757545,81.8463407 272.757545,81.8463407 L272.981434,53.9292599 C272.981434,53.9292599 273.101718,48.3636782 279.849685,48.3636779 C286.597653,48.3636775 286.597653,56.3078094 286.597653,56.3078094 L285.858541,122.916452 C285.858541,122.916452 284.812004,135.85578 276.854209,141.850569 C268.896414,147.845358 269.676637,163.420774 269.676637,163.420774 L272.981433,261.87032 L223.706482,263.333465 C223.706482,263.333465 222.775385,159.886351 222.225196,151.206549 C221.980113,147.340113 221.246164,142.375865 218.732347,138.781211 Z" fill="#55B36C" transform="translate(236.004757, 146.021402) scale(-1, 1) translate(-236.004757, -146.021402) "></path>
                    <path d="M34.8136769,114.177864 C31.5674624,109.53591 23.0945245,99.9816519 23.0945245,99.9816519 L2.7274308,73.5966714 C2.7274308,73.5966714 -3.25313097,62.8937208 3.37078115,59.1623163 C9.99469327,55.4309118 15.7026245,61.1979393 15.7026245,61.1979393 C15.7026245,61.1979393 25.1278519,74.1612474 26.3727199,75.2472321 C27.6175879,76.3332168 29.8556114,74.3380192 29.855611,70.1249442 C29.8556105,65.9118693 29.3846381,20.5574221 29.3846381,20.5574221 C29.3846381,20.5574221 28.6395927,8.97814636 36.9129912,8.97814636 C45.1863897,8.97814636 44.2278558,20.8958932 44.2278558,20.8958932 L44.7695107,49.3281539 C44.7695107,49.3281539 44.483177,53.9187543 47.0075332,53.9187543 C49.5318895,53.9187543 49.6682053,50.4408606 49.6682053,50.4408606 L49.8052418,6.59514511 C49.8052418,6.59514511 48.839699,-3.46713814e-07 56.7476852,-4.985226e-15 C64.6556714,3.46713804e-07 64.6556719,6.75273289 64.6556719,6.75273289 L65.5658828,49.403522 C65.5658828,49.403522 64.8684396,53.6830582 67.7079799,53.7282787 C70.5475201,53.7734992 70.5893528,49.7817326 70.5893528,49.7817326 L70.5475206,14.1915611 C70.5475206,14.1915611 70.2806595,4.53828173 78.1717987,5.64550715 C86.062938,6.75273257 85.2003297,15.4529485 85.2003297,15.4529485 L85.2003297,53.7734995 C85.2003297,53.7734995 84.7300786,57.6686586 87.6583319,58.4154873 C90.5865853,59.162316 90.8541676,55.1191621 90.8541676,55.1191621 L91.0864084,26.1606953 C91.0864084,26.1606953 91.2111786,20.3875017 98.2108644,20.3875014 C105.21055,20.387501 105.21055,28.6279714 105.21055,28.6279714 L104.443867,97.7213042 C104.443867,97.7213042 103.358291,111.143306 95.1036479,117.361718 C86.8490046,123.580129 87.6583325,139.736552 87.6583325,139.736552 L91.0864071,241.858544 L39.9733615,243.376269 C39.9733615,243.376269 39.0075317,136.070285 38.4368187,127.066702 C38.1825934,123.056037 37.4212659,117.906609 34.8136769,114.177864 Z" fill-opacity="0.0683027627" fill="#000000" transform="translate(52.730396, 121.688134) scale(-1, 1) translate(-52.730396, -121.688134) "></path>
                    <path d="M62.7550826,146.19051 C59.811771,141.981695 52.1294394,133.31894 52.1294394,133.31894 L33.6627908,109.395932 C33.6627908,109.395932 28.2402727,99.6916688 34.2461104,96.3084401 C40.251948,92.9252115 45.4272745,98.15412 45.4272745,98.15412 C45.4272745,98.15412 53.9730378,109.907827 55.1017477,110.892479 C56.2304576,111.877131 58.2596521,110.068104 58.2596517,106.24815 C58.2596512,102.428195 57.8326251,61.3057526 57.8326251,61.3057526 C57.8326251,61.3057526 57.1570996,50.8069343 64.6585107,50.8069343 C72.1599218,50.8069343 71.2908283,61.6126412 71.2908283,61.6126412 L71.7819416,87.3918993 C71.7819416,87.3918993 71.5223255,91.5541528 73.8111352,91.5541528 C76.0999448,91.5541528 76.223541,88.4007799 76.223541,88.4007799 L76.3477907,48.6462899 C76.3477907,48.6462899 75.4723423,42.6665348 82.6424376,42.6665351 C89.8125329,42.6665354 89.8125334,48.7891732 89.8125334,48.7891732 L90.6378129,87.4602349 C90.6378129,87.4602349 90.0054478,91.3404493 92.5800317,91.3814503 C95.1546156,91.4224513 95.1925449,87.8031548 95.1925449,87.8031548 L95.1546161,55.5338875 C95.1546161,55.5338875 94.9126557,46.7813516 102.067476,47.7852623 C109.222296,48.789173 108.440178,56.6775753 108.440178,56.6775753 L108.440178,91.4224516 C108.440178,91.4224516 108.013805,94.954155 110.668825,95.6312974 C113.323844,96.3084398 113.566458,92.642551 113.566458,92.642551 L113.777029,66.3861867 C113.777029,66.3861867 113.890157,61.1516874 120.236705,61.1516871 C126.583253,61.1516868 126.583253,68.6232423 126.583253,68.6232423 L125.888108,131.269505 C125.888108,131.269505 124.903827,143.439105 117.419421,149.077279 C109.935015,154.715453 110.668825,169.364327 110.668825,169.364327 L113.777028,261.957359 L67.4333191,263.333465 C67.4333191,263.333465 66.5576105,166.040158 66.0401505,157.876696 C65.8096468,154.240264 65.1193585,149.571327 62.7550826,146.19051 Z" fill="#50B584"></path>
                    <path d="M129.241538,152.470719 C126.556101,148.630654 119.546847,140.726876 119.546847,140.726876 L102.698132,118.899853 C102.698132,118.899853 97.7507009,110.045817 103.230344,106.959006 C108.709988,103.872195 113.431884,108.642979 113.431884,108.642979 C113.431884,108.642979 121.228921,119.366899 122.25874,120.265282 C123.28856,121.163665 125.139969,119.513134 125.139968,116.02786 C125.139968,112.542586 124.750355,75.0230366 124.750355,75.0230366 C124.750355,75.0230366 124.134015,65.4440595 130.978199,65.4440595 C137.822383,65.4440595 137.029434,75.3030374 137.029434,75.3030374 L137.477519,98.8236772 C137.477519,98.8236772 137.240649,102.62126 139.328928,102.62126 C141.417206,102.62126 141.529973,99.7441659 141.529973,99.7441659 L141.643337,63.4727173 C141.643337,63.4727173 140.84459,58.0168711 147.386486,58.0168714 C153.928382,58.0168717 153.928383,63.6030821 153.928383,63.6030821 L154.681356,98.8860256 C154.681356,98.8860256 154.104395,102.42628 156.45341,102.463689 C158.802425,102.501097 158.837031,99.1989011 158.837031,99.1989011 L158.802425,69.7568664 C158.802425,69.7568664 158.581664,61.7711733 165.109623,62.6871276 C171.637583,63.6030818 170.923989,70.8003514 170.923989,70.8003514 L170.923989,102.501098 C170.923989,102.501098 170.534972,105.723375 172.957375,106.34119 C175.379778,106.959006 175.601136,103.614299 175.601136,103.614299 L175.793258,79.6583546 C175.793258,79.6583546 175.896474,74.8824696 181.686977,74.8824693 C187.47748,74.8824691 187.47748,81.6994133 187.47748,81.6994133 L186.84324,138.857 C186.84324,138.857 184.02935,149.123073 179.457398,155.438304 C174.885445,161.753535 175.793259,171.720004 175.793259,171.720004 L181.686974,251.075465 L144.063175,258.094798 C144.063175,258.094798 132.710912,170.581265 132.238788,163.133034 C132.02848,159.815204 131.39867,155.55533 129.241538,152.470719 Z" fill="#89C693" transform="translate(144.063176, 158.055835) rotate(6.000000) translate(-144.063176, -158.055835) "></path>
                </g>
            </g>
            <g id="Group" mask="url(#mask-2)" sketch:type="MSShapeGroup">
                <g transform="translate(12.000000, 192.000000)">
                    <rect id="Rectangle-301" fill="#89C693" x="0" y="0" width="48" height="122" rx="34"></rect>
                    <ellipse id="Oval-52" fill="#55B36C" cx="24" cy="30.6084459" rx="10.4788732" ry="10.4475138"></ellipse>
                    <ellipse id="Oval-52" fill="#55B36C" cx="13.5211268" cy="15.9482249" rx="4.22535211" ry="4.21270718"></ellipse>
                    <ellipse id="Oval-52" fill="#55B36C" cx="24" cy="11.7355178" rx="4.22535211" ry="4.21270718"></ellipse>
                    <ellipse id="Oval-52" fill="#55B36C" cx="34.4788732" cy="15.9482249" rx="4.22535211" ry="4.21270718"></ellipse>
                </g>
            </g>
            <g id="Group" mask="url(#mask-2)" sketch:type="MSShapeGroup">
                <g transform="translate(182.000000, 6.000000)">
                    <path d="M23.8803312,57.258479 L13.9134666,6.03744401 C13.2277945,2.51368423 9.8153757,0.212959607 6.29161592,0.898631746 C2.76785613,1.58430388 0.467131513,4.99672269 1.15280365,8.52048247 L11.1196682,59.7415175 C11.8053404,63.2652773 15.2177592,65.5660019 18.741519,64.8803297 C22.2652787,64.1946576 24.5660034,60.7822388 23.8803312,57.258479 L23.8803312,57.258479 Z" id="Shape" fill="#88C8AB"></path>
                    <path d="M190.929777,112.354376 L147.383091,127.354375 C143.988957,128.523512 142.185239,132.222774 143.354376,135.616908 C144.523512,139.011043 148.222774,140.81476 151.616909,139.645624 L195.163595,124.645624 C198.557729,123.476488 200.361447,119.777226 199.19231,116.383091 C198.023174,112.988957 194.323912,111.185239 190.929777,112.354376 L190.929777,112.354376 Z" id="Shape" fill="#88C8AB"></path>
                    <path d="M86.7258708,54.3677599 L98.7258706,14.3677613 C99.7574067,10.9293078 97.8062145,7.30566523 94.367761,6.27412916 C90.9293075,5.24259309 87.305665,7.1937852 86.2741289,10.6322387 L74.2741292,50.6322373 C73.2425931,54.0706908 75.1937852,57.6943334 78.6322387,58.7258694 C82.0706922,59.7574055 85.6943348,57.8062134 86.7258708,54.3677599 L86.7258708,54.3677599 Z" id="Shape" fill="#53B375"></path>
                    <path d="M183.003767,20.805974 L121.287668,79.9215439 C118.695229,82.4047454 118.606675,86.5193649 121.089876,89.1118039 C123.573078,91.7042428 127.687697,91.7927973 130.280136,89.3095959 L191.996235,30.194026 C194.588674,27.7108245 194.677228,23.596205 192.194027,21.003766 C189.710825,18.411327 185.596206,18.3227726 183.003767,20.805974 L183.003767,20.805974 Z" id="Shape" fill="#89C693"></path>
                    <ellipse id="Oval-13" fill="#53B375" cx="186.843676" cy="26.1747468" rx="6.7361443" ry="6.7361443"></ellipse>
                    <ellipse id="Oval-13" fill="#E7E879" cx="7.03313515" cy="6.77896324" rx="6.7361443" ry="6.7361443"></ellipse>
                </g>
            </g>
            <ellipse id="Oval-13" fill="#E7E879" sketch:type="MSShapeGroup" mask="url(#mask-2)" cx="154.78991" cy="79.7100897" rx="9.71008971" ry="9.71008971"></ellipse>
            <ellipse id="Oval-13" fill="#E7E879" sketch:type="MSShapeGroup" mask="url(#mask-2)" cx="321.144955" cy="211.28991" rx="13.8550449" ry="13.8550449"></ellipse>
            <ellipse id="Oval-13" fill="#89C693" sketch:type="MSShapeGroup" mask="url(#mask-2)" cx="107.75" cy="56.3298206" rx="5.75" ry="5.75"></ellipse>
            <ellipse id="Oval-13" fill="#53B475" sketch:type="MSShapeGroup" mask="url(#mask-2)" cx="336.75" cy="108.329821" rx="5.75" ry="5.75"></ellipse>
        </g>
    </g>
</svg>