<?xml version="1.0" encoding="UTF-8" standalone="no"?>
<svg width="488px" height="290px" viewBox="0 0 488 290" version="1.1" xmlns="http://www.w3.org/2000/svg" xmlns:xlink="http://www.w3.org/1999/xlink" xmlns:sketch="http://www.bohemiancoding.com/sketch/ns">
    <!-- Generator: Sketch 3.3.2 (12043) - http://www.bohemiancoding.com/sketch -->
    <title>volunteer-img-thanks</title>
    <desc>Created with Sketch.</desc>
    <defs>
        <rect id="path-1" x="0" y="0" width="414" height="303"></rect>
    </defs>
    <g id="Page-1" stroke="none" stroke-width="1" fill="none" fill-rule="evenodd" sketch:type="MSPage">
        <g id="volunteer-img-thanks" sketch:type="MSLayerGroup" transform="translate(0.000000, -13.000000)">
            <g id="插圖-+-Oval-202-+-Rectangle-367-+-Rectangle-367" transform="translate(86.000000, 0.000000)">
                <mask id="mask-2" sketch:name="Mask" fill="white">
                    <use xlink:href="#path-1"></use>
                </mask>
                <use id="Mask" sketch:type="MSShapeGroup" xlink:href="#path-1"></use>
                <g id="Path-1492-+-Path-1492-+-Path-1492" mask="url(#mask-2)" sketch:type="MSShapeGroup">
                    <g transform="translate(42.000000, 71.000000)" id="Path-1492">
                        <path d="M218.732347,138.781211 C215.602871,134.306188 207.434632,125.095514 207.434632,125.095514 L187.799966,99.6593736 C187.799966,99.6593736 182.034474,89.3413156 188.420181,85.7440976 C194.805888,82.1468795 200.308554,87.7065167 200.308554,87.7065167 C200.308554,87.7065167 209.394838,100.203647 210.594939,101.250578 C211.795039,102.297509 213.952581,100.374061 213.95258,96.3124944 C213.95258,92.2509274 213.498544,48.527488 213.498544,48.527488 C213.498544,48.527488 212.780292,37.3646188 220.756167,37.3646188 C228.732043,37.3646188 227.807979,48.8537873 227.807979,48.8537873 L228.330156,76.263585 C228.330156,76.263585 228.054119,80.6891012 230.487696,80.6891012 C232.921273,80.6891012 233.052686,77.3362773 233.052686,77.3362773 L233.184795,35.0673136 C233.184795,35.0673136 232.253974,28.7093385 239.877579,28.7093389 C247.501183,28.7093392 247.501183,35.2192343 247.501183,35.2192343 L248.378662,76.3362428 C248.378662,76.3362428 247.7063,80.461881 250.443726,80.5054753 C253.181153,80.5490697 253.221481,76.7008525 253.221481,76.7008525 L253.181153,42.3905521 C253.181153,42.3905521 252.923889,33.0844178 260.531252,34.1518259 C268.138615,35.219234 267.307027,43.6065782 267.307027,43.6065782 L267.307027,80.54907 C267.307027,80.54907 266.853687,84.3041538 269.676636,85.0241255 C272.499586,85.7440972 272.757545,81.8463407 272.757545,81.8463407 L272.981434,53.9292599 C272.981434,53.9292599 273.101718,48.3636782 279.849685,48.3636779 C286.597653,48.3636775 286.597653,56.3078094 286.597653,56.3078094 L285.858541,122.916452 C285.858541,122.916452 284.812004,135.85578 276.854209,141.850569 C268.896414,147.845358 269.676637,163.420774 269.676637,163.420774 L272.981433,261.87032 L223.706482,263.333465 C223.706482,263.333465 222.775385,159.886351 222.225196,151.206549 C221.980113,147.340113 221.246164,142.375865 218.732347,138.781211 Z" fill="#55B36C" transform="translate(236.004757, 146.021402) scale(-1, 1) translate(-236.004757, -146.021402) "></path>
                        <path d="M34.8136769,114.177864 C31.5674624,109.53591 23.0945245,99.9816519 23.0945245,99.9816519 L2.7274308,73.5966714 C2.7274308,73.5966714 -3.25313097,62.8937208 3.37078115,59.1623163 C9.99469327,55.4309118 15.7026245,61.1979393 15.7026245,61.1979393 C15.7026245,61.1979393 25.1278519,74.1612474 26.3727199,75.2472321 C27.6175879,76.3332168 29.8556114,74.3380192 29.855611,70.1249442 C29.8556105,65.9118693 29.3846381,20.5574221 29.3846381,20.5574221 C29.3846381,20.5574221 28.6395927,8.97814636 36.9129912,8.97814636 C45.1863897,8.97814636 44.2278558,20.8958932 44.2278558,20.8958932 L44.7695107,49.3281539 C44.7695107,49.3281539 44.483177,53.9187543 47.0075332,53.9187543 C49.5318895,53.9187543 49.6682053,50.4408606 49.6682053,50.4408606 L49.8052418,6.59514511 C49.8052418,6.59514511 48.839699,-3.46713814e-07 56.7476852,-4.985226e-15 C64.6556714,3.46713804e-07 64.6556719,6.75273289 64.6556719,6.75273289 L65.5658828,49.403522 C65.5658828,49.403522 64.8684396,53.6830582 67.7079799,53.7282787 C70.5475201,53.7734992 70.5893528,49.7817326 70.5893528,49.7817326 L70.5475206,14.1915611 C70.5475206,14.1915611 70.2806595,4.53828173 78.1717987,5.64550715 C86.062938,6.75273257 85.2003297,15.4529485 85.2003297,15.4529485 L85.2003297,53.7734995 C85.2003297,53.7734995 84.7300786,57.6686586 87.6583319,58.4154873 C90.5865853,59.162316 90.8541676,55.1191621 90.8541676,55.1191621 L91.0864084,26.1606953 C91.0864084,26.1606953 91.2111786,20.3875017 98.2108644,20.3875014 C105.21055,20.387501 105.21055,28.6279714 105.21055,28.6279714 L104.443867,97.7213042 C104.443867,97.7213042 103.358291,111.143306 95.1036479,117.361718 C86.8490046,123.580129 87.6583325,139.736552 87.6583325,139.736552 L91.0864071,241.858544 L39.9733615,243.376269 C39.9733615,243.376269 39.0075317,136.070285 38.4368187,127.066702 C38.1825934,123.056037 37.4212659,117.906609 34.8136769,114.177864 Z" fill-opacity="0.0683027627" fill="#000000" transform="translate(52.730396, 121.688134) scale(-1, 1) translate(-52.730396, -121.688134) "></path>
                        <path d="M62.7550826,146.19051 C59.811771,141.981695 52.1294394,133.31894 52.1294394,133.31894 L33.6627908,109.395932 C33.6627908,109.395932 28.2402727,99.6916688 34.2461104,96.3084401 C40.251948,92.9252115 45.4272745,98.15412 45.4272745,98.15412 C45.4272745,98.15412 53.9730378,109.907827 55.1017477,110.892479 C56.2304576,111.877131 58.2596521,110.068104 58.2596517,106.24815 C58.2596512,102.428195 57.8326251,61.3057526 57.8326251,61.3057526 C57.8326251,61.3057526 57.1570996,50.8069343 64.6585107,50.8069343 C72.1599218,50.8069343 71.2908283,61.6126412 71.2908283,61.6126412 L71.7819416,87.3918993 C71.7819416,87.3918993 71.5223255,91.5541528 73.8111352,91.5541528 C76.0999448,91.5541528 76.223541,88.4007799 76.223541,88.4007799 L76.3477907,48.6462899 C76.3477907,48.6462899 75.4723423,42.6665348 82.6424376,42.6665351 C89.8125329,42.6665354 89.8125334,48.7891732 89.8125334,48.7891732 L90.6378129,87.4602349 C90.6378129,87.4602349 90.0054478,91.3404493 92.5800317,91.3814503 C95.1546156,91.4224513 95.1925449,87.8031548 95.1925449,87.8031548 L95.1546161,55.5338875 C95.1546161,55.5338875 94.9126557,46.7813516 102.067476,47.7852623 C109.222296,48.789173 108.440178,56.6775753 108.440178,56.6775753 L108.440178,91.4224516 C108.440178,91.4224516 108.013805,94.954155 110.668825,95.6312974 C113.323844,96.3084398 113.566458,92.642551 113.566458,92.642551 L113.777029,66.3861867 C113.777029,66.3861867 113.890157,61.1516874 120.236705,61.1516871 C126.583253,61.1516868 126.583253,68.6232423 126.583253,68.6232423 L125.888108,131.269505 C125.888108,131.269505 124.903827,143.439105 117.419421,149.077279 C109.935015,154.715453 110.668825,169.364327 110.668825,169.364327 L113.777028,261.957359 L67.4333191,263.333465 C67.4333191,263.333465 66.5576105,166.040158 66.0401505,157.876696 C65.8096468,154.240264 65.1193585,149.571327 62.7550826,146.19051 Z" fill="#50B584"></path>
                        <path d="M129.241538,152.470719 C126.556101,148.630654 119.546847,140.726876 119.546847,140.726876 L102.698132,118.899853 C102.698132,118.899853 97.7507009,110.045817 103.230344,106.959006 C108.709988,103.872195 113.431884,108.642979 113.431884,108.642979 C113.431884,108.642979 121.228921,119.366899 122.25874,120.265282 C123.28856,121.163665 125.139969,119.513134 125.139968,116.02786 C125.139968,112.542586 124.750355,75.0230366 124.750355,75.0230366 C124.750355,75.0230366 124.134015,65.4440595 130.978199,65.4440595 C137.822383,65.4440595 137.029434,75.3030374 137.029434,75.3030374 L137.477519,98.8236772 C137.477519,98.8236772 137.240649,102.62126 139.328928,102.62126 C141.417206,102.62126 141.529973,99.7441659 141.529973,99.7441659 L141.643337,63.4727173 C141.643337,63.4727173 140.84459,58.0168711 147.386486,58.0168714 C153.928382,58.0168717 153.928383,63.6030821 153.928383,63.6030821 L154.681356,98.8860256 C154.681356,98.8860256 154.104395,102.42628 156.45341,102.463689 C158.802425,102.501097 158.837031,99.1989011 158.837031,99.1989011 L158.802425,69.7568664 C158.802425,69.7568664 158.581664,61.7711733 165.109623,62.6871276 C171.637583,63.6030818 170.923989,70.8003514 170.923989,70.8003514 L170.923989,102.501098 C170.923989,102.501098 170.534972,105.723375 172.957375,106.34119 C175.379778,106.959006 175.601136,103.614299 175.601136,103.614299 L175.793258,79.6583546 C175.793258,79.6583546 175.896474,74.8824696 181.686977,74.8824693 C187.47748,74.8824691 187.47748,81.6994133 187.47748,81.6994133 L186.84324,138.857 C186.84324,138.857 184.02935,149.123073 179.457398,155.438304 C174.885445,161.753535 175.793259,171.720004 175.793259,171.720004 L181.686974,251.075465 L144.063175,258.094798 C144.063175,258.094798 132.710912,170.581265 132.238788,163.133034 C132.02848,159.815204 131.39867,155.55533 129.241538,152.470719 Z" fill="#89C693" transform="translate(144.063176, 158.055835) rotate(6.000000) translate(-144.063176, -158.055835) "></path>
                    </g>
                </g>
                <g id="Group" mask="url(#mask-2)" sketch:type="MSShapeGroup">
                    <g transform="translate(31.000000, 199.000000)">
                        <rect id="Rectangle-301" fill="#89C693" x="0" y="0" width="48" height="122" rx="34"></rect>
                        <ellipse id="Oval-52" fill="#55B36C" cx="24" cy="30.6084459" rx="10.4788732" ry="10.4475138"></ellipse>
                        <ellipse id="Oval-52" fill="#55B36C" cx="13.5211268" cy="15.9482249" rx="4.22535211" ry="4.21270718"></ellipse>
                        <ellipse id="Oval-52" fill="#55B36C" cx="24" cy="11.7355178" rx="4.22535211" ry="4.21270718"></ellipse>
                        <ellipse id="Oval-52" fill="#55B36C" cx="34.4788732" cy="15.9482249" rx="4.22535211" ry="4.21270718"></ellipse>
                    </g>
                </g>
                <g id="Group" mask="url(#mask-2)" sketch:type="MSShapeGroup">
                    <g transform="translate(201.000000, 13.000000)">
                        <path d="M23.8803312,57.258479 L13.9134666,6.03744401 C13.2277945,2.51368423 9.8153757,0.212959607 6.29161592,0.898631746 C2.76785613,1.58430388 0.467131513,4.99672269 1.15280365,8.52048247 L11.1196682,59.7415175 C11.8053404,63.2652773 15.2177592,65.5660019 18.741519,64.8803297 C22.2652787,64.1946576 24.5660034,60.7822388 23.8803312,57.258479 L23.8803312,57.258479 Z" id="Shape" fill="#88C8AB"></path>
                        <path d="M190.929777,112.354376 L147.383091,127.354375 C143.988957,128.523512 142.185239,132.222774 143.354376,135.616908 C144.523512,139.011043 148.222774,140.81476 151.616909,139.645624 L195.163595,124.645624 C198.557729,123.476488 200.361447,119.777226 199.19231,116.383091 C198.023174,112.988957 194.323912,111.185239 190.929777,112.354376 L190.929777,112.354376 Z" id="Shape" fill="#88C8AB"></path>
                        <path d="M86.7258708,54.3677599 L98.7258706,14.3677613 C99.7574067,10.9293078 97.8062145,7.30566523 94.367761,6.27412916 C90.9293075,5.24259309 87.305665,7.1937852 86.2741289,10.6322387 L74.2741292,50.6322373 C73.2425931,54.0706908 75.1937852,57.6943334 78.6322387,58.7258694 C82.0706922,59.7574055 85.6943348,57.8062134 86.7258708,54.3677599 L86.7258708,54.3677599 Z" id="Shape" fill="#53B375"></path>
                        <path d="M183.003767,20.805974 L121.287668,79.9215439 C118.695229,82.4047454 118.606675,86.5193649 121.089876,89.1118039 C123.573078,91.7042428 127.687697,91.7927973 130.280136,89.3095959 L191.996235,30.194026 C194.588674,27.7108245 194.677228,23.596205 192.194027,21.003766 C189.710825,18.411327 185.596206,18.3227726 183.003767,20.805974 L183.003767,20.805974 Z" id="Shape" fill="#89C693"></path>
                        <circle id="Oval-13" fill="#53B375" cx="186.843676" cy="26.1747468" r="6.7361443"></circle>
                        <circle id="Oval-13" fill="#E7E879" cx="7.03313515" cy="6.77896324" r="6.7361443"></circle>
                    </g>
                </g>
                <ellipse id="Oval-13" fill="#E7E879" sketch:type="MSShapeGroup" mask="url(#mask-2)" cx="173.78991" cy="86.7100897" rx="9.71008971" ry="9.71008971"></ellipse>
                <ellipse id="Oval-13" fill="#E7E879" sketch:type="MSShapeGroup" mask="url(#mask-2)" cx="340.144955" cy="218.28991" rx="13.8550449" ry="13.8550449"></ellipse>
                <ellipse id="Oval-13" fill="#89C693" sketch:type="MSShapeGroup" mask="url(#mask-2)" cx="126.75" cy="63.3298206" rx="5.75" ry="5.75"></ellipse>
                <ellipse id="Oval-13" fill="#53B475" sketch:type="MSShapeGroup" mask="url(#mask-2)" cx="355.75" cy="115.329821" rx="5.75" ry="5.75"></ellipse>
            </g>
            <path d="M98.1358588,173.524745 C89.0890129,178.001889 78.8990215,180.518178 68.1213192,180.518178 C30.6990076,180.518178 0.362230075,150.181401 0.362230075,112.759089 C0.362230075,75.3367775 30.6990076,45 68.1213192,45 C105.543631,45 135.880408,75.3367775 135.880408,112.759089 C135.880408,133.463143 126.594615,151.998383 111.960529,164.427311 C112.595868,170.42938 113.932407,178.136244 116.744032,184 C113.111691,184 104.591268,178.279846 98.1358588,173.524745 Z" id="Oval-202" fill="#53B475" sketch:type="MSShapeGroup"></path>
            <path d="M13.224,104.008 L29.408,104.008 L29.408,107.032 L23.052,107.032 L23.052,124 L19.552,124 L19.552,107.032 L13.224,107.032 L13.224,104.008 Z M31.284,104.008 L34.476,104.008 L34.476,111.428 L34.532,111.428 C34.924002,110.774663 35.5073295,110.228669 36.282,109.79 C37.0566705,109.351331 37.9199952,109.132 38.872,109.132 C40.4586746,109.132 41.7093288,109.542663 42.624,110.364 C43.5386712,111.185337 43.996,112.417325 43.996,114.06 L43.996,124 L40.804,124 L40.804,114.9 C40.7666665,113.761328 40.5240022,112.935336 40.076,112.422 C39.6279978,111.908664 38.9280048,111.652 37.976,111.652 C37.434664,111.652 36.9493355,111.749999 36.52,111.946 C36.0906645,112.142001 35.7266682,112.412665 35.428,112.758 C35.1293318,113.103335 34.8960008,113.509331 34.728,113.976 C34.5599992,114.442669 34.476,114.937331 34.476,115.46 L34.476,124 L31.284,124 L31.284,104.008 Z M59.48,120.78 C59.48,121.172002 59.5313328,121.451999 59.634,121.62 C59.7366672,121.788001 59.9373318,121.872 60.236,121.872 L60.572,121.872 C60.7026673,121.872 60.8519992,121.853334 61.02,121.816 L61.02,124.028 C60.9079994,124.065334 60.7633342,124.107333 60.586,124.154 C60.4086658,124.200667 60.2266676,124.242666 60.04,124.28 C59.8533324,124.317334 59.6666676,124.345333 59.48,124.364 C59.2933324,124.382667 59.1346673,124.392 59.004,124.392 C58.3506634,124.392 57.8093355,124.261335 57.38,124 C56.9506645,123.738665 56.6706673,123.281337 56.54,122.628 C55.9053302,123.244003 55.1260046,123.691999 54.202,123.972 C53.2779954,124.252001 52.386671,124.392 51.528,124.392 C50.8746634,124.392 50.2493363,124.303334 49.652,124.126 C49.0546637,123.948666 48.5273356,123.687335 48.07,123.342 C47.6126644,122.996665 47.248668,122.558003 46.978,122.026 C46.707332,121.493997 46.572,120.873337 46.572,120.164 C46.572,119.267996 46.7353317,118.540003 47.062,117.98 C47.3886683,117.419997 47.8179973,116.981335 48.35,116.664 C48.8820027,116.346665 49.47933,116.118001 50.142,115.978 C50.80467,115.837999 51.4719966,115.730667 52.144,115.656 C52.7226696,115.543999 53.2733307,115.464667 53.796,115.418 C54.3186693,115.371333 54.7806647,115.292001 55.182,115.18 C55.5833353,115.067999 55.9006655,114.895335 56.134,114.662 C56.3673345,114.428666 56.484,114.078669 56.484,113.612 C56.484,113.201331 56.386001,112.865335 56.19,112.604 C55.993999,112.342665 55.7513348,112.142001 55.462,112.002 C55.1726652,111.861999 54.8506684,111.768667 54.496,111.722 C54.1413316,111.675333 53.8053349,111.652 53.488,111.652 C52.5919955,111.652 51.8546696,111.838665 51.276,112.212 C50.6973304,112.585335 50.370667,113.163996 50.296,113.948 L47.104,113.948 C47.1600003,113.014662 47.383998,112.240003 47.776,111.624 C48.168002,111.007997 48.6673303,110.513335 49.274,110.14 C49.8806697,109.766665 50.5666628,109.505334 51.332,109.356 C52.0973372,109.206666 52.8813293,109.132 53.684,109.132 C54.3933369,109.132 55.0933299,109.206666 55.784,109.356 C56.4746701,109.505334 57.0953306,109.747998 57.646,110.084 C58.1966694,110.420002 58.6399983,110.853997 58.976,111.386 C59.3120017,111.918003 59.48,112.566663 59.48,113.332 L59.48,120.78 Z M56.288,116.748 C55.8026642,117.065335 55.2053369,117.256666 54.496,117.322 C53.7866631,117.387334 53.0773369,117.485333 52.368,117.616 C52.0319983,117.672 51.7053349,117.751333 51.388,117.854 C51.0706651,117.956667 50.7906679,118.096666 50.548,118.274 C50.3053321,118.451334 50.1140007,118.684665 49.974,118.974 C49.8339993,119.263335 49.764,119.613331 49.764,120.024 C49.764,120.378668 49.8666656,120.677332 50.072,120.92 C50.2773344,121.162668 50.5246652,121.353999 50.814,121.494 C51.1033348,121.634001 51.4206649,121.732 51.766,121.788 C52.1113351,121.844 52.4239986,121.872 52.704,121.872 C53.0586684,121.872 53.4413313,121.825334 53.852,121.732 C54.2626687,121.638666 54.6499982,121.480001 55.014,121.256 C55.3780018,121.031999 55.6813321,120.747335 55.924,120.402 C56.1666679,120.056665 56.288,119.632003 56.288,119.128 L56.288,116.748 Z M62.924,109.524 L65.948,109.524 L65.948,111.652 L66.004,111.708 C66.4893358,110.905329 67.1239961,110.275336 67.908,109.818 C68.6920039,109.360664 69.5599952,109.132 70.512,109.132 C72.0986746,109.132 73.3493288,109.542663 74.264,110.364 C75.1786712,111.185337 75.636,112.417325 75.636,114.06 L75.636,124 L72.444,124 L72.444,114.9 C72.4066665,113.761328 72.1640022,112.935336 71.716,112.422 C71.2679978,111.908664 70.5680048,111.652 69.616,111.652 C69.074664,111.652 68.5893355,111.749999 68.16,111.946 C67.7306645,112.142001 67.3666682,112.412665 67.068,112.758 C66.7693318,113.103335 66.5360008,113.509331 66.368,113.976 C66.1999992,114.442669 66.116,114.937331 66.116,115.46 L66.116,124 L62.924,124 L62.924,109.524 Z M79.08,104.008 L82.272,104.008 L82.272,115.376 L88.04,109.524 L91.96,109.524 L86.416,114.844 L92.492,124 L88.6,124 L84.176,116.972 L82.272,118.82 L82.272,124 L79.08,124 L79.08,104.008 Z M96.44,119.352 C96.5333338,120.285338 96.8879969,120.938665 97.504,121.312 C98.1200031,121.685335 98.857329,121.872 99.716,121.872 C100.014668,121.872 100.355331,121.848667 100.738,121.802 C101.120669,121.755333 101.479998,121.666667 101.816,121.536 C102.152002,121.405333 102.427332,121.214001 102.642,120.962 C102.856668,120.709999 102.954667,120.378669 102.936,119.968 C102.917333,119.557331 102.768001,119.221335 102.488,118.96 C102.207999,118.698665 101.848669,118.488667 101.41,118.33 C100.971331,118.171333 100.472003,118.036001 99.912,117.924 C99.3519972,117.811999 98.7826696,117.690667 98.204,117.56 C97.6066637,117.429333 97.0326694,117.270668 96.482,117.084 C95.9313306,116.897332 95.4366689,116.645335 94.998,116.328 C94.5593311,116.010665 94.2093346,115.604669 93.948,115.11 C93.6866654,114.615331 93.556,114.004004 93.556,113.276 C93.556,112.491996 93.7473314,111.834003 94.13,111.302 C94.5126686,110.769997 94.9979971,110.340668 95.586,110.014 C96.1740029,109.687332 96.8273297,109.458667 97.546,109.328 C98.2646703,109.197333 98.9506634,109.132 99.604,109.132 C100.35067,109.132 101.064663,109.211333 101.746,109.37 C102.427337,109.528667 103.043331,109.785332 103.594,110.14 C104.144669,110.494668 104.601998,110.956664 104.966,111.526 C105.330002,112.095336 105.558666,112.781329 105.652,113.584 L102.32,113.584 C102.170666,112.818663 101.820669,112.305335 101.27,112.044 C100.719331,111.782665 100.089337,111.652 99.38,111.652 C99.1559989,111.652 98.8900015,111.670666 98.582,111.708 C98.2739985,111.745334 97.984668,111.815333 97.714,111.918 C97.443332,112.020667 97.2146676,112.169999 97.028,112.366 C96.8413324,112.562001 96.748,112.818665 96.748,113.136 C96.748,113.528002 96.883332,113.845332 97.154,114.088 C97.424668,114.330668 97.7793311,114.531333 98.218,114.69 C98.6566689,114.848667 99.1559972,114.983999 99.716,115.096 C100.276003,115.208001 100.854664,115.329333 101.452,115.46 C102.03067,115.590667 102.599997,115.749332 103.16,115.936 C103.720003,116.122668 104.219331,116.374665 104.658,116.692 C105.096669,117.009335 105.451332,117.410664 105.722,117.896 C105.992668,118.381336 106.128,118.978663 106.128,119.688 C106.128,120.546671 105.932002,121.274664 105.54,121.872 C105.147998,122.469336 104.639336,122.954665 104.014,123.328 C103.388664,123.701335 102.693337,123.971999 101.928,124.14 C101.162663,124.308001 100.40667,124.392 99.66,124.392 C98.7453288,124.392 97.9006705,124.289334 97.126,124.084 C96.3513295,123.878666 95.6793362,123.566002 95.11,123.146 C94.5406638,122.725998 94.0926683,122.203336 93.766,121.578 C93.4393317,120.952664 93.2666668,120.210671 93.248,119.352 L96.44,119.352 Z M116.684,120.5 L120.436,120.5 L120.436,124 L116.684,124 L116.684,120.5 Z M116.824,104.008 L120.324,104.008 L120.324,109.776 L119.4,118.428 L117.748,118.428 L116.824,109.776 L116.824,104.008 Z" id="Thanks-!" fill="#F7F7F7" sketch:type="MSShapeGroup" transform="translate(67.838000, 114.200000) rotate(-12.000000) translate(-67.838000, -114.200000) "></path>
        </g>
    </g>
</svg>